<svg width="1440" height="692" viewBox="0 0 1440 692" fill="none" xmlns="http://www.w3.org/2000/svg">
<mask id="mask0_253_79659" style="mask-type:alpha" maskUnits="userSpaceOnUse" x="0" y="0" width="1440" height="692">
<rect width="1440" height="692" transform="matrix(1 0 0 -1 0 692)" fill="white"/>
</mask>
<g mask="url(#mask0_253_79659)">
<path d="M653.14 152.02C665.761 127.459 695.904 117.781 720.465 130.402L1998.45 787.144C2023.01 799.766 2032.69 829.908 2020.07 854.469L1546.49 1776.03C1533.87 1800.59 1503.93 1810.37 1479.37 1797.75C1365.5 1739.27 1056.31 1580.44 840.649 1469.51C625.491 1358.84 315.162 1199.43 201.006 1140.79C176.439 1128.17 166.947 1098.13 179.57 1073.56L653.14 152.02Z" fill="#BAA3FF"/>
<path d="M273.14 145.02C285.761 120.459 315.904 110.781 340.465 123.402L1618.45 780.144C1643.01 792.766 1652.69 822.908 1640.07 847.469L1166.49 1769.03C1153.87 1793.59 1123.93 1803.37 1099.37 1790.75C985.502 1732.27 676.309 1573.44 460.649 1462.51C245.491 1351.84 -64.8379 1192.43 -178.994 1133.79C-203.561 1121.17 -213.053 1091.13 -200.43 1066.56L273.14 145.02Z" fill="#BAA3FF"/>
</g>
</svg>
