<svg width="425" height="288" viewBox="0 0 425 288" fill="none" xmlns="http://www.w3.org/2000/svg">
<path d="M420 279.988H0V-0.00830078H420V279.988Z" fill="#F0ECFF"/>
<path d="M424.728 288H0V5H424.728V288Z" fill="#F0ECFF"/>
<path d="M389.641 240.259C386.607 249.822 379.878 258.088 370.977 264.915C343.009 286.388 293.627 293.616 270.264 282.166C246.334 270.446 226.701 273.488 166.552 284.678C123.273 292.732 73.2642 286.14 47.0913 264.915C36.8913 256.649 30.3156 246.155 29.1587 233.431C26.6913 206.358 43.1365 190.616 57.6927 181.878C63.749 177.999 70.6434 174.756 78.1636 172.398C111.668 161.915 38.3198 122.519 59.5698 54.198C77.6913 -4.01747 145.762 -8.98176 181.663 30.9213C199.572 50.8374 234.965 79.3025 299.53 51.8279C357.908 26.9946 392.498 87.5331 369.997 132.943C347.496 178.353 369.997 181.171 386.867 210.273C393.832 222.288 393.006 232.465 389.641 240.259Z" fill="#E6DEFF"/>
<path d="M370.977 264.915C343.01 286.388 293.627 293.616 270.264 282.166C246.334 270.445 226.701 273.488 166.552 284.678C123.273 292.732 73.2645 286.14 47.0916 264.915H370.977Z" fill="#7951F9"/>
<path d="M318.702 248.006C318.442 248.006 318.242 247.806 318.23 247.558C318.218 247.298 318.419 247.074 318.678 247.074C318.69 247.063 319.942 247.015 321.252 246.756C323.412 246.332 323.967 245.718 324.109 245.4C324.203 245.164 324.487 245.046 324.723 245.152C324.959 245.259 325.065 245.53 324.971 245.766C324.121 247.735 319.269 247.982 318.714 248.006C318.706 248.006 318.702 248.006 318.702 248.006Z" fill="#F5927E"/>
<path d="M370.103 193.469L312.941 175.487L325.065 137.046L382.228 155.029L370.103 193.469Z" fill="#82234F"/>
<path d="M307.51 182.433L304.429 181.454C299.813 180.003 297.83 173.247 300.014 166.396L309.305 137.07C311.489 130.207 316.99 125.832 321.606 127.295L324.687 128.273C326.364 128.804 327.084 131.245 326.293 133.745L311.973 178.883C311.182 181.371 309.186 182.963 307.51 182.433Z" fill="#98394F"/>
<path d="M301.478 179.461C299.081 176.631 298.373 171.549 300.002 166.396L309.305 137.082C310.934 131.929 314.44 128.179 318.041 127.247L301.478 179.461Z" fill="#B6594F"/>
<path d="M368.97 202.007L372.087 202.985C376.739 204.436 382.275 200.002 384.448 193.08L393.727 163.507C395.887 156.585 393.88 149.793 389.217 148.343L386.112 147.364C384.424 146.833 382.405 148.449 381.626 150.96L367.341 196.5C366.55 199.011 367.282 201.476 368.97 202.007Z" fill="#98394F"/>
<path d="M375.676 203.032C379.3 202.077 382.818 198.28 384.448 193.092L393.715 163.519C395.344 158.33 394.624 153.201 392.192 150.359L375.676 203.032Z" fill="#B6594F"/>
<path d="M362.43 196.547L357.554 194.201C346.728 189.012 335.206 185.404 323.365 183.494L318.419 182.692L333.093 136.174L333.471 134.971L339.999 138.615C349.137 143.744 359.219 146.94 369.643 148.013L377.482 148.814L368.545 177.138L362.43 196.547Z" fill="#FFC044"/>
<path d="M362.43 196.547L357.554 194.201C346.728 189.012 335.206 185.404 323.365 183.494L318.419 182.692L333.093 136.174C333.66 136.103 333.99 136.068 333.99 136.068C333.99 136.068 336.103 162.622 345.489 169.815C352.537 175.216 363.528 176.725 368.545 177.138L362.43 196.547Z" fill="#F09522"/>
<path d="M360.387 196.524L360.352 196.512C359.372 196.205 358.841 195.168 359.148 194.189L373.657 148.166C373.964 147.187 375.003 146.645 375.982 146.951L376.018 146.963C376.998 147.27 377.541 148.307 377.234 149.286L362.713 195.309C362.406 196.288 361.367 196.83 360.387 196.524Z" fill="#B6594F"/>
<path d="M316.778 182.798L316.742 182.786C315.774 182.48 315.231 181.442 315.538 180.463L330.047 134.44C330.366 133.473 331.405 132.931 332.373 133.238L332.408 133.249C333.388 133.556 333.931 134.594 333.624 135.572L319.103 181.595C318.797 182.562 317.758 183.105 316.778 182.798Z" fill="#B6594F"/>
<path d="M328.324 258.135L339.35 207.749L331.051 206.405L313 253.442C310.379 261.272 312.634 264.019 316.92 265.363C321.229 266.708 326.01 266.106 328.324 258.135Z" fill="#82234F"/>
<path d="M344.591 209.601C344.91 208.575 343.612 207.242 341.605 206.37C346.209 202.018 349.88 195.993 348.298 189.861L346.386 189.142L336.363 185.911L334.403 185.392C329.598 189.566 329.185 196.665 330.543 202.903C328.347 202.431 326.47 202.785 326.139 203.823L326.128 203.87C325.75 205.049 327.556 206.676 330.153 207.49L339.196 210.308C341.794 211.122 344.202 210.827 344.568 209.636L344.591 209.601Z" fill="#B6594F"/>
<path d="M99.2126 264.915H206.195C214.506 264.915 221.258 258.182 221.258 249.869V35.1193C221.258 26.8062 214.506 20.0731 206.195 20.0731H99.2126C90.8897 20.0731 84.1487 26.8062 84.1487 35.1193V249.869C84.1487 258.182 90.8897 264.915 99.2126 264.915Z" fill="#3E409F"/>
<path d="M91.4448 33.8222V251.166C91.4448 258.76 97.6073 264.915 105.198 264.915H214.778C214.907 264.915 215.025 264.915 215.132 264.915C222.569 264.727 228.543 258.642 228.543 251.166V33.8222C228.543 26.2284 222.38 20.0731 214.778 20.0731H105.198C97.6073 20.0731 91.4448 26.2284 91.4448 33.8222Z" fill="#615ED1"/>
<path d="M223.112 43.3145V228.856C223.112 234.233 218.897 238.596 213.726 238.596H106.249C101.066 238.596 96.875 234.233 96.875 228.856V43.3145C96.875 37.9375 101.066 33.5746 106.249 33.5746H213.726C218.897 33.5746 223.112 37.9375 223.112 43.3145Z" fill="#C2D5FF"/>
<path d="M207.033 238.596H213.727C218.898 238.596 223.112 234.233 223.112 228.856V43.3145C223.112 37.9375 218.898 33.5746 213.727 33.5746H207.033C212.216 33.5746 216.418 37.9375 216.418 43.3145V228.856C216.418 234.233 212.216 238.596 207.033 238.596Z" fill="#C2D5FF"/>
<path d="M150.036 251.744C150.036 256.366 153.802 260.116 158.43 260.116C163.057 260.116 166.823 256.366 166.823 251.744C166.823 247.11 163.057 243.36 158.43 243.36C153.802 243.36 150.036 247.11 150.036 251.744Z" fill="#3E409F"/>
<path d="M150.449 251.744C150.449 255.73 153.683 258.961 157.686 258.961C161.676 258.961 164.911 255.73 164.911 251.744C164.911 247.747 161.676 244.516 157.686 244.516C153.683 244.516 150.449 247.747 150.449 251.744Z" fill="#615ED1"/>
<path d="M88.623 64.5277V54.9883C88.623 53.8327 87.6786 52.8893 86.5216 52.8893H84.7744V66.6266H86.5216C87.6786 66.6266 88.623 65.6833 88.623 64.5277Z" fill="#8EB0DC"/>
<path d="M86.6989 64.7046V54.8114C86.6989 53.7501 85.8371 52.8893 84.7746 52.8893C83.7121 52.8893 82.8621 53.7501 82.8621 54.8114V64.7046C82.8621 65.7659 83.7121 66.6266 84.7746 66.6266C85.8371 66.6266 86.6989 65.7659 86.6989 64.7046Z" fill="#C2D5FF"/>
<path d="M88.623 96.6598V73.1118C88.623 71.9563 87.6786 71.0129 86.5216 71.0129H84.7744V98.7587H86.5216C87.6786 98.7587 88.623 97.8154 88.623 96.6598Z" fill="#8EB0DC"/>
<path d="M86.6989 96.8367V72.935C86.6989 71.8737 85.8371 71.013 84.7746 71.013C83.7121 71.013 82.8621 71.8737 82.8621 72.935V96.8367C82.8621 97.898 83.7121 98.7588 84.7746 98.7588C85.8371 98.7588 86.6989 97.898 86.6989 96.8367Z" fill="#C2D5FF"/>
<path d="M88.623 128.78V105.244C88.623 104.077 87.6786 103.145 86.5216 103.145H84.7744V130.879H86.5216C87.6786 130.879 88.623 129.948 88.623 128.78Z" fill="#8EB0DC"/>
<path d="M86.6989 128.969V105.056C86.6989 104.006 85.8371 103.145 84.7746 103.145C83.7121 103.145 82.8621 104.006 82.8621 105.056V128.969C82.8621 130.019 83.7121 130.879 84.7746 130.879C85.8371 130.879 86.6989 130.019 86.6989 128.969Z" fill="#C2D5FF"/>
<path d="M89.0245 171.714V170.181C89.0245 169.403 88.387 168.766 87.6078 168.766C86.8287 168.766 86.1912 169.403 86.1912 170.181V171.714C86.1912 172.492 86.8287 173.129 87.6078 173.129C88.387 173.129 89.0245 172.492 89.0245 171.714Z" fill="#8491AD"/>
<path d="M86.1912 170.181V171.714C86.1912 172.492 86.8287 173.129 87.6078 173.129C87.8676 173.129 88.1037 173.058 88.3162 172.928C87.8912 172.693 87.6078 172.233 87.6078 171.714V170.181C87.6078 169.662 87.8912 169.202 88.3162 168.966C88.1037 168.837 87.8676 168.766 87.6078 168.766C86.8287 168.766 86.1912 169.403 86.1912 170.181Z" fill="white"/>
<path d="M126.295 75.2346H125.598V71.4848L128.219 70.1641V66.3908H128.927V70.6122L126.295 71.9329V75.2346Z" fill="#7AA2EF"/>
<path d="M130.167 65.7186C130.167 66.6973 129.4 67.4992 128.443 67.4992C127.475 67.4992 126.708 66.6973 126.708 65.7186C126.708 64.7281 127.475 63.9263 128.443 63.9263C129.4 63.9263 130.167 64.7281 130.167 65.7186Z" fill="#7AA2EF"/>
<path d="M136.79 58.2664C136.79 59.2451 136.011 60.047 135.055 60.047C134.099 60.047 133.319 59.2451 133.319 58.2664C133.319 57.2759 134.099 56.4741 135.055 56.4741C136.011 56.4741 136.79 57.2759 136.79 58.2664Z" fill="#7AA2EF"/>
<path d="M132.091 77.1684H131.395V71.0485L134.7 69.5038V58.2663H135.397V69.9637L132.091 71.5201V77.1684Z" fill="#7AA2EF"/>
<path d="M120.711 75.0459H120.002V71.7443L117.382 70.4236V66.2022H118.078V69.9755L120.711 71.2962V75.0459Z" fill="#7AA2EF"/>
<path d="M116.13 65.53C116.13 66.5087 116.909 67.3106 117.865 67.3106C118.822 67.3106 119.601 66.5087 119.601 65.53C119.601 64.5395 118.822 63.7377 117.865 63.7377C116.909 63.7377 116.13 64.5395 116.13 65.53Z" fill="#7AA2EF"/>
<path d="M109.519 59.1625C109.519 60.1412 110.286 60.9431 111.254 60.9431C112.211 60.9431 112.978 60.1412 112.978 59.1625C112.978 58.172 112.211 57.3702 111.254 57.3702C110.286 57.3702 109.519 58.172 109.519 59.1625Z" fill="#7AA2EF"/>
<path d="M114.914 78.0527H114.206V72.4045L110.9 70.8598V59.1624H111.597V70.3881L114.914 71.9446V78.0527Z" fill="#7AA2EF"/>
<path d="M141.099 81.0831H135.055V80.3638H140.403V70.3526H141.099V81.0831Z" fill="#7AA2EF"/>
<path d="M142.492 70.3527C142.492 71.3314 141.713 72.1333 140.757 72.1333C139.8 72.1333 139.021 71.3314 139.021 70.3527C139.021 69.3622 139.8 68.5604 140.757 68.5604C141.713 68.5604 142.492 69.3622 142.492 70.3527Z" fill="#7AA2EF"/>
<path d="M111.88 81.8025H105.836V71.0602H106.532V81.0832H111.88V81.8025Z" fill="#7AA2EF"/>
<path d="M104.455 71.0603C104.455 72.0508 105.222 72.8527 106.178 72.8527C107.134 72.8527 107.914 72.0508 107.914 71.0603C107.914 70.0816 107.134 69.2798 106.178 69.2798C105.222 69.2798 104.455 70.0816 104.455 71.0603Z" fill="#7AA2EF"/>
<path d="M126.295 94.797H125.598V98.5467L128.219 99.8674V103.641H128.927V99.4193L126.295 98.0987V94.797Z" fill="#7AA2EF"/>
<path d="M130.167 104.313C130.167 103.334 129.4 102.532 128.443 102.532C127.475 102.532 126.708 103.334 126.708 104.313C126.708 105.303 127.475 106.105 128.443 106.105C129.4 106.105 130.167 105.303 130.167 104.313Z" fill="#7AA2EF"/>
<path d="M132.091 92.8749H131.395V98.983L134.7 100.539V111.765H135.397V100.068L132.091 98.5231V92.8749Z" fill="#7AA2EF"/>
<path d="M120.711 94.9856H120.002V98.2872L117.382 99.6079V103.829H118.078V100.056L120.711 98.7353V94.9856Z" fill="#7AA2EF"/>
<path d="M116.13 104.513C116.13 103.523 116.909 102.721 117.865 102.721C118.822 102.721 119.601 103.523 119.601 104.513C119.601 105.492 118.822 106.294 117.865 106.294C116.909 106.294 116.13 105.492 116.13 104.513Z" fill="#7AA2EF"/>
<path d="M109.519 110.881C109.519 109.89 110.286 109.088 111.254 109.088C112.211 109.088 112.978 109.89 112.978 110.881C112.978 111.859 112.211 112.661 111.254 112.661C110.286 112.661 109.519 111.859 109.519 110.881Z" fill="#7AA2EF"/>
<path d="M114.914 91.9786H114.206V97.6268L110.9 99.1715V110.881H111.597V99.6432L114.914 98.0867V91.9786Z" fill="#7AA2EF"/>
<path d="M141.099 88.9484H135.055V89.6677H140.403V99.6906H141.099V88.9484Z" fill="#7AA2EF"/>
<path d="M142.492 99.6906C142.492 98.7001 141.713 97.8983 140.757 97.8983C139.8 97.8983 139.021 98.7001 139.021 99.6906C139.021 100.669 139.8 101.471 140.757 101.471C141.713 101.471 142.492 100.669 142.492 99.6906Z" fill="#7AA2EF"/>
<path d="M111.88 88.229H105.836V98.9712H106.532V88.9601H111.88V88.229Z" fill="#7AA2EF"/>
<path d="M104.455 98.9711C104.455 97.9806 105.222 97.1788 106.178 97.1788C107.134 97.1788 107.914 97.9806 107.914 98.9711C107.914 99.9499 107.134 100.752 106.178 100.752C105.222 100.752 104.455 99.9499 104.455 98.9711Z" fill="#7AA2EF"/>
<path d="M137.05 112.425C137.05 111.293 136.152 110.374 135.054 110.374C133.945 110.374 133.059 111.293 133.059 112.425C133.059 113.557 133.945 114.477 135.054 114.477C136.152 114.477 137.05 113.557 137.05 112.425Z" fill="#7AA2EF"/>
<path d="M122.966 61.3204L122.883 92.9929L136.802 83.6421L122.966 61.3204Z" fill="#F4B81D"/>
<path d="M122.918 78.3358L122.883 92.9929L136.802 83.6421L122.918 78.3358Z" fill="#F58023"/>
<path d="M122.966 61.3204L122.883 92.9929L109 83.5713L122.966 61.3204Z" fill="#FFFF37"/>
<path d="M122.919 78.3358L122.883 92.9929L109 83.5714L122.919 78.3358Z" fill="#F4A61D"/>
<path d="M122.848 105.138L137.321 85.7763L122.871 95.811L122.848 105.138Z" fill="#F58023"/>
<path d="M122.895 105.138L108.516 85.7055L122.918 95.811L122.895 105.138Z" fill="#F4A61D"/>
<path d="M223.112 43.3145V47.0407H96.875V43.3145C96.875 37.9375 101.066 33.5746 106.249 33.5746H138.041L138.466 35.9801C138.667 37.1592 139.694 38.02 140.886 38.02H177.932C179.124 38.02 180.151 37.1592 180.352 35.9801L180.777 33.5746H213.726C218.897 33.5746 223.112 37.9375 223.112 43.3145Z" fill="#7AA2EF"/>
<path d="M181.533 33.1617L181.096 35.7912C180.884 37.0765 179.821 38.0199 178.593 38.0199H140.225C138.997 38.0199 137.935 37.0765 137.722 35.7912L137.286 33.1617H181.533Z" fill="#615ED1"/>
<path d="M175.229 34.8245H150.567C149.764 34.8245 149.103 34.1759 149.103 33.3741V32.9614C149.103 32.1478 149.764 31.4992 150.567 31.4992H175.229C176.032 31.4992 176.693 32.1478 176.693 32.9614V33.3741C176.693 34.1759 176.032 34.8245 175.229 34.8245Z" fill="#3E409F"/>
<path d="M144.829 33.1382C144.829 34.1051 144.038 34.8952 143.059 34.8952C142.091 34.8952 141.3 34.1051 141.3 33.1382C141.3 32.1595 142.091 31.3695 143.059 31.3695C144.038 31.3695 144.829 32.1595 144.829 33.1382Z" fill="#3E409F"/>
<g opacity="0.6">
<path d="M115.233 42.2413H116.685V40.3075H115.233V42.2413Z" fill="white"/>
</g>
<g opacity="0.6">
<path d="M112.86 42.2413H114.312V39.6589H112.86V42.2413Z" fill="white"/>
</g>
<g opacity="0.6">
<path d="M110.499 42.2414H111.951V39.0222H110.499V42.2414Z" fill="white"/>
</g>
<g opacity="0.6">
<path d="M108.138 42.2413H109.59V38.3736H108.138V42.2413Z" fill="white"/>
</g>
<g opacity="0.6">
<path d="M206.525 41.5337H205.675V39.5998H206.525V41.5337Z" fill="white"/>
</g>
<g opacity="0.6">
<path d="M207.127 42.2413H213.974V38.8925H207.127V42.2413Z" fill="white"/>
</g>
<path d="M214.294 78.135C213.715 76.8144 214.648 75.3404 216.041 75.1282C215.427 72.6047 217.894 72.4161 217.894 72.4161C217.894 72.4161 223.03 71.6024 225.615 75.6824C227.717 79.0312 228.791 83.288 228.791 83.288L230.526 84.8799C230.526 84.8799 230.81 86.342 229.983 88.1815C228.378 91.7308 225.485 93.1105 225.084 93.3817C224.789 93.5821 223.36 92.6977 223.36 92.6977L220.197 90.2805C217.599 88.3584 217.635 86.2477 217.635 86.2477C217.635 86.2477 214.919 85.6817 213.987 84.3257C213.054 82.9696 213.916 81.7197 213.916 81.7197C212.676 79.7505 214.4 78.3591 214.4 78.3591C214.361 78.2883 214.325 78.2136 214.294 78.135Z" fill="#FABA97"/>
<path d="M224.871 79.444L217.469 73.6779C217.469 73.6779 215.344 75.3641 217.056 77.1446C218.756 78.9252 220.314 81.0359 220.314 81.0359C220.314 81.0359 218.012 83.9248 220.562 86.7313L224.871 79.444Z" fill="#FABA97"/>
<path d="M220.314 81.201C220.306 81.201 220.294 81.197 220.279 81.1892C220.078 81.142 215.403 79.8921 214.27 78.4653C214.211 78.3946 214.223 78.2884 214.293 78.2295C214.376 78.1705 214.482 78.1823 214.529 78.2531C215.604 79.5973 220.314 80.859 220.361 80.8708C220.456 80.8944 220.503 80.9887 220.479 81.0713C220.456 81.1538 220.397 81.201 220.314 81.201Z" fill="#F5927E"/>
<path d="M219.37 83.7007C219.24 83.6889 216.041 83.6181 213.81 81.8494C213.739 81.7904 213.727 81.6843 213.786 81.6135C213.845 81.5428 213.951 81.531 214.022 81.59C216.159 83.288 219.347 83.3587 219.382 83.3587C219.476 83.3587 219.547 83.4413 219.547 83.5356C219.547 83.6181 219.465 83.7007 219.37 83.7007Z" fill="#F5927E"/>
<path d="M217.634 86.4129C217.552 86.4129 217.481 86.3422 217.469 86.2596C217.457 86.1653 217.528 86.0828 217.623 86.071C218.295 86.0238 219.405 85.7998 219.559 85.4106C219.594 85.3163 219.7 85.2809 219.783 85.3045C219.866 85.3399 219.913 85.446 219.877 85.5286C219.594 86.2479 217.847 86.4011 217.646 86.4129C217.646 86.4129 217.642 86.4129 217.634 86.4129Z" fill="#F5927E"/>
<path d="M230.149 69.2795L226.69 74.7745C226.572 75.1282 226.17 75.3051 225.828 75.14L219.831 72.1567C219.429 71.9562 219.146 71.5907 219.04 71.1662C218.957 70.7889 219.016 70.388 219.217 70.0578L220.964 67.1335L230.149 69.2795Z" fill="#3B1E99"/>
<path d="M214.86 87.026L217.328 88.3349C218.26 88.8184 219.405 88.4293 219.83 87.4741C220.303 86.4247 220.775 85.3752 220.857 85.2101L225.828 75.14L219.83 72.1567L219.287 74.1967C219.075 74.9867 218.768 75.7414 218.378 76.4607L217.823 77.4866C217.398 78.2648 216.478 80.234 215.474 82.1207C215.108 82.8164 214.612 83.7008 214.14 84.5026C213.621 85.387 213.939 86.5426 214.86 87.026Z" fill="#3B1E99"/>
<path d="M219.831 72.1567L225.828 75.14L224.978 76.8616L219.831 72.1567Z" fill="#2C1E75"/>
<path d="M224.871 79.4441L217.469 73.6779C217.469 73.6779 215.344 75.3642 217.056 77.1447C218.756 78.9252 220.314 81.0359 220.314 81.0359C220.314 81.0359 218.012 83.9249 220.562 86.7313L224.871 79.4441Z" fill="#FABA97"/>
<path d="M214.423 78.4417C214.423 78.4417 212.7 79.8332 213.939 81.8024C213.939 81.8024 213.066 83.0523 213.998 84.4083C214.943 85.7644 217.658 86.3186 217.658 86.3186C217.658 86.3186 219.488 86.1889 219.736 85.5521C218.673 83.1938 220.338 81.1067 220.338 81.1067C220.338 81.1067 218.78 79.0078 217.068 77.2272C216.36 76.4843 216.312 75.765 216.501 75.1637L216.348 75.1755C214.801 75.2108 213.691 76.8027 214.317 78.2177C214.349 78.2885 214.384 78.3631 214.423 78.4417Z" fill="#FABA97"/>
<path d="M220.338 81.2836C220.323 81.2836 220.307 81.2797 220.291 81.2718C220.102 81.2247 215.427 79.9748 214.294 78.548C214.235 78.4772 214.247 78.3711 214.318 78.3121C214.388 78.2532 214.495 78.265 214.554 78.3357C215.616 79.68 220.338 80.9299 220.386 80.9535C220.468 80.977 220.527 81.0596 220.504 81.1539C220.48 81.2247 220.409 81.2836 220.338 81.2836Z" fill="#F5927E"/>
<path d="M219.394 83.7717C219.252 83.7717 216.053 83.7009 213.833 81.9322C213.763 81.8732 213.751 81.7671 213.81 81.6963C213.869 81.6256 213.975 81.6138 214.046 81.6728C216.183 83.3708 219.37 83.4415 219.394 83.4415C219.488 83.4415 219.571 83.5123 219.559 83.6066C219.559 83.7009 219.488 83.7717 219.394 83.7717Z" fill="#F5927E"/>
<path fill-rule="evenodd" clip-rule="evenodd" d="M217.658 86.4955L217.635 86.4837C217.529 86.4601 214.837 85.9059 213.869 84.5145C213.031 83.2999 213.55 82.1443 213.739 81.8142C212.712 80.0808 213.845 78.7719 214.211 78.4182C214.188 78.371 214.168 78.3278 214.152 78.2885C213.845 77.5928 213.904 76.8145 214.329 76.1542C214.766 75.4585 215.51 75.034 216.324 75.0104L216.726 74.9868L216.655 75.2226C216.442 75.883 216.62 76.5197 217.186 77.1093C218.886 78.8663 220.456 80.977 220.48 81.0006L220.551 81.1067L220.468 81.2128C220.456 81.2246 218.886 83.2528 219.901 85.4696L219.937 85.5403L219.913 85.5993C219.63 86.3186 217.883 86.4719 217.682 86.4955H217.658ZM214.518 78.5833C214.459 78.6304 212.936 79.9039 214.081 81.7198L214.14 81.8142L214.081 81.9085C214.046 81.9557 213.29 83.0759 214.152 84.314C214.99 85.5403 217.422 86.0946 217.682 86.1535C218.32 86.0946 219.335 85.8941 219.571 85.5403C218.662 83.4532 219.807 81.5666 220.126 81.1067C219.795 80.6704 218.414 78.8663 216.938 77.3451C216.36 76.732 216.135 76.048 216.265 75.3523C215.592 75.3877 214.979 75.7533 214.613 76.3311C214.258 76.8971 214.199 77.5574 214.459 78.1588C214.491 78.2295 214.526 78.3003 214.565 78.371L214.636 78.4889L214.518 78.5833Z" fill="#F5927E"/>
<path d="M220.563 86.8964C220.527 86.8964 220.48 86.8728 220.445 86.8374C218.095 84.2668 219.724 81.5901 220.114 81.0359C219.784 80.5996 218.402 78.7955 216.927 77.2626C216.419 76.7319 216.183 76.1542 216.23 75.541C216.301 74.3972 217.328 73.5718 217.363 73.5482L217.47 73.4539L224.14 78.6776L225.769 80.5642C225.84 80.635 225.828 80.7411 225.757 80.8119C225.686 80.8708 225.58 80.859 225.521 80.7883L223.892 78.9134L217.481 73.8902C217.234 74.126 216.62 74.7745 216.561 75.5646C216.525 76.0834 216.738 76.5669 217.174 77.0267C218.863 78.7955 220.445 80.9062 220.456 80.9298L220.527 81.0359L220.456 81.142C220.362 81.2482 218.261 83.9484 220.693 86.6134C220.752 86.6841 220.752 86.7902 220.681 86.8492C220.645 86.8846 220.61 86.8964 220.563 86.8964Z" fill="#F5927E"/>
<path d="M225.084 93.3817C225.486 93.1105 228.378 91.7309 229.984 88.1816C230.81 86.3421 230.527 84.8799 230.527 84.8799L228.791 83.2881C228.791 83.2881 229.193 84.6441 228.555 87.1911C227.929 89.7145 225.12 93.3228 225.084 93.3817Z" fill="#F7A18A"/>
<path d="M192.807 63.2656C197.294 62.2868 202.748 56.5325 206.301 48.4906C209.843 40.4722 210.445 32.5836 208.178 28.6098C208.021 28.3268 207.848 28.0635 207.659 27.8198C207.139 27.1712 206.526 26.6642 205.794 26.3458L210.008 28.1971C214.766 30.296 214.99 40.2128 210.504 50.3419C206.03 60.4709 198.533 66.9799 193.776 64.881L189.573 63.0179C190.293 63.3481 191.084 63.466 191.922 63.3953C192.213 63.3795 192.508 63.3363 192.807 63.2656Z" fill="#3B1E99"/>
<path d="M189.065 40.8852C186.668 46.2976 185.618 51.651 185.889 55.7899C186.125 59.3863 187.353 62.0395 189.573 63.0182C192.819 64.4568 197.352 61.8744 201.319 56.8629C203.161 54.54 204.884 51.6982 206.301 48.4908C207.812 45.083 208.78 41.6988 209.229 38.633C210.114 32.5721 208.957 27.7375 205.793 26.3461C203.48 25.3202 200.528 26.3343 197.577 28.8105C194.46 31.4283 191.367 35.6733 189.065 40.8852Z" fill="#FFC044"/>
<path d="M208.226 43.2081C207.73 44.9297 207.092 46.7103 206.301 48.4908C205.51 50.2596 204.637 51.934 203.692 53.4669L192.689 47.4531C193.551 47.8305 194.814 46.9579 195.806 45.425C195.995 45.1184 196.172 44.8 196.337 44.4581C196.385 44.3559 196.432 44.2537 196.479 44.1515C197.494 41.8521 197.447 39.5999 196.361 39.1282L206.101 42.4771L208.226 43.2081Z" fill="#F5A014"/>
<path d="M208.226 43.208C207.73 44.9296 207.092 46.7102 206.301 48.4907C205.51 50.2594 204.637 51.9339 203.692 53.4668L192.689 47.453C193.551 47.8304 194.814 46.9578 195.806 45.4249C195.995 45.1183 196.172 44.7999 196.337 44.4579C198.096 45.2834 200.021 46.038 201.591 46.3564C204.389 46.8988 205.605 44.2575 206.101 42.4769L208.226 43.208Z" fill="#F58023"/>
<path d="M192.571 42.4297C191.556 44.7291 191.603 46.9695 192.689 47.453C193.764 47.9246 195.464 46.4507 196.479 44.1513C197.494 41.8519 197.447 39.5997 196.361 39.128C195.287 38.6564 193.587 40.1303 192.571 42.4297Z" fill="#FFD909"/>
<path d="M235.001 72.4867C234.804 72.5339 234.611 72.5614 234.422 72.5693L241.364 72.475C243.229 72.64 245.779 70.1992 247.373 66.6145C248.164 64.8104 248.577 63.0298 248.636 61.5441C248.683 60.0583 248.353 58.8556 247.668 58.2306L243.064 53.0423C243.119 53.1052 243.174 53.172 243.229 53.2427C243.253 53.282 243.276 53.3213 243.3 53.3607C243.434 53.565 243.552 53.7891 243.654 54.0328C243.67 54.0878 243.686 54.1389 243.701 54.1861C243.788 54.4062 243.859 54.6381 243.914 54.8818C243.945 54.9997 243.969 55.1176 243.985 55.2355C244.024 55.4163 244.052 55.6011 244.067 55.7897C244.075 55.8526 244.083 55.9195 244.091 55.9902C244.099 56.0531 244.107 56.116 244.114 56.1789C244.114 56.2496 244.118 56.3204 244.126 56.3911C244.126 56.4619 244.126 56.5287 244.126 56.5916C244.134 56.796 244.138 57.0082 244.138 57.2283C244.13 57.3305 244.126 57.4366 244.126 57.5467C244.118 57.6725 244.111 57.7943 244.103 57.9122C244.095 57.983 244.087 58.0498 244.079 58.1127C244.063 58.3407 244.04 58.5726 244.008 58.8084C243.784 60.5418 243.241 62.4638 242.379 64.4095C241.517 66.3433 240.455 68.0413 239.333 69.3855C239.255 69.4799 239.172 69.5703 239.085 69.6567C239.014 69.7432 238.944 69.8258 238.873 69.9044C238.857 69.9201 238.845 69.9319 238.837 69.9398C238.798 69.9869 238.755 70.0302 238.708 70.0695C238.629 70.1559 238.55 70.2385 238.471 70.3171C238.401 70.3878 238.326 70.4625 238.247 70.5411C238.137 70.6433 238.031 70.7416 237.928 70.8359C237.826 70.9224 237.72 71.0089 237.61 71.0953C237.295 71.3547 236.984 71.5827 236.677 71.7792C236.622 71.8107 236.571 71.8421 236.524 71.8736C236.468 71.8972 236.417 71.9247 236.37 71.9561C235.945 72.1841 235.536 72.3492 235.142 72.4514C235.095 72.4671 235.048 72.4789 235.001 72.4867Z" fill="#C00A41"/>
<path d="M232.521 70.8831C234.823 69.9751 237.456 67.0154 239.215 63.018C240.88 59.2683 241.352 55.5775 240.691 53.2191C240.584 52.83 240.443 52.4763 240.266 52.1697C239.935 51.5801 239.498 51.1438 238.943 50.908L242.096 52.2994C244.705 53.4432 244.823 58.8674 242.379 64.4094C239.923 69.9515 235.827 73.5008 233.23 72.357L230.066 70.9656C230.621 71.2132 231.246 71.2368 231.907 71.0835C232.104 71.0364 232.309 70.9695 232.521 70.8831Z" fill="#3B1E99"/>
<path d="M199.324 64.2444L205.439 64.8812L208.155 65.1524C209.138 65.2546 210.122 65.3764 211.106 65.5179C211.987 65.6437 212.865 65.7891 213.739 65.9542C215.407 66.253 217.06 66.6146 218.697 67.0391C222.581 68.0296 226.382 69.3384 230.066 70.9657C230.621 71.2133 231.246 71.2369 231.907 71.0836C232.104 71.0364 232.309 70.9735 232.521 70.8949C234.823 69.9752 237.456 67.0155 239.215 63.0181C239.49 62.4049 239.73 61.7996 239.935 61.2022C240.998 58.101 241.246 55.1884 240.691 53.2192C240.584 52.8301 240.443 52.4763 240.266 52.1698C239.935 51.5802 239.498 51.1439 238.943 50.9081C235.461 49.3633 232.12 47.5592 228.932 45.5075C228.743 45.3895 228.558 45.2716 228.377 45.1537C226.961 44.2261 225.58 43.2474 224.234 42.2176C223.525 41.6752 222.829 41.1249 222.144 40.5668C221.381 39.9379 220.625 39.2893 219.877 38.6211L217.859 36.817L213.278 32.7253H213.266C214.376 37.041 213.467 43.6444 210.504 50.3421C210.079 51.3168 209.626 52.2523 209.146 53.1485C206.313 58.4665 202.7 62.4639 199.336 64.2444H199.324Z" fill="#E74555"/>
<path d="M199.324 64.2443L205.439 64.8811L208.155 65.1523C209.138 65.2545 210.122 65.3763 211.106 65.5178C211.987 65.6436 212.865 65.7891 213.739 65.9541C215.407 66.2529 217.06 66.6145 218.697 67.039C222.581 68.0295 226.382 69.3383 230.066 70.9656C230.621 71.2132 231.246 71.2368 231.907 71.0835C232.104 71.0363 232.309 70.9735 232.521 70.8948C234.823 69.9751 237.456 67.0154 239.215 63.018C239.49 62.4048 239.73 61.7995 239.935 61.2021C237.893 62.4166 233.938 64.1736 228.673 63.6194C223.596 63.0888 214.766 57.2401 209.146 53.1484C206.313 58.4664 202.7 62.4638 199.336 64.2443H199.324Z" fill="#C00A41"/>
<path d="M235.508 54.5989C235.508 54.5989 233.997 55.8842 230.03 54.5399C225.131 52.8773 215.533 45.142 216.324 41.3097C217.127 37.4774 223.348 48.137 229.404 49.5756C235.472 51.026 236.818 52.4174 235.508 54.5989Z" fill="#FF6172"/>
<path d="M197.577 28.8105C201.047 29.176 204.365 30.9094 206.608 33.5979C207.836 35.0601 208.721 36.7934 209.229 38.6329C210.114 32.572 208.957 27.7374 205.793 26.346C203.479 25.3201 200.528 26.3342 197.577 28.8105Z" fill="#F5A823"/>
<path d="M196.349 32.5013L189.726 25.3202L186.385 27.3366L184.024 22.2662L180.825 26.3815L185.453 30.5086L188.64 28.4686L196.349 32.5013Z" fill="white"/>
<path d="M192.843 53.1838L182.029 54.3865L182.395 58.2778L176.799 58.207L179.125 62.8647L184.851 60.4828L184.402 56.7331L192.843 53.1838Z" fill="white"/>
<path d="M183.894 41.3214L176.61 37.5717L174.91 40.2602L171.345 37.4302L170.519 41.5808L175.394 42.9015L176.964 40.2602L183.894 41.3214Z" fill="white"/>
<path d="M266.817 263.217L267.017 266.071L240.656 264.337L241.364 262.097L266.817 263.217Z" fill="#529297"/>
<path d="M266.817 263.217C266.817 263.217 258.836 263.276 251.576 262.993C247.373 262.84 243.772 262.639 241.742 262.18C244.197 261.566 246.476 260.682 248.884 259.727C255.106 257.251 257.431 255.352 257.124 250.376C256.876 246.508 256.062 240.672 256.062 240.672L264.951 240.129C264.951 240.129 265.188 246.178 265.329 250.907C265.424 254.102 266.427 262.062 266.817 263.217Z" fill="#63AEB4"/>
<path d="M265.329 250.907L257.124 250.364C256.876 246.508 256.062 240.672 256.062 240.672L264.951 240.129C264.951 240.129 265.187 246.166 265.329 250.907Z" fill="#FABA97"/>
<path fill-rule="evenodd" clip-rule="evenodd" d="M261.87 251.626C261.422 252.51 260.548 253.218 259.734 253.737C259.332 253.996 258.895 254.22 258.435 254.397C258.081 254.527 257.68 254.692 257.278 254.739C257.491 254.841 257.699 254.951 257.904 255.069C258.234 255.258 258.557 255.462 258.872 255.682C259.037 255.8 259.32 256.048 259.096 256.248C258.895 256.425 258.671 256.237 258.506 256.119C257.88 255.671 257.219 255.281 256.534 254.963C256.404 254.892 256.322 254.774 256.369 254.633C256.369 254.609 256.381 254.598 256.393 254.586C256.393 254.578 256.393 254.57 256.393 254.562C255.484 254.161 254.622 253.666 253.866 253.041C253.489 252.734 253.146 252.404 252.816 252.051C252.509 251.72 252.202 251.319 252.154 250.86C252.084 250.022 252.945 249.539 253.689 249.728C254.138 249.834 254.516 250.152 254.834 250.482C255.177 250.848 255.495 251.249 255.791 251.65C256.082 252.058 256.342 252.483 256.57 252.923C256.7 253.159 256.806 253.395 256.9 253.631C256.924 253.701 256.948 253.772 256.959 253.843C257.408 252.959 257.951 252.133 258.577 251.367C258.919 250.954 259.273 250.541 259.663 250.187C260.017 249.869 260.454 249.633 260.938 249.645C261.386 249.657 261.8 249.904 261.965 250.317C262.142 250.753 262.071 251.225 261.87 251.626ZM256.688 254.067C256.629 253.961 256.57 253.843 256.511 253.725C256.405 253.513 256.298 253.289 256.18 253.065C255.968 252.652 255.72 252.239 255.448 251.85C255.204 251.512 254.945 251.194 254.669 250.895C254.386 250.588 254.067 250.282 253.666 250.164C253.359 250.058 252.957 250.093 252.721 250.341C252.414 250.671 252.65 251.119 252.886 251.414C253.394 252.039 254.079 252.569 254.74 253.017C255.354 253.442 256.003 253.784 256.688 254.067ZM261.516 250.305C261.233 249.916 260.666 250.011 260.3 250.235C259.923 250.459 259.604 250.824 259.309 251.154C258.986 251.508 258.683 251.882 258.4 252.275C257.963 252.876 257.573 253.525 257.219 254.185C257.573 254.102 257.939 254.043 258.293 253.914C258.718 253.76 259.143 253.56 259.533 253.312C260.253 252.876 260.985 252.263 261.434 251.544C261.658 251.178 261.788 250.683 261.516 250.305Z" fill="#DFDFE4"/>
<path d="M258.104 257.439C257.986 257.345 257.868 257.274 257.75 257.192C257.522 257.027 257.298 256.865 257.077 256.708C256.617 256.39 256.145 256.083 255.684 255.765C255.472 255.623 255.259 255.954 255.46 256.107C255.897 256.437 256.345 256.779 256.782 257.097C257.002 257.255 257.219 257.412 257.431 257.569C257.632 257.711 257.904 258.005 258.163 257.923C258.222 257.899 258.293 257.852 258.293 257.781C258.293 257.616 258.222 257.534 258.104 257.439Z" fill="#DFDFE4"/>
<path d="M257.242 259.585C256.794 259.161 256.345 258.76 255.897 258.347C255.401 257.887 254.893 257.416 254.338 257.038C254.197 256.944 254.067 257.121 254.149 257.239C254.527 257.722 254.976 258.135 255.401 258.571C255.814 258.984 256.251 259.409 256.688 259.809C256.853 259.963 257.124 260.316 257.384 260.199C257.679 260.069 257.36 259.703 257.242 259.585Z" fill="#DFDFE4"/>
<path d="M254.421 260.364C254.122 260.026 253.819 259.684 253.512 259.338C253.174 258.961 252.831 258.587 252.485 258.218C252.343 258.053 252.119 258.265 252.237 258.43C252.78 259.161 253.335 259.869 253.89 260.588C254.02 260.753 254.173 261.024 254.433 260.953C254.539 260.93 254.598 260.824 254.598 260.729C254.61 260.576 254.515 260.47 254.421 260.364Z" fill="#DFDFE4"/>
<path d="M251.576 262.993C247.633 263.583 243.335 263.088 241.364 262.097C243.819 261.484 246.476 260.682 248.884 259.727C249.793 260.376 250.56 261.201 251.127 262.144C251.292 262.415 251.446 262.71 251.576 262.993Z" fill="#B0CFC5"/>
<path d="M262.154 259.019C262.767 259.338 263.57 259.255 264.125 258.842C265.554 257.781 264.916 255.329 263.027 255.553C261.327 255.741 260.418 258.123 262.154 259.019Z" fill="white"/>
<path d="M314.547 256.85L315.515 259.538L289.696 265.069L289.767 262.722L314.547 256.85Z" fill="#529297"/>
<path d="M314.547 256.85C314.547 256.85 306.885 259.078 299.837 260.8C295.74 261.79 292.222 262.592 290.145 262.698C292.34 261.437 294.288 259.975 296.342 258.383C301.655 254.303 303.367 251.85 301.702 247.145C300.415 243.49 298.031 238.101 298.031 238.101L306.436 235.141C306.436 235.141 308.313 240.896 309.742 245.424C310.71 248.466 313.85 255.847 314.547 256.85Z" fill="#63AEB4"/>
<path d="M309.742 245.412L301.702 247.145C300.415 243.49 298.031 238.101 298.031 238.101L306.436 235.141C306.436 235.141 308.313 240.896 309.742 245.412Z" fill="#FABA97"/>
<path fill-rule="evenodd" clip-rule="evenodd" d="M306.613 247.051C306.424 248.018 305.787 248.937 305.138 249.657C304.819 250.022 304.465 250.352 304.075 250.647C303.768 250.883 303.414 251.142 303.048 251.296C303.284 251.343 303.516 251.394 303.745 251.449C304.114 251.536 304.48 251.642 304.842 251.767C305.043 251.838 305.374 252.003 305.208 252.263C305.067 252.475 304.795 252.357 304.606 252.286C303.886 252.039 303.142 251.838 302.399 251.708C302.257 251.685 302.139 251.591 302.139 251.437C302.151 251.425 302.151 251.402 302.163 251.39C302.155 251.382 302.151 251.374 302.151 251.367C301.171 251.237 300.203 250.989 299.306 250.588C298.857 250.4 298.432 250.176 298.019 249.928C297.641 249.692 297.228 249.397 297.063 248.961C296.756 248.183 297.464 247.487 298.231 247.463C298.692 247.44 299.14 247.64 299.542 247.876C299.967 248.136 300.38 248.43 300.781 248.737C301.167 249.044 301.533 249.378 301.879 249.739C302.056 249.94 302.233 250.128 302.387 250.341C302.434 250.4 302.47 250.459 302.505 250.518C302.694 249.551 302.989 248.607 303.379 247.699C303.591 247.216 303.815 246.721 304.099 246.273C304.358 245.872 304.713 245.518 305.185 245.4C305.61 245.282 306.082 245.412 306.354 245.765C306.649 246.131 306.708 246.603 306.613 247.051ZM302.304 250.812C302.21 250.718 302.127 250.635 302.033 250.541C301.879 250.352 301.714 250.164 301.537 249.987C301.218 249.645 300.864 249.315 300.498 249.02C300.175 248.761 299.837 248.525 299.483 248.312C299.129 248.1 298.751 247.888 298.326 247.876C297.995 247.864 297.629 248.018 297.464 248.312C297.263 248.713 297.606 249.079 297.913 249.303C298.574 249.763 299.376 250.081 300.144 250.341C300.84 250.576 301.572 250.73 302.304 250.812ZM305.917 245.872C305.527 245.577 305.02 245.824 304.724 246.131C304.417 246.461 304.217 246.897 304.028 247.298C303.815 247.731 303.626 248.171 303.461 248.619C303.201 249.327 303.001 250.046 302.847 250.789C303.166 250.6 303.497 250.447 303.804 250.223C304.17 249.963 304.524 249.657 304.831 249.315C305.409 248.702 305.94 247.912 306.176 247.098C306.295 246.685 306.283 246.166 305.917 245.872Z" fill="#DFDFE4"/>
<path d="M304.583 253.666C304.453 253.607 304.311 253.571 304.181 253.524C303.914 253.43 303.65 253.34 303.39 253.253C302.871 253.064 302.328 252.899 301.796 252.722C301.548 252.64 301.43 253.017 301.678 253.112C302.198 253.312 302.705 253.513 303.225 253.701C303.477 253.796 303.729 253.89 303.98 253.984C304.205 254.067 304.547 254.267 304.771 254.114C304.83 254.079 304.878 254.02 304.854 253.949C304.807 253.796 304.724 253.725 304.583 253.666Z" fill="#DFDFE4"/>
<path d="M304.335 255.965C303.804 255.682 303.249 255.411 302.706 255.14C302.104 254.845 301.49 254.527 300.852 254.314C300.699 254.255 300.604 254.468 300.734 254.562C301.218 254.916 301.761 255.199 302.292 255.494C302.812 255.788 303.343 256.071 303.874 256.343C304.075 256.449 304.429 256.696 304.654 256.519C304.901 256.307 304.5 256.048 304.335 255.965Z" fill="#DFDFE4"/>
<path d="M301.844 257.486C301.458 257.243 301.076 256.999 300.699 256.755C300.266 256.48 299.833 256.213 299.4 255.953C299.211 255.836 299.046 256.095 299.211 256.225C299.931 256.779 300.663 257.309 301.395 257.852C301.572 257.982 301.785 258.194 302.021 258.052C302.115 257.993 302.139 257.887 302.115 257.793C302.08 257.64 301.962 257.569 301.844 257.486Z" fill="#DFDFE4"/>
<path d="M299.837 260.8C296.201 262.439 291.927 263.146 289.767 262.722C291.951 261.46 294.288 259.974 296.342 258.383C297.393 258.772 298.361 259.349 299.164 260.104C299.4 260.316 299.624 260.552 299.837 260.8Z" fill="#B0CFC5"/>
<path d="M308.915 254.079C309.6 254.22 310.332 253.925 310.757 253.371C311.843 251.968 310.568 249.786 308.809 250.506C307.227 251.154 307.003 253.689 308.915 254.079Z" fill="white"/>
<path d="M278.103 124.689L277.843 128.203L277.288 135.395L276.32 148.107C276.32 148.107 275.754 160.441 275.116 175.912C275.081 176.572 275.057 177.232 275.022 177.904C274.88 176.643 274.809 175.959 274.809 175.959C274.101 207.266 267.041 248.006 267.041 248.006H250.136C246.275 236.922 247.987 211.357 248.282 207.289C248.294 207.219 248.294 207.16 248.294 207.112C248.306 207.042 248.318 206.983 248.318 206.936C247.645 165.948 252.202 142.989 256.759 126.929L278.103 124.689Z" fill="#7951F9"/>
<path d="M310.368 238.891L295.599 242.794C295.599 242.794 283.9 217.147 277.489 190.015C276.651 185.286 275.848 180.546 275.116 175.912C272.224 157.941 270.099 141.574 269.06 133.238C268.611 129.547 268.364 127.436 268.364 127.436L277.843 128.203L293.946 129.511C294.147 131.717 294.265 134.063 294.69 136.469C298.019 155.571 295.481 162.056 298.019 175.039L301.218 187.456C301.218 187.456 309.848 220.06 310.368 238.891Z" fill="#7951F9"/>
<g opacity="0.6">
<path d="M294.69 136.468C288.008 136.822 282.211 136.315 277.288 135.395C274.195 134.806 271.456 134.051 269.06 133.238C260.855 130.455 256.759 126.929 256.759 126.929L267.325 125.809L278.103 124.689L277.843 128.203L281.302 128.485L293.946 129.511C294.147 131.716 294.395 134.039 294.69 136.468Z" fill="#1A1B43"/>
</g>
<path d="M274.809 175.959L270.914 152.505L264.574 149.369L264.846 148.814L271.468 152.092L271.492 152.246L275.411 175.865L274.809 175.959Z" fill="#081828"/>
<path d="M265.671 78.3945L272.696 76.9324L280.086 77.5337L280.7 83.5711C280.7 83.5711 274.585 88.7004 264.727 83.4885L265.671 78.3945Z" fill="#FABA97"/>
<path d="M268.623 129.346H281.314L280.7 81.7906L262.909 82.958C262.909 82.958 264.739 123.132 268.623 129.346Z" fill="white"/>
<path d="M270.595 128.273C264.963 132.082 256.074 130.419 256.074 130.419L256.215 114.088L256.204 112.213C256.18 112.449 256.145 112.673 256.109 112.897C254.94 119.689 247.326 123.958 247.326 123.958C238.094 127.118 231.92 119.536 228.036 111.081C226.583 107.921 224.6 101.754 224.6 101.754C223.136 96.7424 222.499 92.9101 222.499 92.9101C222.676 91.4715 230.255 83.5475 230.255 83.5475L243.442 100.28C243.442 100.28 250.773 84.597 253.701 81.7316C256.64 78.8544 265.27 78.4181 265.27 78.4181L265.672 78.3946C265.577 81.4132 264.645 115.739 270.595 128.273Z" fill="#F5851F"/>
<path d="M228.035 111.081C231.919 119.536 238.094 127.106 247.326 123.958C247.326 123.958 254.94 119.689 256.109 112.897C256.148 112.669 256.18 112.441 256.203 112.213L255.401 88.4766C255.401 88.4766 255.165 98.6882 254.468 103.77C253.76 108.841 249.947 121.823 243.808 122.519C237.669 123.215 228.035 111.081 228.035 111.081Z" fill="#D4601C"/>
<path d="M268.623 117.378C269.296 117.791 271.196 118.651 273.109 119.5C273.51 115.562 274.585 109.584 274.998 107.508L270.771 107.803C270.771 107.803 269.886 109.159 269.331 111.966C268.623 115.538 268.623 117.378 268.623 117.378Z" fill="#F5851F"/>
<path d="M294.194 130.797C294.194 130.797 287.689 130.962 281.409 129.04C281.267 128.203 280.842 125.809 280.334 122.566C283.864 124.028 290.711 126.74 294.04 127.141L294.194 130.797Z" fill="#F5851F"/>
<path d="M255.389 110.621C254.386 111.01 253.665 111.529 253.925 112.237C254.197 112.968 255.979 112.933 257.656 112.72C256.463 113.05 255.424 113.534 255.637 114.218C256.168 115.869 260.406 112.98 263.865 114.878C266.486 116.317 268.292 116.682 269.662 116.718C270.654 116.729 271.409 116.576 272.058 116.505C272.519 114.265 272.436 111.824 272.177 109.737C271.433 109.324 270.547 108.9 269.485 108.428C268.422 107.968 267.195 107.485 265.766 106.954C264.444 106.471 262.26 105.292 261.127 105.15C259.438 104.95 252.237 105.197 252.261 106.942C252.272 107.945 254.775 107.909 256.593 107.744C254.763 108.039 252.272 108.664 252.508 109.878C252.662 110.669 253.949 110.775 255.389 110.621Z" fill="#FABA97"/>
<path d="M260.713 112.166C260.713 112.166 259.084 112.331 257.656 112.72C259.237 112.52 260.713 112.166 260.713 112.166Z" fill="#F2C9AC"/>
<path d="M256.593 107.744C257.573 107.662 258.352 107.544 258.434 107.532C258.352 107.532 257.573 107.591 256.593 107.744Z" fill="#F2C9AC"/>
<path d="M259.686 109.725C259.686 109.725 257.124 109.973 255.389 110.621C257.396 110.421 259.686 109.725 259.686 109.725Z" fill="#F2C9AC"/>
<path d="M260.607 107.225C259.863 107.261 259.12 107.272 258.376 107.367C257.644 107.461 256.912 107.579 256.18 107.744C254.397 108.133 253.347 108.652 253.417 108.629C255.035 108.039 257.667 107.662 258.411 107.567C259.143 107.485 259.875 107.355 260.619 107.261C260.631 107.261 260.631 107.225 260.607 107.225Z" fill="#F5927E"/>
<path d="M260.997 109.878C259.97 109.702 257.042 110.02 255.413 110.598C255.342 110.621 255.366 110.645 255.448 110.633C256.381 110.492 260.052 110.008 260.997 109.902C261.009 109.902 261.009 109.89 260.997 109.878Z" fill="#F5927E"/>
<path d="M261.728 112.107C260.406 112.025 258.931 112.272 257.419 112.791C257.36 112.803 257.396 112.838 257.467 112.826C258.895 112.579 260.017 112.366 261.728 112.154C261.752 112.154 261.764 112.107 261.728 112.107Z" fill="#F5927E"/>
<path d="M269.662 116.718C270.654 116.729 271.409 116.576 272.058 116.505C272.519 114.265 272.436 111.824 272.177 109.737C271.433 109.324 270.547 108.9 269.485 108.428C269.485 108.428 271.161 114.135 269.662 116.706V116.718Z" fill="#F1A97F"/>
<path d="M268.623 108.074C268.564 108.003 263.393 104.254 262.909 103.075C262.46 102.002 261.315 101.73 261.056 103.181C260.796 104.619 261.126 105.15 261.126 105.15C262.142 105.268 266.463 107.532 268.623 108.074Z" fill="#FABA97"/>
<path d="M303.508 127.2C301.419 127.589 299.683 127.719 298.302 127.719C297.322 127.719 296.519 127.66 295.882 127.566C294.654 127.401 294.04 127.153 294.04 127.153L293.78 130.726C293.78 130.726 287.618 130.962 281.408 129.04C280.794 128.851 280.177 128.639 279.555 128.403C279.555 128.403 278.351 123.616 278.126 121.646C278.126 121.646 277.064 121.198 275.635 120.585C274.868 120.255 273.994 119.878 273.121 119.5C272.011 119.017 270.913 118.522 270.051 118.121C269.426 117.814 268.906 117.555 268.623 117.39C268.623 117.39 268.623 115.55 269.331 111.966C269.449 111.352 269.591 110.798 269.733 110.326C270.228 108.628 270.771 107.803 270.771 107.803L274.042 107.567L274.998 107.508L276.556 107.402C276.556 107.402 276.556 107.398 276.556 107.39C276.131 93.1578 280.086 77.5338 280.086 77.5338L280.842 77.4867L284.041 77.298C284.041 77.298 292.482 75.3288 296.33 80.5171C299.01 84.1372 304.807 94.6553 308.313 103.747C308.313 103.759 308.325 103.758 308.325 103.77C309.86 107.744 310.969 111.435 311.17 114.159C311.654 120.279 311.158 125.75 303.508 127.2Z" fill="#F5851F"/>
<path d="M290.168 108.381L289.377 93.9714C289.377 93.9714 287.264 103.876 286.426 104.773C285.587 105.681 276.556 107.39 276.556 107.39C276.556 107.39 287.205 107.166 290.168 108.381Z" fill="#D4601C"/>
<path d="M273.109 119.5C275.6 120.585 278.126 121.635 278.126 121.635C278.351 123.604 279.555 128.403 279.555 128.403C286.331 130.997 294.194 130.797 294.194 130.797L294.04 127.153C294.04 127.153 294.642 127.401 295.882 127.566C297.429 127.778 299.943 127.861 303.508 127.189C311.158 125.75 311.654 120.279 311.17 114.159C310.958 111.435 309.86 107.744 308.325 103.77C308.856 105.244 309.954 119.312 304.465 123.05C298.94 126.811 273.109 119.5 273.109 119.5Z" fill="#D4601C"/>
<path d="M287.984 48.7857C287.984 51.4035 285.611 53.526 282.684 53.526C279.756 53.526 277.383 51.4035 277.383 48.7857C277.383 46.168 279.756 44.0455 282.684 44.0455C285.611 44.0455 287.984 46.168 287.984 48.7857Z" fill="#633C30"/>
<path d="M261.056 79.1729C262.626 78.6069 264.42 78.7366 266.439 78.371C267.525 78.1745 268.611 77.978 269.697 77.7814C269.78 75.7886 269.827 72.6403 269.591 72.6403C269.213 72.6403 262.165 71.921 262.165 71.921C262.165 71.921 263.228 76.39 261.056 79.1729Z" fill="#633C30"/>
<path d="M276.061 64.3153L277.973 77.1093C277.973 77.1093 276.143 78.9016 272.802 79.3497C268.777 79.8803 267.75 78.9842 267.75 78.9842L266.864 71.0248L266.451 66.7562L276.061 64.3153Z" fill="#FABA97"/>
<path d="M274.632 51.9576L275.352 69.4093C275.376 70.1876 274.939 70.9069 274.231 71.237L267.159 74.5269C266.557 74.8099 265.849 74.7627 265.294 74.3972L261.316 71.8384C260.796 71.4964 260.454 70.9304 260.43 70.2937L260.407 69.7041L260.123 62.7234L259.958 58.6671C259.828 55.2947 262.449 52.4529 265.825 52.3114L274.632 51.9576Z" fill="#FABA97"/>
<g opacity="0.5">
<path d="M262.72 65.7775C262.945 67.4991 261.953 69.0909 260.406 69.7041L260.123 62.7234C261.469 63.1244 262.52 64.2917 262.72 65.7775Z" fill="#D75A5E"/>
</g>
<path d="M265.306 67.2632C265.282 67.2632 265.259 67.2593 265.235 67.2514L262.555 66.4732C262.425 66.4378 262.354 66.3081 262.378 66.1784L263.747 59.7401C263.771 59.6104 263.913 59.5161 264.054 59.5515C264.184 59.5751 264.279 59.7166 264.243 59.8463L262.933 66.0605L265.377 66.768C265.506 66.8034 265.589 66.9449 265.542 67.0864C265.518 67.1925 265.412 67.2632 265.306 67.2632Z" fill="#DE7360"/>
<path d="M279.26 59.5986C279.189 59.575 277.442 58.9854 275.329 57.4053C273.381 55.955 270.748 53.3608 269.296 49.2101L269.898 48.9979C272.578 56.6271 279.39 58.9736 279.461 58.9854L279.26 59.5986Z" fill="#AF1D46"/>
<path d="M259.533 58.5139C259.851 59.1978 262.331 58.62 262.154 57.9361C261.882 56.8159 259.025 57.4409 259.533 58.5139Z" fill="#281C1C"/>
<path d="M270.701 58.1247C270.394 58.8086 267.903 58.278 268.068 57.5941C268.316 56.4739 271.185 57.0399 270.701 58.1247Z" fill="#281C1C"/>
<path d="M262.165 62.9356C262.189 63.6077 261.894 64.162 261.504 64.1737C261.115 64.1855 260.784 63.6667 260.76 62.9946C260.725 62.3224 261.02 61.7682 261.41 61.7564C261.799 61.7447 262.142 62.2753 262.165 62.9356Z" fill="#281C1C"/>
<path d="M268.127 70.1875C268.056 70.3054 267.974 70.3998 267.891 70.4941C267.301 71.1191 266.345 71.4728 265.436 71.3667C265.034 71.3195 264.656 71.178 264.326 70.9776C263.806 70.6474 263.417 70.1639 263.287 69.6215C263.216 69.3031 263.263 68.9022 263.594 68.7489C263.677 68.7254 263.759 68.7018 263.842 68.7018C263.995 68.7018 264.161 68.7254 264.314 68.7489C265.152 68.8904 266.026 68.8669 266.852 68.6782C267.147 68.5956 267.443 68.5603 267.679 68.5956C267.927 68.6192 268.127 68.7136 268.245 68.9022C268.481 69.3031 268.375 69.7984 268.127 70.1875Z" fill="#383939"/>
<path d="M267.679 68.5956C267.679 68.8079 267.631 69.0201 267.501 69.1734C267.348 69.3503 267.124 69.4211 266.899 69.4682C266.108 69.6569 265.27 69.6687 264.467 69.5036C264.279 69.4564 264.078 69.3975 263.948 69.2442C263.83 69.1027 263.818 68.8904 263.842 68.7018C263.995 68.7018 264.161 68.7254 264.314 68.7489C265.152 68.8904 266.026 68.8669 266.852 68.6782C267.147 68.5956 267.442 68.5603 267.679 68.5956Z" fill="white"/>
<g opacity="0.5">
<path d="M267.891 70.4941C267.301 71.1191 266.345 71.4728 265.436 71.3667C265.034 71.3195 264.656 71.1781 264.326 70.9776C264.633 70.5649 265.164 70.3173 265.695 70.2111C266.427 70.0696 267.23 70.1404 267.891 70.4941Z" fill="#D75A5E"/>
</g>
<g opacity="0.5">
<path d="M274.514 71.0248L267.75 78.9842L267.159 74.527L274.514 71.0248Z" fill="#D75A5E"/>
</g>
<path d="M294.831 84.7267C293.061 83.7952 290.109 83.4532 287.323 83.465C282.778 83.465 278.693 80.694 277.076 76.4608C275.99 73.6072 275.222 70.6593 275.175 68.3953C284.23 67.0038 278.87 59.7991 274.904 62.1457C274.856 61.0608 275.329 56.6272 273.286 56.6272C272.118 56.7923 270.17 56.7333 268.033 56.6508C267.478 55.1886 268.056 52.5001 268.056 52.5001C266.923 53.974 266.852 56.6036 266.852 56.6036C263.771 56.4857 260.536 56.3795 258.848 56.8394C258.553 56.9102 258.683 56.1909 258.718 55.8961C259.273 52.6888 261.079 48.7385 264.043 46.333C264.633 45.8614 265.282 45.4369 265.955 45.0949C267.171 44.5053 268.529 44.1516 270.028 44.1634C274.184 44.187 277.477 45.543 279.897 47.7245C280.983 48.715 281.893 49.8705 282.624 51.1558C283.557 52.8067 284.195 54.658 284.525 56.6272C285.233 60.8722 283.84 65.4238 285.446 69.3976C287.595 74.692 295.941 78.3946 294.831 84.7267Z" fill="#633C30"/>
<path d="M273.05 64.9876C273.133 66.945 274.786 68.4661 276.745 68.3836C278.705 68.301 280.228 66.6502 280.145 64.6928C280.074 62.7354 278.41 61.2142 276.45 61.2968C274.49 61.3793 272.967 63.0302 273.05 64.9876Z" fill="#FABA97"/>
<g opacity="0.5">
<path d="M277.1 66.3435C276.887 65.7303 276.745 65.1289 276.804 64.5275C276.852 63.938 277.1 63.372 277.395 62.7824L277.229 62.6527C276.698 63.089 276.332 63.7611 276.273 64.4804C276.214 65.2115 276.474 65.9307 276.911 66.4496L277.1 66.3435Z" fill="#D75A5E"/>
</g>
<g opacity="0.5">
<path d="M274.478 65.1173C274.75 67.1455 273.321 69.0085 271.291 69.2798C269.26 69.551 267.395 68.1242 267.124 66.096C266.864 64.0678 268.292 62.2048 270.311 61.9335C272.342 61.6741 274.207 63.1009 274.478 65.1173Z" fill="#D75A5E"/>
</g>
<path d="M268.706 62.6644C268.741 63.3366 268.446 63.8908 268.056 63.9026C267.667 63.9261 267.324 63.3955 267.301 62.7234C267.277 62.0631 267.572 61.5088 267.962 61.497C268.352 61.4735 268.682 62.0041 268.706 62.6644Z" fill="#281C1C"/>
<path d="M266.451 46.6633C266.451 46.6633 262.52 45.4369 259.474 49.3282C256.428 53.2077 258.848 56.8395 258.848 56.8395L266.108 51.7101L266.451 46.6633Z" fill="#633C30"/>
<path d="M282.625 51.1558C281.739 51.4152 280.948 50.8492 280.547 50.5191C280.004 50.0946 278.599 50.413 277.678 51.6629C276.769 52.901 274.231 51.6039 273.581 50.0946C272.932 48.5852 270.772 48.9626 267.655 49.1041C264.527 49.2456 263.96 46.5571 263.96 46.5571C263.96 46.5571 263.995 46.4745 264.043 46.333C264.633 45.8614 265.282 45.4369 265.955 45.0949C266.746 46.8755 269.591 47.2528 270.347 47.017C271.209 46.7457 274.609 46.9698 275.022 48.314C275.435 49.6583 276.922 49.3871 278.434 48.373C278.87 48.0782 279.378 47.866 279.897 47.7245C280.984 48.715 281.893 49.8705 282.625 51.1558Z" fill="#885648"/>
<path d="M197.824 122.201C197.824 121.729 197.458 121.269 196.727 120.916L173.269 109.725C171.805 109.018 169.432 109.018 167.968 109.725L144.499 120.916C143.767 121.269 143.401 121.729 143.413 122.201C143.413 122.201 143.413 122.205 143.413 122.213C143.413 122.22 143.413 122.228 143.413 122.236C143.413 122.244 143.413 122.252 143.413 122.26C143.413 122.268 143.413 122.275 143.413 122.283C143.413 122.291 143.413 122.299 143.413 122.307C143.413 122.315 143.413 122.323 143.413 122.331C143.413 122.338 143.413 122.346 143.413 122.354C143.413 122.354 143.413 122.358 143.413 122.366C143.413 122.374 143.413 122.382 143.413 122.389C143.413 122.397 143.413 122.405 143.413 122.413C143.413 122.421 143.413 122.429 143.413 122.437C143.413 122.445 143.413 122.452 143.413 122.46C143.413 122.468 143.413 122.476 143.413 122.484C143.413 122.492 143.413 122.496 143.413 122.496C143.413 122.503 143.413 122.511 143.413 122.519C143.413 122.527 143.413 122.535 143.413 122.543C143.413 122.551 143.413 122.558 143.413 122.566C143.413 122.574 143.413 122.582 143.413 122.59C143.413 122.598 143.413 122.606 143.413 122.614C143.413 122.621 143.413 122.629 143.413 122.637C143.413 122.645 143.413 122.649 143.413 122.649C143.413 122.657 143.413 122.665 143.413 122.672C143.413 122.68 143.413 122.688 143.413 122.696C143.413 122.704 143.413 122.712 143.413 122.72C143.413 122.728 143.413 122.735 143.413 122.743C143.413 122.751 143.413 122.759 143.413 122.767C143.413 122.775 143.413 122.783 143.413 122.79C143.413 122.798 143.413 122.802 143.413 122.802C143.413 122.81 143.413 122.818 143.413 122.826C143.413 122.834 143.413 122.841 143.413 122.849C143.413 122.857 143.413 122.865 143.413 122.873C143.413 122.881 143.413 122.889 143.413 122.897C143.413 122.904 143.413 122.912 143.413 122.92C143.413 122.928 143.413 122.936 143.413 122.944C143.413 122.952 143.413 122.955 143.413 122.955C143.413 122.963 143.413 122.971 143.413 122.979C143.413 122.987 143.413 122.995 143.413 123.003C143.413 123.011 143.413 123.018 143.413 123.026C143.413 123.034 143.413 123.042 143.413 123.05C143.413 123.058 143.413 123.066 143.413 123.073C143.413 123.081 143.413 123.089 143.413 123.097C143.413 123.105 143.413 123.109 143.413 123.109C143.413 123.117 143.413 123.125 143.413 123.132C143.413 123.14 143.413 123.148 143.413 123.156C143.413 123.164 143.413 123.172 143.413 123.18C143.413 123.187 143.413 123.195 143.413 123.203C143.413 123.211 143.413 123.219 143.413 123.227C143.413 123.235 143.413 123.242 143.413 123.25C143.413 123.25 143.413 123.254 143.413 123.262C143.413 123.27 143.413 123.278 143.413 123.286C143.413 123.294 143.413 123.301 143.413 123.309C143.413 123.317 143.413 123.325 143.413 123.333C143.413 123.341 143.413 123.349 143.413 123.356C143.413 123.364 143.413 123.372 143.413 123.38C143.413 123.388 143.413 123.396 143.413 123.404C143.413 123.404 143.413 123.407 143.413 123.415C143.413 123.423 143.413 123.431 143.413 123.439C143.413 123.447 143.413 123.455 143.413 123.463C143.413 123.47 143.413 123.478 143.413 123.486C143.413 123.494 143.413 123.502 143.413 123.51C143.413 123.518 143.413 123.525 143.413 123.533C143.413 123.541 143.413 123.549 143.413 123.557C143.413 123.557 143.413 123.561 143.413 123.569C143.413 123.577 143.413 123.584 143.413 123.592C143.413 123.6 143.413 123.608 143.413 123.616C143.413 123.624 143.413 123.632 143.413 123.639C143.413 123.647 143.413 123.655 143.413 123.663C143.413 123.671 143.413 123.679 143.413 123.687C143.413 123.694 143.413 123.702 143.413 123.71C143.413 123.71 143.413 123.714 143.413 123.722C143.413 123.73 143.413 123.738 143.413 123.746C143.413 123.753 143.413 123.761 143.413 123.769C143.413 123.777 143.413 123.785 143.413 123.793C143.413 123.801 143.413 123.808 143.413 123.816C143.413 123.824 143.413 123.832 143.413 123.84C143.413 123.848 143.413 123.856 143.413 123.863C143.413 123.863 143.413 123.867 143.413 123.875C143.413 123.883 143.413 123.891 143.413 123.899C143.413 123.907 143.413 123.915 143.413 123.922C143.413 123.93 143.413 123.938 143.413 123.946C143.413 123.954 143.413 123.962 143.413 123.97C143.413 123.977 143.413 123.985 143.413 123.993C143.413 124.001 143.413 124.005 143.413 124.005C143.413 124.013 143.413 124.021 143.413 124.029C143.413 124.036 143.413 124.044 143.413 124.052C143.413 124.06 143.413 124.068 143.413 124.076C143.413 124.084 143.413 124.091 143.413 124.099C143.413 124.107 143.413 124.115 143.413 124.123C143.413 124.131 143.413 124.139 143.413 124.146C143.413 124.154 143.413 124.158 143.413 124.158C143.413 124.166 143.413 124.174 143.413 124.182C143.413 124.19 143.413 124.198 143.413 124.205C143.413 124.213 143.413 124.221 143.413 124.229C143.413 124.237 143.413 124.245 143.413 124.253C143.413 124.26 143.413 124.268 143.413 124.276C143.413 124.284 143.413 124.292 143.413 124.3C143.413 124.308 143.413 124.312 143.413 124.312C143.413 124.319 143.413 124.327 143.413 124.335C143.413 124.343 143.413 124.351 143.413 124.359C143.413 124.37 143.413 127.436 143.413 127.436C143.401 127.908 143.767 128.368 144.499 128.722L167.968 139.912C169.432 140.619 171.805 140.619 173.269 139.912L196.727 128.722C197.458 128.368 197.824 127.908 197.824 127.436C197.824 127.436 197.824 124.37 197.824 124.359C197.824 124.351 197.824 124.343 197.824 124.335C197.824 124.327 197.824 124.319 197.824 124.312C197.824 124.312 197.824 124.308 197.824 124.3C197.824 124.292 197.824 124.284 197.824 124.276C197.824 124.268 197.824 124.26 197.824 124.253C197.824 124.245 197.824 124.237 197.824 124.229C197.824 124.221 197.824 124.213 197.824 124.205C197.824 124.198 197.824 124.19 197.824 124.182C197.824 124.174 197.824 124.166 197.824 124.158C197.824 124.158 197.824 124.154 197.824 124.146C197.824 124.139 197.824 124.131 197.824 124.123C197.824 124.115 197.824 124.107 197.824 124.099C197.824 124.091 197.824 124.084 197.824 124.076C197.824 124.068 197.824 124.06 197.824 124.052C197.824 124.044 197.824 124.036 197.824 124.029C197.824 124.021 197.824 124.013 197.824 124.005C197.824 124.005 197.824 124.001 197.824 123.993C197.824 123.985 197.824 123.977 197.824 123.97C197.824 123.962 197.824 123.954 197.824 123.946C197.824 123.938 197.824 123.93 197.824 123.922C197.824 123.915 197.824 123.907 197.824 123.899C197.824 123.891 197.824 123.883 197.824 123.875C197.824 123.867 197.824 123.863 197.824 123.863C197.824 123.856 197.824 123.848 197.824 123.84C197.824 123.832 197.824 123.824 197.824 123.816C197.824 123.808 197.824 123.801 197.824 123.793C197.824 123.785 197.824 123.777 197.824 123.769C197.824 123.761 197.824 123.753 197.824 123.746C197.824 123.738 197.824 123.73 197.824 123.722C197.824 123.714 197.824 123.71 197.824 123.71C197.824 123.702 197.824 123.694 197.824 123.687C197.824 123.679 197.824 123.671 197.824 123.663C197.824 123.655 197.824 123.647 197.824 123.639C197.824 123.632 197.824 123.624 197.824 123.616C197.824 123.608 197.824 123.6 197.824 123.592C197.824 123.584 197.824 123.577 197.824 123.569C197.824 123.561 197.824 123.557 197.824 123.557C197.824 123.549 197.824 123.541 197.824 123.533C197.824 123.525 197.824 123.518 197.824 123.51C197.824 123.502 197.824 123.494 197.824 123.486C197.824 123.478 197.824 123.47 197.824 123.463C197.824 123.455 197.824 123.447 197.824 123.439C197.824 123.431 197.824 123.423 197.824 123.415C197.824 123.407 197.824 123.404 197.824 123.404C197.824 123.396 197.824 123.388 197.824 123.38C197.824 123.372 197.824 123.364 197.824 123.356C197.824 123.349 197.824 123.341 197.824 123.333C197.824 123.325 197.824 123.317 197.824 123.309C197.824 123.301 197.824 123.294 197.824 123.286C197.824 123.278 197.824 123.27 197.824 123.262C197.824 123.254 197.824 123.25 197.824 123.25C197.824 123.242 197.824 123.235 197.824 123.227C197.824 123.219 197.824 123.211 197.824 123.203C197.824 123.195 197.824 123.187 197.824 123.18C197.824 123.172 197.824 123.164 197.824 123.156C197.824 123.148 197.824 123.14 197.824 123.132C197.824 123.125 197.824 123.117 197.824 123.109C197.824 123.109 197.824 123.105 197.824 123.097C197.824 123.089 197.824 123.081 197.824 123.073C197.824 123.066 197.824 123.058 197.824 123.05C197.824 123.042 197.824 123.034 197.824 123.026C197.824 123.018 197.824 123.011 197.824 123.003C197.824 122.995 197.824 122.987 197.824 122.979C197.824 122.971 197.824 122.963 197.824 122.955C197.824 122.955 197.824 122.952 197.824 122.944C197.824 122.936 197.824 122.928 197.824 122.92C197.824 122.912 197.824 122.904 197.824 122.897C197.824 122.889 197.824 122.881 197.824 122.873C197.824 122.865 197.824 122.857 197.824 122.849C197.824 122.841 197.824 122.834 197.824 122.826C197.824 122.818 197.824 122.81 197.824 122.802C197.824 122.802 197.824 122.798 197.824 122.79C197.824 122.783 197.824 122.775 197.824 122.767C197.824 122.759 197.824 122.751 197.824 122.743C197.824 122.735 197.824 122.728 197.824 122.72C197.824 122.712 197.824 122.704 197.824 122.696C197.824 122.688 197.824 122.68 197.824 122.672C197.824 122.665 197.824 122.657 197.824 122.649C197.824 122.649 197.824 122.645 197.824 122.637C197.824 122.629 197.824 122.621 197.824 122.614C197.824 122.606 197.824 122.598 197.824 122.59C197.824 122.582 197.824 122.574 197.824 122.566C197.824 122.558 197.824 122.551 197.824 122.543C197.824 122.535 197.824 122.527 197.824 122.519C197.824 122.511 197.824 122.503 197.824 122.496C197.824 122.496 197.824 122.492 197.824 122.484C197.824 122.476 197.824 122.468 197.824 122.46C197.824 122.452 197.824 122.445 197.824 122.437C197.824 122.429 197.824 122.421 197.824 122.413C197.824 122.405 197.824 122.397 197.824 122.389C197.824 122.382 197.824 122.374 197.824 122.366C197.824 122.358 197.824 122.354 197.824 122.354C197.824 122.346 197.824 122.338 197.824 122.331C197.824 122.323 197.824 122.315 197.824 122.307C197.824 122.299 197.824 122.291 197.824 122.283C197.824 122.275 197.824 122.268 197.824 122.26C197.824 122.252 197.824 122.244 197.824 122.236C197.824 122.228 197.824 122.22 197.824 122.213C197.824 122.205 197.824 122.201 197.824 122.201Z" fill="#3E409F"/>
<path d="M196.727 120.915L173.269 109.725C171.805 109.018 169.432 109.018 167.968 109.725L144.499 120.915C143.035 121.623 143.035 122.755 144.499 123.451L167.968 134.653C169.432 135.348 171.805 135.348 173.269 134.653L196.727 123.451C198.191 122.755 198.191 121.623 196.727 120.915Z" fill="#615ED1"/>
<path d="M190.612 118.003L173.269 109.725C171.805 109.018 169.432 109.018 167.968 109.725L144.499 120.915C143.035 121.623 143.035 122.755 144.499 123.451L150.496 126.304C153.896 126.906 157.568 127.224 161.416 127.224C174.532 127.224 185.795 123.427 190.612 118.003Z" fill="#677FFF"/>
<path d="M253.228 183.989C253.228 183.175 252.59 182.374 251.304 181.76L210.315 162.186C207.765 160.972 203.609 160.972 201.059 162.186L160.07 181.76C158.783 182.374 158.146 183.175 158.146 183.989C158.146 183.997 158.146 184.009 158.146 184.024C158.146 184.04 158.146 184.052 158.146 184.06C158.146 184.075 158.146 184.087 158.146 184.095C158.146 184.111 158.146 184.127 158.146 184.142C158.146 184.15 158.146 184.162 158.146 184.178C158.146 184.193 158.146 184.205 158.146 184.213C158.146 184.229 158.146 184.241 158.146 184.248C158.146 184.264 158.146 184.28 158.146 184.296C158.146 184.303 158.146 184.315 158.146 184.331C158.146 184.347 158.146 184.358 158.146 184.366C158.146 184.382 158.146 184.394 158.146 184.402C158.146 184.417 158.146 184.433 158.146 184.449C158.146 184.457 158.146 184.469 158.146 184.484C158.146 184.5 158.146 184.512 158.146 184.52C158.146 184.535 158.146 184.547 158.146 184.555C158.146 184.571 158.146 184.586 158.146 184.602C158.146 184.61 158.146 184.622 158.146 184.638C158.146 184.645 158.146 184.657 158.146 184.673C158.146 184.689 158.146 184.7 158.146 184.708C158.146 184.724 158.146 184.74 158.146 184.755C158.146 184.763 158.146 184.775 158.146 184.791C158.146 184.799 158.146 184.811 158.146 184.826C158.146 184.842 158.146 184.854 158.146 184.862C158.146 184.877 158.146 184.893 158.146 184.909C158.146 184.917 158.146 184.928 158.146 184.944C158.146 184.952 158.146 184.964 158.146 184.98C158.146 184.995 158.146 185.007 158.146 185.015C158.146 185.031 158.146 185.046 158.146 185.062C158.146 185.07 158.146 185.082 158.146 185.097C158.146 185.105 158.146 185.117 158.146 185.133C158.146 185.149 158.146 185.16 158.146 185.168C158.146 185.184 158.146 185.196 158.146 185.204C158.146 185.219 158.146 185.235 158.146 185.251C158.146 185.259 158.146 185.27 158.146 185.286C158.146 185.302 158.146 185.314 158.146 185.321C158.146 185.337 158.146 185.349 158.146 185.357C158.146 185.373 158.146 185.388 158.146 185.404C158.146 185.412 158.146 185.424 158.146 185.439C158.146 185.455 158.146 185.467 158.146 185.475C158.146 185.49 158.146 185.502 158.146 185.51C158.146 185.526 158.146 185.542 158.146 185.557C158.146 185.565 158.146 185.577 158.146 185.593C158.146 185.608 158.146 185.62 158.146 185.628C158.146 185.644 158.146 185.656 158.146 185.663C158.146 185.679 158.146 185.695 158.146 185.711C158.146 185.718 158.146 185.73 158.146 185.746C158.146 185.754 158.146 185.766 158.146 185.781C158.146 185.797 158.146 185.809 158.146 185.817C158.146 185.832 158.146 185.848 158.146 185.864C158.146 185.872 158.146 185.884 158.146 185.899C158.146 185.907 158.146 185.919 158.146 185.935C158.146 185.95 158.146 185.962 158.146 185.97C158.146 185.986 158.146 186.001 158.146 186.017C158.146 186.025 158.146 186.037 158.146 186.053C158.146 186.06 158.146 186.072 158.146 186.088C158.146 186.104 158.146 186.115 158.146 186.123C158.146 186.139 158.146 186.155 158.146 186.17C158.146 186.178 158.146 186.19 158.146 186.206C158.146 186.214 158.146 186.226 158.146 186.241C158.146 186.257 158.146 186.269 158.146 186.277C158.146 186.292 158.146 186.304 158.146 186.312C158.146 186.328 158.146 186.343 158.146 186.359C158.146 186.367 158.146 186.379 158.146 186.395C158.146 186.41 158.146 186.422 158.146 186.43C158.146 186.446 158.146 186.457 158.146 186.465C158.146 186.481 158.146 186.497 158.146 186.512C158.146 186.52 158.146 186.532 158.146 186.548C158.146 186.564 158.146 186.575 158.146 186.583C158.146 186.599 158.146 186.611 158.146 186.619C158.146 186.634 158.146 186.65 158.146 186.666C158.146 186.674 158.146 186.685 158.146 186.701C158.146 186.717 158.146 186.729 158.146 186.736C158.146 186.752 158.146 186.764 158.146 186.772C158.146 186.788 158.146 186.803 158.146 186.819C158.146 186.827 158.146 186.839 158.146 186.854C158.146 186.862 158.146 186.874 158.146 186.89C158.146 186.906 158.146 186.917 158.146 186.925C158.146 186.941 158.146 186.957 158.146 186.972C158.146 186.98 158.146 186.992 158.146 187.008C158.146 187.016 158.146 187.027 158.146 187.043C158.146 187.059 158.146 187.071 158.146 187.078C158.146 187.094 158.146 187.11 158.146 187.126C158.146 187.133 158.146 187.145 158.146 187.161C158.146 187.169 158.146 187.181 158.146 187.196C158.146 187.212 158.146 187.224 158.146 187.232C158.146 187.247 158.146 187.259 158.146 187.267C158.146 187.283 158.146 187.299 158.146 187.314C158.146 187.322 158.146 187.334 158.146 187.35C158.146 187.365 158.146 187.377 158.146 187.385C158.146 187.401 158.146 187.413 158.146 187.42C158.146 187.436 158.146 187.452 158.146 187.468C158.146 187.475 158.146 187.487 158.146 187.503C158.146 187.519 158.146 187.53 158.146 187.538C158.146 187.554 158.146 187.566 158.146 187.574C158.146 187.589 158.146 187.605 158.146 187.621C158.146 187.629 158.146 187.641 158.146 187.656C158.146 187.672 158.146 187.684 158.146 187.692C158.146 187.707 158.146 187.719 158.146 187.727C158.146 187.743 158.146 187.758 158.146 187.774C158.146 187.786 158.146 193.139 158.146 193.151C158.146 193.965 158.783 194.767 160.07 195.38L201.059 214.954C203.609 216.169 207.765 216.169 210.315 214.954L251.304 195.38C252.59 194.767 253.228 193.965 253.228 193.151C253.228 193.139 253.228 187.786 253.228 187.774C253.228 187.758 253.228 187.743 253.228 187.727C253.228 187.719 253.228 187.707 253.228 187.692C253.228 187.684 253.228 187.672 253.228 187.656C253.228 187.641 253.228 187.629 253.228 187.621C253.228 187.605 253.228 187.589 253.228 187.574C253.228 187.566 253.228 187.554 253.228 187.538C253.228 187.53 253.228 187.519 253.228 187.503C253.228 187.487 253.228 187.475 253.228 187.468C253.228 187.452 253.228 187.436 253.228 187.42C253.228 187.413 253.228 187.401 253.228 187.385C253.228 187.377 253.228 187.365 253.228 187.35C253.228 187.334 253.228 187.322 253.228 187.314C253.228 187.299 253.228 187.283 253.228 187.267C253.228 187.259 253.228 187.247 253.228 187.232C253.228 187.224 253.228 187.212 253.228 187.196C253.228 187.181 253.228 187.169 253.228 187.161C253.228 187.145 253.228 187.133 253.228 187.126C253.228 187.11 253.228 187.094 253.228 187.078C253.228 187.071 253.228 187.059 253.228 187.043C253.228 187.027 253.228 187.016 253.228 187.008C253.228 186.992 253.228 186.98 253.228 186.972C253.228 186.957 253.228 186.941 253.228 186.925C253.228 186.917 253.228 186.906 253.228 186.89C253.228 186.874 253.228 186.862 253.228 186.854C253.228 186.839 253.228 186.827 253.228 186.819C253.228 186.803 253.228 186.788 253.228 186.772C253.228 186.764 253.228 186.752 253.228 186.736C253.228 186.729 253.228 186.717 253.228 186.701C253.228 186.685 253.228 186.674 253.228 186.666C253.228 186.65 253.228 186.634 253.228 186.619C253.228 186.611 253.228 186.599 253.228 186.583C253.228 186.575 253.228 186.564 253.228 186.548C253.228 186.532 253.228 186.52 253.228 186.512C253.228 186.497 253.228 186.481 253.228 186.465C253.228 186.457 253.228 186.446 253.228 186.43C253.228 186.422 253.228 186.41 253.228 186.395C253.228 186.379 253.228 186.367 253.228 186.359C253.228 186.343 253.228 186.328 253.228 186.312C253.228 186.304 253.228 186.292 253.228 186.277C253.228 186.269 253.228 186.257 253.228 186.241C253.228 186.226 253.228 186.214 253.228 186.206C253.228 186.19 253.228 186.178 253.228 186.17C253.228 186.155 253.228 186.139 253.228 186.123C253.228 186.115 253.228 186.104 253.228 186.088C253.228 186.072 253.228 186.06 253.228 186.053C253.228 186.037 253.228 186.025 253.228 186.017C253.228 186.001 253.228 185.986 253.228 185.97C253.228 185.962 253.228 185.95 253.228 185.935C253.228 185.919 253.228 185.907 253.228 185.899C253.228 185.884 253.228 185.872 253.228 185.864C253.228 185.848 253.228 185.832 253.228 185.817C253.228 185.809 253.228 185.797 253.228 185.781C253.228 185.766 253.228 185.754 253.228 185.746C253.228 185.73 253.228 185.718 253.228 185.711C253.228 185.695 253.228 185.679 253.228 185.663C253.228 185.656 253.228 185.644 253.228 185.628C253.228 185.62 253.228 185.608 253.228 185.593C253.228 185.577 253.228 185.565 253.228 185.557C253.228 185.542 253.228 185.526 253.228 185.51C253.228 185.502 253.228 185.49 253.228 185.475C253.228 185.467 253.228 185.455 253.228 185.439C253.228 185.424 253.228 185.412 253.228 185.404C253.228 185.388 253.228 185.373 253.228 185.357C253.228 185.349 253.228 185.337 253.228 185.321C253.228 185.314 253.228 185.302 253.228 185.286C253.228 185.27 253.228 185.259 253.228 185.251C253.228 185.235 253.228 185.219 253.228 185.204C253.228 185.196 253.228 185.184 253.228 185.168C253.228 185.16 253.228 185.149 253.228 185.133C253.228 185.117 253.228 185.105 253.228 185.097C253.228 185.082 253.228 185.07 253.228 185.062C253.228 185.046 253.228 185.031 253.228 185.015C253.228 185.007 253.228 184.995 253.228 184.98C253.228 184.964 253.228 184.952 253.228 184.944C253.228 184.928 253.228 184.917 253.228 184.909C253.228 184.893 253.228 184.877 253.228 184.862C253.228 184.854 253.228 184.842 253.228 184.826C253.228 184.811 253.228 184.799 253.228 184.791C253.228 184.775 253.228 184.763 253.228 184.755C253.228 184.74 253.228 184.724 253.228 184.708C253.228 184.7 253.228 184.689 253.228 184.673C253.228 184.657 253.228 184.645 253.228 184.638C253.228 184.622 253.228 184.61 253.228 184.602C253.228 184.586 253.228 184.571 253.228 184.555C253.228 184.547 253.228 184.535 253.228 184.52C253.228 184.512 253.228 184.5 253.228 184.484C253.228 184.469 253.228 184.457 253.228 184.449C253.228 184.433 253.228 184.417 253.228 184.402C253.228 184.394 253.228 184.382 253.228 184.366C253.228 184.358 253.228 184.347 253.228 184.331C253.228 184.315 253.228 184.303 253.228 184.296C253.228 184.28 253.228 184.264 253.228 184.248C253.228 184.241 253.228 184.229 253.228 184.213C253.228 184.205 253.228 184.193 253.228 184.178C253.228 184.162 253.228 184.15 253.228 184.142C253.228 184.127 253.228 184.111 253.228 184.095C253.228 184.087 253.228 184.075 253.228 184.06C253.228 184.052 253.228 184.04 253.228 184.024C253.228 184.009 253.228 183.997 253.228 183.989Z" fill="#3E409F"/>
<path d="M251.304 181.76L210.315 162.186C207.765 160.972 203.609 160.972 201.059 162.186L160.07 181.76C157.508 182.975 157.508 184.956 160.07 186.182L201.059 205.745C203.609 206.959 207.765 206.959 210.315 205.745L251.304 186.182C253.865 184.956 253.865 182.975 251.304 181.76Z" fill="#615ED1"/>
<path d="M240.631 176.666L210.315 162.186C207.765 160.972 203.609 160.972 201.059 162.186L160.07 181.76C157.508 182.975 157.508 184.956 160.07 186.182L170.53 191.17C176.48 192.208 182.902 192.786 189.608 192.786C212.534 192.786 232.202 186.135 240.631 176.666Z" fill="#677FFF"/>
<path d="M180.317 75.9183C179.443 74.751 173.599 70.5649 165.028 75.0222C161.192 77.015 159.35 79.4676 158.476 81.5666L168.665 97.6032C169.668 94.4195 174.024 82.1679 181.651 83.465C181.651 83.465 181.19 77.0857 180.317 75.9183Z" fill="#D9E0E3"/>
<path d="M157.827 86.2242C157.827 86.2242 164.686 96.4358 168.441 98.3578C168.441 98.3578 168.511 98.0866 168.665 97.615C166.375 94.0421 160.389 84.3611 158.536 81.4368C157.473 84.0192 157.827 86.2242 157.827 86.2242Z" fill="#C6CDCF"/>
<path d="M169.503 98.9238L168.665 97.6031C168.665 97.611 168.661 97.6149 168.653 97.6149C169.09 98.2988 169.397 98.7587 169.503 98.9238Z" fill="black"/>
<g opacity="0.1">
<path d="M168.346 126.858C168.346 126.858 150.26 123.816 150.319 122.519C150.378 121.081 160.271 115.196 165.666 114.878C171.061 114.56 168.346 126.858 168.346 126.858Z" fill="black"/>
</g>
<path d="M173.73 100.575C175.371 101.436 177.33 102.674 178.239 103.263C178.393 102.096 178.617 101.164 178.9 100.893C179.668 100.186 181.462 100.032 181.462 100.032L169.066 95.0563C169.125 95.8109 169.196 96.5774 169.243 96.9665C169.362 97.9099 171.51 99.4192 173.73 100.575Z" fill="#C6CDCF"/>
<path d="M180.494 111.494C179.62 110.385 177.873 110.574 177.873 108.817C177.861 107.732 177.968 105.185 178.239 103.263C177.33 102.674 175.37 101.435 173.729 100.575C171.51 99.419 169.361 97.9097 169.243 96.9664C169.196 96.5773 169.125 95.8108 169.066 95.0561L168.429 94.7967C168.429 94.7967 168.488 97.1904 168.441 98.3578C168.393 99.5134 169.692 104.289 166.256 107.968C166.256 107.968 162.302 110.385 160.625 111.659C161.322 112.508 162.066 113.864 162.797 116.022C164.155 120.054 168.086 125.526 168.346 126.858C168.417 126.866 168.472 126.862 168.511 126.846C169.031 126.681 183.257 120.113 183.552 119.524C183.835 118.946 181.379 112.602 180.494 111.494Z" fill="#E6EDF0"/>
<path d="M160.625 111.659C160.46 111.789 160.318 111.906 160.2 112.001C158.913 113.109 159.149 123.427 159.149 123.427C159.149 123.427 167.295 126.788 168.346 126.858C168.086 125.526 165.111 119.771 163.742 115.727C163.01 113.581 161.322 112.508 160.625 111.659Z" fill="#C6CDCF"/>
<path d="M167.98 95.1506C167.98 95.1506 168.511 97.8273 171.9 98.8649C175.288 99.9144 180.884 100.657 181.875 99.8437C182.867 99.0182 182.796 94.1837 183.138 92.2616C183.493 90.3396 181.793 89.7618 182.135 87.0733C182.477 84.3966 180.553 79.9157 178.617 78.7484C176.693 77.5928 169.456 77.5456 167.957 81.9203C166.445 86.295 163.647 86.6488 167.98 95.1506Z" fill="#E6EDF0"/>
<path d="M177.365 88.6179C177.365 88.6179 175.819 87.6745 173.965 88.5235C172.1 89.3608 172.371 90.9526 172.371 90.9526C172.371 90.9526 175.11 91.212 176.22 90.7168C177.342 90.2098 177.365 88.6179 177.365 88.6179Z" fill="#C6CDCF"/>
<path d="M179.738 87.6746C179.738 87.6746 179.939 89.5613 180.376 90.1391C180.812 90.7169 181.828 93.2757 181.828 93.2757L180.305 95.0916L180.647 92.4621C180.647 92.4621 178.924 89.7382 179.738 87.6746Z" fill="#C6CDCF"/>
<path d="M177.672 97.1906C177.672 97.1906 179.195 96.4124 179.597 96.4478C179.998 96.4831 180.234 96.6836 180.234 96.6836C180.234 96.6836 180.742 95.9997 181.19 96.3063C181.627 96.6129 182.135 97.1553 182.135 97.1553C182.135 97.1553 181.556 98.0279 180.104 98.134C179.124 98.1929 177.672 97.1906 177.672 97.1906Z" fill="#C6CDCF"/>
<path d="M165.843 89.0543C165.843 89.0543 170.731 78.7012 181.037 81.9203L178.605 75.8476L171.616 77.0739L162.125 84.2669L168.44 96.2472L168.57 97.0137L162.904 87.6039L165.843 89.0543Z" fill="#D9E0E3"/>
<path d="M168.44 98.3579C168.44 98.3579 167.885 95.7755 166.634 95.0562C165.394 94.3369 163.919 93.311 164.202 91.6366C164.485 89.9504 167.508 94.1954 167.508 94.1954L168.889 96.9075L168.44 98.3579Z" fill="#C6CDCF"/>
<path d="M166.162 89.1603C166.162 89.1603 164.179 88.3349 163.423 89.5613C162.668 90.7876 164.769 94.0539 165.678 94.16C166.575 94.2779 167.402 94.8557 168.263 93.3464C169.137 91.8252 166.162 89.1603 166.162 89.1603Z" fill="#E6EDF0"/>
<path d="M173.364 111.635C173.364 111.635 175.311 113.074 177.33 112.296C177.33 112.296 176.669 113.546 175.005 112.968C173.328 112.39 173.364 111.635 173.364 111.635Z" fill="#C6CDCF"/>
<path d="M179.739 189.602L180.104 153.861L237.633 154.215V189.602H179.739Z" fill="#E74555"/>
<path d="M184.414 185.392L233.454 184.968V158.554L184.414 157.882V185.392Z" fill="#891F36"/>
<path d="M185.039 185.038L232.828 184.626V158.896L185.039 158.236V185.038Z" fill="#FFE5C7"/>
<path d="M233.454 158.554L236.216 156.007L236.842 188.765L233.454 184.968V158.554Z" fill="#E7552F"/>
<path d="M184.414 185.392L180.388 188.93L181.297 154.699L184.414 157.882V185.392Z" fill="#B9394F"/>
<g style="mix-blend-mode:multiply" opacity="0.5">
<path d="M237.633 189.602L236.842 188.765L180.388 188.93L179.739 189.602H237.633Z" fill="#81393E"/>
</g>
<path d="M233.454 184.968L232.828 184.626V158.896L233.454 158.554V184.968Z" fill="#E77355"/>
<path d="M233.454 184.968L232.828 184.626L185.04 185.038L184.414 185.392L233.454 184.968Z" fill="#FF9F6D"/>
<path d="M180.104 153.861L181.297 154.699L236.346 155.17L237.633 154.215L180.104 153.861Z" fill="#FF768A"/>
<g opacity="0.3">
<path d="M185.039 185.038L186.798 162.953C186.798 162.953 218.484 160.394 231.47 162.693L232.828 184.626V158.896L185.039 158.236V185.038Z" fill="#B9394F"/>
</g>
<path d="M225.993 168.648C225.993 170.605 224.399 172.197 222.439 172.197C220.48 172.197 218.886 170.605 218.886 168.648C218.886 166.691 220.48 165.099 222.439 165.099C224.399 165.099 225.981 166.691 225.993 168.648Z" fill="#E74555"/>
<path d="M199.796 168.412L201.083 170.381L203.102 170.688L199.442 163.967L198.025 167.481L198.627 168.919L199.796 168.412Z" fill="#FF674F"/>
<path d="M203.114 170.688L201.083 170.393L199.808 168.412L198.628 168.919L198.037 167.481L190.978 185.003L194.637 184.944L210.693 184.779L203.114 170.688Z" fill="#B9394F"/>
<path d="M210.646 172.303L211.519 173.141L212.582 173.094L213.692 173.494L210.693 168.023L208.19 171.478L209.524 172.528L210.646 172.303Z" fill="#FF674F"/>
<path d="M213.692 173.494L212.582 173.094L211.519 173.141L210.646 172.304L209.524 172.528L208.19 171.478L198.521 184.814L203.751 184.838L219.807 184.661L213.692 173.494Z" fill="#B9394F"/>
<path d="M132.28 263.512C130.321 263.948 128.384 262.71 127.948 260.753L122.08 234.269L129.175 232.7L135.043 259.184C135.48 261.142 134.24 263.088 132.28 263.512Z" fill="#CE6816"/>
<path d="M133.378 263.276C131.419 263.701 129.482 262.474 129.046 260.517L123.178 234.033L130.273 232.465L136.141 258.949C136.578 260.906 135.338 262.84 133.378 263.276Z" fill="#FF922E"/>
<path d="M140.344 210.685C142.988 222.63 135.928 234.339 124.571 236.851C113.214 239.351 101.869 231.71 99.2249 219.777C96.5805 207.832 103.64 196.123 114.997 193.611C126.354 191.099 137.699 198.752 140.344 210.685Z" fill="#CE6816"/>
<path d="M143.154 210.473C145.798 222.418 138.738 234.127 127.381 236.639C116.024 239.139 104.679 231.498 102.035 219.553C99.3903 207.619 106.45 195.91 117.807 193.399C129.164 190.887 140.509 198.54 143.154 210.473Z" fill="#FF922E"/>
<path d="M137.864 211.64C139.73 220.071 134.748 228.326 126.732 230.094C118.728 231.875 110.712 226.474 108.846 218.055C106.981 209.624 111.963 201.37 119.979 199.589C127.995 197.82 135.999 203.221 137.864 211.64Z" fill="#FFC044"/>
<path fill-rule="evenodd" clip-rule="evenodd" d="M114.43 222.276L112.034 211.475L115.528 210.709C116.787 210.434 117.826 210.465 118.645 210.803C119.463 211.141 119.979 211.802 120.191 212.784C120.309 213.303 120.298 213.786 120.156 214.235C120.014 214.69 119.731 215.072 119.306 215.378C119.936 215.386 120.439 215.575 120.817 215.944C121.195 216.314 121.447 216.782 121.573 217.348C121.801 218.401 121.643 219.27 121.1 219.953C120.557 220.645 119.664 221.129 118.42 221.404L114.43 222.276ZM115.398 215.449L116.567 215.19C117.102 215.064 117.48 214.867 117.7 214.6C117.921 214.333 117.984 213.995 117.889 213.586C117.787 213.122 117.578 212.816 117.264 212.666C116.949 212.517 116.512 212.505 115.953 212.631L114.832 212.878L115.398 215.449ZM115.764 217.112L116.366 219.812L117.995 219.458C118.491 219.348 118.842 219.16 119.046 218.892C119.251 218.625 119.306 218.275 119.211 217.843C119.109 217.371 118.924 217.041 118.657 216.852C118.389 216.656 118.011 216.613 117.523 216.723L115.764 217.112Z" fill="#F0493F"/>
<path d="M126.118 219.694L123.768 220.213L121.372 209.412L123.721 208.893L126.118 219.694Z" fill="#F0493F"/>
<path fill-rule="evenodd" clip-rule="evenodd" d="M127.865 219.317L125.48 208.516L129.152 207.702C130.348 207.435 131.438 207.627 132.422 208.28C133.414 208.932 134.051 209.907 134.335 211.204L134.771 213.138C135.055 214.443 134.886 215.594 134.264 216.593C133.642 217.599 132.733 218.236 131.537 218.503L127.865 219.317ZM128.267 209.919L129.813 216.864L130.958 216.605C131.58 216.471 132.017 216.137 132.269 215.602C132.521 215.068 132.564 214.423 132.399 213.668L131.974 211.711C131.808 210.964 131.497 210.402 131.041 210.025C130.584 209.648 130.041 209.53 129.412 209.671L128.267 209.919Z" fill="#F0493F"/>
<path d="M174.343 158.696C174.343 160.323 175.654 161.644 177.283 161.644C175.654 161.644 174.343 162.953 174.343 164.58C174.343 162.953 173.021 161.644 171.392 161.644C173.021 161.644 174.343 160.323 174.343 158.696Z" fill="white"/>
<path d="M225.697 150.359C225.697 151.986 227.02 153.307 228.637 153.307C227.02 153.307 225.697 154.616 225.697 156.243C225.697 154.616 224.375 153.307 222.758 153.307C224.375 153.307 225.697 151.986 225.697 150.359Z" fill="white"/>
<path d="M202.37 199.613C202.37 195.392 198.946 191.96 194.72 191.96C198.946 191.96 202.37 188.541 202.37 184.319C202.37 188.541 205.805 191.96 210.032 191.96C205.805 191.96 202.37 195.392 202.37 199.613Z" fill="white"/>
<path d="M161.534 97.4382C161.534 99.0654 162.857 100.374 164.486 100.374C162.857 100.374 161.534 101.695 161.534 103.322C161.534 101.695 160.224 100.374 158.595 100.374C160.224 100.374 161.534 99.0654 161.534 97.4382Z" fill="white"/>
<path d="M182.832 77.5692C182.832 78.7484 183.788 79.7035 184.968 79.7035C183.788 79.7035 182.832 80.6586 182.832 81.8378C182.832 80.6586 181.875 79.7035 180.695 79.7035C181.875 79.7035 182.832 78.7484 182.832 77.5692Z" fill="white"/>
<path d="M187.92 114.218C187.92 111.977 186.102 110.173 183.871 110.173C186.102 110.173 187.92 108.369 187.92 106.129C187.92 108.369 189.726 110.173 191.957 110.173C189.726 110.173 187.92 111.977 187.92 114.218Z" fill="white"/>
<path d="M92.1294 146.244C92.1294 147.871 93.4398 149.192 95.069 149.192C93.4398 149.192 92.1294 150.501 92.1294 152.128C92.1294 150.501 90.8071 149.192 89.178 149.192C90.8071 149.192 92.1294 147.871 92.1294 146.244Z" fill="white"/>
<path d="M114.595 131.693C114.595 133.32 115.906 134.641 117.535 134.641C115.906 134.641 114.595 135.962 114.595 137.577C114.595 135.962 113.273 134.641 111.644 134.641C113.273 134.641 114.595 133.32 114.595 131.693Z" fill="white"/>
<path d="M118.503 163.024C118.503 160.795 116.697 158.991 114.466 158.991C116.697 158.991 118.503 157.175 118.503 154.946C118.503 157.175 120.321 158.991 122.553 158.991C120.321 158.991 118.503 160.795 118.503 163.024Z" fill="white"/>
</svg>
