<svg width="420" height="281" viewBox="0 0 420 281" fill="none" xmlns="http://www.w3.org/2000/svg">
<g clip-path="url(#clip0_3049_6070)">
<path d="M420 280.959H0V0.962646H420V280.959Z" fill="#F0ECFF"/>
<path d="M341.598 265.18L250.113 264.355L217.097 264.057L123.044 263.211C123.044 263.211 121.641 262.421 119.233 260.886C112.332 256.486 97.1812 245.948 83.22 230.276C79.4173 226.024 75.8773 221.544 72.6199 216.861C68.0726 210.297 63.9981 203.107 60.8288 195.335C55.187 181.502 52.4178 165.825 54.9726 148.569C65.4166 78.0329 84.8672 78.152 106.568 42.9716C128.522 7.37555 196.583 2.41019 247.246 8.91793C257.505 10.2364 267.049 12.0229 275.354 14.1239C276.056 14.3002 276.749 14.4796 277.434 14.6622C282.995 16.1403 288.427 17.8613 293.665 19.8253C309.954 25.9281 324.37 34.3665 335.014 45.1035C350.964 61.1942 358.446 82.4421 351.047 108.704C348.98 116.043 349.303 123.129 351.057 130.098C353.033 137.948 356.824 145.651 361.061 153.409C378.397 185.161 403.196 217.842 341.598 265.18Z" fill="#E6DEFF"/>
<path d="M209.785 283.811C305.212 283.811 382.57 276.661 382.57 267.841C382.57 259.021 305.212 251.871 209.785 251.871C114.358 251.871 37 259.021 37 267.841C37 276.661 114.358 283.811 209.785 283.811Z" fill="url(#paint0_linear_3049_6070)"/>
<path d="M259.353 259.83C225.703 259.83 195.871 260.989 177.358 262.775C165.815 260.988 147.215 259.83 126.235 259.83C91.2116 259.83 62.8201 263.059 62.8201 267.042C62.8201 271.025 91.2116 274.256 126.235 274.256C147.215 274.256 165.815 273.097 177.358 271.312C195.871 273.098 225.703 274.256 259.353 274.256C315.524 274.256 361.06 271.027 361.06 267.044C361.06 263.062 315.529 259.83 259.353 259.83Z" fill="#7951F9"/>
<path d="M306.551 67.9402H306.549C305.536 67.9402 304.714 68.7619 304.714 69.7756V101.101C304.714 102.114 305.536 102.936 306.549 102.936H306.551C307.564 102.936 308.386 102.114 308.386 101.101V69.7756C308.386 68.7619 307.564 67.9402 306.551 67.9402Z" fill="#C4D554"/>
<path d="M306.551 106.564H306.549C305.536 106.564 304.714 107.385 304.714 108.399V139.724C304.714 140.738 305.536 141.559 306.549 141.559H306.551C307.564 141.559 308.386 140.738 308.386 139.724V108.399C308.386 107.385 307.564 106.564 306.551 106.564Z" fill="#C4D554"/>
<path d="M167.812 0.77002H295.202C297.918 0.77002 300.523 1.84917 302.444 3.77006C304.365 5.69096 305.444 8.29625 305.444 11.0128V259.18C305.444 261.896 304.365 264.502 302.444 266.423C300.523 268.344 297.918 269.423 295.202 269.423H167.812C165.096 269.423 162.491 268.344 160.57 266.423C158.649 264.502 157.57 261.896 157.57 259.18V11.014C157.57 8.29744 158.649 5.69215 160.57 3.77125C162.491 1.85036 165.096 0.771212 167.812 0.771212V0.77002Z" fill="#642F7C"/>
<path d="M303.062 11.0141V259.18C303.056 261.263 302.226 263.259 300.753 264.731C299.28 266.204 297.284 267.034 295.201 267.041H167.812C165.729 267.034 163.734 266.204 162.261 264.731C160.788 263.259 159.958 261.263 159.951 259.18V11.0141C159.958 8.9312 160.788 6.93543 162.261 5.46262C163.734 3.9898 165.729 3.1596 167.812 3.15332H295.201C297.284 3.1596 299.28 3.9898 300.753 5.46262C302.226 6.93543 303.056 8.9312 303.062 11.0141Z" fill="#7951F9"/>
<path d="M297.252 11.0141V259.18C297.245 259.722 297.027 260.239 296.644 260.622C296.261 261.006 295.743 261.224 295.201 261.231H167.812C167.507 261.228 167.207 261.158 166.933 261.025C166.658 260.892 166.417 260.7 166.226 260.463C165.927 260.102 165.763 259.648 165.761 259.18V11.0141C165.769 10.4724 165.987 9.95506 166.37 9.57202C166.753 9.18899 167.271 8.97053 167.812 8.96313H295.201C295.743 8.97023 296.261 9.18859 296.644 9.57169C297.027 9.95479 297.245 10.4723 297.252 11.0141Z" fill="#DEF0F4"/>
<path d="M297.252 11.0142V259.18C297.245 259.722 297.027 260.239 296.644 260.622C296.261 261.006 295.743 261.224 295.202 261.231H167.812C167.507 261.228 167.207 261.158 166.933 261.025C166.658 260.892 166.417 260.7 166.226 260.463L297.252 11.0142Z" fill="#F8FEFF"/>
<path d="M242.994 13.7651H220.019C217.701 13.7651 215.821 15.6448 215.821 17.9635V17.9647C215.821 20.2834 217.701 22.163 220.019 22.163H242.994C245.313 22.163 247.193 20.2834 247.193 17.9647V17.9635C247.193 15.6448 245.313 13.7651 242.994 13.7651Z" fill="#642F7C"/>
<path d="M222.129 21.0398C223.654 21.0398 224.891 19.8032 224.891 18.2779C224.891 16.7525 223.654 15.5159 222.129 15.5159C220.604 15.5159 219.367 16.7525 219.367 18.2779C219.367 19.8032 220.604 21.0398 222.129 21.0398Z" fill="#300A44"/>
<path d="M240.084 21.0398C241.609 21.0398 242.845 19.8032 242.845 18.2779C242.845 16.7525 241.609 15.5159 240.084 15.5159C238.558 15.5159 237.322 16.7525 237.322 18.2779C237.322 19.8032 238.558 21.0398 240.084 21.0398Z" fill="#300A44"/>
<path d="M227.879 19.9064C228.778 19.9064 229.507 19.1775 229.507 18.2783C229.507 17.3791 228.778 16.6501 227.879 16.6501C226.98 16.6501 226.251 17.3791 226.251 18.2783C226.251 19.1775 226.98 19.9064 227.879 19.9064Z" fill="#300A44"/>
<path d="M180.824 37.1677V70.957H214.614V37.1677H180.824ZM209.787 66.1298H185.649V41.9949H209.785L209.787 66.1298Z" fill="#E775B3"/>
<path d="M224.267 37.1677H219.439V41.9949H224.267V37.1677Z" fill="#D43398"/>
<path d="M233.92 37.1677H243.574V61.3026H238.747V66.1298H233.92V80.6114H238.747V85.4386H229.093V90.2658H219.439V85.4386H224.265V80.6114H229.093V75.7842H219.439V66.1298H224.265V70.957H229.093V61.3026H233.92V51.6494H238.747V41.9949H233.92V37.1677Z" fill="#D43398"/>
<path d="M248.402 37.1677V70.957H282.191V37.1677H248.402ZM277.364 66.1298H253.229V41.9949H277.364V66.1298Z" fill="#E775B3"/>
<path d="M224.265 41.9946H233.92V51.649H229.093V46.8218H224.265V41.9946Z" fill="#D43398"/>
<path d="M204.958 46.822H190.476V61.3037H204.958V46.822Z" fill="#E775B3"/>
<path d="M224.267 46.822H219.439V51.6492H224.267V46.822Z" fill="#D43398"/>
<path d="M272.538 46.822H258.056V61.3037H272.538V46.822Z" fill="#E775B3"/>
<path d="M224.267 56.4753H219.439V61.3026H224.267V56.4753Z" fill="#D43398"/>
<path d="M243.574 66.1296H238.747V75.7841H243.574V66.1296Z" fill="#D43398"/>
<path d="M204.958 75.7839H214.612V80.6111H209.785V85.4384H204.958V75.7839Z" fill="#D43398"/>
<path d="M248.402 75.7839H253.229V95.0916H248.402V90.2656H243.574V104.746H233.92V99.9188H238.747V95.0916H233.92V90.2656H238.747V85.4384H248.402V75.7839Z" fill="#D43398"/>
<path d="M258.056 75.7839H262.883V85.4384H277.364V90.2656H272.536V95.0916H277.364V99.9188H267.71V104.746H262.883V95.0916H267.71V90.2656H262.883V95.0916H258.056V75.7839Z" fill="#D43398"/>
<path d="M272.537 75.7839H267.71V80.6111H272.537V75.7839Z" fill="#D43398"/>
<path d="M282.191 75.7839H277.364V85.4384H282.191V75.7839Z" fill="#D43398"/>
<path d="M185.649 80.6113H190.476V99.919H185.649V95.0918H180.823V85.4385H185.649V80.6113Z" fill="#D43398"/>
<path d="M200.131 80.6113H195.303V85.4385H200.131V80.6113Z" fill="#D43398"/>
<path d="M214.612 85.4387H209.785V90.2659H214.612V85.4387Z" fill="#D43398"/>
<path d="M195.303 90.2656H204.958V95.0916H214.612V90.2656H219.44V99.9189H200.131V95.0916H195.303V90.2656Z" fill="#D43398"/>
<path d="M229.094 95.093H224.267V99.9202H229.094V95.093Z" fill="#D43398"/>
<path d="M224.267 99.9189H219.439V104.746H224.267V99.9189Z" fill="#D43398"/>
<path d="M248.402 99.9189H258.056V109.573H267.71V114.401H258.056V119.228H248.402V128.882H233.92V133.709H229.093V119.228H233.92V124.055H238.747V119.228H243.574V114.401H238.747V109.573H253.229V104.746H248.402V99.9189Z" fill="#D43398"/>
<path d="M180.824 104.746V138.537H214.614V104.746H180.824ZM209.785 133.716H185.649V109.574H209.785V133.716Z" fill="#E775B3"/>
<path d="M233.921 104.746H224.267V109.574H233.921V104.746Z" fill="#D43398"/>
<path d="M277.364 104.746H272.536V109.574H277.364V104.746Z" fill="#D43398"/>
<path d="M224.267 109.573H219.439V114.4H224.267V109.573Z" fill="#D43398"/>
<path d="M204.958 114.401H190.476V128.882H204.958V114.401Z" fill="#E775B3"/>
<path d="M229.094 114.401H224.267V119.228H229.094V114.401Z" fill="#D43398"/>
<path d="M267.71 114.401H272.536V124.055H282.191V128.882H272.536V133.709H277.364V138.537H258.056V128.882H262.883V133.709H267.71V114.401Z" fill="#D43398"/>
<path d="M253.229 128.882H248.402V133.71H253.229V128.882Z" fill="#D43398"/>
<path d="M229.094 133.709H224.267V138.537H229.094V133.709Z" fill="#D43398"/>
<path d="M243.574 133.709H233.92V138.537H243.574V133.709Z" fill="#D43398"/>
<path d="M306.108 50.1736H158.308V52.9915H306.108V50.1736Z" fill="#C4D554"/>
<path d="M159.95 47.9773H152.74V55.1877H159.95V47.9773Z" fill="#6AC7E7"/>
<path d="M310.273 47.9773H303.062V55.1877H310.273V47.9773Z" fill="#6AC7E7"/>
<path d="M258.194 148.031H187.882C185.076 148.031 182.801 150.306 182.801 153.112V179.735C182.801 182.541 185.076 184.816 187.882 184.816H258.194C261 184.816 263.275 182.541 263.275 179.735V153.112C263.275 150.306 261 148.031 258.194 148.031Z" fill="#A1CAD1"/>
<path d="M185.938 196.288C186.559 196.288 187.165 196.104 187.681 195.76C188.197 195.415 188.599 194.925 188.836 194.352C189.074 193.779 189.136 193.149 189.016 192.54C188.895 191.932 188.596 191.373 188.158 190.934C187.72 190.495 187.161 190.196 186.553 190.074C185.944 189.953 185.314 190.015 184.74 190.251C184.167 190.488 183.677 190.89 183.332 191.405C182.987 191.921 182.802 192.527 182.801 193.147C182.801 193.56 182.882 193.968 183.039 194.349C183.196 194.73 183.427 195.076 183.719 195.368C184.01 195.66 184.356 195.891 184.737 196.049C185.118 196.207 185.526 196.288 185.938 196.288Z" fill="#A1CAD1"/>
<path d="M192.462 193.147C192.462 193.768 192.646 194.374 192.99 194.89C193.335 195.406 193.825 195.808 194.398 196.046C194.972 196.283 195.602 196.345 196.211 196.224C196.819 196.103 197.378 195.804 197.817 195.366C198.256 194.927 198.555 194.368 198.676 193.759C198.797 193.151 198.735 192.52 198.497 191.947C198.26 191.374 197.858 190.884 197.342 190.539C196.826 190.194 196.219 190.01 195.599 190.01C194.767 190.01 193.969 190.341 193.381 190.929C192.792 191.517 192.462 192.315 192.462 193.147Z" fill="#A1CAD1"/>
<path d="M202.121 193.147C202.121 193.768 202.305 194.374 202.65 194.89C202.994 195.406 203.484 195.808 204.057 196.046C204.631 196.283 205.261 196.345 205.87 196.224C206.479 196.103 207.038 195.804 207.476 195.366C207.915 194.927 208.214 194.368 208.335 193.759C208.456 193.151 208.394 192.52 208.156 191.947C207.919 191.374 207.517 190.884 207.001 190.539C206.485 190.194 205.878 190.01 205.258 190.01C204.846 190.01 204.438 190.091 204.057 190.249C203.677 190.407 203.331 190.638 203.04 190.929C202.748 191.22 202.517 191.566 202.36 191.947C202.202 192.327 202.121 192.735 202.121 193.147Z" fill="#A1CAD1"/>
<path d="M211.78 193.147C211.78 193.768 211.964 194.374 212.309 194.89C212.653 195.406 213.143 195.808 213.717 196.046C214.29 196.283 214.921 196.345 215.529 196.224C216.138 196.103 216.697 195.804 217.135 195.366C217.574 194.927 217.873 194.368 217.994 193.759C218.115 193.151 218.053 192.52 217.816 191.947C217.578 191.374 217.176 190.884 216.66 190.539C216.144 190.194 215.538 190.01 214.917 190.01C214.085 190.01 213.287 190.341 212.699 190.929C212.111 191.517 211.78 192.315 211.78 193.147Z" fill="#A1CAD1"/>
<path d="M221.438 193.147C221.438 193.768 221.622 194.374 221.967 194.89C222.311 195.406 222.801 195.808 223.375 196.046C223.948 196.283 224.579 196.345 225.187 196.224C225.796 196.103 226.355 195.804 226.793 195.366C227.232 194.927 227.531 194.368 227.652 193.759C227.773 193.151 227.711 192.52 227.473 191.947C227.236 191.374 226.834 190.884 226.318 190.539C225.802 190.194 225.196 190.01 224.575 190.01C223.743 190.01 222.945 190.341 222.357 190.929C221.769 191.517 221.438 192.315 221.438 193.147Z" fill="#A1CAD1"/>
<path d="M231.1 193.147C231.1 193.768 231.284 194.374 231.628 194.89C231.973 195.406 232.463 195.808 233.036 196.046C233.609 196.283 234.24 196.345 234.849 196.224C235.457 196.103 236.016 195.804 236.455 195.366C236.894 194.927 237.193 194.368 237.314 193.759C237.435 193.151 237.373 192.52 237.135 191.947C236.898 191.374 236.496 190.884 235.98 190.539C235.464 190.194 234.857 190.01 234.237 190.01C233.405 190.01 232.607 190.341 232.018 190.929C231.43 191.517 231.1 192.315 231.1 193.147Z" fill="#A1CAD1"/>
<path d="M240.759 193.147C240.759 193.768 240.943 194.374 241.287 194.89C241.632 195.406 242.122 195.808 242.695 196.046C243.268 196.283 243.899 196.345 244.508 196.224C245.116 196.103 245.675 195.804 246.114 195.366C246.553 194.927 246.852 194.368 246.973 193.759C247.094 193.151 247.031 192.52 246.794 191.947C246.557 191.374 246.154 190.884 245.639 190.539C245.123 190.194 244.516 190.01 243.896 190.01C243.064 190.01 242.266 190.341 241.677 190.929C241.089 191.517 240.759 192.315 240.759 193.147Z" fill="#A1CAD1"/>
<path d="M184.689 205.489H282.284C282.531 205.489 282.777 205.44 283.006 205.345C283.235 205.25 283.443 205.111 283.618 204.936C283.793 204.761 283.932 204.553 284.027 204.324C284.121 204.095 284.17 203.85 284.17 203.602C284.17 203.354 284.121 203.109 284.027 202.88C283.932 202.651 283.793 202.443 283.618 202.268C283.443 202.093 283.235 201.954 283.006 201.859C282.777 201.764 282.531 201.716 282.284 201.716H184.689C184.441 201.716 184.196 201.764 183.967 201.859C183.738 201.954 183.53 202.093 183.355 202.268C183.18 202.443 183.041 202.651 182.946 202.88C182.851 203.109 182.802 203.354 182.802 203.602C182.802 203.85 182.851 204.095 182.946 204.324C183.041 204.553 183.18 204.761 183.355 204.936C183.53 205.111 183.738 205.25 183.967 205.345C184.196 205.44 184.441 205.489 184.689 205.489Z" fill="#A1CAD1"/>
<path d="M278.297 210.707H188.674C185.431 210.707 182.801 213.336 182.801 216.579V241.398C182.801 244.642 185.431 247.271 188.674 247.271H278.297C281.541 247.271 284.17 244.642 284.17 241.398V216.579C284.17 213.336 281.541 210.707 278.297 210.707Z" fill="#A1CAD1"/>
<path d="M256.216 146.215H185.904C183.098 146.215 180.823 148.49 180.823 151.296V177.919C180.823 180.725 183.098 183 185.904 183H256.216C259.022 183 261.297 180.725 261.297 177.919V151.296C261.297 148.49 259.022 146.215 256.216 146.215Z" fill="#7951F9"/>
<path d="M195.805 171.104C195.953 171.311 196.017 171.566 195.986 171.819C195.949 172.029 195.842 172.22 195.683 172.363C195.52 172.51 195.319 172.607 195.102 172.643C194.874 172.682 194.639 172.658 194.422 172.575C194.181 172.477 193.977 172.304 193.84 172.083L192.768 170.331C192.515 169.934 192.082 169.735 191.468 169.735C190.42 169.726 189.504 169.494 188.718 169.04C187.935 168.59 187.298 167.924 186.883 167.121C186.445 166.295 186.226 165.333 186.226 164.235C186.226 163.137 186.445 162.173 186.883 161.342C187.301 160.545 187.938 159.884 188.718 159.437C189.504 158.984 190.426 158.757 191.484 158.757C192.542 158.756 193.465 158.982 194.255 159.437C195.039 159.883 195.679 160.544 196.099 161.342C196.537 162.164 196.757 163.124 196.757 164.221C196.757 165.379 196.515 166.383 196.031 167.235C195.576 168.059 194.887 168.729 194.052 169.161C194.495 169.292 194.878 169.615 195.2 170.128L195.805 171.104ZM191.484 167.75C192.37 167.75 193.062 167.44 193.561 166.82C194.06 166.2 194.309 165.341 194.309 164.244C194.309 163.132 194.062 162.273 193.568 161.667C193.074 161.062 192.38 160.757 191.484 160.754C190.611 160.754 189.923 161.058 189.421 161.667C188.919 162.276 188.67 163.135 188.673 164.244C188.673 165.342 188.922 166.2 189.421 166.82C189.92 167.439 190.607 167.749 191.484 167.75Z" fill="white"/>
<path d="M199.747 169.714C199.365 169.714 199.073 169.608 198.872 169.396C198.669 169.185 198.569 168.887 198.569 168.505V160.119C198.569 159.325 198.966 158.928 199.76 158.928H203.432C204.623 158.928 205.54 159.215 206.182 159.789C206.825 160.363 207.147 161.164 207.148 162.191C207.148 162.985 206.945 163.648 206.537 164.178C206.13 164.708 205.548 165.068 204.791 165.258C205.326 165.417 205.762 165.805 206.101 166.422L207.039 168.16C207.25 168.542 207.29 168.898 207.158 169.224C207.026 169.551 206.71 169.716 206.205 169.716C205.918 169.728 205.634 169.654 205.389 169.504C205.155 169.338 204.968 169.114 204.845 168.855L203.394 166.18C203.277 165.932 203.08 165.73 202.836 165.606C202.587 165.5 202.319 165.449 202.049 165.455H200.901V168.507C200.901 168.89 200.804 169.187 200.607 169.398C200.411 169.609 200.131 169.714 199.747 169.714ZM200.911 163.759H203.012C204.271 163.759 204.9 163.255 204.9 162.247C204.899 161.24 204.27 160.741 203.012 160.751H200.911V163.759Z" fill="white"/>
<path d="M218.468 169.744C217.319 169.744 216.337 169.517 215.521 169.064C214.72 168.627 214.066 167.964 213.64 167.158C213.202 166.337 212.983 165.368 212.983 164.25C212.983 163.132 213.202 162.167 213.64 161.357C214.067 160.551 214.721 159.888 215.521 159.451C216.337 158.998 217.319 158.772 218.468 158.771C218.985 158.773 219.5 158.839 220.002 158.968C220.474 159.081 220.929 159.259 221.353 159.496C221.665 159.679 221.857 159.906 221.927 160.176C221.999 160.433 221.975 160.707 221.86 160.947C221.753 161.18 221.561 161.364 221.324 161.462C221.085 161.562 220.809 161.527 220.508 161.356C220.212 161.177 219.891 161.045 219.555 160.962C219.223 160.882 218.884 160.842 218.543 160.843C217.525 160.843 216.758 161.138 216.239 161.728C215.721 162.318 215.461 163.161 215.461 164.258C215.461 165.356 215.721 166.203 216.239 166.797C216.758 167.392 217.525 167.689 218.543 167.688C218.876 167.687 219.208 167.647 219.532 167.569C219.873 167.487 220.201 167.36 220.508 167.192C220.825 167.02 221.107 166.98 221.353 167.072C221.586 167.161 221.778 167.333 221.889 167.556C222.006 167.785 222.035 168.048 221.973 168.297C221.937 168.436 221.873 168.566 221.785 168.679C221.697 168.792 221.586 168.886 221.459 168.954C221.033 169.224 220.566 169.423 220.077 169.543C219.551 169.679 219.01 169.746 218.468 169.744Z" fill="white"/>
<path d="M228.212 169.744C227.166 169.744 226.247 169.515 225.455 169.057C224.671 168.605 224.031 167.939 223.612 167.138C223.174 166.318 222.955 165.353 222.955 164.244C222.955 163.134 223.174 162.17 223.612 161.351C224.03 160.554 224.667 159.893 225.448 159.445C226.233 158.992 227.155 158.766 228.212 158.765C229.27 158.764 230.194 158.991 230.985 159.445C231.769 159.891 232.409 160.552 232.829 161.351C233.267 162.172 233.486 163.132 233.486 164.229C233.486 165.327 233.267 166.293 232.829 167.129C232.411 167.935 231.771 168.603 230.985 169.057C230.194 169.515 229.27 169.745 228.212 169.744ZM228.212 167.75C229.099 167.75 229.791 167.44 230.291 166.82C230.79 166.2 231.04 165.341 231.039 164.244C231.039 163.132 230.792 162.273 230.298 161.667C229.804 161.062 229.109 160.757 228.212 160.754C227.339 160.754 226.652 161.058 226.151 161.667C225.65 162.276 225.4 163.135 225.403 164.244C225.403 165.342 225.652 166.2 226.151 166.82C226.649 167.439 227.337 167.749 228.212 167.75Z" fill="white"/>
<path d="M236.522 169.577C235.706 169.577 235.298 169.17 235.299 168.354V160.156C235.299 159.34 235.707 158.932 236.522 158.932H239.469C241.282 158.932 242.687 159.393 243.684 160.315C244.681 161.237 245.18 162.547 245.18 164.245C245.18 165.948 244.681 167.263 243.684 168.188C242.687 169.114 241.282 169.578 239.469 169.578L236.522 169.577ZM237.636 167.66H239.328C241.595 167.66 242.728 166.521 242.727 164.245C242.727 161.969 241.594 160.836 239.328 160.846H237.636V167.66Z" fill="white"/>
<path d="M248.217 169.577C247.401 169.577 246.993 169.17 246.993 168.354V160.156C246.993 159.34 247.401 158.932 248.217 158.932H253.49C254.104 158.932 254.412 159.234 254.412 159.838C254.412 160.442 254.104 160.75 253.49 160.76H249.229V163.253H253.142C253.768 163.253 254.08 163.56 254.079 164.175C254.078 164.789 253.766 165.097 253.142 165.097H249.229V167.756H253.49C254.104 167.756 254.412 168.058 254.412 168.663C254.412 169.267 254.104 169.574 253.49 169.583L248.217 169.577Z" fill="white"/>
<path d="M183.96 194.472C185.693 194.472 187.097 193.067 187.097 191.335C187.097 189.602 185.693 188.198 183.96 188.198C182.228 188.198 180.823 189.602 180.823 191.335C180.823 193.067 182.228 194.472 183.96 194.472Z" fill="#E775B3"/>
<path d="M193.619 194.472C195.352 194.472 196.756 193.067 196.756 191.335C196.756 189.602 195.352 188.198 193.619 188.198C191.887 188.198 190.482 189.602 190.482 191.335C190.482 193.067 191.887 194.472 193.619 194.472Z" fill="#E775B3"/>
<path d="M203.279 194.472C205.011 194.472 206.416 193.067 206.416 191.335C206.416 189.602 205.011 188.198 203.279 188.198C201.546 188.198 200.141 189.602 200.141 191.335C200.141 193.067 201.546 194.472 203.279 194.472Z" fill="#E775B3"/>
<path d="M212.938 194.472C214.67 194.472 216.075 193.067 216.075 191.335C216.075 189.602 214.67 188.198 212.938 188.198C211.205 188.198 209.801 189.602 209.801 191.335C209.801 193.067 211.205 194.472 212.938 194.472Z" fill="#E775B3"/>
<path d="M222.598 194.472C224.331 194.472 225.735 193.067 225.735 191.335C225.735 189.602 224.331 188.198 222.598 188.198C220.865 188.198 219.461 189.602 219.461 191.335C219.461 193.067 220.865 194.472 222.598 194.472Z" fill="#E775B3"/>
<path d="M232.257 194.472C233.99 194.472 235.394 193.067 235.394 191.335C235.394 189.602 233.99 188.198 232.257 188.198C230.525 188.198 229.12 189.602 229.12 191.335C229.12 193.067 230.525 194.472 232.257 194.472Z" fill="#E775B3"/>
<path d="M241.916 194.472C243.649 194.472 245.054 193.067 245.054 191.335C245.054 189.602 243.649 188.198 241.916 188.198C240.184 188.198 238.779 189.602 238.779 191.335C238.779 193.067 240.184 194.472 241.916 194.472Z" fill="#E775B3"/>
<path d="M280.305 199.898H182.71C181.668 199.898 180.823 200.743 180.823 201.785V201.786C180.823 202.828 181.668 203.672 182.71 203.672H280.305C281.347 203.672 282.192 202.828 282.192 201.786V201.785C282.192 200.743 281.347 199.898 280.305 199.898Z" fill="#C4D554"/>
<path d="M276.319 208.89H186.696C183.452 208.89 180.823 211.52 180.823 214.763V239.582C180.823 242.825 183.452 245.454 186.696 245.454H276.319C279.563 245.454 282.192 242.825 282.192 239.582V214.763C282.192 211.52 279.563 208.89 276.319 208.89Z" fill="#928BC1"/>
<path d="M213.359 214.826H189.814C188.313 214.826 187.097 216.042 187.097 217.543V237.086C187.097 238.587 188.313 239.803 189.814 239.803H213.359C214.86 239.803 216.076 238.587 216.076 237.086V217.543C216.076 216.042 214.86 214.826 213.359 214.826Z" fill="white"/>
<path d="M273.058 215.366H220.89C220.101 215.366 219.461 216.006 219.461 216.795V217.356C219.461 218.145 220.101 218.785 220.89 218.785H273.058C273.847 218.785 274.487 218.145 274.487 217.356V216.795C274.487 216.006 273.847 215.366 273.058 215.366Z" fill="white"/>
<path d="M273.058 236.383H220.89C220.101 236.383 219.461 237.022 219.461 237.812V238.373C219.461 239.162 220.101 239.802 220.89 239.802H273.058C273.847 239.802 274.487 239.162 274.487 238.373V237.812C274.487 237.022 273.847 236.383 273.058 236.383Z" fill="white"/>
<path d="M248.994 222.896H221.17C220.226 222.896 219.461 223.661 219.461 224.605V224.606C219.461 225.55 220.226 226.315 221.17 226.315H248.994C249.937 226.315 250.703 225.55 250.703 224.606V224.605C250.703 223.661 249.937 222.896 248.994 222.896Z" fill="white"/>
<path d="M47.3225 132.773C50.0321 132.693 52.507 134.411 54.2304 136.5C55.9539 138.589 57.1377 141.071 58.6742 143.307C59.2053 144.08 59.802 144.843 60.6179 145.307C61.6696 145.903 62.938 145.926 64.1195 146.184C65.5293 146.507 66.838 147.172 67.9302 148.12C69.0223 149.068 69.8643 150.271 70.3819 151.621C72.2232 156.575 69.5089 162.92 72.8723 166.997C73.8144 168.138 75.1186 168.911 76.2274 169.889C78.9251 172.271 80.3829 175.805 80.9069 179.362C81.431 182.92 81.1082 186.543 80.7593 190.122C80.4139 193.657 80.0443 197.19 79.6504 200.722C79.4122 202.866 78.544 205.615 76.3811 205.638C75.4795 205.647 74.6684 205.124 73.9287 204.608C68.4428 200.779 63.4626 196.273 59.1065 191.195C55.5263 187.018 52.2319 181.328 54.4484 176.292C54.9677 175.112 55.7907 173.925 55.5513 172.658C55.4084 171.902 54.901 171.271 54.3769 170.707C52.0961 168.254 49.1781 166.412 47.1379 163.755C45.0977 161.098 44.1604 157.086 46.278 154.487C47.2308 153.317 48.8173 152.199 48.4326 150.74C48.2706 150.126 47.7763 149.668 47.3261 149.221C43.8912 145.802 37.7455 133.053 47.3225 132.773Z" fill="#C4D554"/>
<path d="M47.6203 139.622C49.8368 142.334 51.908 145.162 53.8815 148.059C55.8551 150.955 57.6845 153.946 59.4246 156.991C61.1646 160.037 62.7832 163.144 64.3077 166.3C65.8322 169.457 67.2472 172.664 68.568 175.91C69.8889 179.155 71.0847 182.451 72.1959 185.774L73.0082 188.275C73.2726 189.109 73.5251 189.942 73.7835 190.785C74.042 191.629 74.2754 192.466 74.5208 193.307C74.7661 194.148 74.9805 194.998 75.2115 195.843C76.1032 199.23 76.8897 202.644 77.571 206.085C77.7377 206.944 77.889 207.808 78.0474 208.669C78.2058 209.53 78.3368 210.396 78.4821 211.259L78.8727 213.856L79.2086 216.46C79.2204 216.551 79.1962 216.642 79.1411 216.715C79.086 216.787 79.0046 216.835 78.9144 216.848C78.8242 216.861 78.7325 216.838 78.6592 216.784C78.5858 216.73 78.5368 216.649 78.5226 216.559V216.552L78.1224 213.97L77.6841 211.394C77.5233 210.537 77.3709 209.68 77.2077 208.826C77.0445 207.972 76.8671 207.118 76.6848 206.266C75.9702 202.856 75.1496 199.472 74.223 196.114C73.9848 195.28 73.7537 194.437 73.5084 193.601C73.263 192.765 73.0213 191.934 72.7676 191.1C72.5139 190.266 72.2542 189.432 71.9886 188.607L71.1728 186.127C70.0612 182.827 68.8511 179.562 67.5426 176.334C66.234 173.105 64.8373 169.917 63.3525 166.769C61.8578 163.624 60.2559 160.532 58.5694 157.486C56.8829 154.439 55.0809 151.459 53.1729 148.546C51.2649 145.633 49.2532 142.789 47.1273 140.029C47.0804 139.962 47.0607 139.881 47.0724 139.8C47.084 139.72 47.1259 139.647 47.1897 139.596C47.2534 139.546 47.3341 139.522 47.415 139.529C47.496 139.536 47.5712 139.574 47.6251 139.635L47.6203 139.622Z" fill="#224942"/>
<path d="M61.1264 162.258C61.0899 162.258 61.0535 162.253 61.018 162.245L49.0733 159.386C48.9537 159.358 48.8504 159.283 48.7861 159.178C48.7217 159.073 48.7017 158.947 48.7302 158.828C48.7588 158.708 48.8337 158.605 48.9385 158.541C49.0432 158.476 49.1693 158.456 49.2888 158.485L61.2348 161.343C61.346 161.369 61.4438 161.435 61.5095 161.528C61.5751 161.622 61.604 161.736 61.5906 161.849C61.5771 161.963 61.5223 162.067 61.4367 162.142C61.351 162.218 61.2405 162.259 61.1264 162.258Z" fill="#224942"/>
<path d="M65.2116 168.869C65.1588 168.869 65.1065 168.861 65.0567 168.843C64.9989 168.823 64.9456 168.791 64.9 168.75C64.8545 168.709 64.8175 168.66 64.7912 168.604C64.765 168.549 64.75 168.489 64.7471 168.428C64.7442 168.367 64.7535 168.305 64.7744 168.248C66.1068 164.478 67.1391 160.609 67.8616 156.677C67.8838 156.556 67.9533 156.449 68.0545 156.379C68.1558 156.309 68.2807 156.283 68.4017 156.305C68.5227 156.327 68.6299 156.396 68.6997 156.498C68.7695 156.599 68.7962 156.724 68.7739 156.845C68.0422 160.825 66.9972 164.742 65.6486 168.557C65.6172 168.648 65.5583 168.727 65.4799 168.783C65.4016 168.839 65.3078 168.869 65.2116 168.869Z" fill="#224942"/>
<path d="M71.8682 185.849C71.7756 185.849 71.685 185.821 71.6086 185.769C71.5585 185.735 71.5157 185.691 71.4826 185.64C71.4495 185.589 71.4267 185.532 71.4157 185.472C71.4046 185.412 71.4054 185.351 71.4181 185.292C71.4308 185.232 71.455 185.176 71.4895 185.126C73.2074 182.587 74.7018 179.904 75.9558 177.107C76.0095 177 76.1024 176.917 76.2152 176.877C76.328 176.837 76.452 176.842 76.5612 176.891C76.6705 176.94 76.7566 177.029 76.8016 177.14C76.8465 177.251 76.8469 177.375 76.8026 177.487C75.5265 180.333 74.0054 183.062 72.2565 185.645C72.2136 185.709 72.1557 185.76 72.088 185.796C72.0202 185.831 71.9447 185.85 71.8682 185.849Z" fill="#224942"/>
<path d="M83.969 126.427C86.2677 127.882 87.423 130.583 88.2293 133.182C89.0357 135.781 89.6585 138.534 91.3438 140.67C92.9922 142.755 95.4755 144.013 97.3168 145.93C101.256 150.031 101.604 156.641 99.4833 161.919C98.2006 165.119 96.0829 168.394 96.9512 171.73C97.287 173.024 98.0505 174.158 98.6186 175.367C100.225 178.78 100.246 182.784 99.3011 186.443C98.3566 190.102 96.5093 193.449 94.4834 196.631C93.5044 198.17 92.355 199.777 90.6257 200.354C87.7839 201.307 84.9171 199.098 82.8685 196.912C79.804 193.644 77.0552 189.993 75.4223 185.821C73.7894 181.649 73.3463 176.899 74.853 172.681C75.3294 171.362 75.9809 170.097 76.231 168.719C77.1099 163.892 72.8854 159.487 72.8092 154.582C72.7234 149.068 77.8662 144.311 77.2017 138.837C76.9634 136.826 75.938 134.993 75.5033 133.016C74.4945 128.409 79.5575 123.639 83.969 126.427Z" fill="#ADBA2B"/>
<path d="M82.2613 132.688L82.6186 133.983C82.7377 134.416 82.8568 134.847 82.9616 135.283C83.176 136.152 83.3975 137.019 83.5893 137.895L83.8858 139.205L84.1633 140.515L84.4361 141.825L84.691 143.142C85.3579 146.659 85.9129 150.194 86.3989 153.742C86.8848 157.29 87.2802 160.842 87.6209 164.402C87.9615 167.962 88.2402 171.528 88.4665 175.097C88.6928 178.667 88.8333 182.244 88.9346 185.817C88.9643 186.71 88.981 187.603 89.0001 188.498L89.0263 189.839L89.043 191.18L89.0584 192.521V193.862C89.0584 194.756 89.0541 195.65 89.0453 196.544C89.0108 200.117 88.9119 203.697 88.725 207.27L88.6487 208.61L88.557 209.949L88.4617 211.288L88.3498 212.625C88.2807 213.517 88.1866 214.412 88.0997 215.299C88.0568 215.745 88.002 216.189 87.9496 216.633L87.7912 217.967C87.7812 218.058 87.7354 218.142 87.6637 218.2C87.592 218.257 87.5003 218.284 87.4089 218.274C87.3174 218.264 87.2337 218.219 87.1761 218.147C87.1184 218.075 87.0916 217.983 87.1016 217.892C87.4502 214.349 87.6884 210.796 87.8162 207.232C87.9639 203.672 88.0223 200.109 88.0175 196.544V195.208L88.0044 193.871L87.996 192.535L87.9758 191.199L87.9556 189.862L87.9246 188.526C87.9032 187.634 87.8841 186.74 87.8519 185.854C87.7424 182.29 87.5709 178.729 87.3577 175.17C87.1445 171.611 86.8813 168.056 86.5621 164.507C86.2429 160.958 85.8474 157.413 85.4175 153.877C84.9875 150.341 84.4647 146.814 83.8465 143.305C83.2284 139.797 82.5233 136.306 81.6515 132.855C81.6302 132.774 81.642 132.688 81.6845 132.615C81.7269 132.542 81.7964 132.49 81.8778 132.468C81.9591 132.447 82.0456 132.459 82.1182 132.501C82.1908 132.544 82.2435 132.613 82.2649 132.695L82.2613 132.688Z" fill="#224942"/>
<path d="M86.3963 159.72C86.298 159.719 86.2023 159.688 86.1224 159.631L82.2373 156.792C80.4162 155.461 78.532 154.086 76.6192 152.827C76.5651 152.795 76.518 152.752 76.4808 152.701C76.4436 152.651 76.4171 152.593 76.4029 152.532C76.3887 152.47 76.3871 152.407 76.3981 152.345C76.4092 152.283 76.4327 152.224 76.4672 152.171C76.5018 152.119 76.5467 152.074 76.5991 152.039C76.6515 152.005 76.7105 151.981 76.7724 151.97C76.8342 151.958 76.8977 151.96 76.959 151.974C77.0203 151.988 77.0781 152.014 77.129 152.051C79.0608 153.323 80.9533 154.706 82.7839 156.044L86.6702 158.882C86.747 158.94 86.8035 159.021 86.8321 159.113C86.8607 159.206 86.8599 159.304 86.8298 159.396C86.7997 159.488 86.7417 159.568 86.664 159.625C86.5864 159.682 86.4928 159.714 86.3963 159.716V159.72Z" fill="#224942"/>
<path d="M87.7732 169.523C87.6838 169.524 87.5963 169.498 87.5212 169.45C87.4461 169.401 87.3866 169.332 87.3498 169.251C87.3131 169.169 87.3007 169.079 87.3141 168.991C87.3275 168.902 87.3661 168.82 87.4254 168.753C90.4589 165.308 93.4353 161.726 96.2711 158.121C96.3491 158.03 96.459 157.973 96.578 157.961C96.6969 157.95 96.8158 157.985 96.9098 158.058C97.0038 158.132 97.0658 158.239 97.0828 158.358C97.0999 158.476 97.0706 158.596 97.0012 158.693C94.1535 162.317 91.1652 165.907 88.121 169.366C88.0775 169.416 88.024 169.455 87.964 169.482C87.904 169.509 87.839 169.523 87.7732 169.523Z" fill="#224942"/>
<path d="M88.2283 186.597C88.1375 186.597 88.0488 186.57 87.9734 186.519C84.7196 184.369 81.7022 181.881 78.9716 179.097C78.929 179.053 78.8954 179.002 78.8726 178.945C78.8499 178.889 78.8385 178.828 78.8391 178.768C78.8397 178.707 78.8523 178.647 78.8762 178.591C78.9001 178.535 78.9347 178.484 78.9782 178.441C79.0217 178.399 79.0731 178.365 79.1296 178.342C79.1861 178.319 79.2465 178.308 79.3074 178.309C79.3683 178.309 79.4284 178.322 79.4845 178.346C79.5405 178.37 79.5912 178.404 79.6339 178.448C82.3188 181.185 85.2854 183.632 88.4843 185.746C88.5677 185.801 88.6312 185.881 88.6652 185.975C88.6993 186.069 88.7021 186.171 88.6734 186.267C88.6446 186.363 88.5857 186.446 88.5055 186.506C88.4253 186.565 88.3281 186.597 88.2283 186.597Z" fill="#224942"/>
<path d="M89.0477 193.257C88.9484 193.258 88.8498 193.24 88.7571 193.204C88.6461 193.163 88.5475 193.094 88.4706 193.004C88.3937 192.913 88.341 192.805 88.3176 192.689C88.2947 192.584 88.3024 192.476 88.3398 192.375C88.3772 192.275 88.4428 192.188 88.5286 192.124C88.6144 192.061 88.7167 192.023 88.8234 192.016C88.9301 192.009 89.0365 192.033 89.1299 192.085L95.2601 187.688C95.3801 187.605 95.5276 187.573 95.6711 187.598C95.8145 187.623 95.9424 187.704 96.0272 187.822C96.112 187.94 96.147 188.087 96.1248 188.231C96.1025 188.375 96.0246 188.505 95.908 188.592L89.7147 193.031C89.5197 193.17 89.2875 193.249 89.0477 193.257Z" fill="#224942"/>
<path d="M121.811 130.563C119.101 130.616 116.714 132.453 115.089 134.624C113.465 136.795 112.411 139.333 110.986 141.642C110.493 142.44 109.934 143.233 109.142 143.735C108.12 144.383 106.856 144.468 105.688 144.783C104.296 145.175 103.022 145.904 101.978 146.904C100.934 147.905 100.152 149.147 99.7011 150.522C98.1064 155.56 101.13 161.765 97.9706 166.005C97.0857 167.196 95.8268 168.03 94.7608 169.059C92.1834 171.56 90.9019 175.172 90.5529 178.751C90.2039 182.33 90.7054 185.932 91.2306 189.49C91.7483 193.003 92.2914 196.513 92.8599 200.019C93.2053 202.155 94.2046 204.853 96.3651 204.768C97.2667 204.733 98.0516 204.173 98.765 203.62C104.056 199.526 108.809 194.779 112.91 189.493C116.28 185.146 119.29 179.299 116.829 174.379C116.253 173.226 115.371 172.082 115.549 170.806C115.655 170.044 116.13 169.389 116.621 168.8C118.779 166.237 121.602 164.255 123.51 161.501C125.418 158.746 126.154 154.69 123.912 152.2C122.903 151.079 121.265 150.041 121.577 148.565C121.709 147.944 122.179 147.462 122.607 146.993C125.879 143.407 131.397 130.371 121.811 130.563Z" fill="#C4D554"/>
<path d="M122.368 137.786C120.383 140.645 118.509 143.579 116.747 146.59C114.985 149.601 113.335 152.666 111.797 155.785C110.264 158.91 108.82 162.078 107.476 165.292C106.133 168.505 104.9 171.761 103.763 175.058C102.625 178.355 101.566 181.667 100.618 185.017L99.9252 187.535C99.7013 188.376 99.4881 189.22 99.2702 190.063C99.0522 190.905 98.8593 191.755 98.6532 192.601C98.4472 193.446 98.2614 194.297 98.0648 195.146C97.3058 198.544 96.6527 201.964 96.1056 205.406C95.9663 206.266 95.8412 207.127 95.709 207.989C95.5768 208.85 95.4708 209.714 95.3517 210.577L95.042 213.172L94.7681 215.771C94.756 215.859 94.7103 215.939 94.6404 215.995C94.5706 216.051 94.482 216.077 94.3931 216.069C94.3042 216.061 94.2219 216.019 94.1633 215.951C94.1047 215.884 94.0743 215.797 94.0785 215.708L94.2869 213.087L94.549 210.467C94.6514 209.598 94.7467 208.727 94.855 207.859C94.9634 206.991 95.0813 206.122 95.2052 205.255C95.7134 201.789 96.3315 198.342 97.0596 194.912C97.2478 194.057 97.4265 193.2 97.623 192.347C97.8195 191.494 98.0255 190.641 98.2363 189.791C98.4472 188.941 98.6639 188.093 98.8867 187.246L99.5762 184.71C100.522 181.336 101.561 177.988 102.715 174.679C103.869 171.371 105.134 168.101 106.497 164.872C107.861 161.644 109.321 158.458 110.914 155.335C112.506 152.212 114.195 149.141 116.011 146.144C117.827 143.146 119.769 140.227 121.847 137.409C121.898 137.345 121.971 137.303 122.052 137.291C122.133 137.28 122.215 137.3 122.281 137.347C122.348 137.395 122.393 137.466 122.409 137.546C122.424 137.626 122.408 137.709 122.364 137.778L122.368 137.786Z" fill="#224942"/>
<path d="M108.55 160.568C107.954 159.797 107.392 159.02 106.838 158.212C106.28 157.403 105.773 156.561 105.317 155.691C105.09 155.254 104.881 154.806 104.685 154.356C104.587 154.129 104.494 153.902 104.405 153.674C104.311 153.447 104.227 153.217 104.143 152.987C103.809 152.07 103.522 151.137 103.282 150.192C103.263 150.121 103.272 150.046 103.307 149.981C103.341 149.917 103.399 149.868 103.469 149.844C103.538 149.821 103.614 149.824 103.68 149.854C103.747 149.884 103.8 149.939 103.828 150.006C104.213 150.896 104.57 151.793 104.944 152.673C105.136 153.111 105.317 153.553 105.522 153.983C105.617 154.201 105.722 154.414 105.822 154.63C105.922 154.845 106.032 155.056 106.14 155.267C106.567 156.116 107.047 156.934 107.536 157.768C108.026 158.602 108.532 159.428 108.993 160.281C109.025 160.34 109.033 160.408 109.017 160.473C109 160.538 108.96 160.594 108.904 160.63C108.848 160.667 108.78 160.681 108.714 160.669C108.648 160.658 108.589 160.622 108.548 160.569L108.55 160.568Z" fill="#224942"/>
<path d="M107.469 164.333C108.618 163.885 109.775 163.462 110.931 163.042L114.404 161.791L116.142 161.172L117.013 160.867C117.302 160.763 117.593 160.66 117.883 160.561C119.046 160.155 120.209 159.753 121.384 159.377C121.454 159.355 121.53 159.36 121.596 159.391C121.663 159.423 121.715 159.479 121.741 159.548C121.768 159.616 121.768 159.693 121.74 159.761C121.713 159.829 121.66 159.884 121.593 159.915C120.472 160.436 119.33 160.913 118.183 161.367C117.61 161.597 117.032 161.813 116.455 162.033C115.879 162.253 115.295 162.457 114.713 162.663C113.547 163.07 112.376 163.463 111.194 163.827C110.013 164.19 108.829 164.541 107.63 164.837C107.563 164.858 107.49 164.852 107.428 164.82C107.366 164.788 107.319 164.732 107.297 164.665C107.276 164.598 107.282 164.526 107.314 164.463C107.347 164.401 107.402 164.354 107.469 164.333Z" fill="#224942"/>
<path d="M99.1309 186.372C98.6151 185.547 98.1495 184.693 97.7124 183.826C97.2753 182.959 96.8786 182.073 96.4951 181.179C96.3081 180.73 96.1307 180.277 95.9544 179.825C95.7781 179.372 95.6185 178.912 95.4661 178.451C95.1564 177.531 94.8789 176.598 94.6586 175.651C94.6413 175.58 94.6516 175.505 94.6875 175.441C94.7234 175.377 94.7822 175.329 94.852 175.307C94.9219 175.285 94.9975 175.29 95.0637 175.321C95.13 175.353 95.1818 175.408 95.2088 175.476C95.5733 176.368 95.9234 177.263 96.2736 178.156L96.8084 179.491L97.0763 180.159L97.3491 180.824C97.7064 181.711 98.0875 182.594 98.4627 183.476C98.8379 184.359 99.2261 185.239 99.6001 186.129C99.6211 186.189 99.6194 186.256 99.5954 186.315C99.5714 186.375 99.5266 186.423 99.4694 186.452C99.4121 186.481 99.3463 186.489 99.2841 186.473C99.2219 186.457 99.1674 186.42 99.1309 186.367V186.372Z" fill="#224942"/>
<path d="M98.5248 191.513L101.564 189.369C102.574 188.655 103.589 187.94 104.583 187.204L105.334 186.657L106.082 186.106L107.575 185.002C108.569 184.262 109.558 183.516 110.561 182.782C110.621 182.74 110.693 182.723 110.765 182.732C110.837 182.742 110.903 182.778 110.949 182.834C110.996 182.89 111.019 182.961 111.016 183.033C111.013 183.105 110.982 183.174 110.93 183.225C110.022 184.082 109.074 184.892 108.103 185.681C107.619 186.076 107.124 186.456 106.631 186.84C106.138 187.223 105.632 187.588 105.125 187.953C104.111 188.681 103.079 189.383 102.029 190.057C100.978 190.731 99.9052 191.367 98.813 191.962C98.7535 191.996 98.6832 192.006 98.6168 191.989C98.5504 191.972 98.4931 191.93 98.457 191.872C98.4209 191.814 98.4087 191.744 98.4232 191.677C98.4376 191.61 98.4774 191.551 98.5343 191.513H98.5248Z" fill="#224942"/>
<path d="M104.259 220.183L99.6561 265.551C90.977 267.522 81.9678 267.537 73.2821 265.595L73.088 265.551L68.9754 225.445L68.4871 220.183H104.259Z" fill="#D43398"/>
<path d="M104.259 220.183L99.6561 265.551C97.5424 266.031 95.4042 266.396 93.2508 266.644C100.549 208.154 68.9754 225.446 68.9754 225.446L68.4871 220.185L104.259 220.183Z" fill="#AF0B56"/>
<path d="M106.572 211.251V217.836C106.573 218.145 106.512 218.452 106.393 218.738C106.275 219.023 106.101 219.283 105.883 219.502C105.664 219.72 105.404 219.894 105.118 220.012C104.832 220.13 104.526 220.191 104.217 220.191L91.3083 220.68C88.0187 220.804 84.7283 220.804 81.4371 220.68L68.5228 220.184C68.2135 220.184 67.9071 220.123 67.6212 220.005C67.3353 219.887 67.0755 219.713 66.8567 219.495C66.6379 219.276 66.4644 219.016 66.346 218.73C66.2277 218.445 66.1668 218.138 66.167 217.829V211.251C66.1668 210.942 66.2277 210.635 66.346 210.349C66.4644 210.064 66.6379 209.804 66.8567 209.585C67.0755 209.366 67.3353 209.193 67.6212 209.075C67.9071 208.957 68.2135 208.896 68.5228 208.896L81.5383 209.386C84.8279 209.509 88.1187 209.509 91.4107 209.386L104.217 208.899C104.526 208.898 104.832 208.959 105.118 209.077C105.403 209.195 105.663 209.368 105.882 209.587C106.101 209.805 106.274 210.065 106.393 210.35C106.511 210.636 106.572 210.942 106.572 211.251Z" fill="#820443"/>
<path d="M106.572 211.251V214.739C106.572 215.364 106.324 215.963 105.882 216.404C105.44 216.846 104.841 217.094 104.217 217.094L91.3083 217.582C88.0187 217.707 84.7283 217.707 81.4371 217.582L68.5228 217.087C67.8982 217.087 67.2992 216.839 66.8574 216.397C66.4157 215.956 66.1673 215.357 66.167 214.732V211.251C66.1668 210.942 66.2277 210.635 66.346 210.349C66.4644 210.064 66.6379 209.804 66.8567 209.585C67.0755 209.366 67.3353 209.193 67.6212 209.075C67.9071 208.957 68.2135 208.896 68.5228 208.896L81.5383 209.386C84.8279 209.509 88.1187 209.509 91.4107 209.386L104.217 208.899C104.526 208.898 104.832 208.959 105.118 209.077C105.403 209.195 105.663 209.368 105.882 209.587C106.101 209.805 106.274 210.065 106.393 210.35C106.511 210.636 106.572 210.942 106.572 211.251Z" fill="#D43398"/>
<path d="M227.995 33.2015C228.292 32.8477 228.443 32.394 228.417 31.9327C228.392 31.4715 228.192 31.0372 227.858 30.7182L226.422 29.3473L224.986 27.9765C224.652 27.6574 224.209 27.4774 223.747 27.4732C223.285 27.469 222.839 27.6409 222.499 27.9538L188.179 59.5552L193.092 64.2502L198.008 68.944L227.995 33.2015Z" fill="#300A44"/>
<path d="M225.831 32.0771L219.87 39.1815L216.681 42.9832L211.487 49.173L208.299 52.9747L203.106 59.1633L199.916 62.9662L197.818 65.4673L191.66 59.5873L199.916 51.9838L203.106 49.0491L208.299 44.2672L211.487 41.3325L216.681 36.5482L219.87 33.6123L223.724 30.0654L225.831 32.0771Z" fill="#FFD65F"/>
<path d="M203.106 49.0493V59.1635L199.916 62.9664V51.984L203.106 49.0493Z" fill="#7951F9"/>
<path d="M211.487 41.3325V49.173L208.299 52.9748V44.2672L211.487 41.3325Z" fill="#7951F9"/>
<path d="M219.869 33.6123V39.1815L216.681 42.9833V36.5482L219.869 33.6123Z" fill="#7951F9"/>
<path d="M198.792 71.5024L197.973 72.3611C197.733 72.6123 197.403 72.758 197.055 72.766C196.708 72.7741 196.372 72.6438 196.121 72.404L184.806 61.6038C184.681 61.4849 184.582 61.3426 184.512 61.1851C184.443 61.0276 184.405 60.8579 184.401 60.6858C184.397 60.5137 184.427 60.3425 184.49 60.182C184.552 60.0216 184.645 59.8749 184.764 59.7506L185.582 58.8918C185.701 58.7673 185.844 58.6675 186.001 58.598C186.159 58.5285 186.328 58.4908 186.5 58.4869C186.673 58.483 186.844 58.5131 187.004 58.5754C187.165 58.6378 187.311 58.7311 187.436 58.8501L198.75 69.6503C199.002 69.8903 199.147 70.2202 199.155 70.5675C199.163 70.9148 199.033 71.2511 198.793 71.5024H198.792Z" fill="#7951F9"/>
<path d="M187.183 63.8731L173.944 77.7375L180.512 84.0103L193.752 70.1459L187.183 63.8731Z" fill="#820443"/>
<path d="M198.792 71.5023L197.973 72.361C197.733 72.6123 197.403 72.7579 197.055 72.766C196.708 72.774 196.372 72.6438 196.121 72.4039L184.806 61.6037C184.681 61.4848 184.582 61.3425 184.512 61.185C184.443 61.0275 184.405 60.8579 184.401 60.6857C184.397 60.5136 184.427 60.3424 184.49 60.182C184.552 60.0215 184.645 59.8749 184.764 59.7505C193.855 70.2779 199.041 70.0719 199.041 70.0719C199.145 70.3083 199.177 70.5702 199.133 70.8247C199.088 71.0792 198.97 71.315 198.792 71.5023Z" fill="#C94A28"/>
<path d="M194.183 77.2825C194.182 77.2849 194.182 77.2873 194.183 77.2896C192.491 79.5442 189.236 81.9477 183.62 84.1261L163.067 110.413L156.91 104.496L156.276 95.5897L160.889 91.3806L173.64 76.1725C173.64 76.1725 172.989 71.8776 178.726 70.084C179.17 69.9442 179.621 69.8274 180.077 69.7338C180.077 69.7338 181.377 70.2781 180.365 71.4286C179.352 72.5791 177.734 74.6027 181.513 72.9174C185.292 71.2321 189.236 67.9592 192.232 68.5559C194.858 69.0787 197.466 72.9007 194.183 77.2825Z" fill="#F5AE97"/>
<path d="M194.183 77.2825C194.302 77.0943 197.07 72.7042 193.749 70.1363C190.355 67.5161 185.848 72.9054 181.25 73.9333C176.653 74.9612 178.98 71.8526 179.866 70.9557C180.753 70.0589 178.723 70.0827 178.723 70.0827C179.167 69.943 179.619 69.8261 180.075 69.7326C180.075 69.7326 181.374 70.2769 180.362 71.4274C179.35 72.5779 177.731 74.6015 181.51 72.9162C185.289 71.2309 189.234 67.9579 192.229 68.5546C194.858 69.0787 197.466 72.9007 194.183 77.2825Z" fill="#7951F9"/>
<path d="M133.846 267.615L89.1157 256.381L90.5247 252.732L90.6855 252.316L101.549 227.986L116.096 248.25L120.937 251.031C121.461 251.333 121.97 251.65 122.462 251.984C126.409 254.656 129.398 258.371 131.615 262.593C131.708 262.767 131.798 262.941 131.886 263.117C132.615 264.562 133.257 266.049 133.81 267.569C133.812 267.579 133.817 267.588 133.823 267.596C133.829 267.604 133.837 267.61 133.846 267.615Z" fill="#7951F9"/>
<path d="M133.846 267.615L113.51 262.509C114.091 260.185 115.201 258.026 116.752 256.2C118.304 254.375 120.256 252.932 122.456 251.984C126.565 254.766 129.635 258.677 131.88 263.118C132.608 264.562 133.251 266.049 133.804 267.57C133.807 267.58 133.812 267.589 133.819 267.597C133.827 267.605 133.836 267.611 133.846 267.615Z" fill="white"/>
<path d="M133.846 267.615L89.1157 256.381L90.5247 252.732L90.6855 252.316L131.615 262.593C131.708 262.767 131.798 262.941 131.886 263.118C132.615 264.562 133.257 266.049 133.81 267.57C133.812 267.579 133.817 267.588 133.823 267.596C133.829 267.604 133.837 267.61 133.846 267.615Z" fill="#C4D554"/>
<path d="M166.483 269.015H120.358L120.835 265.133L120.888 264.691L125.5 238.447L144.544 254.559L149.917 256.077C150.5 256.242 151.07 256.426 151.629 256.63C156.107 258.26 159.911 261.135 163.09 264.691C163.222 264.837 163.352 264.984 163.479 265.133C164.538 266.357 165.523 267.642 166.431 268.982C166.436 268.992 166.443 269 166.452 269.006C166.462 269.011 166.472 269.015 166.483 269.015Z" fill="#7951F9"/>
<path d="M166.483 269.016H145.521C145.519 266.62 146.069 264.256 147.13 262.107C148.191 259.959 149.732 258.084 151.636 256.629C156.297 258.327 160.229 261.373 163.486 265.132C164.545 266.356 165.53 267.641 166.438 268.981C166.442 268.99 166.448 268.998 166.456 269.004C166.464 269.01 166.473 269.014 166.483 269.016Z" fill="white"/>
<path d="M166.483 269.016H120.358L120.835 265.133L120.888 264.691H163.09C163.222 264.837 163.352 264.984 163.479 265.133C164.538 266.357 165.523 267.642 166.431 268.982C166.436 268.992 166.443 269 166.452 269.006C166.462 269.012 166.472 269.015 166.483 269.016Z" fill="#C4D554"/>
<path d="M148.633 253.32C148.633 253.32 134.265 262.148 118.254 252.089L118.597 246.898C114.239 247.434 110.473 247.291 107.259 246.755C96.6784 244.99 92.0835 238.967 92.0835 238.967L103.636 190.585C103.636 190.585 101.515 171.474 99.5572 150.847C98.3459 138.103 101.301 129.499 103.733 124.789C105.238 121.875 106.544 120.45 106.544 120.45L115.406 115.38L120.832 123.998C125.001 123.096 132.028 121.598 132.103 121.735C132.205 121.94 139.55 133.614 139.55 133.614L140.108 138.757L145.575 189.21L148.633 253.32Z" fill="#E775B3"/>
<path d="M130.678 131.215L129.734 131.345L129.832 132.053L130.775 131.923L130.678 131.215Z" fill="#D43398"/>
<path d="M138.955 254.485H138.002V253.056H138.955V254.485ZM138.955 251.627H138.002V250.197H138.955V251.627ZM138.955 248.768H138.002V247.339H138.955V248.768ZM138.955 245.91H138.002V244.48H138.955V245.91ZM138.955 243.051H138.002V241.622H138.955V243.051ZM138.955 240.193H138.002V238.763H138.955V240.193ZM138.955 237.334H138.002V235.905H138.955V237.334ZM138.955 234.476H138.002V233.047H138.955V234.476ZM138.955 231.617H138.002V230.188H138.955V231.617ZM138.955 228.759H138.002V227.33H138.955V228.759ZM138.955 225.9H138.002V224.471H138.955V225.9ZM138.955 223.042H138.002V221.613H138.955V223.042ZM138.955 220.184H138.002V218.754H138.955V220.184ZM138.955 217.325H138.002V215.896H138.955V217.325ZM138.955 214.467H138.002V213.037H138.955V214.467ZM138.955 211.608H138.002V210.179H138.955V211.608ZM138.955 208.75H138.002V207.321H138.955V208.75ZM138.955 205.891H138.002V204.462H138.955V205.891ZM138.955 203.033H138.002V201.604H138.955V203.033ZM138.955 200.174H138.002V198.745H138.955V200.174ZM138.955 197.316H138.002V195.887H138.955V197.316ZM138.955 194.458H138.002V193.028H138.955V194.458ZM138.955 191.599H138.002V191.436L137.838 190.245L138.781 190.051L138.954 191.339L138.955 191.599ZM137.645 188.828L137.45 187.41L138.394 187.28L138.589 188.698L137.645 188.828ZM137.254 185.993L137.059 184.576L138.002 184.446L138.198 185.863L137.254 185.993ZM136.862 183.158L136.667 181.741L137.612 181.611L137.807 183.028L136.862 183.158ZM136.472 180.325L136.276 178.908L137.22 178.777L137.416 180.194L136.472 180.325ZM136.081 177.49L135.886 176.073L136.829 175.942L137.024 177.359L136.081 177.49ZM135.689 174.656L135.494 173.238L136.438 173.107L136.634 174.525L135.689 174.656ZM135.299 171.821L135.103 170.404L136.047 170.274L136.243 171.69L135.299 171.821ZM134.908 168.986L134.713 167.569L135.656 167.439L135.851 168.856L134.908 168.986ZM134.516 166.152L134.321 164.734L135.265 164.605L135.461 166.022L134.516 166.152ZM134.125 163.317L133.93 161.9L134.873 161.77L135.07 163.187L134.125 163.317ZM133.735 160.482L133.539 159.065L134.483 158.935L134.678 160.353L133.735 160.482ZM133.343 157.648L133.148 156.23L134.092 156.101L134.287 157.518L133.343 157.648ZM132.952 154.813L132.757 153.397L133.7 153.266L133.897 154.683L132.952 154.813ZM132.562 151.98L132.366 150.562L133.31 150.431L133.505 151.849L132.562 151.98ZM132.17 149.145L131.974 147.728L132.919 147.597L133.114 149.014L132.17 149.145ZM131.779 146.31L131.584 144.893L132.527 144.762L132.724 146.179L131.779 146.31ZM131.389 143.476L131.193 142.059L132.136 141.929L132.332 143.345L131.389 143.476ZM130.997 140.641L130.801 139.224L131.746 139.094L131.941 140.511L130.997 140.641ZM130.606 137.807L130.411 136.389L131.354 136.259L131.55 137.677L130.606 137.807ZM130.215 134.972L130.02 133.555L130.963 133.425L131.159 134.842L130.215 134.972Z" fill="#D43398"/>
<path d="M138.955 255.911H138.002V256.625H138.955V255.911Z" fill="#D43398"/>
<path d="M122.424 193.184L118.597 246.899C114.239 247.435 110.473 247.292 107.26 246.756C113.736 243.393 118.7 193.951 118.7 193.951C111.091 163.468 113.341 148.033 113.341 148.033C112.601 157.655 122.424 193.184 122.424 193.184Z" fill="#D43398"/>
<path d="M140.114 138.763C114.885 122.489 103.739 124.789 103.739 124.789C105.244 121.875 106.55 120.45 106.55 120.45L115.412 115.38L120.838 123.998C125.007 123.096 132.034 121.598 132.109 121.735C132.212 121.94 139.557 133.614 139.557 133.614L140.114 138.763Z" fill="#D43398"/>
<path d="M152.986 109.683C152.986 109.683 148.661 105.862 144.354 101.264C142.913 107.976 141.495 116.494 142.175 121.617C143.201 129.291 140.824 132.424 139.902 133.325C139.795 133.433 139.68 133.532 139.556 133.62C115.555 118.387 105.985 121.149 105.985 121.149C101.697 116.496 104.538 111.085 106.376 107.409C108.213 103.734 116.052 79.1178 115.929 71.4321C115.806 63.7465 134.032 54.877 134.032 54.877L137.56 56.1001L137.015 70.4793L144.603 77.5719L154.937 90.654C154.937 90.654 151.617 108.228 152.986 109.683Z" fill="#7951F9"/>
<path d="M126.673 71.1439C126.277 70.6692 125.998 70.1086 125.858 69.5068C125.718 68.9049 125.721 68.2787 125.866 67.678C126.362 65.608 135.732 61.7229 135.732 61.7229L142.176 67.678V73.3949C142.176 73.3949 132.615 69.1465 126.673 71.1439Z" fill="#642F7C"/>
<path d="M142.201 72.4802L144.42 66.9872C152.435 69.7861 157.14 54.5827 157.14 54.5827L158.233 51.174L160.516 44.0695L150.721 38.2216L149.611 37.563L148.524 38.5158L137.364 48.2715C137.364 48.2715 133.516 43.6265 130.778 48.6442C129.494 51.0096 130.528 53.2035 131.832 54.7661C131.839 54.7661 131.832 54.7744 131.844 54.778C132.053 55.0162 132.256 55.2544 132.464 55.4617C132.968 55.9753 133.512 56.4477 134.091 56.8742C134.222 56.9691 134.325 57.0983 134.388 57.2476C134.451 57.3969 134.472 57.5607 134.448 57.721C134.261 59.0967 132.73 64.5694 131.947 67.385C131.95 67.385 138.513 68.2151 142.201 72.4802Z" fill="#F5AE97"/>
<path d="M144.422 66.9919C143.52 66.6858 140.562 65.4186 139.399 61.231C139.399 61.231 137.775 65.3781 143.604 69.0595L144.422 66.9919Z" fill="#7951F9"/>
<path d="M135.334 50.3714C135.8 49.7509 135.205 48.8624 134.452 49.0506C133.828 49.2078 133.179 49.7652 133.156 51.3707C133.113 54.4995 135.062 53.6979 135.201 52.7844C135.34 51.8709 134.653 51.2575 135.32 50.4024L135.334 50.3714Z" fill="#7951F9"/>
<path d="M148.449 50.5428C148.403 50.3024 148.269 50.0876 148.074 49.9401C147.848 49.7643 147.569 49.6717 147.284 49.6781C146.734 49.6781 145.974 50.0354 145.849 50.5988C145.797 50.837 145.484 50.937 145.281 50.8632C145.032 50.7727 144.964 50.5297 145.015 50.2951C145.125 49.7996 145.526 49.4375 145.942 49.1827C146.368 48.9241 146.858 48.79 147.357 48.7956C148.276 48.8039 149.143 49.4602 149.323 50.3773C149.43 50.9382 148.559 51.1038 148.451 50.544L148.449 50.5428Z" fill="#072C35"/>
<path d="M155.626 54.3932C155.709 53.9168 155.292 53.2892 154.871 53.0772C154.384 52.839 153.745 53.1058 153.307 53.4512C153.209 53.5158 153.09 53.5396 152.975 53.5173C152.86 53.495 152.759 53.4285 152.692 53.332C152.629 53.2339 152.606 53.115 152.628 53.0002C152.65 52.8854 152.716 52.7837 152.811 52.7163C153.485 52.1851 154.503 51.8659 155.302 52.3042C156.057 52.7175 156.65 53.6763 156.493 54.5517C156.483 54.6092 156.461 54.6642 156.43 54.7134C156.399 54.7627 156.358 54.8053 156.31 54.8387C156.262 54.8721 156.208 54.8957 156.151 54.9082C156.094 54.9206 156.035 54.9216 155.977 54.9112C155.92 54.9007 155.865 54.879 155.816 54.8473C155.767 54.8156 155.724 54.7745 155.691 54.7263C155.658 54.6782 155.635 54.624 155.623 54.5668C155.611 54.5096 155.61 54.4507 155.621 54.3932H155.626Z" fill="#072C35"/>
<path d="M154.724 56.1495C154.913 55.4803 154.725 54.8419 154.306 54.7237C153.886 54.6054 153.393 55.0521 153.204 55.7213C153.016 56.3906 153.203 57.029 153.623 57.1472C154.043 57.2654 154.536 56.8187 154.724 56.1495Z" fill="#072C35"/>
<path d="M147.798 54.1988C147.997 53.4928 147.8 52.8195 147.357 52.6948C146.915 52.5702 146.395 53.0414 146.196 53.7474C145.997 54.4533 146.194 55.1267 146.637 55.2513C147.08 55.376 147.6 54.9047 147.798 54.1988Z" fill="#072C35"/>
<path d="M132.469 55.4653C132.972 55.9784 133.517 56.4496 134.097 56.8743C134.097 56.8743 135.875 57.5437 136.651 55.9132C136.479 56.0335 134.703 57.265 132.469 55.4653Z" fill="#7951F9"/>
<path d="M133.53 34.4413C133.556 34.4407 133.582 34.4326 133.604 34.418C133.625 34.4034 133.642 34.3828 133.653 34.3587C133.663 34.3346 133.667 34.308 133.662 34.2821C133.658 34.2562 133.646 34.2321 133.629 34.2126C133.126 33.6826 131.797 32.3987 130.982 32.7024C130 33.074 131.04 34.4651 133.53 34.4413Z" fill="black"/>
<path d="M134.265 33.9078C134.284 33.9376 134.312 33.9611 134.345 33.9755C134.378 33.9898 134.414 33.9945 134.45 33.9888C134.485 33.9832 134.518 33.9675 134.545 33.9436C134.572 33.9197 134.591 33.8887 134.6 33.8542C134.847 32.8882 135.363 30.4205 134.418 29.6999C133.281 28.8281 132.427 31.0493 134.265 33.9078Z" fill="black"/>
<path d="M138.178 39.882L137.364 48.2715C137.364 48.2715 147.698 43.8921 152.549 48.3978C155.092 50.7608 156.997 51.2467 158.233 51.174L160.516 44.0696L150.721 38.2217L148.524 38.5159L138.178 39.882Z" fill="#7951F9"/>
<path d="M130.045 45.0523H130.052C130.287 46.1701 130.585 47.2736 130.946 48.3574C130.946 48.3574 133.406 44.24 137.364 48.2692C137.364 48.2692 145.327 43.7588 151.001 45.8717C152.017 46.2516 152.897 46.9127 153.658 47.6868C154.827 48.8695 158.146 51.4064 161.689 49.116C166.215 46.1945 164.632 41.4768 164.505 41.1362C164.503 41.1308 164.503 41.125 164.505 41.1195C164.505 41.1195 167.482 32.3846 159.513 32.3679C157.81 32.3679 155.526 32.8538 154.41 32.5549C149.951 31.327 150.215 27.7789 146.311 29.5392C141.443 31.7355 137.167 29.0438 135.72 35.7718C135.725 35.7766 127.849 34.4427 130.045 45.0523Z" fill="#131E36"/>
<path d="M130.052 45.0544C130.287 46.1722 130.585 47.2757 130.945 48.3595C130.945 48.3595 133.406 44.2421 137.364 48.2714C137.364 48.2714 145.327 43.761 151.001 45.8738C152.017 46.2538 152.897 46.9148 153.658 47.689C154.826 48.8717 158.146 51.4085 161.689 49.1182C166.215 46.1966 164.632 41.479 164.505 41.1384C164.464 41.4849 163.661 48.2368 158.413 48.0463C153.026 47.8462 154.048 42.2972 147.492 43.4442C140.937 44.5911 136.654 42.3032 136.369 38.8135C136.369 38.817 134.851 47.1602 130.052 45.0544Z" fill="black"/>
<path d="M141.182 31.6948C141.182 31.6948 134.671 33.3408 138.284 39.5937C138.284 39.5937 136.357 34.3842 141.182 31.6948Z" fill="black"/>
<path d="M161.821 43.0024C161.821 43.0024 160.258 47.9118 153.863 44.3376C153.863 44.3376 158.229 46.223 161.821 43.0024Z" fill="#06252C"/>
<path d="M162.943 38.33C162.943 38.33 164.162 33.2634 158.366 33.4313C158.366 33.4313 163.043 34.3961 162.943 38.33Z" fill="black"/>
<path d="M155.95 36.5078C155.95 36.5078 155.981 39.1281 152.346 39.0304C152.346 39.0304 147.308 44.6472 141.207 39.109C141.207 39.109 147.215 43.1728 151.738 38.1883C151.738 38.1883 154.264 39.0018 155.95 36.5078Z" fill="black"/>
<path d="M145.634 60.8249C144.932 61.9623 145.125 63.3558 146.067 63.9382C147.009 64.5206 148.342 64.0704 149.044 62.933C149.747 61.7956 149.359 60.7177 148.417 60.1353C147.475 59.5529 146.337 59.6911 145.634 60.8249Z" fill="#CB6655"/>
<path d="M129.574 66.3094C129.574 66.3094 137.526 64.4729 144.791 72.3836L144.604 77.5729C144.604 77.5729 135.103 69.8884 126.673 71.1414C126.673 71.1438 127.167 67.8184 129.574 66.3094Z" fill="#E775B3"/>
<path d="M142.176 121.617C143.201 129.291 140.824 132.424 139.902 133.325C140.468 131.924 141.45 128.731 140.571 124.935C139.389 119.814 140.676 114.945 141.551 107.375C142.407 99.9701 136.153 92.0629 135.877 91.7175L144.354 101.264C142.913 107.976 141.491 116.494 142.176 121.617Z" fill="#642F7C"/>
<path d="M126.235 77.5708C126.235 77.5708 120.875 101.547 117.87 106.092C114.865 110.637 115.965 116.729 115.965 116.729C115.965 116.729 113.146 113.282 117.329 104.746C121.511 96.2103 126.235 77.5708 126.235 77.5708Z" fill="#642F7C"/>
<path d="M163.064 110.413C163.064 110.413 158.983 114.071 152.987 109.683C152.809 109.553 152.641 109.412 152.483 109.259C147.461 104.427 154.939 90.6527 154.939 90.6527C154.939 90.6527 156.868 88.9853 160.885 91.3804C160.885 91.3804 161.064 107.774 163.064 110.413Z" fill="#E775B3"/>
<path d="M163.064 110.413C163.064 110.413 158.983 114.071 152.986 109.683C152.809 109.554 152.641 109.412 152.483 109.259C157.723 112.698 160.885 109.573 160.885 109.573C158.197 100.06 160.258 93.16 160.776 91.6784C160.844 91.4819 160.885 91.3806 160.885 91.3806C160.885 91.3806 161.064 107.774 163.064 110.413Z" fill="#D43398"/>
<path d="M157.232 91.1448C157.232 91.1448 154.785 99.1889 156.272 104.216C156.272 104.216 153.354 100.05 157.232 91.1448Z" fill="#D43398"/>
</g>
<defs>
<linearGradient id="paint0_linear_3049_6070" x1="37" y1="251.871" x2="37.0471" y2="284.313" gradientUnits="userSpaceOnUse">
<stop stop-color="#9A7EFB"/>
<stop offset="1" stop-color="#6040C7"/>
</linearGradient>
<clipPath id="clip0_3049_6070">
<rect width="420" height="279.996" fill="white" transform="translate(0 0.962646)"/>
</clipPath>
</defs>
</svg>
