<svg width="420" height="281" viewBox="0 0 420 281" fill="none" xmlns="http://www.w3.org/2000/svg">
<path d="M420 280.971H0V0.975098H420V280.971Z" fill="#F0ECFF"/>
<path d="M103.127 279.946C139.798 279.946 169.525 276.677 169.525 272.644C169.525 268.611 139.798 265.342 103.127 265.342C66.4557 265.342 36.728 268.611 36.728 272.644C36.728 276.677 66.4557 279.946 103.127 279.946Z" fill="#7951F9"/>
<path d="M324.602 279.946C361.272 279.946 391 276.677 391 272.644C391 268.611 361.272 265.342 324.602 265.342C287.931 265.342 258.203 268.611 258.203 272.644C258.203 276.677 287.931 279.946 324.602 279.946Z" fill="#7951F9"/>
<path d="M120.812 187.625C171.519 187.625 212.625 146.519 212.625 95.8125C212.625 45.1059 171.519 4 120.812 4C70.1059 4 29 45.1059 29 95.8125C29 146.519 70.1059 187.625 120.812 187.625Z" fill="#E775B3"/>
<path d="M268.913 262.09C331.425 262.09 382.1 211.415 382.1 148.903C382.1 86.392 331.425 35.7166 268.913 35.7166C206.402 35.7166 155.727 86.392 155.727 148.903C155.727 211.415 206.402 262.09 268.913 262.09Z" fill="#E6DEFF"/>
<g opacity="0.5">
<path d="M128.541 235.925C116.117 235.925 104.065 233.491 92.7195 228.693C70.6603 219.339 53.1 201.779 43.747 179.719C38.9474 168.373 36.5151 156.324 36.5151 143.898C36.5151 131.473 38.9474 119.423 43.747 108.078C53.1 86.0189 70.6603 68.4581 92.7195 59.1047C104.065 54.3061 116.117 51.8728 128.541 51.8728C140.964 51.8728 153.016 54.3061 164.362 59.1047C186.421 68.4581 203.981 86.0189 213.334 108.078C218.134 119.423 220.566 131.475 220.566 143.898C220.566 156.321 218.134 168.373 213.334 179.719C203.981 201.779 186.421 219.339 164.362 228.693C153.016 233.497 140.964 235.925 128.541 235.925ZM128.541 52.2986C116.175 52.2986 104.178 54.7202 92.8812 59.4964C70.924 68.8065 53.4446 86.2859 44.1345 108.243C39.3583 119.536 36.9367 131.532 36.9367 143.902C36.9367 156.272 39.3583 168.265 44.1345 179.562C51.1528 196.145 62.9006 210.293 77.911 220.239C92.9215 230.186 110.529 235.49 128.536 235.49C146.543 235.49 164.151 230.186 179.161 220.239C194.172 210.293 205.92 196.145 212.938 179.562C217.714 168.269 220.136 156.274 220.136 143.902C220.136 131.531 217.714 119.54 212.938 108.243C203.628 86.2859 186.149 68.8065 164.191 59.4964C152.903 54.7202 140.906 52.2986 128.541 52.2986Z" fill="#EAB87B"/>
</g>
<path d="M269.823 262.939V272.723H269.683C268.179 275.335 254.182 277.383 237.129 277.383C220.075 277.383 206.078 275.335 204.577 272.723H204.434V262.939H269.823Z" fill="#FCA15E"/>
<path d="M257.919 263.251V276.211C254.613 276.637 250.764 276.966 246.552 277.169V263.251H257.919Z" fill="#FED150"/>
<path d="M244.414 265.581V277.253C243.489 277.286 242.554 277.314 241.605 277.334V265.581H244.414Z" fill="#FED150"/>
<path d="M204.431 262.939C204.431 265.377 219.069 267.353 237.125 267.353C255.182 267.353 269.822 265.377 269.822 262.939C269.822 260.502 255.183 258.527 237.129 258.527C219.074 258.527 204.431 260.503 204.431 262.939Z" fill="#FFE984"/>
<path d="M212.358 263.209C212.358 265.053 223.446 266.551 237.125 266.551C250.805 266.551 261.892 265.053 261.892 263.209C261.892 261.364 250.804 259.865 237.125 259.865C223.447 259.865 212.358 261.362 212.358 263.209Z" fill="#F3A43D"/>
<path d="M214.833 263.542C214.833 265.204 224.814 266.551 237.125 266.551C249.437 266.551 259.417 265.204 259.417 263.542C259.417 261.88 249.436 260.534 237.125 260.534C224.815 260.534 214.833 261.88 214.833 263.542Z" fill="#FED150"/>
<path d="M273.028 250.906V260.689H272.888C271.386 263.3 257.388 265.347 240.333 265.347C223.277 265.347 209.281 263.3 207.781 260.689H207.641V250.906H273.028Z" fill="#FF8548"/>
<path d="M261.127 251.217V264.176C257.827 264.602 253.972 264.931 249.762 265.134V251.217H261.127Z" fill="#FED150"/>
<path d="M247.621 253.546V265.217C246.698 265.251 245.763 265.278 244.814 265.299V253.546H247.621Z" fill="#FED150"/>
<path d="M207.641 250.906C207.641 253.342 222.278 255.319 240.333 255.319C258.387 255.319 273.028 253.342 273.028 250.906C273.028 248.469 258.39 246.493 240.333 246.493C222.275 246.493 207.641 248.468 207.641 250.906Z" fill="#FFE984"/>
<path d="M215.565 251.172C215.565 253.02 226.656 254.515 240.333 254.515C254.01 254.515 265.103 253.02 265.103 251.172C265.103 249.324 254.014 247.83 240.333 247.83C226.651 247.83 215.565 249.327 215.565 251.172Z" fill="#F3A43D"/>
<path d="M218.043 251.507C218.043 253.17 228.022 254.515 240.333 254.515C252.643 254.515 262.625 253.17 262.625 251.507C262.625 249.845 252.648 248.499 240.333 248.499C228.018 248.499 218.043 249.846 218.043 251.507Z" fill="#FED150"/>
<path d="M277.039 238.871V248.654H276.899C275.398 251.266 261.401 253.313 244.345 253.313C227.288 253.313 213.294 251.266 211.79 248.654H211.65V238.871H277.039Z" fill="#FF8548"/>
<path d="M265.139 239.181V252.142C261.834 252.568 257.982 252.896 253.771 253.1V239.181H265.139Z" fill="#FED150"/>
<path d="M251.634 241.511V253.183C250.711 253.216 249.777 253.245 248.827 253.264V241.511H251.634Z" fill="#FED150"/>
<path d="M211.65 238.871C211.65 241.308 226.291 243.283 244.345 243.283C262.398 243.283 277.039 241.308 277.039 238.871C277.039 236.435 262.404 234.455 244.345 234.455C226.285 234.455 211.65 236.434 211.65 238.871Z" fill="#FFE984"/>
<path d="M219.58 239.138C219.58 240.985 230.669 242.482 244.345 242.482C258.021 242.482 269.113 240.985 269.113 239.138C269.113 237.291 258.025 235.795 244.345 235.795C230.664 235.795 219.58 237.292 219.58 239.138Z" fill="#F3A43D"/>
<path d="M222.054 239.473C222.054 241.135 232.033 242.482 244.345 242.482C256.656 242.482 266.638 241.135 266.638 239.473C266.638 237.81 256.658 236.464 244.345 236.464C232.031 236.464 222.054 237.811 222.054 239.473Z" fill="#FED150"/>
<path d="M267.815 227.068V236.852H267.673C266.171 239.464 252.173 241.511 235.119 241.511C218.065 241.511 204.069 239.464 202.566 236.852H202.425V227.068H267.815Z" fill="#FCA15E"/>
<path d="M255.913 227.38V240.34C252.607 240.766 248.756 241.096 244.547 241.298V227.38H255.913Z" fill="#FED150"/>
<path d="M242.407 229.709V241.382C241.485 241.416 240.548 241.442 239.598 241.462V229.709H242.407Z" fill="#FED150"/>
<path d="M202.425 227.068C202.425 229.506 217.062 231.482 235.119 231.482C253.176 231.482 267.815 229.506 267.815 227.068C267.815 224.631 253.176 222.656 235.119 222.656C217.062 222.656 202.425 224.632 202.425 227.068Z" fill="#FFE984"/>
<path d="M210.354 227.337C210.354 229.183 221.442 230.68 235.119 230.68C248.796 230.68 259.887 229.183 259.887 227.337C259.887 225.49 248.797 223.993 235.119 223.993C221.441 223.993 210.354 225.49 210.354 227.337Z" fill="#F3A43D"/>
<path d="M212.828 227.671C212.828 229.332 222.807 230.68 235.119 230.68C247.43 230.68 257.412 229.332 257.412 227.671C257.412 226.009 247.431 224.662 235.121 224.662C222.811 224.662 212.828 226.009 212.828 227.671Z" fill="#FED150"/>
<path d="M274.301 215.519V225.3H274.16C272.655 227.912 258.66 229.96 241.605 229.96C224.55 229.96 210.554 227.912 209.05 225.3H208.91V215.518L274.301 215.519Z" fill="#FF8548"/>
<path d="M262.399 215.827V228.786C259.092 229.212 255.244 229.542 251.034 229.744V215.827H262.399Z" fill="#FED150"/>
<path d="M248.893 218.158V229.832C247.969 229.864 247.035 229.891 246.086 229.913V218.158H248.893Z" fill="#FED150"/>
<path d="M208.91 215.519C208.91 217.956 223.549 219.931 241.605 219.931C259.661 219.931 274.301 217.956 274.301 215.519C274.301 213.083 259.662 211.105 241.605 211.105C223.547 211.105 208.91 213.08 208.91 215.519Z" fill="#FFE984"/>
<path d="M216.837 215.785C216.837 217.632 227.927 219.129 241.605 219.129C255.283 219.129 266.372 217.632 266.372 215.785C266.372 213.938 255.283 212.444 241.605 212.444C227.927 212.444 216.837 213.94 216.837 215.785Z" fill="#F3A43D"/>
<path d="M219.312 216.12C219.312 217.782 229.294 219.129 241.605 219.129C253.915 219.129 263.896 217.782 263.896 216.12C263.896 214.459 253.916 213.112 241.605 213.112C229.293 213.112 219.312 214.459 219.312 216.12Z" fill="#FED150"/>
<path d="M267.815 203.777V213.559H267.673C266.171 216.173 252.173 218.219 235.119 218.219C218.065 218.219 204.067 216.173 202.566 213.559H202.425V203.777H267.815Z" fill="#FCA15E"/>
<path d="M255.91 204.088V217.049C252.605 217.474 248.756 217.803 244.547 218.007V204.088H255.91Z" fill="#FED150"/>
<path d="M242.405 206.418V218.09C241.484 218.123 240.547 218.15 239.598 218.171V206.418H242.405Z" fill="#FED150"/>
<path d="M202.425 203.777C202.425 206.215 217.062 208.19 235.119 208.19C253.176 208.19 267.815 206.215 267.815 203.777C267.815 201.339 253.175 199.365 235.119 199.365C217.063 199.365 202.425 201.34 202.425 203.777Z" fill="#FFE984"/>
<path d="M210.35 204.045C210.35 205.892 221.442 207.388 235.119 207.388C248.796 207.388 259.887 205.897 259.887 204.045C259.887 202.193 248.797 200.702 235.119 200.702C221.441 200.702 210.35 202.202 210.35 204.045Z" fill="#F3A43D"/>
<path d="M212.828 204.378C212.828 206.041 222.807 207.388 235.119 207.388C247.43 207.388 257.41 206.041 257.41 204.378C257.41 202.716 247.431 201.37 235.119 201.37C222.806 201.37 212.828 202.717 212.828 204.378Z" fill="#FED150"/>
<path d="M127.79 233.338L120.274 266.421L105.893 264.94L108.378 233.348L127.79 233.338Z" fill="#FEB8BA"/>
<path d="M149.553 250.244L152.02 266.305L166.666 264.324V246.957L149.553 250.244Z" fill="#FEB8BA"/>
<path d="M189.748 268.993C183.65 265.63 172.986 267.142 171.039 257.67C170.968 257.324 170.906 257.006 170.841 256.678H165.827C165.827 256.678 161.734 261.973 156.438 262.639C153.573 262.998 152.259 261.3 151.656 259.665C151.358 258.877 150.817 258.204 150.111 257.745C149.404 257.286 148.57 257.063 147.729 257.111L148.861 275.448L196.549 275.461C196.549 275.461 195.843 272.356 189.748 268.993Z" fill="#CB4351"/>
<path d="M157.044 267.666C154.491 265.687 151.399 264.524 148.174 264.329L148.249 265.541C151.137 265.737 153.903 266.782 156.2 268.545C158.496 270.307 160.221 272.709 161.156 275.449H162.434C161.459 272.372 159.582 269.66 157.044 267.666Z" fill="white"/>
<path d="M165.825 256.676C165.825 256.676 165.647 256.904 165.332 257.259C166.529 263.577 169.669 267.69 174.954 269.794C176.085 270.244 177.292 270.476 178.509 270.476C179.836 270.47 181.148 270.197 182.368 269.673C183.587 269.149 184.688 268.385 185.606 267.426C185.16 267.303 184.708 267.185 184.252 267.07C181.859 269.192 178.443 269.882 175.401 268.666C170.434 266.69 167.507 262.764 166.445 256.676H165.825Z" fill="white"/>
<path d="M148.861 275.442L149.165 279.114L196.853 279.126L196.544 275.454L148.861 275.442Z" fill="white"/>
<path d="M152.589 45.271C152.589 45.271 147.185 39.0525 142.532 40.0626L134.261 41.638C132.949 41.888 131.722 42.4689 130.698 43.3259C129.673 44.1828 128.884 45.2873 128.406 46.5345L127.221 49.6332C126.904 50.4605 126.822 51.359 126.983 52.23C127.144 53.101 127.543 53.9107 128.134 54.5701L135.434 62.71L146.283 56.7991L155.018 52.8734C155.567 52.6316 156.011 52.2011 156.27 51.6599C158.655 46.5633 152.589 45.271 152.589 45.271Z" fill="#34267D"/>
<mask id="mask0_2844_17741" style="mask-type:luminance" maskUnits="userSpaceOnUse" x="126" y="39" width="31" height="24">
<path d="M152.589 45.271C152.589 45.271 147.185 39.0525 142.532 40.0626L134.261 41.638C132.949 41.888 131.722 42.4689 130.698 43.3259C129.673 44.1828 128.884 45.2873 128.406 46.5345L127.221 49.6332C126.904 50.4605 126.822 51.359 126.983 52.23C127.144 53.101 127.543 53.9107 128.134 54.5701L135.434 62.71L146.283 56.7991L155.018 52.8734C155.567 52.6316 156.011 52.2011 156.27 51.6599C158.655 46.5633 152.589 45.271 152.589 45.271Z" fill="white"/>
</mask>
<g mask="url(#mask0_2844_17741)">
<path d="M155.287 50.8541C154.896 48.1376 152.031 48.0056 152.031 48.0056C151.775 47.1279 151.274 46.3413 150.587 45.7383C149.934 45.1883 149.147 44.82 148.306 44.6705C147.466 44.5211 146.6 44.5956 145.797 44.8868C145.066 45.1614 144.413 45.6106 143.708 45.9438C143.002 46.2769 142.194 46.492 141.449 46.2588C141.841 46.5551 142.291 46.7652 142.77 46.8752C143.249 46.9853 143.745 46.9929 144.227 46.8975C143.491 47.3474 142.899 48.0001 142.524 48.7773C142.085 49.6587 141.876 50.6497 141.353 51.4832C140.461 52.9032 138.737 53.6632 137.06 53.6813C135.384 53.6994 133.76 53.0618 132.327 52.1857C132.188 53.3864 133.004 54.6276 134.162 54.9767C133.424 55.5696 132.352 55.4472 131.448 55.1609C130.545 54.8745 129.647 54.4477 128.705 54.5222C128.605 54.5229 128.507 54.5533 128.423 54.6095C128.327 54.7074 128.271 54.8383 128.268 54.9757C128.055 56.5936 128.743 58.2521 129.877 59.4251C131.012 60.5981 132.549 61.3219 134.135 61.7115C135.48 62.0429 136.872 62.1423 138.251 62.0053C140.43 61.7839 142.568 60.9568 144.744 61.1697C145.741 61.2666 146.777 61.5753 147.715 61.2293C148.619 60.8972 149.206 60.0403 149.728 59.2324C150.163 58.5639 150.603 57.8827 150.825 57.1163C151.046 56.3499 151.023 55.4728 150.571 54.8149L150.708 54.4264C150.767 54.5105 150.83 54.5935 150.896 54.6734C151.071 54.902 151.3 55.0847 151.561 55.2056C152.093 55.4185 152.701 55.2109 153.19 54.9118C154.56 54.0741 155.519 52.4455 155.287 50.8541Z" fill="#1B1554"/>
</g>
<path d="M106.502 253.602H126.794C128.792 239.733 135.07 196.52 136.092 193.916C138.139 188.7 140.303 168.291 141.641 153.698H144.376L147.541 192.468L146.002 253.602H166.923L172.291 191.864C171.12 174.239 168.319 153.273 164.993 131.225L142.95 136.221L118.492 136.595C117.968 136.582 113.027 179.692 112.146 192.411C111.644 199.592 107.62 240.407 106.502 253.602Z" fill="#0A48B7"/>
<mask id="mask1_2844_17741" style="mask-type:luminance" maskUnits="userSpaceOnUse" x="106" y="131" width="67" height="123">
<path d="M106.502 253.602H126.794C128.792 239.733 135.07 196.52 136.092 193.916C138.139 188.7 140.303 168.291 141.641 153.698H144.376L147.541 192.468L146.002 253.602H166.923L172.291 191.864C171.12 174.239 168.319 153.273 164.993 131.225L142.95 136.221L118.492 136.595C117.968 136.582 113.027 179.692 112.146 192.411C111.644 199.592 107.62 240.407 106.502 253.602Z" fill="white"/>
</mask>
<g mask="url(#mask1_2844_17741)">
<path d="M120.307 144.177L111.113 258.123L100.162 255.614L113.727 146.447L120.307 144.177Z" fill="#296BCC"/>
<path d="M144.376 153.697L147.34 153.469L152.082 193.407L149.905 255.467H141.774L144.376 153.697Z" fill="#073475"/>
</g>
<path d="M143.528 139.423L142.684 153.465L143.109 153.491L143.953 139.448L143.528 139.423Z" fill="#568CDB"/>
<path d="M143.352 148.861H143.177V148.435H143.352C143.864 148.434 144.356 148.24 144.729 147.891C145.103 147.542 145.331 147.064 145.366 146.554L145.836 139.693L146.262 139.721L145.792 146.583C145.749 147.201 145.473 147.779 145.021 148.202C144.568 148.625 143.972 148.86 143.352 148.861Z" fill="#568CDB"/>
<path d="M117.107 145.301L117.09 144.875C118.9 144.804 120.342 144.171 121.375 142.991C123.592 140.459 123.222 136.211 123.218 136.168L123.644 136.128C123.661 136.31 124.036 140.598 121.698 143.27C120.586 144.541 119.039 145.225 117.107 145.301Z" fill="#568CDB"/>
<path d="M165.606 141.161C163.41 141.018 161.825 139.384 161.029 136.436C160.656 135.008 160.47 133.537 160.475 132.06L160.901 132.069C160.901 132.153 160.774 140.417 165.639 140.737L165.606 141.161Z" fill="#568CDB"/>
<path d="M149.37 153.254L136.732 153.44L136.738 153.865L149.376 153.68L149.37 153.254Z" fill="#568CDB"/>
<path d="M120.082 144.145L111.028 253.571L111.452 253.606L120.507 144.18L120.082 144.145Z" fill="#568CDB"/>
<path d="M150.281 253.61L149.856 253.596L151.868 193.416L147.517 153.678L147.94 153.633L152.295 193.4V193.415L150.281 253.61Z" fill="#568CDB"/>
<path d="M155.653 96.2085C155.653 96.2085 153.245 125.968 164.382 131.249C177.509 137.472 180.863 120.986 181.727 115.061C182.259 111.454 181.872 108.614 176.794 108.599C171.717 108.584 171.991 113.765 171.991 113.765C171.991 113.765 170.664 84.6996 161.317 77.7412L155.653 96.2085Z" fill="#DD5626"/>
<path d="M164.306 127.209C158.462 118.44 158.078 105.291 158.071 102.233C158.071 101.868 158.071 101.648 158.071 101.595V101.582C158.453 97.8488 158.932 94.0391 159.409 90.5998C159.926 86.8583 160.438 83.5542 160.812 81.2614C160.835 81.1177 160.856 80.9782 160.879 80.843C161.11 79.4433 161.277 78.481 161.347 78.1095C161.599 76.7789 157.601 74.8736 152.703 73.064L152.315 72.9224C152.209 67.6789 138.922 56.5362 128.945 60.7876C119.755 64.708 124.418 71.6994 125.211 72.7777C124.627 73.1076 124.047 73.444 123.484 73.7942C123.378 73.8602 123.272 73.9283 123.165 73.9943C121.695 74.9289 120.342 75.921 119.278 76.9365C119.189 77.0206 119.102 77.1057 119.018 77.1919C118.041 78.1702 117.342 79.1708 117.072 80.1575C115.662 85.2818 114.801 90.6169 114.305 95.7614V95.7688C114.166 97.1973 114.057 98.6131 113.971 100.004L113.949 100.367C113.836 102.323 113.77 104.231 113.736 106.067C113.73 106.398 113.727 106.726 113.723 107.052V107.46C113.706 110.205 113.766 112.768 113.867 115.065V115.074C113.64 125.653 114.483 137.205 118.944 139.677C125.37 143.231 173.064 140.357 164.306 127.209Z" fill="#F47E3E"/>
<mask id="mask2_2844_17741" style="mask-type:luminance" maskUnits="userSpaceOnUse" x="113" y="59" width="53" height="83">
<path d="M164.306 127.209C158.462 118.44 158.078 105.291 158.071 102.233C158.071 101.868 158.071 101.648 158.071 101.595V101.582C158.453 97.8488 158.932 94.0391 159.409 90.5998C159.926 86.8583 160.438 83.5542 160.812 81.2614C160.835 81.1177 160.856 80.9782 160.879 80.843C161.11 79.4433 161.277 78.481 161.347 78.1095C161.599 76.7789 157.601 74.8736 152.703 73.064L152.315 72.9224C152.209 67.6789 138.922 56.5362 128.945 60.7876C119.755 64.708 124.418 71.6994 125.211 72.7777C124.627 73.1076 124.047 73.444 123.484 73.7942C123.378 73.8602 123.272 73.9283 123.165 73.9943C121.695 74.9289 120.342 75.921 119.278 76.9365C119.189 77.0206 119.102 77.1057 119.018 77.1919C118.041 78.1702 117.342 79.1708 117.072 80.1575C115.662 85.2818 114.801 90.6169 114.305 95.7614V95.7688C114.166 97.1973 114.057 98.6131 113.971 100.004L113.949 100.367C113.836 102.323 113.77 104.231 113.736 106.067C113.73 106.398 113.727 106.726 113.723 107.052V107.46C113.706 110.205 113.766 112.768 113.867 115.065V115.074C113.64 125.653 114.483 137.205 118.944 139.677C125.37 143.231 173.064 140.357 164.306 127.209Z" fill="white"/>
</mask>
<g mask="url(#mask2_2844_17741)">
<path d="M126.815 84.3844L122.833 92.1506L114.116 92.5849L109.383 85.254L113.364 77.4888L122.081 77.0535L126.815 84.3844Z" fill="#F4A887"/>
<path d="M162.113 71.1351L158.131 78.9014L149.414 79.3357L144.68 72.0048L148.661 64.2385L157.378 63.8042L162.113 71.1351Z" fill="#F4A887"/>
<path d="M150.725 92.1347L146.743 99.901L138.027 100.335L133.293 93.0044L137.275 85.2381L145.991 84.8038L150.725 92.1347Z" fill="#F4A887"/>
<path d="M167.338 109.88L163.356 117.646L154.64 118.081L149.906 110.75L153.888 102.984L162.603 102.549L167.338 109.88Z" fill="#F4A887"/>
<path d="M144.625 119.587L140.644 127.353L131.927 127.788L127.192 120.457L131.174 112.69L139.89 112.256L144.625 119.587Z" fill="#F4A887"/>
<g opacity="0.8">
<path d="M110.261 120.857C110.261 120.857 129.575 131.993 135.905 129.692C142.234 127.391 145.358 117.818 150.157 119.006C154.955 120.194 171.648 128.188 171.648 128.188L167.427 136.15L123.46 148.647L114.87 143.896C114.87 143.896 103.615 120.595 110.261 120.857Z" fill="#DD5626"/>
</g>
<path d="M122.445 112.4L118.463 120.166L109.746 120.6L105.012 113.269L108.993 105.503L117.71 105.069L122.445 112.4Z" fill="#F4A887"/>
</g>
<path d="M127.818 67.7098C127.895 69.3724 128.961 70.8265 130.479 71.5152C133.133 72.7223 137.859 74.7086 140.345 74.749C143.926 74.8129 148.945 71.5705 148.945 71.5705C148.945 71.5705 140.793 62.7909 134.079 63.8777C129.226 64.6633 127.718 65.6543 127.818 67.7098Z" fill="#D65218"/>
<path d="M135.914 78.6938C136.595 87.3479 137.11 96.036 137.117 104.716C137.117 106.911 137.082 109.11 136.942 111.302C136.924 111.581 137.391 111.58 137.409 111.302C137.96 102.656 137.399 93.9124 136.849 85.2775C136.708 83.0819 136.551 80.8873 136.381 78.6938C136.36 78.4171 135.893 78.415 135.914 78.6938Z" fill="#FEFEFE"/>
<path d="M144.004 79.554C145.235 87.662 146.293 95.853 146.599 104.037C146.671 105.987 146.706 107.946 146.536 109.891C146.512 110.17 146.979 110.169 147.004 109.891C147.323 106.073 147.027 102.194 146.717 98.3832C146.356 93.9582 145.848 89.5482 145.264 85.1392C145.012 83.2353 144.743 81.3324 144.455 79.4305C144.413 79.1549 143.962 79.2719 144.004 79.5466V79.554Z" fill="#FEFEFE"/>
<path d="M117.384 79.3635C117.384 79.3635 97.423 102.462 102.619 115.114C107.814 127.766 131.298 140.235 140.232 133.469C149.166 126.702 141.023 116.331 137.536 115.245C134.049 114.16 124.49 113.093 123.405 109.397C123.182 108.632 123.419 107.588 123.938 106.409C125.366 103.16 125.908 99.5911 125.508 96.0647C125.108 92.5384 123.78 89.181 121.661 86.3346C120.244 84.4314 118.273 81.8394 117.384 79.3635Z" fill="#F47E3E"/>
<mask id="mask3_2844_17741" style="mask-type:luminance" maskUnits="userSpaceOnUse" x="101" y="79" width="44" height="57">
<path d="M118.084 79.7627C118.084 79.7627 97.4232 102.462 102.619 115.114C107.814 127.766 131.298 140.235 140.232 133.469C149.166 126.702 141.023 116.331 137.536 115.245C134.049 114.16 124.49 113.093 123.405 109.397C123.182 108.632 123.419 107.588 123.938 106.409C125.366 103.16 125.908 99.5911 125.508 96.0647C125.108 92.5384 123.781 89.181 121.661 86.3346C120.151 84.3324 118.946 82.1177 118.084 79.7627Z" fill="white"/>
</mask>
<g mask="url(#mask3_2844_17741)">
<path d="M113.728 98.1299L109.745 105.896L101.03 106.33L96.2949 98.9995L100.277 91.2343L108.993 90.799L113.728 98.1299Z" fill="#F4A887"/>
<path d="M128.995 112.101L125.013 119.867L116.297 120.301L111.562 112.97L115.544 105.204L124.26 104.77L128.995 112.101Z" fill="#F4A887"/>
<path d="M136.529 132.879L132.548 140.644L123.831 141.08L119.096 133.748L123.079 125.982L131.794 125.548L136.529 132.879Z" fill="#F4A887"/>
<g opacity="0.8">
<path d="M123.148 88.1016C123.148 88.1016 128.23 100.379 119.422 112.529C115.91 111.121 114.69 110.719 114.69 110.719L119.678 114.633L118.966 119.199L123.24 115.401C123.24 115.401 140.504 113.059 141.779 119.326C143.054 125.594 140.46 118.975 144.003 116.863C147.545 114.751 134.316 107.535 134.316 107.535C134.316 107.535 128.791 90.0144 130.211 99.7978C131.631 109.581 123.148 88.1016 123.148 88.1016Z" fill="#DD5626"/>
</g>
</g>
<path d="M131.663 64.5676C133.058 65.2637 134.611 65.1977 135.789 64.5293L134.963 70.7936L132.693 72.3498L135.083 73.4771C136.667 74.225 138.396 74.6183 140.148 74.6296C141.9 74.6408 143.634 74.2696 145.228 73.542L145.887 73.2418C145.341 72.9753 144.824 72.6543 144.343 72.2838C144.213 72.1774 144.139 71.9198 144.106 71.5717C144.047 70.966 144.113 70.0889 144.206 69.2778H144.216C146.272 69.3399 148.269 68.5858 149.77 67.1803C151.272 65.7748 152.157 63.8322 152.231 61.7766L152.586 51.0256C152.607 50.337 152.4 49.6608 151.998 49.1013C151.596 48.5417 151.022 48.1298 150.363 47.9291C149.983 47.9791 149.657 48.274 149.484 48.6231C149.291 49.0031 149.245 49.4406 149.195 49.8643C148.974 51.7313 148.513 53.7463 147.041 54.9194C145.792 55.9146 144.094 56.0754 142.501 56.1967C144.225 55.079 145.135 52.8809 144.833 50.8638C144.826 50.8192 144.804 50.7786 144.769 50.7492C144.735 50.7198 144.692 50.7036 144.647 50.7036C144.602 50.7036 144.558 50.7198 144.524 50.7492C144.49 50.7786 144.467 50.8192 144.46 50.8638C144.261 51.9986 143.693 53.0361 142.846 53.8166C141.713 54.8417 140.184 55.3153 138.679 55.5761C137.853 55.7194 137.017 55.7984 136.178 55.8124L136.098 58.2138C135.81 57.9696 135.495 57.7603 135.158 57.5901C133.029 56.5256 130.527 57.2303 129.562 59.1612C128.598 61.0921 129.538 63.5031 131.663 64.5676Z" fill="#FEB8BA"/>
<mask id="mask4_2844_17741" style="mask-type:luminance" maskUnits="userSpaceOnUse" x="129" y="47" width="24" height="28">
<path d="M131.663 64.5676C133.058 65.2637 134.611 65.1977 135.789 64.5293L134.963 70.7936L132.693 72.3498L135.083 73.4771C136.667 74.225 138.396 74.6183 140.148 74.6296C141.9 74.6408 143.634 74.2696 145.228 73.542L145.887 73.2418C145.341 72.9753 144.824 72.6543 144.343 72.2838C144.213 72.1774 144.139 71.9198 144.106 71.5717C144.047 70.966 144.113 70.0889 144.206 69.2778H144.216C146.272 69.3399 148.269 68.5858 149.77 67.1803C151.272 65.7748 152.157 63.8322 152.231 61.7766L152.586 51.0256C152.607 50.337 152.4 49.6608 151.998 49.1013C151.596 48.5417 151.022 48.1298 150.363 47.9291C149.983 47.9791 149.657 48.274 149.484 48.6231C149.291 49.0031 149.245 49.4406 149.195 49.8643C148.974 51.7313 148.513 53.7463 147.041 54.9194C145.792 55.9146 144.094 56.0754 142.501 56.1967C144.225 55.079 145.135 52.8809 144.833 50.8638C144.826 50.8192 144.804 50.7786 144.769 50.7492C144.735 50.7198 144.692 50.7036 144.647 50.7036C144.602 50.7036 144.558 50.7198 144.524 50.7492C144.49 50.7786 144.467 50.8192 144.46 50.8638C144.261 51.9986 143.693 53.0361 142.846 53.8166C141.713 54.8417 140.184 55.3153 138.679 55.5761C137.853 55.7194 137.017 55.7984 136.178 55.8124L136.098 58.2138C135.81 57.9696 135.495 57.7603 135.158 57.5901C133.029 56.5256 130.527 57.2303 129.562 59.1612C128.598 61.0921 129.538 63.5031 131.663 64.5676Z" fill="white"/>
</mask>
<g mask="url(#mask4_2844_17741)">
<path d="M151.739 47.0296C150.976 46.3718 150.026 45.9748 149.078 45.6277C147.53 45.0593 145.9 44.5878 144.257 44.7176C142.972 44.8241 141.743 45.2829 140.586 45.8492C138.262 46.9881 136.082 48.6444 134.928 50.9585L134.748 55.0673C135.806 55.9945 137.392 55.8721 138.793 55.6954C139.7 55.5804 140.616 55.4633 141.469 55.1344C142.017 54.9301 142.518 54.6173 142.942 54.2147C142.29 54.97 141.489 55.5821 140.589 56.0126C142.15 56.1499 143.754 56.1446 145.25 55.6719C146.746 55.1993 148.13 54.2073 148.796 52.7873C149.363 51.5759 149.486 49.9973 150.64 49.3214C151.017 49.1141 151.451 49.0355 151.877 49.0976C152.303 49.1597 152.696 49.359 152.998 49.6652C153.059 48.6551 152.501 47.6885 151.739 47.0296Z" fill="#FB8B99"/>
<path d="M135.724 57.9573L136.144 58.1893C136.008 58.1049 135.868 58.0275 135.724 57.9573Z" fill="#FFD7DA"/>
<path d="M135.104 65.3352C134.013 65.1851 132.915 64.854 132.017 64.1334C131.118 63.4128 130.439 62.2536 130.414 60.9965C130.385 59.4934 131.334 58.0862 132.564 57.5551C133.64 57.0899 134.872 57.2453 135.911 57.8254L131.387 54.9589C129.671 55.3953 128.465 57.1719 127.722 58.9953C127.41 59.7596 127.148 60.5803 127.183 61.4233C127.245 62.4365 127.685 63.3894 128.417 64.093C129.107 64.7625 129.971 65.1574 130.852 65.3948C132.248 65.7655 133.719 65.7449 135.104 65.3352Z" fill="#FFD7DA"/>
<path d="M136.104 72.7469C135.648 71.8953 135.85 70.8649 135.966 69.908C136.176 68.1696 136.061 66.4073 135.625 64.7113L128.888 71.4919C129.577 72.5382 130.848 73.0066 132.034 73.4079C134.145 74.1285 136.273 74.8524 138.484 75.1334L136.981 73.7496C136.648 73.4473 136.316 73.1386 136.104 72.7469Z" fill="#FFD7DA"/>
</g>
<path d="M139.333 66.6346C140.195 69.5246 142.329 70.9084 144.106 71.5705C144.047 70.9648 144.113 70.0877 144.206 69.2766H144.216C144.216 69.2766 141.087 68.5198 139.333 66.6346Z" fill="#FB8B99"/>
<path d="M132.124 59.851C132.563 59.7302 133.029 59.7594 133.45 59.934C133.889 60.1176 134.249 60.451 134.465 60.875C134.573 61.0794 134.653 61.2975 134.702 61.5233C134.751 61.7435 134.778 61.9682 134.781 62.1939C134.788 62.6356 134.723 63.0754 134.587 63.4957C134.545 63.0593 134.517 62.6346 134.448 62.2247C134.429 62.1183 134.41 62.0214 134.39 61.9203C134.37 61.8192 134.345 61.7212 134.311 61.6265C134.257 61.4351 134.182 61.25 134.09 61.0741C133.912 60.7247 133.639 60.4331 133.302 60.2331C132.94 60.0251 132.539 59.895 132.124 59.851Z" fill="#FB8B99"/>
<path d="M132.6 62.7153C132.497 62.4935 132.454 62.2481 132.477 62.0043C132.495 61.7419 132.596 61.4919 132.764 61.29C132.855 61.1858 132.966 61.101 133.091 61.041C133.213 60.9839 133.344 60.951 133.479 60.9441C133.728 60.9322 133.974 60.9989 134.183 61.1346C133.964 61.1635 133.748 61.2102 133.537 61.2741C133.363 61.3303 133.206 61.4325 133.085 61.57C132.962 61.7201 132.867 61.891 132.804 62.0746C132.729 62.2715 132.67 62.4833 132.6 62.7153Z" fill="#FB8B99"/>
<path d="M147.527 63.1518C147.527 63.1518 146.362 62.9208 144.07 62.4812C144.07 62.4812 143.876 64.9529 145.572 65.0923C147.011 65.2062 147.527 63.1518 147.527 63.1518Z" fill="white"/>
<path d="M144.964 58.451C145.076 57.7957 144.807 57.2028 144.362 57.1267C143.918 57.0507 143.467 57.5203 143.354 58.1756C143.242 58.831 143.512 59.424 143.956 59.5C144.401 59.5761 144.852 59.1064 144.964 58.451Z" fill="#68220D"/>
<path d="M150.17 58.4636C150.282 57.8083 150.012 57.2153 149.568 57.1393C149.124 57.0632 148.672 57.5328 148.56 58.1882C148.448 58.8436 148.717 59.4365 149.162 59.5126C149.606 59.5886 150.058 59.119 150.17 58.4636Z" fill="#68220D"/>
<path d="M148.612 60.2704L148.309 61.4987C148.303 61.5199 148.291 61.5387 148.275 61.5524C148.258 61.5661 148.237 61.5738 148.215 61.5743L145.857 61.6446C145.834 61.645 145.812 61.6377 145.794 61.6239C145.776 61.6101 145.763 61.5906 145.758 61.5685C145.753 61.5465 145.755 61.5233 145.764 61.5027C145.774 61.482 145.79 61.4653 145.81 61.4551L148.471 60.1565C148.489 60.1483 148.508 60.1451 148.526 60.1473C148.545 60.1495 148.563 60.157 148.578 60.1689C148.592 60.1809 148.604 60.1967 148.61 60.2147C148.616 60.2326 148.616 60.2519 148.612 60.2704Z" fill="#FB8B99"/>
<path d="M146.579 66.7602C146.001 67.0593 145.353 67.1615 144.791 66.7773C144.506 66.5825 144.822 66.1503 145.111 66.3451C145.512 66.6197 145.962 66.4792 146.363 66.2727C146.669 66.1141 146.888 66.6027 146.583 66.7602H146.579Z" fill="#EF5972"/>
<path d="M138.912 60.629C138.867 61.0739 139.522 61.5061 140.377 61.5934C141.232 61.6807 141.961 61.3901 142.006 60.9451C142.05 60.5002 141.396 60.068 140.541 59.9807C139.686 59.8934 138.957 60.1798 138.912 60.629Z" fill="#EF5972"/>
<path d="M150.404 55.8539C149.81 55.5814 149.02 55.1535 148.434 55.6495C147.908 56.0945 147.194 55.2961 147.721 54.8512C148.655 54.0614 149.743 54.3796 150.746 54.8395C151.366 55.1237 151.031 56.1413 150.404 55.8539Z" fill="#68220D"/>
<path d="M124.457 280.013H94.2586C93.9075 278.964 93.7198 277.867 93.7019 276.76C93.6753 273.035 95.9905 270.602 98.7719 270.209C100.286 269.996 102.072 268.444 103.366 267.09C103.376 266.913 103.806 259.45 104.949 259.047C105.551 258.834 106.078 259.579 106.439 260.352C107.279 258.418 109.2 257.991 111.109 258.116C116.013 258.452 118.839 264.29 118.839 264.29C118.839 264.29 120.637 256.81 122.032 260.549C122.394 261.512 122.73 263.278 123.029 265.364C123.049 265.482 123.065 265.599 123.081 265.717C123.582 269.324 123.98 273.788 124.215 276.755C124.373 278.709 124.457 280.013 124.457 280.013Z" fill="#CB4351"/>
<path d="M122.502 265.324C119.955 268.368 120.094 272.311 120.522 276.042C120.575 276.503 121.305 276.508 121.252 276.042C120.851 272.547 120.613 268.711 123.017 265.84C123.317 265.482 122.804 264.963 122.502 265.324Z" fill="white"/>
<path d="M124.457 280.013H94.2584C93.9073 278.964 93.7195 277.867 93.7017 276.76H124.22C124.373 278.709 124.457 280.013 124.457 280.013Z" fill="white"/>
<path d="M191.248 111.859C187.697 125.476 173.932 133.68 160.502 130.176C147.072 126.672 139.066 112.795 142.619 99.1783C146.172 85.5617 159.933 77.3569 173.363 80.8622C186.792 84.3674 194.798 98.2426 191.248 111.859Z" fill="#EC8349"/>
<path d="M190.012 111.537C186.642 124.462 173.575 132.246 160.829 128.922C148.082 125.599 140.48 112.423 143.852 99.4998C147.223 86.5763 160.29 78.7929 173.034 82.1162C185.777 85.4394 193.383 98.611 190.012 111.537Z" fill="#FDC23A"/>
<path d="M185.105 110.245C187.76 100.059 181.769 89.6795 171.724 87.0611C161.679 84.4426 151.383 90.5771 148.728 100.763C146.073 110.948 152.064 121.328 162.109 123.947C172.154 126.565 182.45 120.431 185.105 110.245Z" fill="#D07700"/>
<path d="M184.151 110.837C181.608 120.593 171.744 126.47 162.123 123.961C152.502 121.452 146.764 111.507 149.307 101.752C151.85 91.9975 161.714 86.1207 171.341 88.6296C180.968 91.1385 186.695 101.078 184.151 110.837Z" fill="#F89C21"/>
<path d="M160.115 105.392L163.151 120.021L165.945 109.302L160.115 105.392Z" fill="#FFE199"/>
<path d="M163.151 120.021L172.942 108.736L165.945 109.302L163.151 120.021Z" fill="#FDC23A"/>
<path d="M170.31 92.5691L166.232 108.207L173.434 107.625L170.31 92.5691Z" fill="#FDC23A"/>
<path d="M160.228 104.181L166.232 108.207L170.309 92.5691L160.228 104.181Z" fill="#FFE199"/>
<path d="M138.609 120.179C136.423 122.968 137.588 127.767 141.288 128.186C142.192 128.185 143.086 127.994 143.911 127.625C144.736 127.256 145.475 126.718 146.078 126.045C147.371 124.602 148.942 122.341 150.164 119.004L156.772 115.835C156.92 115.764 157.039 115.644 157.108 115.496C157.177 115.347 157.193 115.179 157.152 115.021L155.909 110.174C155.877 110.05 155.819 109.933 155.739 109.833C155.658 109.732 155.558 109.65 155.444 109.591C155.33 109.532 155.204 109.498 155.076 109.491C154.948 109.483 154.819 109.503 154.699 109.549L147.322 112.362L153.971 108.28C154.414 108.009 154.656 107.468 154.488 106.976C154.437 106.827 154.355 106.691 154.247 106.576C154.138 106.462 154.006 106.373 153.86 106.314C153.714 106.256 153.557 106.231 153.399 106.239C153.242 106.248 153.089 106.291 152.949 106.364L145.179 110.494C144.596 110.804 144.107 111.263 143.76 111.824L138.609 120.179Z" fill="#FEB8BA"/>
<path d="M156.076 110.948L147.928 114.314L148.091 114.708L156.239 111.341L156.076 110.948Z" fill="#FB8B99"/>
<path d="M156.643 113.207L148.694 116.685L148.865 117.075L156.814 113.597L156.643 113.207Z" fill="#FB8B99"/>
<path d="M193.883 111.723C193.608 112.391 192.989 112.609 192.442 112.656C192.108 112.684 191.771 112.664 191.443 112.595L191.848 111.3C191.848 111.3 192.112 110.58 191.606 109.443C191.152 108.424 191.327 106.081 191.85 106.311C191.931 106.356 191.998 106.421 192.046 106.501C192.718 107.484 194.428 110.399 193.883 111.723Z" fill="#FEB8BA"/>
<path d="M192.442 112.656C192.108 112.684 191.771 112.664 191.443 112.595L191.848 111.3C191.848 111.3 192.112 110.58 191.606 109.443C191.152 108.424 191.327 106.081 191.85 106.311C191.603 106.774 191.611 107.337 191.689 107.857C191.77 108.393 191.919 108.917 192.132 109.416C192.325 109.857 192.564 110.279 192.684 110.745C192.841 111.39 192.755 112.071 192.442 112.656Z" fill="#FB8B99"/>
<path d="M192.851 114.703C192.531 115.473 191.822 115.722 191.193 115.776C190.809 115.809 190.422 115.786 190.045 115.707L190.51 114.217C190.51 114.217 190.813 113.388 190.232 112.081C189.709 110.91 189.913 108.214 190.512 108.48C190.605 108.529 190.683 108.603 190.739 108.692C191.51 109.826 193.478 113.178 192.851 114.703Z" fill="#FEB8BA"/>
<path d="M191.193 115.773C190.809 115.806 190.422 115.783 190.045 115.704L190.51 114.214C190.51 114.214 190.813 113.385 190.232 112.077C189.709 110.907 189.913 108.211 190.512 108.476C190.229 109.009 190.237 109.656 190.328 110.253C190.42 110.87 190.591 111.473 190.837 112.047C191.058 112.553 191.334 113.039 191.475 113.574C191.655 114.317 191.555 115.1 191.193 115.773Z" fill="#FB8B99"/>
<path d="M191.322 116.635C190.981 117.46 190.218 117.729 189.542 117.787C189.13 117.822 188.715 117.796 188.311 117.711L188.809 116.115C188.809 116.115 189.136 115.225 188.511 113.822C187.951 112.565 188.168 109.671 188.812 109.957C188.912 110.012 188.996 110.093 189.055 110.191C189.882 111.404 191.994 115.001 191.322 116.635Z" fill="#FEB8BA"/>
<path d="M189.542 117.79C189.13 117.825 188.715 117.8 188.311 117.715L188.809 116.118C188.809 116.118 189.136 115.228 188.511 113.825C187.951 112.568 188.168 109.674 188.812 109.96C188.509 110.532 188.516 111.227 188.614 111.868C188.713 112.53 188.897 113.177 189.161 113.792C189.397 114.336 189.693 114.857 189.841 115.432C190.035 116.228 189.928 117.068 189.542 117.79Z" fill="#FB8B99"/>
<path d="M190.237 119.338C189.897 120.163 189.132 120.431 188.458 120.49C188.045 120.525 187.63 120.499 187.225 120.414L187.724 118.817C187.724 118.817 188.051 117.928 187.426 116.525C186.865 115.267 187.083 112.373 187.727 112.66C187.827 112.715 187.911 112.796 187.97 112.894C188.798 114.106 190.909 117.704 190.237 119.338Z" fill="#FEB8BA"/>
<path d="M188.458 120.49C188.045 120.525 187.63 120.499 187.225 120.414L187.724 118.817C187.724 118.817 188.051 117.928 187.426 116.525C186.865 115.267 187.083 112.373 187.727 112.66C187.423 113.231 187.431 113.926 187.529 114.567C187.628 115.229 187.811 115.876 188.075 116.492C188.313 117.036 188.608 117.556 188.756 118.131C188.949 118.927 188.843 119.767 188.458 120.49Z" fill="#FB8B99"/>
<path d="M283.385 233.869L281.399 241.814L278.08 255.091L275.099 267.013L264.812 266.494L265.234 250.303L265.537 238.624L265.676 233.289L283.385 233.869Z" fill="#FEB8BA"/>
<path d="M281.399 241.814L278.08 255.091L265.233 250.303L265.537 238.624L267.69 233.855L281.399 241.814Z" fill="#FB8B99"/>
<path d="M279.576 260.625C280.418 259.12 278.898 257.931 277.502 257.964C276.107 257.997 274.91 258.284 273.891 260.491C273.633 261.061 273.187 261.526 272.628 261.807C271.351 262.462 269.797 262.126 268.804 261.091C267.846 260.096 266.544 258.545 265.99 257C265.332 255.164 263.223 258.771 263.223 258.771C263.223 258.771 254.739 268.733 251.184 269.78C248.5 270.568 242.029 270.458 238.517 271.583C237.377 271.945 236.548 272.434 236.263 273.138C235.092 275.983 235.803 278.336 240.308 279.987C244.813 281.638 248.733 280.2 254.572 279.756C260.41 279.312 273.945 280.887 276.46 277.733C277.102 276.929 277.639 276.046 278.057 275.106C278.057 275.106 277.537 266.661 277.694 265.047C277.85 263.433 278.735 262.131 279.576 260.625Z" fill="#0A48B7"/>
<path d="M236.261 273.136C236.546 272.438 237.375 271.943 238.515 271.581C238.273 271.807 238.058 272.062 237.876 272.339C237.961 272.387 238.028 272.462 238.066 272.551C238.45 273.297 237.96 273.927 237.916 274.174C237.772 275.036 238.247 275.797 238.247 275.797C239.418 276.917 241.751 278.171 244.709 278.262C248.316 278.374 253.261 276.569 255.593 275.44C257.925 274.312 261.547 275.964 264.866 276.589C268.185 277.214 272.078 272.248 274.802 272.445C276.726 272.591 277.67 274.178 278.057 275.106C278.45 275.936 277.673 277.277 276.987 278.133C274.474 281.291 260.419 279.324 254.575 279.761C248.731 280.199 244.814 281.645 240.311 279.992C235.809 278.339 235.091 275.981 236.261 273.136Z" fill="white"/>
<path d="M317.108 231.602L316.846 233.248L314.107 250.531L311.87 264.629L300.649 264.068L300.75 251.087L300.883 233.423L300.909 230.116L317.108 231.602Z" fill="#FEB8BA"/>
<path d="M316.846 233.248L314.107 250.531L300.75 251.087L300.883 233.423L316.846 233.248Z" fill="#FB8B99"/>
<path d="M322.419 280.46H296.507C296.507 280.46 295.755 279.01 296.984 274.988C297.233 274.171 297.516 273.156 297.824 272.055C299.011 267.718 300.407 262.05 300.407 262.05C300.407 262.05 303.057 256.244 309.471 256.845C315.355 257.398 313.136 262.933 313.136 262.933C313.136 262.933 313.569 266.329 316.922 269.32C319.384 271.515 321.829 273.124 322.49 276.29C322.726 277.441 322.734 278.798 322.419 280.46Z" fill="#0A48B7"/>
<path d="M322.419 280.46H296.507C296.507 280.46 295.755 279.009 296.984 274.988C297.233 274.17 297.516 273.156 297.824 272.055C298.69 271.914 299.873 272.064 300.485 273.644C301.511 276.321 303.633 276.677 305.463 276.589C307.292 276.501 310.359 273.183 315.29 273.555C319.534 273.875 319.491 277.068 322.495 276.292C322.726 277.44 322.734 278.798 322.419 280.46Z" fill="white"/>
<path d="M321.023 156.004C320.566 177.555 321.243 192.628 320.931 200.205C320.738 204.873 320.354 212.481 319.933 220.337C319.461 229.196 318.946 238.371 318.628 244.012C318.455 247.077 315.8 249.451 312.645 249.361L303.794 249.108C300.601 249.018 298.078 246.428 298.164 243.313C298.282 239.018 298.234 233.591 298.092 227.478C297.593 205.949 295.916 175.924 296.135 157.025L288.195 209.369L282.639 246.001C282.32 247.978 280.601 249.456 278.543 249.529C274.909 249.657 269.249 249.724 265.316 249.155C263.018 248.824 261.412 246.777 261.686 244.532C261.875 242.986 262.123 240.948 262.424 238.508C265.339 214.819 273.021 153.458 275.718 142.301C275.818 141.885 275.922 141.487 276.028 141.102C277.447 135.87 279.157 133.456 279.915 129.686L296.521 128.727L317.51 127.517C317.515 128.239 317.674 129.681 317.92 131.562C318.466 135.699 319.44 141.948 320.155 147.216C320.672 151.07 321.051 154.407 321.023 156.004Z" fill="#F61E69"/>
<path d="M296.525 124.566H296.1V155.45H296.525V124.566Z" fill="#FF73A9"/>
<path d="M295.822 151.997C295.558 151.995 295.302 151.907 295.094 151.745C293.627 150.658 293.032 145.732 293.323 137.107C293.536 130.729 294.175 124.579 294.186 124.518L294.611 124.562C294.605 124.624 293.973 130.76 293.752 137.123C293.395 147.681 294.424 150.717 295.349 151.404C295.608 151.595 295.897 151.617 296.233 151.478L296.398 151.871C296.216 151.951 296.02 151.994 295.822 151.997Z" fill="#FF73A9"/>
<path d="M314.085 249.272L313.659 249.261C313.68 248.373 315.795 160.423 315.795 155.45C315.795 150.477 311.568 125.285 311.526 125.031L311.946 124.96C311.989 125.215 316.221 150.456 316.221 155.45C316.221 160.443 314.104 248.383 314.085 249.272Z" fill="#FF73A9"/>
<path d="M291.622 155.407L277.375 248.946L277.796 249.01L292.043 155.471L291.622 155.407Z" fill="#FF73A9"/>
<g opacity="0.6">
<path d="M320.151 147.214C308.974 145.617 285.802 142.344 276.023 141.106C277.442 135.874 279.151 133.46 279.91 129.69L296.516 128.732L317.919 131.562C318.468 135.697 319.44 141.946 320.151 147.214Z" fill="#CE135A"/>
</g>
<g opacity="0.6">
<path d="M288.189 209.373L282.634 246.005C282.315 247.983 280.596 249.46 278.538 249.534C274.904 249.661 269.243 249.729 265.311 249.159C263.013 248.828 261.407 246.781 261.68 244.536C261.87 242.991 262.118 240.952 262.419 238.512C269.971 239.008 282.71 235.618 288.189 209.373Z" fill="#CE135A"/>
</g>
<g opacity="0.6">
<path d="M319.927 220.336C319.456 229.195 318.941 238.37 318.622 244.011C318.45 247.076 315.795 249.45 312.64 249.36L303.789 249.107C300.596 249.017 298.073 246.427 298.159 243.312C298.276 239.017 298.228 233.59 298.087 227.477C302.88 232.807 312.194 239.146 319.927 220.336Z" fill="#CE135A"/>
</g>
<path d="M312.595 73.8358C312.038 73.4189 311.593 72.8698 311.3 72.2379C311.008 71.6061 310.878 70.9115 310.921 70.2166C311.113 67.0435 309.856 65.3755 308.704 64.5953C307.933 64.0508 307.383 63.2477 307.155 62.3322C305.908 57.6688 303.526 52.2401 293.354 52.2401C285.98 52.2401 276.102 53.0023 279.927 63.2753C280.089 63.7168 280.125 64.1946 280.031 64.6553C279.937 65.116 279.717 65.5415 279.395 65.8843C278.214 67.1489 278.161 68.6349 278.437 69.8026C278.536 70.2424 278.52 70.7004 278.389 71.1319C278.258 71.5634 278.018 71.9537 277.692 72.2647C276.768 73.1652 276.521 74.3936 276.55 75.2728C276.554 75.8665 276.341 76.4412 275.949 76.8876C274.792 78.2607 274.921 80.2342 274.921 80.2342H279.755L280.437 76.8769L280.909 80.2342H284.938L285.62 76.8769L286.091 80.2342H302.068L302.749 76.8769L303.222 80.2342H308.012L308.694 76.8769L309.166 80.2342H316.006C316.006 80.2342 316.046 76.4086 312.595 73.8358Z" fill="#1F2328"/>
<mask id="mask5_2844_17741" style="mask-type:luminance" maskUnits="userSpaceOnUse" x="274" y="52" width="43" height="29">
<path d="M312.595 73.8358C312.038 73.4189 311.593 72.8698 311.3 72.2379C311.008 71.6061 310.878 70.9115 310.921 70.2166C311.113 67.0435 309.856 65.3755 308.704 64.5953C307.933 64.0508 307.383 63.2477 307.155 62.3322C305.908 57.6688 303.526 52.2401 293.354 52.2401C285.98 52.2401 276.102 53.0023 279.927 63.2753C280.089 63.7168 280.125 64.1946 280.031 64.6553C279.937 65.116 279.717 65.5415 279.395 65.8843C278.214 67.1489 278.161 68.6349 278.437 69.8026C278.536 70.2424 278.52 70.7004 278.389 71.1319C278.258 71.5634 278.018 71.9537 277.692 72.2647C276.768 73.1652 276.521 74.3936 276.55 75.2728C276.554 75.8665 276.341 76.4412 275.949 76.8876C274.792 78.2607 274.921 80.2342 274.921 80.2342H279.755L280.437 76.8769L280.909 80.2342H284.938L285.62 76.8769L286.091 80.2342H302.068L302.749 76.8769L303.222 80.2342H308.012L308.694 76.8769L309.166 80.2342H316.006C316.006 80.2342 316.046 76.4086 312.595 73.8358Z" fill="white"/>
</mask>
<g mask="url(#mask5_2844_17741)">
<path d="M273.877 78.3863H278.737L280.315 74.6298L282.068 77.9754H284.508L285.856 74.1412L287.807 78.1659L300.392 77.9754L302.608 73.5026L304.57 77.5943L307.171 77.6795L308.621 73.9709L310.368 77.5092H316.8L317.188 82.0278L274.474 83.2572L273.877 78.3863Z" fill="#BC7E3B"/>
<path d="M296.353 63.882C297.047 63.9789 297.755 64.0534 298.445 63.9363C299.642 63.733 300.664 62.9847 301.639 62.2577C300.435 62.5704 299.174 62.5876 297.962 62.308C296.75 62.0283 295.624 61.46 294.679 60.6514C294.029 60.084 293.474 59.406 292.763 58.9099C292.217 58.5322 291.596 58.2735 290.943 58.1505C290.29 58.0274 289.619 58.0428 288.972 58.1957C288.699 58.2616 288.436 58.364 288.19 58.5001C287.986 58.2781 287.749 58.0892 287.487 57.9402C286.918 57.6209 286.265 57.4665 285.614 57.3867C284.964 57.3069 284.265 57.293 283.622 57.4804C282.077 57.9296 281.048 59.4624 280.714 61.0357C280.589 61.5477 280.571 62.08 280.661 62.5993C280.735 62.9565 280.881 63.2946 281.091 63.5926C281.302 63.8907 281.571 64.1423 281.882 64.332C282.194 64.5216 282.541 64.6452 282.902 64.6951C283.264 64.745 283.631 64.72 283.983 64.6218L286.036 62.3609C286.305 63.32 286.764 64.2152 287.386 64.9933C287.811 65.5152 288.294 65.9882 288.824 66.4037C290.454 67.7001 292.395 68.5468 294.455 68.8594C295.839 69.0723 297.267 69.0265 298.593 68.5944C299.073 68.4471 299.526 68.2258 299.937 67.9387C301.001 67.1669 301.548 65.8832 301.959 64.6388C301.033 64.9776 300.039 65.0857 299.062 64.9539C298.085 64.822 297.155 64.4541 296.353 63.882Z" fill="#BC7E3B"/>
</g>
<path d="M287.444 83.2924L279.819 85.8769C276.928 86.8562 274.388 88.6592 272.509 91.064L257.318 110.507L241.99 101.809L233.596 110.537L244.772 122.41C250.689 127.804 258.069 130.848 263.697 126.978L276.182 118.394L278.582 133.331C278.582 133.331 270.049 140.62 279.597 140.62H320.088C320.345 140.62 320.598 140.563 320.83 140.453C321.062 140.343 321.267 140.183 321.429 139.984C321.591 139.785 321.707 139.553 321.769 139.303C321.83 139.054 321.835 138.794 321.784 138.543L312.645 86.3176L301.848 83.2594L287.444 83.2924Z" fill="#8C293D"/>
<mask id="mask6_2844_17741" style="mask-type:luminance" maskUnits="userSpaceOnUse" x="233" y="83" width="89" height="58">
<path d="M287.444 83.2924L279.819 85.8769C276.928 86.8562 274.388 88.6592 272.509 91.064L257.318 110.507L241.99 101.809L233.596 110.537L244.772 122.41C250.689 127.804 258.069 130.848 263.697 126.978L276.182 118.394L278.582 133.331C278.582 133.331 270.049 140.62 279.597 140.62H320.088C320.345 140.62 320.598 140.563 320.83 140.453C321.062 140.343 321.267 140.183 321.429 139.984C321.591 139.785 321.707 139.553 321.769 139.303C321.83 139.054 321.835 138.794 321.784 138.543L312.645 86.3176L301.848 83.2594L287.444 83.2924Z" fill="white"/>
</mask>
<g mask="url(#mask6_2844_17741)">
<path d="M284.904 111.938L324.203 136.273L328.06 120.992L286.495 107.052L284.904 111.938Z" fill="#68182B"/>
<path d="M276.18 118.391L280.119 132.63L290.112 134.164L279.899 135.188C279.899 135.188 274.248 139.91 281.586 140.617C288.923 141.323 269.718 144.394 269.718 144.394L268.91 131.989L276.18 118.391Z" fill="#68182B"/>
<path d="M250.442 128.967C250.442 128.967 254.274 121.136 265.272 126.377C276.27 131.617 251.721 133.534 251.721 133.534L250.442 128.967Z" fill="#68182B"/>
<path d="M241.992 101.809L255.418 112.536L255.29 118.391L258.488 113.925L263.22 116.241L261.134 110.884L271.057 92.9226L241.992 101.809Z" fill="#68182B"/>
</g>
<path d="M299.144 82.7698L301.568 83.2094L299.139 90.7745L285.977 89.2938L286.986 83.7182L288.95 81.9182L289.736 78.2416C288.862 78.315 287.982 78.2409 287.133 78.0223C286.023 77.7249 285.002 77.1623 284.158 76.383C282.419 74.8162 281.517 72.5233 281.593 70.1847L281.608 69.694L281.651 68.4081L281.864 61.7734C281.864 61.7734 284.8 58.5609 288.473 59.0058C291.896 67.4778 298.839 67.1787 298.839 67.1787L298.662 68.4688C299.81 68.1335 300.988 68.3283 301.778 69.1022C303.055 70.3561 302.842 72.6447 301.299 74.2115C300.262 75.2696 298.884 75.7305 297.707 75.5347C297.701 76.4011 297.701 77.3613 297.72 77.8765C297.741 78.6461 298.678 81.0666 299.144 82.7698Z" fill="#FEB8BA"/>
<mask id="mask7_2844_17741" style="mask-type:luminance" maskUnits="userSpaceOnUse" x="281" y="58" width="22" height="33">
<path d="M299.144 82.7698L301.568 83.2094L299.139 90.7745L285.977 89.2938L286.986 83.7182L288.95 81.9182L289.736 78.2416C288.862 78.315 287.982 78.2409 287.133 78.0223C286.023 77.7249 285.002 77.1623 284.158 76.383C282.419 74.8162 281.517 72.5233 281.593 70.1847L281.608 69.694L281.651 68.4081L281.864 61.7734C281.864 61.7734 284.8 58.5609 288.473 59.0058C291.896 67.4778 298.839 67.1787 298.839 67.1787L298.662 68.4688C299.81 68.1335 300.988 68.3283 301.778 69.1022C303.055 70.3561 302.842 72.6447 301.299 74.2115C300.262 75.2696 298.884 75.7305 297.707 75.5347C297.701 76.4011 297.701 77.3613 297.72 77.8765C297.741 78.6461 298.678 81.0666 299.144 82.7698Z" fill="white"/>
</mask>
<g mask="url(#mask7_2844_17741)">
<path d="M291.279 65.8151C293.508 67.8472 296.8 68.6391 299.709 67.8376C300.204 67.7013 300.717 67.5023 301.024 67.0925C301.45 66.5177 301.35 65.7193 301.217 65.0157C300.933 63.5138 300.572 61.9831 299.712 60.7196C299.141 59.8797 298.37 59.1942 297.57 58.5683C295.827 57.2079 293.868 56.0775 291.726 55.5335C289.583 54.9896 287.24 55.0652 285.243 56.0136L288.487 57.6103C287.96 60.5769 289.051 63.7831 291.279 65.8151Z" fill="#FB8B99"/>
<path d="M301.649 70.8914C301.928 72.0113 301.581 73.246 300.83 74.1231C300.078 75.0002 298.957 75.5229 297.808 75.6368C298.966 76.6438 300.766 76.6406 302.131 75.9402C303.495 75.2397 304.48 73.9667 305.218 72.6212C305.698 71.7473 306.1 70.7307 305.823 69.7738C305.602 69.0063 304.972 68.4134 304.254 68.0557C303.537 67.6981 302.745 67.5437 301.961 67.3926L299.318 68.3399C300.448 68.5496 301.364 69.7716 301.649 70.8914Z" fill="#FB8B99"/>
<path d="M282.752 90.0154C283.235 89.6588 298.688 89.1469 298.688 89.1469L300.798 83.9683L299.144 82.7697L303.189 82.4365L304.466 84.0034L300.053 96.2255L282.752 90.0154Z" fill="#FB8B99"/>
</g>
<path d="M300.798 71.1182C300.454 71.0016 300.09 70.9549 299.728 70.9809C299.392 71.0104 299.071 71.1328 298.8 71.3343C298.522 71.5441 298.277 71.7954 298.075 72.0795C297.862 72.37 297.666 72.6873 297.455 73.0087C297.502 72.6238 297.615 72.25 297.79 71.9038C297.879 71.7267 297.986 71.5593 298.109 71.4046C298.236 71.2429 298.385 71.0996 298.551 70.9788C298.881 70.7336 299.287 70.6123 299.697 70.6363C300.108 70.6602 300.497 70.8278 300.796 71.1097L300.798 71.1182Z" fill="#FB8B99"/>
<path d="M299.308 73.1747C299.334 72.9618 299.364 72.7702 299.377 72.5893C299.395 72.4245 299.385 72.2579 299.348 72.0964C299.308 71.9468 299.23 71.8101 299.122 71.6994C298.985 71.5637 298.839 71.4378 298.684 71.3226C298.903 71.2863 299.128 71.3237 299.323 71.429C299.43 71.4865 299.525 71.5657 299.6 71.6618C299.676 71.7578 299.73 71.8685 299.76 71.9868C299.816 72.2145 299.795 72.4542 299.702 72.6691C299.621 72.8714 299.484 73.0467 299.308 73.1747Z" fill="#FB8B99"/>
<path d="M289.081 80.9464L289.735 78.2426C289.735 78.2426 292.798 77.6242 294.396 75.8274C294.027 79.6392 291.038 80.6781 289.081 80.9464Z" fill="#FB8B99"/>
<path d="M290.876 67.7128C290.892 67.0839 290.558 66.5656 290.132 66.5551C289.705 66.5446 289.346 67.0459 289.331 67.6747C289.316 68.3036 289.649 68.8219 290.076 68.8324C290.502 68.8429 290.861 68.3416 290.876 67.7128Z" fill="#68220D"/>
<path d="M285.27 67.0605C285.286 66.4317 284.952 65.9134 284.526 65.9029C284.099 65.8924 283.741 66.3937 283.725 67.0225C283.71 67.6514 284.043 68.1696 284.47 68.1801C284.896 68.1907 285.255 67.6894 285.27 67.0605Z" fill="#68220D"/>
<path d="M285.482 68.9467L285.765 70.1112C285.77 70.1311 285.781 70.1489 285.797 70.1618C285.813 70.1746 285.833 70.1819 285.853 70.1825L288.082 70.2559C288.104 70.2568 288.125 70.2502 288.142 70.2373C288.159 70.2244 288.171 70.206 288.176 70.1852C288.182 70.1644 288.18 70.1424 288.171 70.1229C288.162 70.1034 288.146 70.0876 288.127 70.0782L285.615 68.8402C285.599 68.8326 285.581 68.8296 285.563 68.8317C285.545 68.8337 285.529 68.8407 285.515 68.8518C285.501 68.8629 285.49 68.8777 285.485 68.8945C285.479 68.9112 285.478 68.9293 285.482 68.9467Z" fill="#FB8B99"/>
<path d="M290.36 65.2339C290.948 65.054 291.706 65.204 291.911 65.8629C292.104 66.4793 293.098 66.2887 292.903 65.6607C292.818 65.3858 292.678 65.1306 292.493 64.91C292.308 64.6894 292.081 64.5078 291.825 64.3757C291.569 64.2437 291.29 64.1638 291.003 64.1408C290.716 64.1179 290.427 64.1522 290.154 64.2418C289.536 64.4313 289.728 65.4255 290.356 65.2339H290.36Z" fill="#68220D"/>
<path d="M286.321 75.0971C286.804 75.4792 287.386 75.6932 287.978 75.4388C288.278 75.31 288.064 74.8512 287.765 74.98C287.339 75.161 286.949 74.9491 286.616 74.6852C286.361 74.4818 286.068 74.898 286.323 75.0971H286.321Z" fill="#EF5972"/>
<path d="M294.556 70.801C294.517 71.2268 293.829 71.5035 293.02 71.429C292.211 71.3545 291.587 70.9522 291.627 70.5306C291.666 70.1091 292.353 69.8281 293.162 69.9026C293.971 69.9771 294.594 70.3795 294.556 70.801Z" fill="#EF5972"/>
<path d="M283.894 69.2511C283.855 69.6768 283.169 69.9557 282.362 69.8791C282.102 69.8589 281.848 69.7982 281.608 69.6992L281.651 68.4133C281.929 68.3442 282.217 68.3233 282.502 68.3516C283.309 68.4272 283.935 68.8253 283.894 69.2511Z" fill="#EF5972"/>
<path d="M283.783 64.5452C284.384 64.4004 285.193 64.1482 285.648 64.7145C286.055 65.2233 286.863 64.608 286.455 64.1045C285.732 63.2008 284.665 63.2977 283.651 63.5414C283.023 63.6915 283.148 64.6974 283.783 64.5452Z" fill="#68220D"/>
<path d="M284.531 71.991C284.729 73.1034 286.021 73.3642 286.989 73.2748C288.128 73.1683 289.086 72.5786 289.757 71.6696C290.004 71.3364 289.444 71.0139 289.199 71.3438C288.764 71.9441 288.131 72.3716 287.412 72.5509C286.725 72.7213 285.324 72.7787 285.153 71.8186C285.081 71.4098 284.459 71.5834 284.531 71.99V71.991Z" fill="#EF5972"/>
<path d="M301.543 107.617L299.881 113.685C299.788 114.027 299.607 114.338 299.356 114.588C299.105 114.839 298.793 115.019 298.451 115.111C298.109 115.204 297.749 115.205 297.406 115.116C297.063 115.026 296.749 114.848 296.496 114.6L292.837 111.01C292.837 111.01 288.514 109.424 284.865 103.103L277.825 101.121C277.667 101.077 277.53 100.979 277.436 100.845C277.343 100.711 277.299 100.548 277.312 100.385L277.704 95.4091C277.713 95.2812 277.75 95.157 277.812 95.0444C277.873 94.9318 277.957 94.8334 278.059 94.7557C278.161 94.678 278.279 94.6228 278.404 94.5936C278.528 94.5644 278.658 94.5619 278.784 94.5862L286.515 96.0871L279.219 93.1918C278.969 93.0922 278.765 92.903 278.647 92.6611C278.529 92.4192 278.505 92.142 278.581 91.8836C278.621 91.7442 278.689 91.6143 278.781 91.5017C278.872 91.3891 278.986 91.2961 279.114 91.2283C279.242 91.1604 279.383 91.1191 279.528 91.1068C279.672 91.0945 279.818 91.1114 279.956 91.1566L288.298 93.8848C288.924 94.089 289.484 94.4565 289.92 94.9492L296.422 102.277C296.422 102.277 301.873 106.429 301.543 107.617Z" fill="#FEB8BA"/>
<path d="M277.676 96.2085L277.583 96.6241L286.17 98.5356L286.262 98.12L277.676 96.2085Z" fill="#FB8B99"/>
<path d="M251.079 91.135C254.402 98.6394 251.097 107.38 243.696 110.657C236.295 113.935 227.602 110.506 224.279 103.002C220.956 95.4972 224.261 86.758 231.662 83.4805C239.063 80.203 247.756 83.6306 251.079 91.135Z" fill="#EC8349"/>
<path d="M250.399 91.4363C253.553 98.5596 250.415 106.856 243.391 109.966C236.366 113.077 228.115 109.824 224.959 102.7C221.804 95.577 224.944 87.2828 231.969 84.1714C238.994 81.06 247.244 84.3129 250.399 91.4363Z" fill="#FDC23A"/>
<path d="M242.177 107.262C247.713 104.811 250.186 98.2736 247.701 92.6605C245.216 87.0473 238.714 84.4837 233.178 86.9345C227.642 89.3853 225.169 95.9224 227.654 101.536C230.139 107.149 236.641 109.712 242.177 107.262Z" fill="#D07700"/>
<path d="M247.47 93.2446C249.85 98.6212 247.482 104.884 242.179 107.232C236.876 109.579 230.648 107.125 228.268 101.748C225.888 96.3699 228.256 90.1088 233.558 87.7616C238.86 85.4145 245.089 87.867 247.47 93.2446Z" fill="#F89C21"/>
<path d="M238.071 102.865C237.33 102.868 236.591 102.779 235.871 102.6C235.218 102.444 234.597 102.175 234.037 101.803C233.825 101.659 233.698 101.485 233.655 101.28C233.609 101.091 233.63 100.891 233.713 100.715C233.789 100.551 233.926 100.423 234.095 100.359C234.265 100.292 234.461 100.331 234.684 100.474C235.17 100.791 235.702 101.029 236.262 101.18C236.852 101.334 237.461 101.41 238.071 101.404C239.012 101.404 239.706 101.234 240.155 100.895C240.604 100.555 240.828 100.115 240.828 99.5752C240.828 99.1328 240.667 98.7813 240.346 98.5206C240.025 98.2599 239.488 98.0525 238.735 97.8984L236.959 97.5328C235.907 97.3116 235.124 96.9464 234.61 96.4374C234.096 95.9283 233.838 95.242 233.838 94.3784C233.826 93.7212 234.02 93.0767 234.394 92.5359C234.765 92.0048 235.282 91.5925 235.946 91.2991C236.61 91.0057 237.374 90.859 238.239 90.859C238.893 90.8546 239.544 90.9441 240.173 91.1246C240.758 91.2928 241.307 91.5686 241.791 91.9379C241.876 91.9916 241.949 92.0619 242.007 92.1447C242.064 92.2274 242.103 92.3208 242.124 92.4194C242.158 92.598 242.129 92.783 242.041 92.9422C241.999 93.02 241.942 93.0887 241.874 93.1443C241.806 93.2 241.727 93.2415 241.642 93.2664C241.465 93.322 241.26 93.2777 241.028 93.1333C240.621 92.8571 240.172 92.6471 239.7 92.5111C239.218 92.3801 238.721 92.3158 238.222 92.32C237.403 92.32 236.753 92.5026 236.271 92.8677C236.041 93.034 235.855 93.254 235.729 93.5086C235.603 93.7632 235.541 94.0448 235.549 94.3287C235.549 94.7957 235.698 95.1666 235.995 95.4413C236.292 95.716 236.79 95.9262 237.489 96.0718L239.249 96.4374C240.356 96.6696 241.18 97.0265 241.722 97.508C242.265 97.9894 242.536 98.6397 242.536 99.4587C242.536 100.145 242.353 100.743 241.988 101.252C241.622 101.761 241.108 102.157 240.444 102.439C239.781 102.723 238.99 102.866 238.071 102.865Z" fill="#FFE199"/>
<path d="M238.916 89.9899C238.916 89.7061 238.686 89.476 238.403 89.476C238.119 89.476 237.889 89.7061 237.889 89.9899V104.29C237.889 104.574 238.119 104.804 238.403 104.804C238.686 104.804 238.916 104.574 238.916 104.29V89.9899Z" fill="#FFE199"/>
<path d="M277.519 98.5201L277.418 98.9337L285.827 100.991L285.928 100.578L277.519 98.5201Z" fill="#FB8B99"/>
<path d="M312.668 86.3251C317.069 87.6652 320.794 90.4424 326.549 97.0111C332.305 103.58 344.635 115.746 338.333 125.858C330.952 137.708 303.39 121.863 292.961 113.736L298.378 103.511L315.913 108.658C313.83 105.564 312.438 102.058 311.83 98.3782C311.222 94.6983 311.413 90.9306 312.39 87.331L312.668 86.3251Z" fill="#8C293D"/>
<mask id="mask8_2844_17741" style="mask-type:luminance" maskUnits="userSpaceOnUse" x="292" y="86" width="49" height="45">
<path d="M312.668 86.3251C317.069 87.6652 320.794 90.4424 326.549 97.0111C332.305 103.58 344.635 115.746 338.333 125.858C330.952 137.708 303.39 121.863 292.961 113.736L298.378 103.511L315.913 108.658C313.83 105.564 312.438 102.058 311.83 98.3782C311.222 94.6983 311.413 90.9306 312.39 87.331L312.668 86.3251Z" fill="white"/>
</mask>
<g mask="url(#mask8_2844_17741)">
<path d="M298.379 103.512L316.666 110.884L319.852 116.241L319.084 110.884L325.734 109.82L317.677 106.715C317.677 106.715 312.263 100.841 311.49 94.4735C310.716 88.1059 298.379 103.512 298.379 103.512Z" fill="#68182B"/>
<path d="M332.768 131.607C332.768 131.607 331.085 118.69 342.733 118.562C354.382 118.434 342.733 135.571 342.733 135.571L332.768 131.607Z" fill="#68182B"/>
</g>
<path d="M219.312 94.7853C219.388 94.3933 219.546 94.022 219.777 93.6962C220.008 93.3704 220.305 93.0976 220.65 92.8959L227.433 89.0447C227.634 88.9264 227.872 88.8879 228.1 88.9369C228.328 88.9859 228.529 89.1187 228.664 89.3092C228.799 89.4996 228.857 89.7337 228.827 89.9651C228.797 90.1964 228.682 90.4082 228.503 90.5584L223.599 94.5724L228.876 91.94C229.311 91.7232 229.815 91.688 230.276 91.8423C230.737 91.9966 231.119 92.3277 231.336 92.7628L232.711 95.5209C232.918 95.9346 232.96 96.4112 232.83 96.855C232.7 97.2987 232.407 97.6769 232.01 97.9137L227.891 100.371C227.724 101.239 227.479 102.09 227.16 102.915C226.753 103.953 226.736 105.103 227.114 106.153L227.859 108.218L227.67 108.21C226.463 108.157 225.294 107.775 224.288 107.106C223.283 106.436 222.479 105.505 221.964 104.412L220.048 100.338C219.228 98.6093 218.971 96.6675 219.312 94.7853Z" fill="#FEB8BA"/>
<path d="M231.516 93.1044L223.433 97.1364L223.623 97.5174L231.706 93.4855L231.516 93.1044Z" fill="#FB8B99"/>
<path d="M232.483 95.044L224.4 99.0759L224.59 99.4569L232.673 95.425L232.483 95.044Z" fill="#FB8B99"/>
<path d="M93.9615 167.792C98.231 175.169 95.7945 184.565 88.5189 188.776C81.2434 192.987 71.8836 190.417 67.6141 183.04C63.3445 175.664 65.78 166.269 73.0566 162.058C80.3332 157.847 89.6919 160.414 93.9615 167.792Z" fill="#EC8349"/>
<path d="M93.292 168.179C97.3454 175.181 95.0313 184.099 88.1262 188.095C81.221 192.091 72.336 189.656 68.2826 182.653C64.2291 175.65 66.5433 166.734 73.4494 162.737C80.3556 158.74 89.2396 161.176 93.292 168.179Z" fill="#FDC23A"/>
<path d="M86.5703 185.408C92.0125 182.258 93.8352 175.231 90.6413 169.712C87.4475 164.194 80.4465 162.273 75.0042 165.423C69.562 168.573 67.7393 175.6 70.9332 181.119C74.127 186.637 81.128 188.557 86.5703 185.408Z" fill="#D07700"/>
<path d="M90.47 170.374C93.5282 175.659 91.7825 182.391 86.5698 185.408C81.3572 188.424 74.6479 186.579 71.5919 181.299C68.5358 176.019 70.2794 169.283 75.4921 166.267C80.7047 163.25 87.4108 165.088 90.47 170.374Z" fill="#F89C21"/>
<path d="M77 175L79.0829 184L81 177.406L77 175Z" fill="#FFE199"/>
<path d="M79 184L85 177L80.7123 177.351L79 184Z" fill="#FDC23A"/>
<path d="M83.2649 167L81 177L85 176.628L83.2649 167Z" fill="#FDC23A"/>
<path d="M77 174.426L80.573 177L83 167L77 174.426Z" fill="#FFE199"/>
<path d="M85.3119 121.924H81.9546V118.566C81.9311 118.273 81.798 117.999 81.5817 117.799C81.3654 117.6 81.0818 117.489 80.7874 117.489C80.493 117.489 80.2094 117.6 79.9931 117.799C79.7768 117.999 79.6437 118.273 79.6202 118.566V121.924H76.264C76.1029 121.911 75.9408 121.931 75.7881 121.984C75.6353 122.037 75.4952 122.121 75.3764 122.23C75.2576 122.34 75.1629 122.473 75.098 122.621C75.0332 122.769 74.9998 122.929 74.9998 123.091C74.9998 123.252 75.0332 123.412 75.098 123.56C75.1629 123.708 75.2576 123.841 75.3764 123.951C75.4952 124.061 75.6353 124.145 75.7881 124.197C75.9408 124.25 76.1029 124.271 76.264 124.258H79.6202V127.614C79.6073 127.775 79.628 127.937 79.6808 128.09C79.7336 128.243 79.8174 128.383 79.9271 128.502C80.0367 128.621 80.1698 128.715 80.3178 128.78C80.4659 128.845 80.6258 128.878 80.7874 128.878C80.949 128.878 81.1089 128.845 81.257 128.78C81.405 128.715 81.5381 128.621 81.6477 128.502C81.7574 128.383 81.8412 128.243 81.894 128.09C81.9468 127.937 81.9675 127.775 81.9546 127.614V124.258H85.3119C85.6053 124.235 85.8792 124.101 86.0789 123.885C86.2785 123.669 86.3894 123.385 86.3894 123.091C86.3894 122.796 86.2785 122.513 86.0789 122.297C85.8792 122.08 85.6053 121.947 85.3119 121.924Z" fill="#EAB87B"/>
</svg>
