<svg width="422" height="281" viewBox="0 0 422 281" fill="none" xmlns="http://www.w3.org/2000/svg">
<path d="M422 280.975H2V0.979248H422V280.975Z" fill="#F0ECFF"/>
<path d="M397.031 242.161C397.049 255.465 394.273 268.625 388.883 280.787H214.482C214.358 280.508 214.235 280.226 214.113 279.944H208.713C208.698 280.226 208.681 280.508 208.665 280.787H18.3255C18.2064 278.843 18.1465 276.883 18.1458 274.907C18.1458 239.125 37.8561 207.946 67.0116 191.636C66.6763 188.363 66.5084 185.076 66.5085 181.786C66.5085 129.127 109.198 86.4366 161.858 86.4366C165.034 86.4366 168.172 86.5901 171.271 86.8971C186.238 77.1255 204.12 71.4435 223.329 71.4435C269.559 71.4435 308.101 104.345 316.823 148.011C362.288 155.266 397.031 194.656 397.031 242.161Z" fill="#E6DEFF"/>
<path d="M371.571 235.044V266.295C371.571 268.198 371.196 270.083 370.468 271.841C369.74 273.6 368.672 275.197 367.327 276.543C365.981 277.889 364.383 278.956 362.625 279.685C360.866 280.413 358.982 280.788 357.079 280.787H216.308C214.405 280.788 212.52 280.413 210.762 279.685C209.003 278.956 207.406 277.889 206.06 276.543C204.714 275.197 203.647 273.6 202.919 271.841C202.19 270.083 201.816 268.198 201.816 266.295V257.851C202.93 256.775 204.06 255.715 205.204 254.67C210.097 250.202 215.332 245.966 221.372 243.232C227.411 240.499 234.382 239.369 240.741 241.253C250.412 244.118 257.077 253.272 266.524 256.808C276.964 260.716 288.817 257.005 298.3 251.146C307.782 245.286 315.876 237.363 325.473 231.691C335.069 226.018 347.155 222.774 357.345 227.292C362.293 229.485 366.458 233.361 371.571 235.044Z" fill="url(#paint0_linear_2844_15543)"/>
<path d="M135.571 121.77H50.7196C46.9454 121.77 43.8857 124.829 43.8857 128.603V193.44C43.8857 197.214 46.9454 200.274 50.7196 200.274H135.571C139.345 200.274 142.405 197.214 142.405 193.44V128.603C142.405 124.829 139.345 121.77 135.571 121.77Z" fill="#AD64F3"/>
<path d="M133.809 125.132H51.7376C49.3209 125.132 47.3618 127.091 47.3618 129.508V192.536C47.3618 194.953 49.3209 196.912 51.7376 196.912H133.809C136.226 196.912 138.185 194.953 138.185 192.536V129.508C138.185 127.091 136.226 125.132 133.809 125.132Z" fill="#7F4ABC"/>
<path d="M63.8663 137.399C63.8663 135.906 62.6558 134.695 61.1625 134.695C59.6693 134.695 58.4587 135.906 58.4587 137.399V171.606C58.4587 173.099 59.6693 174.309 61.1625 174.309C62.6558 174.309 63.8663 173.099 63.8663 171.606V137.399Z" fill="#A382F1"/>
<path d="M74.1349 143.918C74.1349 142.425 72.9243 141.214 71.4311 141.214C69.9378 141.214 68.7273 142.425 68.7273 143.918V178.125C68.7273 179.618 69.9378 180.828 71.4311 180.828C72.9243 180.828 74.1349 179.618 74.1349 178.125V143.918Z" fill="#69CCAE"/>
<path d="M84.7447 135.762C84.7447 134.269 83.5342 133.058 82.0409 133.058C80.5477 133.058 79.3372 134.269 79.3372 135.762V169.969C79.3372 171.462 80.5477 172.672 82.0409 172.672C83.5342 172.672 84.7447 171.462 84.7447 169.969V135.762Z" fill="#F5715D"/>
<path d="M94.5716 145.424C94.5716 143.931 93.3611 142.72 91.8678 142.72C90.3746 142.72 89.1641 143.931 89.1641 145.424V179.631C89.1641 181.124 90.3746 182.335 91.8678 182.335C93.3611 182.335 94.5716 181.124 94.5716 179.631V145.424Z" fill="#1F296F"/>
<path d="M105.269 150.545C105.269 149.052 104.058 147.842 102.565 147.842C101.072 147.842 99.8611 149.052 99.8611 150.545V184.752C99.8611 186.245 101.072 187.456 102.565 187.456C104.058 187.456 105.269 186.245 105.269 184.752V150.545Z" fill="#A382F1"/>
<path d="M115.087 140.054C115.087 138.56 113.877 137.35 112.383 137.35C110.89 137.35 109.68 138.56 109.68 140.054V174.26C109.68 175.754 110.89 176.964 112.383 176.964C113.877 176.964 115.087 175.754 115.087 174.26V140.054Z" fill="#A382F1"/>
<path d="M117.373 258.722H33.8599C32.3673 258.722 31.1572 259.932 31.1572 261.425V267.053C31.1572 268.545 32.3673 269.755 33.8599 269.755H117.373C118.866 269.755 120.076 268.545 120.076 267.053V261.425C120.076 259.932 118.866 258.722 117.373 258.722Z" fill="#FF8E5E"/>
<path d="M43.7488 258.722H37.8413V269.755H43.7488V258.722Z" fill="#FFE269"/>
<path d="M55.1753 258.722H49.2678V269.755H55.1753V258.722Z" fill="#FFE269"/>
<path d="M66.6023 258.722H60.6948V269.755H66.6023V258.722Z" fill="#FFE269"/>
<path d="M78.0288 258.722H72.1213V269.755H78.0288V258.722Z" fill="#FFE269"/>
<path d="M89.4556 258.722H83.5481V269.755H89.4556V258.722Z" fill="#FFE269"/>
<path d="M100.882 258.722H94.9749V269.755H100.882V258.722Z" fill="#FFE269"/>
<path d="M112.309 258.722H106.401V269.755H112.309V258.722Z" fill="#FFE269"/>
<path d="M124.057 269.755H40.544C39.0514 269.755 37.8413 270.965 37.8413 272.458V278.086C37.8413 279.578 39.0514 280.789 40.544 280.789H124.057C125.55 280.789 126.76 279.578 126.76 278.086V272.458C126.76 270.965 125.55 269.755 124.057 269.755Z" fill="#ED7D56"/>
<path d="M50.4316 269.755H44.5242V280.789H50.4316V269.755Z" fill="#FFE269"/>
<path d="M61.8594 269.755H55.9519V280.789H61.8594V269.755Z" fill="#FFE269"/>
<path d="M73.2861 269.755H67.3787V280.789H73.2861V269.755Z" fill="#FFE269"/>
<path d="M84.7129 269.755H78.8054V280.789H84.7129V269.755Z" fill="#FFE269"/>
<path d="M96.1394 269.755H90.2319V280.789H96.1394V269.755Z" fill="#FFE269"/>
<path d="M107.566 269.755H101.659V280.789H107.566V269.755Z" fill="#FFE269"/>
<path d="M118.993 269.755H113.085V280.789H118.993V269.755Z" fill="#FFE269"/>
<path d="M131.212 225.612H47.6991C46.2064 225.612 44.9963 226.822 44.9963 228.315V233.942C44.9963 235.435 46.2064 236.645 47.6991 236.645H131.212C132.705 236.645 133.915 235.435 133.915 233.942V228.315C133.915 226.822 132.705 225.612 131.212 225.612Z" fill="#ED7D56"/>
<path d="M57.5879 225.612H51.6804V236.645H57.5879V225.612Z" fill="#FFE269"/>
<path d="M69.0144 225.612H63.1069V236.645H69.0144V225.612Z" fill="#FFE269"/>
<path d="M80.4412 225.612H74.5337V236.645H80.4412V225.612Z" fill="#FFE269"/>
<path d="M91.8679 225.612H85.9604V236.645H91.8679V225.612Z" fill="#FFE269"/>
<path d="M103.295 225.612H97.3872V236.645H103.295V225.612Z" fill="#FFE269"/>
<path d="M114.721 225.612H108.814V236.645H114.721V225.612Z" fill="#FFE269"/>
<path d="M126.148 225.612H120.24V236.645H126.148V225.612Z" fill="#FFE269"/>
<path d="M114.744 247.678H31.2306C29.7379 247.678 28.5278 248.888 28.5278 250.381V256.009C28.5278 257.501 29.7379 258.712 31.2306 258.712H114.744C116.236 258.712 117.446 257.501 117.446 256.009V250.381C117.446 248.888 116.236 247.678 114.744 247.678Z" fill="#FF8E5E"/>
<path d="M41.1184 247.678H35.2109V258.712H41.1184V247.678Z" fill="#FFE269"/>
<path d="M52.5449 247.678H46.6375V258.712H52.5449V247.678Z" fill="#FFE269"/>
<path d="M63.9717 247.678H58.0642V258.712H63.9717V247.678Z" fill="#FFE269"/>
<path d="M75.3984 247.678H69.491V258.712H75.3984V247.678Z" fill="#FFE269"/>
<path d="M86.8249 247.678H80.9175V258.712H86.8249V247.678Z" fill="#FFE269"/>
<path d="M98.2517 247.678H92.3442V258.712H98.2517V247.678Z" fill="#FFE269"/>
<path d="M109.678 247.678H103.771V258.712H109.678V247.678Z" fill="#FFE269"/>
<path d="M122.713 236.645H39.2005C37.7079 236.645 36.4978 237.855 36.4978 239.348V244.976C36.4978 246.468 37.7079 247.678 39.2005 247.678H122.713C124.206 247.678 125.416 246.468 125.416 244.976V239.348C125.416 237.855 124.206 236.645 122.713 236.645Z" fill="#FF9976"/>
<path d="M49.0891 236.645H43.1816V247.678H49.0891V236.645Z" fill="#FFE269"/>
<path d="M60.5159 236.645H54.6084V247.678H60.5159V236.645Z" fill="#FFE269"/>
<path d="M71.9426 236.645H66.0352V247.678H71.9426V236.645Z" fill="#FFE269"/>
<path d="M83.3694 236.645H77.4619V247.678H83.3694V236.645Z" fill="#FFE269"/>
<path d="M94.7959 236.645H88.8884V247.678H94.7959V236.645Z" fill="#FFE269"/>
<path d="M106.223 236.645H100.315V247.678H106.223V236.645Z" fill="#FFE269"/>
<path d="M117.649 236.645H111.742V247.678H117.649V236.645Z" fill="#FFE269"/>
<path d="M96.4534 218.274C113.329 218.274 127.009 204.594 127.009 187.719C127.009 170.844 113.329 157.163 96.4534 157.163C79.5782 157.163 65.8982 170.844 65.8982 187.719C65.8982 204.594 79.5782 218.274 96.4534 218.274Z" fill="#FFE269"/>
<path d="M96.4565 214.193C90.3316 214.193 84.3962 212.069 79.6616 208.183C74.927 204.298 71.6862 198.891 70.4914 192.883C69.2965 186.876 70.2215 180.64 73.1088 175.239C75.9961 169.837 80.6671 165.604 86.3258 163.26C91.9845 160.916 98.2808 160.607 104.142 162.385C110.003 164.163 115.066 167.918 118.469 173.011C121.872 178.103 123.404 184.218 122.803 190.314C122.203 196.409 119.508 202.108 115.177 206.439C112.724 208.905 109.806 210.86 106.593 212.191C103.38 213.522 99.9345 214.202 96.4565 214.193ZM96.4565 162.164C82.3654 162.164 70.9015 173.628 70.9015 187.719C70.9015 201.81 82.3654 213.273 96.4565 213.273C110.548 213.273 122.011 201.81 122.011 187.719C122.011 173.628 110.543 162.164 96.4565 162.164Z" fill="#F28C61"/>
<path d="M108.241 189.446C107.244 188.248 105.915 187.301 104.254 186.603C105.371 185.987 106.328 185.116 107.046 184.062C107.897 182.803 108.322 181.276 108.322 179.481C108.322 176.786 107.381 174.781 105.5 173.466C104.314 172.636 102.863 172.069 101.148 171.764V167.297H97.5967V171.497H96.3926V167.297H92.8401V171.497H85.269V176.444H89.1747V198.2H85.269V203.15H92.8401V207.715H96.3905V203.152H97.5999V207.715H101.151V203.022C101.797 202.94 102.436 202.817 103.066 202.653C104.303 202.337 105.472 201.8 106.517 201.067C107.544 200.345 108.379 199.384 108.95 198.267C109.542 197.124 109.839 195.727 109.84 194.076C109.845 192.279 109.312 190.735 108.241 189.446ZM103.029 180.567C103.044 181.68 102.667 182.764 101.965 183.628C101.256 184.511 100.148 184.952 98.6422 184.952H94.3004V176.443H98.0785C99.5839 176.443 100.785 176.776 101.682 177.442C102.579 178.108 103.028 179.149 103.03 180.567H103.029ZM102.898 197.35C101.798 198.031 100.438 198.371 98.8167 198.37H94.3004V189.902H98.4689C99.4519 189.898 100.431 190.03 101.378 190.294C102.236 190.514 103.022 190.954 103.658 191.57C104.25 192.164 104.547 193.01 104.549 194.11C104.549 195.593 103.999 196.673 102.899 197.35H102.898Z" fill="#FF8E5E"/>
<path d="M199.4 85.7909H123.819C117.98 85.7909 113.247 90.5239 113.247 96.3624V270.044C113.247 275.882 117.98 280.615 123.819 280.615H199.4C205.238 280.615 209.972 275.882 209.972 270.044V96.3624C209.972 90.5239 205.238 85.7909 199.4 85.7909Z" fill="#1F296F"/>
<path d="M204.07 85.7909H133.304C126.136 85.7909 120.325 91.6021 120.325 98.7705V267.635C120.325 274.804 126.136 280.615 133.304 280.615H204.07C211.238 280.615 217.049 274.804 217.049 267.635V98.7705C217.049 91.6021 211.238 85.7909 204.07 85.7909Z" fill="#7951F9"/>
<path d="M211.78 102.008V264.901C211.78 266.215 211.521 267.516 211.018 268.73C210.515 269.944 209.778 271.047 208.849 271.976C207.92 272.905 206.817 273.642 205.603 274.145C204.389 274.648 203.088 274.906 201.774 274.906H135.599C132.945 274.906 130.399 273.852 128.523 271.976C126.646 270.099 125.592 267.554 125.592 264.9V102.008C125.592 99.3541 126.646 96.8088 128.523 94.932C130.399 93.0552 132.944 92.0006 135.599 92.0004H146.864C147.557 92.0007 148.232 92.2226 148.79 92.6339C149.348 93.0451 149.76 93.624 149.966 94.2861L150.743 96.7921C151.008 97.6461 151.539 98.3929 152.259 98.9233C152.979 99.4538 153.85 99.7401 154.744 99.7405H186.952C187.908 99.7402 188.836 99.413 189.58 98.8133C190.325 98.2136 190.842 97.3773 191.046 96.4432L191.458 94.5552C191.617 93.8319 192.018 93.1845 192.596 92.7203C193.173 92.2561 193.891 92.0029 194.632 92.0025H201.77C203.084 92.0023 204.385 92.2611 205.6 92.764C206.814 93.267 207.917 94.0042 208.846 94.9335C209.775 95.8629 210.512 96.9662 211.015 98.1805C211.517 99.3947 211.776 100.696 211.776 102.01L211.78 102.008Z" fill="#D4EAFE"/>
<path d="M154.737 99.7405H149.466C148.572 99.7403 147.701 99.4541 146.981 98.9236C146.261 98.3932 145.729 97.6462 145.464 96.7921L144.686 94.2861C144.481 93.624 144.069 93.045 143.511 92.6338C142.953 92.2225 142.278 92.0006 141.585 92.0004H146.854C147.547 92.0004 148.223 92.2223 148.781 92.6336C149.34 93.0448 149.752 93.6239 149.958 94.2861L150.735 96.7921C151 97.6462 151.532 98.3932 152.251 98.9237C152.971 99.4542 153.842 99.7405 154.737 99.7405Z" fill="#99C0DD"/>
<path d="M211.767 102.008V264.901C211.767 267.554 210.713 270.099 208.837 271.976C206.96 273.852 204.416 274.906 201.762 274.907H135.589C133.492 274.907 131.449 274.249 129.747 273.025C128.044 271.802 126.769 270.075 126.101 268.088C127.422 268.702 128.862 269.019 130.318 269.017H196.492C197.806 269.017 199.107 268.759 200.321 268.256C201.535 267.753 202.638 267.016 203.567 266.087C204.496 265.158 205.233 264.055 205.736 262.841C206.239 261.628 206.498 260.326 206.498 259.013V96.1189C206.499 95.0341 206.324 93.9563 205.978 92.928C207.708 93.7317 209.172 95.0132 210.198 96.6215C211.223 98.2297 211.768 100.098 211.767 102.005V102.008Z" fill="#99C0DD"/>
<path d="M211.78 102.008V113.643L125.594 189.191V170.198L209.958 96.2455C211.147 97.9315 211.784 99.945 211.78 102.008Z" fill="#F2F9FF"/>
<path d="M211.78 169.698V188.691L125.594 264.238V245.247L211.78 169.698Z" fill="#F2F9FF"/>
<path d="M211.78 117.573V123.794L125.594 199.342V193.12L211.78 117.573Z" fill="#F2F9FF"/>
<path d="M170.989 127.902H166.385C163.143 127.902 160.514 130.53 160.514 133.772V233.787C160.514 237.029 163.143 239.657 166.385 239.657H170.989C174.231 239.657 176.859 237.029 176.859 233.787V133.772C176.859 130.53 174.231 127.902 170.989 127.902Z" fill="#1F296F"/>
<path d="M172.085 127.902H167.48C164.238 127.902 161.61 130.53 161.61 133.772V233.787C161.61 237.029 164.238 239.657 167.48 239.657H172.085C175.327 239.657 177.955 237.029 177.955 233.787V133.772C177.955 130.53 175.327 127.902 172.085 127.902Z" fill="#1F296F"/>
<path d="M181.099 133.772V233.787C181.099 235.344 180.481 236.837 179.38 237.937C178.279 239.038 176.787 239.656 175.23 239.656H172.082C173.638 239.656 175.131 239.038 176.232 237.937C177.333 236.837 177.951 235.344 177.952 233.787V133.772C177.952 132.215 177.333 130.722 176.232 129.621C175.132 128.52 173.638 127.902 172.082 127.902H175.227C175.998 127.901 176.761 128.053 177.474 128.348C178.187 128.642 178.834 129.075 179.379 129.62C179.925 130.165 180.357 130.812 180.652 131.525C180.947 132.237 181.099 133.001 181.099 133.772Z" fill="#0E1744"/>
<mask id="mask0_2844_15543" style="mask-type:luminance" maskUnits="userSpaceOnUse" x="160" y="127" width="78" height="113">
<path d="M166.385 127.902H237.039V239.657H166.385C164.828 239.657 163.335 239.039 162.234 237.938C161.133 236.837 160.514 235.344 160.514 233.787V133.772C160.514 132.215 161.133 130.722 162.234 129.621C163.335 128.52 164.828 127.902 166.385 127.902Z" fill="white"/>
</mask>
<g mask="url(#mask0_2844_15543)">
<path d="M193.992 134.749H184.869V136.77C171.448 142.873 161.648 162.101 161.648 184.876C161.648 207.65 171.448 226.877 184.869 232.981V235.002H193.992C211.855 235.002 226.336 212.559 226.336 184.874C226.336 157.19 211.85 134.749 193.992 134.749Z" fill="#FF8E5E"/>
<path d="M184.864 235.009C202.727 235.009 217.207 212.567 217.207 184.882C217.207 157.197 202.727 134.755 184.864 134.755C167.001 134.755 152.521 157.197 152.521 184.882C152.521 212.567 167.001 235.009 184.864 235.009Z" fill="#FFE269"/>
<path d="M184.864 232.203C180.839 232.203 176.925 230.891 173.228 228.303C169.718 225.844 166.55 222.347 163.823 217.906C161.128 213.516 159.007 208.45 157.521 202.848C155.978 196.984 155.203 190.945 155.214 184.882C155.2 178.845 155.975 172.832 157.521 166.997C159.01 161.449 161.127 156.442 163.825 152.115C166.548 147.754 169.714 144.311 173.232 141.897C176.923 139.365 180.836 138.082 184.864 138.082C188.892 138.082 192.805 139.365 196.496 141.897C200.015 144.311 203.18 147.747 205.903 152.115C208.601 156.442 210.722 161.449 212.207 166.997C213.753 172.832 214.529 178.845 214.514 184.882C214.526 190.945 213.75 196.984 212.207 202.848C210.718 208.45 208.6 213.516 205.905 217.906C203.178 222.346 200.014 225.844 196.5 228.303C192.803 230.891 188.887 232.203 184.864 232.203ZM184.864 139.117C177.312 139.117 170.152 143.927 164.704 152.663C159.256 161.399 156.25 172.848 156.25 184.882C156.25 209.971 169.353 231.167 184.862 231.167C200.371 231.167 213.474 209.971 213.474 184.882C213.474 172.848 210.471 161.405 205.019 152.663C199.567 143.921 192.417 139.117 184.864 139.117Z" fill="#FF8E5E"/>
</g>
<path d="M118.87 121.155C118.87 120.234 118.124 119.487 117.203 119.487C116.282 119.487 115.536 120.234 115.536 121.155V145.94C115.536 146.861 116.282 147.608 117.203 147.608C118.124 147.608 118.87 146.861 118.87 145.94V121.155Z" fill="#ADBAD8"/>
<path d="M118.074 121.155C118.074 120.234 117.327 119.487 116.407 119.487C115.486 119.487 114.739 120.234 114.739 121.155V145.94C114.739 146.861 115.486 147.608 116.407 147.608C117.327 147.608 118.074 146.861 118.074 145.94V121.155Z" fill="#ECF1FE"/>
<path d="M118.87 153.692C118.87 152.77 118.124 152.024 117.203 152.024C116.282 152.024 115.536 152.77 115.536 153.692V178.477C115.536 179.398 116.282 180.144 117.203 180.144C118.124 180.144 118.87 179.398 118.87 178.477V153.692Z" fill="#ADBAD8"/>
<path d="M118.074 153.692C118.074 152.77 117.327 152.024 116.407 152.024C115.486 152.024 114.739 152.77 114.739 153.692V178.477C114.739 179.398 115.486 180.144 116.407 180.144C117.327 180.144 118.074 179.398 118.074 178.477V153.692Z" fill="#ECF1FE"/>
<path d="M179.809 92.0004H161.804C161.21 92.0004 160.729 92.4813 160.729 93.0746C160.729 93.668 161.21 94.1489 161.804 94.1489H179.809C180.402 94.1489 180.883 93.668 180.883 93.0746C180.883 92.4813 180.402 92.0004 179.809 92.0004Z" fill="#1F296F"/>
<path d="M158.155 94.1746C158.763 94.1746 159.255 93.6822 159.255 93.0748C159.255 92.4674 158.763 91.975 158.155 91.975C157.548 91.975 157.056 92.4674 157.056 93.0748C157.056 93.6822 157.548 94.1746 158.155 94.1746Z" fill="#1F296F"/>
<path d="M154.394 94.435C155.145 94.435 155.754 93.826 155.754 93.0746C155.754 92.3233 155.145 91.7142 154.394 91.7142C153.643 91.7142 153.034 92.3233 153.034 93.0746C153.034 93.826 153.643 94.435 154.394 94.435Z" fill="#1F296F"/>
<path d="M301.928 280.19H258.875C258.885 280.188 258.894 280.185 258.902 280.179C258.91 280.174 258.917 280.166 258.922 280.158C259.769 278.908 260.688 277.708 261.675 276.565C265.079 272.629 269.277 269.539 274.333 268.111L279.349 266.695L299.708 262.156L301.481 276.565L301.928 280.19Z" fill="#F5715D"/>
<path d="M278.078 280.318H258.875C258.885 280.317 258.894 280.314 258.902 280.308C258.91 280.303 258.917 280.295 258.922 280.286C259.769 279.037 260.689 277.837 261.675 276.693C265.079 272.758 269.277 269.668 274.333 268.24C274.334 268.236 282.691 271.13 278.078 280.318Z" fill="#F49187"/>
<path d="M301.928 280.318H258.875C258.885 280.317 258.894 280.314 258.902 280.308C258.91 280.303 258.917 280.295 258.922 280.286C259.769 279.037 260.689 277.837 261.675 276.693H301.483L301.928 280.318Z" fill="#D34839"/>
<path d="M349.535 260.005L337.87 280.442L319.354 280.251L320.634 276.565L323.684 267.788L324.322 265.952L323.193 256.844L337.87 248.124L346.448 256.861L349.535 260.005Z" fill="#F5715D"/>
<path d="M337.87 280.575H312.398C312.398 277.197 313.74 273.958 316.128 271.569C318.517 269.181 321.756 267.839 325.134 267.839C328.512 267.839 331.752 269.181 334.14 271.569C336.528 273.958 337.87 277.197 337.87 280.575Z" fill="#F49187"/>
<path d="M349.535 260.135L337.87 280.575H312.398C312.397 279.259 312.6 277.951 312.999 276.697H332.941C333.649 276.697 334.344 276.509 334.955 276.153C335.566 275.797 336.073 275.286 336.422 274.67L346.448 256.993L349.535 260.135Z" fill="#D34839"/>
<path d="M275.057 166.302L297.393 221.375L317.089 261.74C317.238 262.046 317.462 262.31 317.74 262.508C318.018 262.706 318.34 262.831 318.679 262.871C322.75 263.363 336.911 263.988 344.484 250.432C344.67 250.1 344.76 249.724 344.743 249.344C344.727 248.964 344.606 248.596 344.393 248.281L325.901 221.117C321.012 213.934 317.763 205.764 316.385 197.185L310.73 162.01L275.057 166.302Z" fill="#151F4C"/>
<path d="M329.863 177.249C328.944 179.882 327.526 182.313 325.686 184.408C321.843 189.908 314.876 198.091 302.914 207.227C300.974 208.707 299.44 210.653 298.454 212.884C297.469 215.116 297.063 217.56 297.276 219.991L302.883 260.558C302.96 261.119 302.871 261.69 302.628 262.201C302.385 262.713 301.997 263.142 301.513 263.435C298.103 265.514 289.25 269.408 274.709 265.739C274.102 265.587 273.561 265.243 273.167 264.758C272.772 264.273 272.545 263.673 272.519 263.048L270.437 213.877L270.143 206.929C269.986 204.995 270.22 203.049 270.831 201.207C271.443 199.365 272.418 197.665 273.701 196.209L277.888 191.652L316.542 149.58C327.862 153.543 333.826 165.931 329.863 177.249Z" fill="#1F296F"/>
<path d="M270.44 213.877L270.145 206.929C269.988 204.995 270.222 203.049 270.833 201.207C271.445 199.365 272.421 197.665 273.703 196.209L277.89 191.652L278.103 191.971C279.528 194.059 286.753 206.096 270.44 213.877Z" fill="#5D6DBA"/>
<path d="M266.482 143.564L263.164 119.128L247.153 105.534C246.998 105.403 246.877 105.237 246.799 105.05C246.721 104.862 246.689 104.659 246.704 104.457C246.838 102.709 246.556 100.955 245.883 99.3363C245.21 97.718 244.163 96.2818 242.83 95.1446C240.809 93.4162 238.788 91.4048 238.549 90.0902C238.056 87.3694 233.346 91.4505 237.69 95.219C241.446 98.478 227.431 96.8145 223.574 96.3125C222.724 96.1997 221.952 96.9166 222.064 97.7739C222.138 98.3515 222.604 98.9439 223.979 99.2694C226.064 99.7557 228.18 100.098 230.312 100.295C230.312 100.295 247.05 128.072 263.017 145.204C264.354 146.639 266.746 145.508 266.482 143.564Z" fill="#F5AE99"/>
<path d="M231.539 101.284C231.334 103.338 230.662 109.019 232.945 109.999C233.13 110.055 233.32 110.096 233.512 110.121C235.298 110.355 237.739 110.414 239.493 109.993C243.554 109.017 239.45 106.952 239.45 106.952C244.143 104.623 239.542 103.685 239.542 103.685C239.542 103.685 241.437 103.166 241.485 102.266C241.504 101.906 241.516 101.449 240.55 100.989C238.423 99.9895 236.235 99.8597 234.381 99.9767C232.33 100.106 230.921 100.721 230.921 100.721L231.539 101.284Z" fill="#DD8C7A"/>
<path d="M238.731 103.691C238.731 103.691 243.615 104.568 238.922 106.899C238.922 106.899 242.857 108.855 238.793 109.83C237.039 110.256 234.598 110.193 232.812 109.959C232.62 109.934 232.431 109.894 232.245 109.838C229.963 108.857 229.284 102.955 230.558 101.329C231.863 99.6661 237.073 100.419 239.246 100.818C239.7 100.896 240.129 101.078 240.5 101.35C240.87 101.629 241.184 102.014 240.96 102.447C240.51 103.317 238.731 103.691 238.731 103.691Z" fill="#F5AE99"/>
<path d="M273.147 146.783C271.161 147.528 268.689 148.251 266.327 148.35C265.769 148.375 265.213 148.288 264.689 148.095C264.166 147.903 263.686 147.608 263.277 147.228C262.869 146.848 262.54 146.391 262.31 145.882C262.08 145.374 261.953 144.825 261.937 144.268L261.867 141.788L261.18 117.169C261.177 117.065 261.202 116.962 261.254 116.871C261.305 116.781 261.38 116.706 261.471 116.654C261.562 116.603 261.665 116.578 261.769 116.581C261.874 116.584 261.975 116.616 262.063 116.673L262.226 116.779C262.341 116.853 262.471 116.903 262.606 116.923C262.741 116.944 262.879 116.936 263.011 116.899C263.143 116.862 263.266 116.798 263.371 116.71C263.476 116.622 263.561 116.513 263.621 116.39C263.669 116.291 263.743 116.209 263.837 116.151C263.93 116.094 264.038 116.065 264.147 116.067C264.256 116.069 264.363 116.102 264.454 116.163C264.545 116.223 264.617 116.309 264.661 116.409L271.894 132.931L275.5 141.166C275.729 141.688 275.849 142.25 275.854 142.82C275.859 143.389 275.748 143.954 275.528 144.48C275.308 145.005 274.984 145.48 274.574 145.876C274.165 146.272 273.679 146.581 273.147 146.783Z" fill="#76D6B6"/>
<path d="M273.147 146.783C271.161 147.528 268.689 148.251 266.327 148.35C265.769 148.375 265.213 148.288 264.689 148.095C264.166 147.903 263.686 147.608 263.277 147.228C262.869 146.848 262.54 146.391 262.31 145.882C262.08 145.374 261.953 144.825 261.937 144.268L261.867 141.788C261.867 141.788 264.114 145.724 269.483 143.316C274.853 140.908 269.891 133.487 269.891 133.487L271.897 132.932L275.503 141.166C275.732 141.688 275.852 142.251 275.857 142.82C275.862 143.39 275.75 143.955 275.53 144.48C275.31 145.006 274.985 145.481 274.575 145.877C274.165 146.273 273.679 146.581 273.147 146.783Z" fill="#4EB593"/>
<path d="M263.209 118.12C265.314 111.331 267.274 106.181 268.974 102.312C270.18 99.5643 271.87 97.0548 273.962 94.9031C276.872 91.9102 280.48 89.686 284.461 88.4298C284.976 88.2674 285.499 88.1207 286.028 87.9895C295.132 85.7462 302.581 85.7558 308.365 86.6737L308.44 86.6854C310 86.9331 311.544 87.2679 313.066 87.6885C316.492 88.6406 319.666 90.3378 322.36 92.6589C324.58 94.5705 326.437 96.8664 327.843 99.4364C330.722 104.698 334.225 112.838 335.915 123.457C335.915 123.457 340.396 147.232 326.58 150.092V150.101L327.263 152.109L328.539 155.865C329.485 158.644 330.133 161.516 330.471 164.432L330.706 166.453C326.674 167.73 322.879 168.784 319.315 169.656C287.268 177.492 273.825 170.322 273.825 170.322C273.306 168.235 272.951 166.111 272.762 163.97C272.584 161.945 272.554 159.91 272.674 157.88L273.352 146.693L280.565 144.163L263.209 118.12Z" fill="#69CCAE"/>
<path d="M303.093 86.3642L300.099 90.8209L290.846 90.3008L289.851 87.1098L289.608 86.1313L289.147 84.2752L289.138 84.2412C289.121 84.1568 289.09 84.0755 289.049 83.9997C289.028 83.9595 289.002 83.9214 288.974 83.8859C288.953 83.8549 288.929 83.8264 288.901 83.8008C288.883 83.7817 288.862 83.7636 288.842 83.7455L288.777 83.6955C288.688 83.6336 288.588 83.5886 288.483 83.5626C288.431 83.5486 288.378 83.5404 288.324 83.5381C288.175 83.5287 288.026 83.5576 287.892 83.6222C287.586 83.7711 287.263 83.9157 286.922 84.0529C286.815 84.0965 286.709 84.137 286.609 84.1774C286.509 84.2178 286.381 84.2635 286.264 84.305C285.599 84.5435 284.922 84.7473 284.235 84.9155C282.292 85.3942 280.776 85.0134 279.598 84.1221C279.51 84.0572 279.423 83.988 279.339 83.9093C279.213 83.803 279.09 83.687 278.973 83.569C278.816 83.4094 278.665 83.2407 278.52 83.0627L278.508 83.0488C277.21 81.4396 276.46 79.1229 276.027 76.9542C275.672 75.1273 275.474 73.2733 275.436 71.4126C275.436 71.1871 275.436 71.0627 275.436 71.0627L275.542 64.5L275.557 63.4693C275.561 63.3357 275.574 63.2026 275.594 63.0704C275.675 62.5014 275.888 61.6547 276.203 61.5888L290.215 53.1924C290.556 53.1211 293.587 59.1222 293.795 59.3998L297.133 63.8958L298.359 65.5487L301.093 69.2289C301.232 69.4181 301.292 69.6537 301.261 69.8863L300.706 73.7537C300.526 74.9983 300.59 76.2659 300.895 77.486L303.093 86.3642Z" fill="#F5AE99"/>
<path d="M288.685 75.6341C290.277 75.6341 291.568 74.3431 291.568 72.7506C291.568 71.1581 290.277 69.8671 288.685 69.8671C287.092 69.8671 285.801 71.1581 285.801 72.7506C285.801 74.3431 287.092 75.6341 288.685 75.6341Z" fill="#F48A71"/>
<path d="M276.024 76.9584C276.388 76.4825 276.645 75.9329 276.777 75.3477C276.908 74.7626 276.911 74.1559 276.784 73.5697C276.6 72.7007 276.06 71.9742 275.433 71.4169C275.471 73.2775 275.669 75.1315 276.024 76.9584Z" fill="#F48A71"/>
<path d="M289.614 86.1462C294.484 82.5925 293.191 80.5216 286.961 83.3626C281.019 86.0781 278.71 83.2563 278.523 83.0659C279.812 84.6613 281.643 85.5548 284.237 84.9145C285.498 84.6128 286.724 84.18 287.895 83.6232C288.016 83.5656 288.149 83.5363 288.283 83.5373C288.417 83.5384 288.549 83.5699 288.669 83.6294C288.789 83.6889 288.894 83.7749 288.976 83.8809C289.058 83.9868 289.114 84.11 289.142 84.2412L289.614 86.1462Z" fill="#CC766A"/>
<path d="M286.324 66.3656C284.978 65.7048 283.453 65.5002 281.98 65.7828C281.902 65.806 281.836 65.859 281.796 65.9303C281.756 66.0017 281.746 66.0858 281.767 66.1646C281.792 66.242 281.845 66.3071 281.916 66.3466C281.987 66.3861 282.07 66.3971 282.149 66.3773C283.46 66.1302 284.816 66.3127 286.014 66.8975C286.086 66.9375 286.169 66.9487 286.248 66.9289C286.327 66.9092 286.396 66.8598 286.44 66.7911C286.48 66.72 286.491 66.6363 286.471 66.5572C286.452 66.4781 286.402 66.4095 286.334 66.3656H286.324Z" fill="#80433F"/>
<path d="M277.94 65.7189C277.181 65.8155 276.467 66.1328 275.886 66.6315C275.828 66.6899 275.795 66.7691 275.795 66.8517C275.795 66.9342 275.828 67.0134 275.886 67.0718C275.946 67.1281 276.024 67.1595 276.106 67.1595C276.188 67.1595 276.266 67.1281 276.326 67.0718L276.419 66.9931C276.448 66.9708 276.451 66.9686 276.428 66.9857L276.477 66.9495C276.543 66.9013 276.61 66.8556 276.678 66.8123C276.814 66.7255 276.956 66.6484 277.103 66.5815L277.159 66.557C277.131 66.5677 277.134 66.5666 277.168 66.557L277.282 66.5134C277.359 66.4858 277.436 66.4613 277.514 66.439C277.592 66.4166 277.671 66.3975 277.75 66.3805L277.87 66.3571C277.881 66.3571 278 66.3379 277.937 66.3454C278.098 66.3241 278.256 66.2177 278.249 66.0348C278.241 65.8848 278.111 65.7008 277.937 65.7231L277.94 65.7189Z" fill="#80433F"/>
<path d="M283.713 70.2681C284.411 70.2681 284.978 69.7019 284.978 69.0034C284.978 68.305 284.411 67.7388 283.713 67.7388C283.014 67.7388 282.448 68.305 282.448 69.0034C282.448 69.7019 283.014 70.2681 283.713 70.2681Z" fill="#80433F"/>
<path d="M277.478 71.1169C278.151 71.1169 278.697 70.5712 278.697 69.898C278.697 69.2248 278.151 68.6791 277.478 68.6791C276.805 68.6791 276.259 69.2248 276.259 69.898C276.259 70.5712 276.805 71.1169 277.478 71.1169Z" fill="#80433F"/>
<path d="M280.022 71.0181L278.365 74.994C278.343 75.0472 278.332 75.1045 278.334 75.162C278.336 75.2196 278.349 75.2762 278.374 75.3281C278.399 75.38 278.435 75.4261 278.479 75.4632C278.523 75.5004 278.574 75.5279 278.63 75.5439L280.14 75.9768C280.203 75.9951 280.27 75.9977 280.335 75.9844C280.4 75.9712 280.46 75.9423 280.511 75.9005C280.562 75.8586 280.603 75.8049 280.628 75.7441C280.654 75.6833 280.665 75.6171 280.659 75.5513L280.326 71.0649C280.323 71.0296 280.308 70.9963 280.284 70.9705C280.26 70.9446 280.227 70.9276 280.192 70.9223C280.157 70.9169 280.122 70.9234 280.091 70.9407C280.06 70.9581 280.036 70.9853 280.022 71.0181Z" fill="#DD8C7A"/>
<path d="M280.776 78.5464L285.196 76.5617C285.227 76.5476 285.261 76.541 285.295 76.5424C285.329 76.5438 285.362 76.5531 285.392 76.5696C285.422 76.5861 285.448 76.6094 285.467 76.6376C285.487 76.6657 285.499 76.698 285.504 76.7318C285.589 77.319 285.653 78.6751 284.653 79.5324C283.748 80.3121 282.399 80.2876 281.474 79.5324L280.723 78.9187C280.694 78.8947 280.671 78.8636 280.658 78.8284C280.644 78.7931 280.64 78.755 280.645 78.7176C280.65 78.6802 280.665 78.6448 280.688 78.6149C280.711 78.5849 280.741 78.5613 280.776 78.5464Z" fill="#80433F"/>
<path d="M297.123 63.9001L293.786 59.404C293.573 59.1264 290.547 53.1285 290.205 53.1966L276.194 61.593C275.875 61.659 275.662 62.5056 275.584 63.0747C275.584 63.0747 283.793 60.9995 289.959 63.9937C289.959 63.9937 294.661 66.1284 294.249 70.5585L297.123 63.9001Z" fill="#DD8C7A"/>
<path d="M293.068 91.1135L297.003 96.069C297.044 96.1203 297.096 96.1614 297.155 96.1889C297.214 96.2164 297.279 96.2296 297.345 96.2274C297.41 96.2253 297.474 96.2078 297.532 96.1764C297.589 96.145 297.638 96.1005 297.675 96.0466L304.556 86.0835C304.599 86.0221 304.625 85.9502 304.631 85.8753C304.637 85.8004 304.622 85.7253 304.589 85.658L303.325 83.0266C303.298 82.97 303.258 82.9202 303.209 82.8811C303.16 82.8419 303.103 82.8143 303.041 82.8003C302.98 82.7863 302.916 82.7863 302.855 82.8002C302.794 82.8142 302.736 82.8417 302.687 82.8809L293.134 90.521C293.09 90.5553 293.054 90.5979 293.027 90.6464C293 90.6949 292.983 90.7483 292.976 90.8034C292.97 90.8586 292.975 90.9144 292.991 90.9676C293.007 91.0208 293.033 91.0704 293.068 91.1135Z" fill="white"/>
<path d="M292.873 90.4465L289.452 86.1409C289.432 86.1135 289.405 86.0914 289.375 86.0764C289.344 86.0614 289.31 86.054 289.276 86.0549C289.242 86.0557 289.209 86.0647 289.179 86.0812C289.149 86.0976 289.123 86.121 289.105 86.1494L288.007 87.6981C287.977 87.739 287.963 87.7892 287.967 87.8395L288.499 95.1425C288.5 95.1859 288.514 95.228 288.539 95.2633C288.564 95.2986 288.6 95.3253 288.641 95.3399C288.681 95.3545 288.726 95.3562 288.768 95.3449C288.809 95.3335 288.847 95.3097 288.875 95.2765L292.849 91.0336C292.923 90.9552 292.966 90.8525 292.971 90.7446C292.975 90.6368 292.94 90.5309 292.873 90.4465Z" fill="white"/>
<path d="M330.709 166.456C326.678 167.733 322.883 168.787 319.317 169.659C287.271 177.495 273.828 170.325 273.828 170.325C273.536 169.146 273.296 167.957 273.108 166.758C272.967 165.836 272.853 164.908 272.769 163.974C272.633 162.432 272.584 160.883 272.622 159.335C272.633 158.853 272.653 158.368 272.682 157.885L273.312 147.232C273.312 147.232 269.295 114.259 273.964 94.901C276.436 92.3568 279.417 90.3633 282.713 89.051C283.285 88.8212 283.868 88.6131 284.462 88.4266C284.462 88.4266 285.169 95.6094 288.728 100.169C290.479 102.414 293.653 102.944 296.08 101.459C299.673 99.262 305.173 94.7744 308.362 86.6748L308.436 86.6865C309.206 86.8099 309.946 86.9475 310.655 87.0992C311.5 87.2814 312.302 87.4782 313.063 87.6895C316.489 88.6422 319.663 90.3393 322.357 92.6599C321.3 99.6044 319.492 115.334 321.68 131.278C322.56 137.703 324.091 144.163 326.581 150.104V150.112L327.263 152.12L328.539 155.875C329.239 157.934 329.777 160.044 330.146 162.187C330.275 162.936 330.383 163.688 330.471 164.443L330.709 166.456Z" fill="#1F296F"/>
<path d="M330.709 166.456C326.678 167.733 322.883 168.787 319.317 169.659C287.271 177.495 273.828 170.325 273.828 170.325C273.536 169.146 273.296 167.957 273.108 166.757C272.967 165.836 272.853 164.908 272.769 163.974C272.633 162.432 272.584 160.883 272.622 159.335H272.656C272.656 159.335 276.515 169.304 295.701 164.909C314.887 160.514 319.467 158.74 321.679 131.276C322.559 137.702 324.09 144.161 326.58 150.103V150.11L327.262 152.119L328.538 155.874C329.238 157.933 329.776 160.043 330.145 162.186C330.274 162.935 330.382 163.687 330.47 164.442L330.709 166.456Z" fill="#151F4C"/>
<path d="M330.709 166.456C326.677 167.733 322.883 168.787 319.317 169.659C287.271 177.495 273.828 170.325 273.828 170.325C273.536 169.144 273.296 167.955 273.108 166.756C273.108 166.756 288.525 171.842 311.444 166.756C320.256 164.802 326.187 163.295 330.148 162.183C330.278 162.932 330.387 163.684 330.474 164.439L330.709 166.456Z" fill="#7F4ABC"/>
<path d="M310.654 87.0982C309.673 92.2579 299.467 107.641 291.569 105.234C283.672 102.827 282.712 89.0542 282.712 89.0542C283.284 88.8255 283.868 88.6181 284.46 88.4298C284.46 88.4298 285.168 95.6126 288.727 100.174C290.478 102.418 293.651 102.949 296.078 101.464C299.671 99.2662 305.172 94.7787 308.361 86.6791L308.435 86.6908C309.204 86.8067 309.945 86.9461 310.654 87.0982Z" fill="#7F4ABC"/>
<path d="M300.793 75.6235C300.724 76.6255 301.42 79.6399 301.42 79.6399C300.163 78.6852 299.328 77.278 299.092 75.7171L297.946 66.9378L296.108 71.854C296.033 72.0855 295.878 72.2825 295.67 72.4095C295.462 72.5365 295.216 72.5852 294.976 72.5467C294.735 72.5082 294.517 72.3851 294.359 72.1996C294.202 72.014 294.115 71.7783 294.116 71.5349C294.116 71.484 294.12 71.4331 294.128 71.3828L294.579 68.3301C294.656 67.8121 294.599 67.283 294.412 66.7935C294.226 66.3041 293.917 65.8707 293.515 65.5349L290.663 63.1662C289.513 62.2082 288.087 61.6432 286.593 61.5537C283.652 61.3792 278.684 61.2346 276.115 62.0355C274.112 62.6577 270.473 59.1445 269.704 55.2931C269.04 51.9734 270.51 48.4028 277.001 47.0116C277.074 46.9968 277.15 47.0016 277.221 47.0254C277.292 47.0493 277.355 47.0914 277.404 47.1474C277.454 47.2035 277.488 47.2716 277.502 47.3448C277.517 47.418 277.512 47.4939 277.488 47.5646C277.201 48.356 277.003 48.824 278.182 49.2292C279.891 49.8153 282.746 46.8329 289.92 48.2422C290.004 48.2583 290.081 48.2998 290.14 48.3609C290.2 48.4221 290.239 48.5 290.253 48.5842C290.266 48.6683 290.254 48.7547 290.217 48.8316C290.18 48.9086 290.121 48.9724 290.047 49.0144C289.612 49.2573 289.195 49.5307 288.798 49.8323C288.732 49.8833 288.683 49.9529 288.657 50.0321C288.631 50.1113 288.629 50.1965 288.652 50.2766C288.675 50.3568 288.722 50.4282 288.785 50.4817C288.849 50.5353 288.928 50.5684 289.011 50.5769C292.587 50.9832 305.566 53.37 302.685 66.4475C302.68 66.4432 300.862 74.6205 300.793 75.6235Z" fill="black"/>
<path d="M302.68 66.4433C303.67 58.1671 295.251 52.15 290.358 51.7352C285.466 51.3204 288.685 48.9325 288.685 48.9325C284.697 48.8506 285.201 49.0538 280.449 50.3535C275.696 51.6533 275.656 48.6889 275.656 48.6889C270.783 49.2208 269.699 55.2899 269.699 55.2899C269.036 51.9703 270.506 48.3996 276.997 47.0084C277.07 46.9936 277.146 46.9984 277.217 47.0223C277.288 47.0461 277.351 47.0882 277.4 47.1442C277.45 47.2003 277.483 47.2684 277.498 47.3416C277.513 47.4149 277.508 47.4907 277.484 47.5615C277.197 48.3528 276.999 48.8208 278.178 49.2261C279.887 49.8121 282.742 46.8297 289.916 48.239C290 48.2552 290.077 48.2966 290.136 48.3577C290.195 48.4189 290.235 48.4968 290.249 48.581C290.262 48.6652 290.25 48.7515 290.213 48.8285C290.176 48.9054 290.117 48.9692 290.043 49.0112C289.608 49.2542 289.19 49.5275 288.794 49.8292C288.728 49.8802 288.679 49.9498 288.653 50.029C288.627 50.1082 288.625 50.1933 288.648 50.2735C288.671 50.3536 288.717 50.4251 288.781 50.4786C288.845 50.5321 288.924 50.5652 289.007 50.5737C292.582 50.979 305.561 53.3658 302.68 66.4433Z" fill="#3F3F3F"/>
<path d="M275.276 60.1391C273.846 58.6851 271.276 55.3729 273.474 52.0426C273.492 52.0154 273.518 51.9953 273.549 51.9858C273.58 51.9764 273.613 51.9782 273.643 51.991C273.672 52.0038 273.697 52.0267 273.711 52.0556C273.725 52.0846 273.729 52.1176 273.721 52.149C273.407 53.4317 273.177 56.2355 275.488 59.9699C275.506 59.9983 275.513 60.0324 275.508 60.0657C275.502 60.0991 275.485 60.1292 275.458 60.1502C275.432 60.1713 275.399 60.1818 275.365 60.1798C275.331 60.1777 275.3 60.1632 275.276 60.1391Z" fill="#3F3F3F"/>
<path d="M278.951 59.421C278.556 57.2937 278.344 52.5329 283.902 51.298C283.933 51.2921 283.965 51.2975 283.992 51.3131C284.02 51.3288 284.041 51.3537 284.051 51.3834C284.062 51.4131 284.061 51.4456 284.05 51.475C284.039 51.5044 284.017 51.5288 283.989 51.5437C282.33 52.3595 279.427 54.4836 279.21 59.4019C279.209 59.4342 279.197 59.465 279.174 59.4884C279.152 59.5117 279.122 59.526 279.089 59.5283C279.057 59.5307 279.025 59.5211 279 59.5013C278.974 59.4814 278.957 59.4529 278.951 59.421Z" fill="#3F3F3F"/>
<path d="M283.119 58.8127C284.468 56.7588 287.912 53.1871 293.995 57.1853C294.023 57.2035 294.057 57.2107 294.09 57.2055C294.613 57.1204 299.031 56.5545 299.736 61.6728C299.741 61.7059 299.734 61.7399 299.716 61.768C299.697 61.7961 299.669 61.8162 299.637 61.8243C299.604 61.8324 299.57 61.8278 299.54 61.8116C299.511 61.7953 299.489 61.7685 299.478 61.7366C298.85 60.0039 297.272 57.0736 293.933 57.8235C293.914 57.8281 293.894 57.8283 293.874 57.8238C293.855 57.8194 293.836 57.8105 293.821 57.7979C293.282 57.3608 288.319 53.5944 283.327 58.9754C283.304 58.9979 283.273 59.0114 283.241 59.0131C283.209 59.0149 283.177 59.0049 283.152 58.985C283.126 58.9651 283.109 58.9366 283.103 58.9049C283.097 58.8732 283.103 58.8404 283.119 58.8127Z" fill="#3F3F3F"/>
<path d="M295.852 73.5814C295.852 73.5814 302.234 71.6551 301.489 68.4929C300.901 66.004 297.912 67.0527 297.912 67.0527L295.852 73.5814Z" fill="#F5AE99"/>
<path d="M297.973 67.1017C298.53 66.9334 299.118 66.8909 299.694 66.9772C300.202 67.0563 300.661 67.3261 300.978 67.7319C301.294 68.1376 301.443 68.6487 301.396 69.1609C301.321 70.1043 300.613 70.8553 299.907 71.4094C299.123 71.9969 298.269 72.4833 297.364 72.857C296.853 73.0831 296.331 73.2798 295.798 73.4463C295.61 73.5027 295.73 73.7845 295.916 73.7282C297.405 73.2772 298.921 72.5816 300.141 71.6136C300.885 71.0223 301.61 70.2192 301.7 69.2279C301.799 68.1589 301.18 67.0942 300.141 66.7698C299.419 66.5433 298.578 66.5943 297.86 66.8209C297.673 66.8794 297.792 67.1602 297.978 67.1017H297.973Z" fill="#CC766A"/>
<path d="M298.876 68.5035C298.986 68.4892 299.098 68.5078 299.198 68.557C299.297 68.6061 299.38 68.6836 299.436 68.7797C299.491 68.8758 299.517 68.9861 299.51 69.0969C299.503 69.2077 299.464 69.314 299.396 69.4023C299.077 69.8277 298.489 69.498 298.051 69.6044C297.954 69.6241 297.863 69.6651 297.784 69.7246C297.705 69.784 297.64 69.8603 297.594 69.9479C297.488 70.1607 297.531 70.4042 297.469 70.6255C297.404 70.8452 297.277 71.0419 297.104 71.1925C296.931 71.3432 296.719 71.4416 296.493 71.4764C296.473 71.479 296.454 71.4856 296.436 71.4956C296.419 71.5057 296.404 71.519 296.392 71.5349C296.367 71.567 296.356 71.6076 296.362 71.6476C296.367 71.6877 296.388 71.724 296.42 71.7485C296.452 71.773 296.493 71.7838 296.533 71.7785C296.736 71.7484 296.931 71.6772 297.105 71.5693C297.28 71.4614 297.431 71.3191 297.549 71.1509C297.663 70.9879 297.744 70.8034 297.785 70.6085C297.828 70.3957 297.773 70.0947 297.973 69.9596C298.173 69.8245 298.423 69.882 298.636 69.9064C298.868 69.9523 299.108 69.9301 299.327 69.8426C299.516 69.7551 299.668 69.6024 299.753 69.4124C299.839 69.2224 299.854 69.0079 299.794 68.8081C299.734 68.6084 299.605 68.4368 299.429 68.3248C299.253 68.2128 299.043 68.1678 298.837 68.1982C298.799 68.2057 298.765 68.2275 298.742 68.2591C298.719 68.2906 298.709 68.3297 298.714 68.3682C298.719 68.4068 298.739 68.442 298.769 68.4668C298.799 68.4915 298.837 68.5039 298.876 68.5014V68.5035Z" fill="#CC766A"/>
<path d="M285.616 133.018H258.267C257.796 133.018 257.337 132.871 256.953 132.598C256.568 132.326 256.278 131.94 256.123 131.496L248.53 109.787C248.41 109.444 248.374 109.078 248.425 108.718C248.476 108.359 248.612 108.017 248.822 107.721C249.032 107.425 249.31 107.184 249.632 107.017C249.954 106.851 250.312 106.764 250.675 106.764H278.02C278.491 106.764 278.951 106.91 279.335 107.183C279.72 107.456 280.01 107.841 280.166 108.286L287.759 129.996C287.878 130.338 287.914 130.704 287.863 131.063C287.813 131.422 287.677 131.764 287.467 132.06C287.257 132.355 286.98 132.597 286.657 132.763C286.335 132.93 285.978 133.017 285.616 133.018Z" fill="#D64F41"/>
<path d="M284.961 133.487H257.612C257.141 133.487 256.681 133.34 256.297 133.067C255.913 132.794 255.623 132.409 255.468 131.964L247.875 110.255C247.755 109.912 247.719 109.546 247.77 109.186C247.821 108.827 247.957 108.485 248.167 108.189C248.377 107.893 248.655 107.652 248.977 107.485C249.299 107.319 249.657 107.232 250.02 107.232H277.367C277.838 107.232 278.297 107.379 278.681 107.652C279.064 107.925 279.354 108.31 279.509 108.754L287.102 130.464C287.222 130.806 287.258 131.172 287.207 131.531C287.157 131.89 287.021 132.232 286.811 132.528C286.602 132.824 286.324 133.065 286.002 133.232C285.68 133.399 285.323 133.486 284.961 133.487Z" fill="#F5715D"/>
<path d="M326.58 150.096L324.696 149.429L288.404 136.585C286.07 135.758 283.942 134.435 282.168 132.707L278.765 129.392C278.354 128.992 277.824 128.737 277.255 128.666C273.878 128.25 272.839 127.553 272.558 127.046C272.536 127.007 272.521 126.964 272.515 126.92C272.506 126.86 272.511 126.799 272.529 126.742C272.547 126.684 272.577 126.631 272.618 126.587C272.659 126.542 272.709 126.507 272.764 126.484C272.82 126.461 272.88 126.451 272.94 126.454C273.784 126.506 275.792 126.56 277.584 126.081C277.69 126.052 277.783 126.023 277.869 125.995C278.99 125.622 278.643 125.183 278.199 124.892C277.899 124.702 277.562 124.581 277.21 124.536C273.187 123.986 271.785 123.053 271.299 122.484C271.253 122.433 271.228 122.366 271.228 122.297C271.228 122.217 271.259 122.141 271.315 122.084C271.372 122.028 271.448 121.996 271.528 121.995L276.42 121.97C276.781 121.97 277.141 121.934 277.495 121.863C279.7 121.403 277.403 120.445 273.44 119.375C271.259 118.787 270.375 118.228 270.036 117.82C269.978 117.752 269.947 117.666 269.947 117.577C269.947 117.524 269.957 117.472 269.977 117.423C269.997 117.375 270.027 117.331 270.064 117.294C270.102 117.257 270.146 117.228 270.195 117.208C270.244 117.189 270.297 117.18 270.349 117.181L276.385 117.313H276.396H276.502C276.529 117.314 276.556 117.31 276.581 117.301C276.62 117.288 276.654 117.264 276.68 117.232C276.706 117.2 276.722 117.161 276.727 117.12C276.732 117.08 276.726 117.038 276.709 117.001C276.692 116.964 276.665 116.932 276.631 116.909C276.259 116.673 275.857 116.487 275.436 116.356C275.213 116.283 274.986 116.227 274.756 116.187C271.664 115.625 270.448 114.697 269.969 114.09C269.924 114.033 269.895 113.965 269.886 113.893C269.877 113.821 269.888 113.747 269.918 113.681C269.949 113.615 269.997 113.558 270.057 113.518C270.118 113.477 270.188 113.455 270.261 113.452C271.876 113.383 276.446 113.266 280.174 113.911C283.282 114.451 286.556 119.462 288.364 122.667C288.784 123.413 289.381 124.044 290.102 124.506C290.823 124.967 291.645 125.245 292.498 125.315L325.228 128.006L326.58 150.096Z" fill="#F5AE99"/>
<path d="M277.873 125.996C278.994 125.622 278.649 125.183 278.203 124.894C277.904 124.703 277.567 124.581 277.215 124.536C273.191 123.986 271.79 123.053 271.303 122.484C271.257 122.433 271.232 122.366 271.232 122.297C271.232 122.297 273.567 124.059 277.827 124.051C278.076 124.049 278.322 124.116 278.535 124.245C278.749 124.374 278.923 124.559 279.038 124.781C279.262 125.231 279.19 125.763 277.873 125.996Z" fill="#DD8C7A"/>
<path d="M277.498 121.861C279.703 121.4 277.407 120.443 273.443 119.374C271.262 118.784 270.379 118.227 270.04 117.818C269.981 117.75 269.949 117.664 269.949 117.575C269.949 117.575 272.112 118.745 275.999 119.566C279.869 120.382 279.257 121.865 277.498 121.861Z" fill="#DD8C7A"/>
<path d="M276.586 117.306C276.624 117.292 276.659 117.268 276.684 117.236C276.71 117.204 276.727 117.166 276.732 117.125C276.737 117.084 276.731 117.043 276.714 117.005C276.697 116.968 276.67 116.936 276.636 116.913C276.062 116.556 275.425 116.31 274.76 116.19C271.668 115.629 270.453 114.701 269.974 114.094C269.928 114.038 269.899 113.97 269.889 113.897C269.88 113.825 269.891 113.751 269.922 113.685C269.952 113.619 270 113.562 270.061 113.522C270.122 113.481 270.192 113.459 270.265 113.456C270.265 113.456 270.148 114.414 271.835 114.788C273.484 115.151 279.037 117.138 276.586 117.306Z" fill="#DD8C7A"/>
<path d="M324.696 149.428L288.405 136.584C286.07 135.758 283.943 134.435 282.169 132.707L278.765 129.392C278.354 128.992 277.824 128.737 277.256 128.666C273.878 128.251 272.839 127.553 272.558 127.046C272.536 127.007 272.522 126.964 272.515 126.92C272.515 126.92 273 127.752 276.863 128.074C278.087 128.174 279.247 128.663 280.174 129.468C282.505 131.499 287.088 135.238 289.496 135.511C292.82 135.889 317.844 146.097 324.113 145.517L324.696 149.428Z" fill="#DD8C7A"/>
<path d="M335.971 148.477C335.957 149.613 335.614 150.721 334.984 151.667C334.354 152.613 333.463 153.356 332.42 153.807C329.932 154.87 326.534 155.42 323.814 152.53C323.637 152.341 323.509 152.112 323.442 151.862C323.374 151.612 323.369 151.35 323.427 151.097C323.542 150.593 323.673 149.917 323.791 149.107C324.515 144.163 324.742 134.216 317.409 127.728C317.253 127.588 317.126 127.419 317.037 127.229C316.947 127.04 316.896 126.834 316.886 126.625C316.877 126.415 316.909 126.206 316.982 126.009C317.054 125.812 317.165 125.632 317.308 125.479L319.523 122.403C319.727 122.182 319.99 122.024 320.281 121.946C320.389 121.918 320.5 121.902 320.612 121.897C320.805 121.889 320.998 121.915 321.182 121.976C324.738 123.156 336.259 127.691 335.971 148.477Z" fill="#76D6B6"/>
<path d="M335.971 148.477C335.957 149.613 335.614 150.721 334.984 151.667C334.354 152.613 333.463 153.356 332.42 153.807C329.932 154.87 326.534 155.42 323.814 152.53C323.637 152.341 323.509 152.112 323.442 151.862C323.374 151.612 323.369 151.35 323.427 151.097C323.542 150.593 323.673 149.917 323.791 149.107C323.791 149.107 325.817 152.597 329.342 151.767C332.867 150.936 335.899 143.151 332.471 134.975C329.043 126.799 320.281 121.946 320.281 121.946L320.612 121.897C320.805 121.889 320.998 121.915 321.182 121.976C324.737 123.156 336.259 127.691 335.971 148.477Z" fill="#4EB593"/>
<path d="M184.774 199.84C182.548 199.848 180.33 199.58 178.17 199.042C176.207 198.576 174.343 197.766 172.663 196.65C172.025 196.218 171.643 195.695 171.515 195.081C171.377 194.512 171.439 193.913 171.689 193.384C171.916 192.891 172.328 192.506 172.837 192.314C173.346 192.115 173.936 192.231 174.605 192.662C176.064 193.61 177.662 194.325 179.342 194.78C181.115 195.243 182.942 195.47 184.774 195.453C187.598 195.453 189.683 194.943 191.031 193.924C192.378 192.904 193.051 191.583 193.05 189.962C193.05 188.633 192.568 187.578 191.604 186.795C190.641 186.012 189.029 185.39 186.768 184.927L181.435 183.829C178.277 183.165 175.925 182.069 174.382 180.541C172.838 179.012 172.065 176.951 172.064 174.359C172.027 172.385 172.611 170.45 173.733 168.827C174.846 167.232 176.399 165.994 178.393 165.113C180.387 164.232 182.682 163.792 185.277 163.792C187.241 163.779 189.197 164.047 191.084 164.589C192.841 165.094 194.489 165.922 195.943 167.031C196.198 167.192 196.418 167.404 196.59 167.652C196.761 167.9 196.881 168.181 196.941 168.477C197.045 169.013 196.957 169.569 196.693 170.047C196.567 170.28 196.397 170.486 196.192 170.653C195.986 170.82 195.75 170.945 195.496 171.02C194.964 171.187 194.349 171.054 193.65 170.62C192.428 169.791 191.083 169.16 189.663 168.752C188.218 168.359 186.725 168.166 185.227 168.178C182.768 168.178 180.816 168.727 179.37 169.823C178.679 170.322 178.12 170.983 177.742 171.747C177.364 172.512 177.179 173.357 177.202 174.209C177.202 175.612 177.648 176.725 178.54 177.55C179.433 178.375 180.928 179.006 183.026 179.443L188.31 180.541C191.633 181.238 194.109 182.309 195.736 183.755C197.364 185.2 198.179 187.153 198.18 189.612C198.18 191.673 197.631 193.468 196.534 194.996C195.436 196.525 193.891 197.712 191.899 198.559C189.906 199.414 187.531 199.841 184.774 199.84Z" fill="#FF8E5E"/>
<path d="M182.026 160.863C182.026 160.01 181.336 159.319 180.484 159.319C179.633 159.319 178.942 160.01 178.942 160.863V203.798C178.942 204.65 179.633 205.341 180.484 205.341C181.336 205.341 182.026 204.65 182.026 203.798V160.863Z" fill="#FF8E5E"/>
<path d="M190.258 160.863C190.258 160.01 189.567 159.319 188.716 159.319C187.864 159.319 187.174 160.01 187.174 160.863V203.798C187.174 204.65 187.864 205.341 188.716 205.341C189.567 205.341 190.258 204.65 190.258 203.798V160.863Z" fill="#FF8E5E"/>
<path d="M367.575 147.316C378.297 147.316 386.989 138.624 386.989 127.901C386.989 117.179 378.297 108.487 367.575 108.487C356.852 108.487 348.16 117.179 348.16 127.901C348.16 138.624 356.852 147.316 367.575 147.316Z" fill="#FFE269"/>
<path d="M367.579 144.723C358.304 144.723 350.757 137.171 350.757 127.902C350.757 118.632 358.309 111.08 367.579 111.08C376.848 111.08 384.4 118.626 384.4 127.902C384.4 137.178 376.85 144.723 367.579 144.723ZM367.579 111.664C358.626 111.664 351.342 118.948 351.342 127.902C351.342 136.855 358.626 144.138 367.579 144.138C376.531 144.138 383.815 136.854 383.815 127.902C383.815 118.949 376.527 111.668 367.579 111.668V111.664Z" fill="#F28C61"/>
<path d="M368.152 137.648C366.29 137.648 364.683 137.246 363.331 136.443C361.979 135.64 360.894 134.456 360.212 133.039C359.485 131.572 359.121 129.856 359.122 127.892C359.122 124.933 359.925 122.605 361.532 120.908C363.139 119.211 365.346 118.363 368.152 118.364C369.126 118.372 370.093 118.52 371.024 118.803C372.016 119.096 372.94 119.584 373.741 120.239C374.173 120.545 374.358 120.927 374.296 121.387C374.274 121.597 374.203 121.8 374.09 121.979C373.978 122.158 373.825 122.309 373.645 122.42C373.275 122.649 372.847 122.598 372.363 122.266C371.212 121.377 369.799 120.892 368.345 120.889C366.406 120.889 364.914 121.495 363.868 122.707C362.822 123.919 362.299 125.66 362.299 127.93C362.299 130.15 362.822 131.904 363.868 133.192C364.914 134.48 366.406 135.124 368.345 135.125C369.8 135.12 371.213 134.634 372.363 133.742C372.847 133.41 373.268 133.366 373.626 133.608C373.8 133.724 373.945 133.88 374.048 134.063C374.151 134.246 374.21 134.45 374.219 134.66C374.257 135.119 374.071 135.49 373.664 135.769C372.874 136.419 371.964 136.907 370.986 137.205C370.068 137.491 369.113 137.64 368.152 137.648Z" fill="#F28C61"/>
<path d="M367.228 125.475H357.255C356.674 125.475 356.202 125.947 356.202 126.528C356.202 127.109 356.674 127.58 357.255 127.58H367.228C367.809 127.58 368.281 127.109 368.281 126.528C368.281 125.947 367.809 125.475 367.228 125.475Z" fill="#F28C61"/>
<path d="M367.228 129.445H357.255C356.674 129.445 356.202 129.916 356.202 130.497C356.202 131.079 356.674 131.55 357.255 131.55H367.228C367.809 131.55 368.281 131.079 368.281 130.497C368.281 129.916 367.809 129.445 367.228 129.445Z" fill="#F28C61"/>
<path d="M0.749868 280.965H403.967C409.414 280.965 414.867 281.044 420.313 280.965C420.551 280.965 420.79 280.965 421.028 280.965C422.027 280.965 422.028 279.413 421.028 279.413H17.8107C12.3638 279.413 6.91049 279.336 1.46464 279.413C1.22638 279.413 0.988124 279.413 0.749868 279.413C-0.248892 279.413 -0.251019 280.965 0.749868 280.965Z" fill="#524D5D"/>
<defs>
<linearGradient id="paint0_linear_2844_15543" x1="201.816" y1="225.163" x2="202.106" y2="281.66" gradientUnits="userSpaceOnUse">
<stop stop-color="#9A7EFB"/>
<stop offset="1" stop-color="#6040C7"/>
</linearGradient>
</defs>
</svg>
