<svg width="1234" height="985" viewBox="0 0 1234 985" fill="none" xmlns="http://www.w3.org/2000/svg">
<path d="M1233.2 616.278L956.837 456.193L956.842 251.609L1233.2 411.686V616.278Z" fill="url(#paint0_linear_0_18)"/>
<path opacity="0.4" d="M956.837 217.509L956.842 251.609L1233.2 411.686V377.588L956.837 217.509Z" fill="url(#paint1_linear_0_18)"/>
<g opacity="0.4">
<path d="M1027.61 388.545L979.493 379.388C986.318 406.602 1005.45 434.522 1027.84 447.448C1055.9 463.648 1078.85 450.393 1078.85 417.996C1078.85 385.599 1055.9 345.841 1027.84 329.641C1016.23 322.937 1005.49 321.276 996.891 323.937L1027.61 388.545Z" fill="url(#paint2_linear_0_18)"/>
<path d="M963.751 349.175C963.751 355.723 964.689 362.573 966.416 369.47L1014.53 378.627L983.814 314.02C971.638 317.775 963.751 330.187 963.751 349.175Z" fill="url(#paint3_linear_0_18)"/>
</g>
<g opacity="0.4">
<path d="M1114.03 436.505V504.194L1130.88 513.928L1130.89 445.794L1114.03 436.505Z" fill="url(#paint4_linear_0_18)"/>
<path d="M1139.31 476.092V519.325L1156.17 528.529V485.827L1139.31 476.092Z" fill="url(#paint5_linear_0_18)"/>
<path d="M1164.2 474.557V533.488L1181.06 542.692V484.292L1164.2 474.557Z" fill="url(#paint6_linear_0_18)"/>
<path d="M1190 453.206V547.885L1206.75 557.728L1206.86 462.941L1190 453.206Z" fill="url(#paint7_linear_0_18)"/>
<path d="M1087.89 367.216V488.679L1104.64 498.522L1104.75 376.951L1087.89 367.216Z" fill="url(#paint8_linear_0_18)"/>
</g>
<path d="M290.601 298.446L348.503 300.919L385.229 263.681L372.291 299.775L397.324 344.566L352.519 330.069H313.197L290.601 298.446Z" fill="url(#paint9_linear_0_18)"/>
<path d="M307.728 218.085L331.748 263.681H385.229L348.503 300.919L290.601 298.446L307.728 218.085Z" fill="url(#paint10_linear_0_18)"/>
<path d="M331.748 263.681L400.763 212.201L424.038 167.846L460.052 148.524L453.967 174.61L397.324 229.937L385.229 263.681H331.748Z" fill="url(#paint11_linear_0_18)"/>
<path d="M351.204 168.019L400.763 212.201L331.748 263.681L307.728 218.085L351.204 168.019Z" fill="url(#paint12_linear_0_18)"/>
<path d="M365.7 106.101L388.466 159.502L424.038 167.846L400.763 212.201L351.204 168.019L365.7 106.101Z" fill="url(#paint13_linear_0_18)"/>
<path d="M424.038 167.846L453.967 115.54L444.679 98.459L491.229 80.893L556.95 84.623L463.188 135.08L460.052 148.524L424.038 167.846Z" fill="url(#paint14_linear_0_18)"/>
<path d="M423.672 78.437L444.679 98.459L453.967 115.54L424.038 167.846L388.466 159.502L423.672 78.437Z" fill="url(#paint15_linear_0_18)"/>
<path d="M522.476 41.538L491.229 80.893L444.679 98.459L423.672 78.437L453.967 38.907L522.476 41.538Z" fill="url(#paint16_linear_0_18)"/>
<path d="M565.951 19.149L556.95 84.623L491.229 80.893L522.476 41.538L565.951 19.149Z" fill="url(#paint17_linear_0_18)"/>
<path d="M614.965 53.404L556.95 84.623L565.951 19.149L614.965 53.404Z" fill="url(#paint18_linear_0_18)"/>
<path d="M639.735 2.022L679.043 41.538L614.965 53.404L565.951 19.149L639.735 2.022Z" fill="url(#paint19_linear_0_18)"/>
<path d="M753.035 41.538H679.043L639.735 2.022L668.714 16.519L753.035 41.538Z" fill="url(#paint20_linear_0_18)"/>
<path d="M423.672 78.437L388.466 159.502L365.7 106.101L423.672 78.437Z" fill="url(#paint21_linear_0_18)"/>
<path d="M634.247 369.271L472.196 396.935L556.517 410.116L634.247 369.271Z" fill="url(#paint22_linear_0_18)"/>
<path d="M925.409 262.549L912.241 309.984L871.396 335.017L834.511 375.862L780.485 391.66L734.379 377.177L738.325 329.742L696.165 321.836L634.247 369.271L556.517 410.116L472.196 396.935L395.782 356.09L397.111 344.239L372.078 299.448L397.111 229.61L453.754 174.282L462.975 134.753L538.074 93.922L614.752 53.076L692.219 59.667L767.166 48.272H767.18L835.827 82.056L863.491 125.531L905.651 182.188V211.167L925.409 262.549Z" fill="url(#paint23_linear_0_18)"/>
<path d="M397.111 229.61L449.809 327.766L506.46 348.846L472.196 396.935L395.782 356.09L397.111 344.239L372.078 299.448L397.111 229.61Z" fill="url(#paint24_linear_0_18)"/>
<path d="M696.165 321.836L602.197 288.242L513.925 313.272L506.46 348.846L472.196 396.935L634.247 369.271L696.165 321.836Z" fill="url(#paint25_linear_0_18)"/>
<path d="M397.111 229.61L513.925 313.272L506.46 348.846L449.809 327.766L397.111 229.61Z" fill="url(#paint26_linear_0_18)"/>
<path d="M453.754 174.282L455.518 271.441L397.111 229.61L453.754 174.282Z" fill="url(#paint27_linear_0_18)"/>
<path d="M602.197 288.242L454.554 218.348L455.518 271.441L513.925 313.272L602.197 288.242Z" fill="url(#paint28_linear_0_18)"/>
<path d="M696.165 321.836L708.321 271.441L738.325 329.742L696.165 321.836Z" fill="url(#paint29_linear_0_18)"/>
<path d="M734.379 377.177L780.485 391.66L738.325 329.742L734.379 377.177Z" fill="url(#paint30_linear_0_18)"/>
<path d="M871.396 335.017L828.803 326.009L791.035 354.994L738.325 329.742L780.485 391.66L834.511 375.862L871.396 335.017Z" fill="url(#paint31_linear_0_18)"/>
<path d="M542.907 231.375L564.429 127.509L462.975 134.753L453.754 174.282L454.554 218.348L542.907 231.375Z" fill="url(#paint32_linear_0_18)"/>
<path d="M614.752 53.076L564.429 127.509L462.975 134.753L614.752 53.076Z" fill="url(#paint33_linear_0_18)"/>
<path d="M692.219 59.667L587.854 92.861L614.752 53.076L692.219 59.667Z" fill="url(#paint34_linear_0_18)"/>
<path d="M542.907 231.375L668.071 193.383L688.272 115.213L564.429 127.509L542.907 231.375Z" fill="url(#paint35_linear_0_18)"/>
<path d="M602.197 288.242L668.071 193.383L542.907 231.375L602.197 288.242Z" fill="url(#paint36_linear_0_18)"/>
<path d="M708.321 271.441L668.071 193.383L602.197 288.242L696.165 321.836L708.321 271.441Z" fill="url(#paint37_linear_0_18)"/>
<path d="M688.272 115.213L773.469 203.045L829.681 205.906L708.321 271.441L668.071 193.383L688.272 115.213Z" fill="url(#paint38_linear_0_18)"/>
<path d="M692.219 59.667L688.272 115.213L564.429 127.509L587.854 92.861L692.219 59.667Z" fill="url(#paint39_linear_0_18)"/>
<path d="M835.827 82.056L688.272 115.213L692.219 59.667L767.18 48.272L835.827 82.056Z" fill="url(#paint40_linear_0_18)"/>
<path d="M829.681 205.906L835.827 82.056L688.272 115.213L773.469 203.045L829.681 205.906Z" fill="url(#paint41_linear_0_18)"/>
<path d="M828.803 326.009L829.681 205.906L708.321 271.441L738.325 329.742L791.035 354.994L828.803 326.009Z" fill="url(#paint42_linear_0_18)"/>
<path d="M905.651 182.188L829.681 205.906L828.803 326.009L871.396 335.017L912.241 309.984L925.409 262.549L905.651 211.167V182.188Z" fill="url(#paint43_linear_0_18)"/>
<path d="M835.827 82.056L829.681 205.906L905.651 182.188L835.827 82.056Z" fill="url(#paint44_linear_0_18)"/>
<path d="M454.554 218.348L602.197 288.242L542.907 231.375L454.554 218.348Z" fill="url(#paint45_linear_0_18)"/>
<path d="M767.18 48.272L752.822 41.211H678.83L614.752 53.076L692.219 59.667L767.18 48.272Z" fill="url(#paint46_linear_0_18)"/>
<path opacity="0.4" fill-rule="evenodd" clip-rule="evenodd" d="M753.626 39.546L753.035 43.615H679.232L615.667 55.385L557.935 86.453L464.998 136.464L462.075 148.995L455.99 175.08L455.418 176.094L399.117 231.086L387.185 264.379L374.566 299.586L399.138 343.552L396.685 346.54L352.192 332.145H313.198L311.508 331.276L288.911 299.653L289.294 298.947L288.571 298.013L305.698 217.652L306.059 217.602L306.16 216.723L349.299 167.045L363.678 105.627L364.297 105.573L364.806 104.226L422.329 76.776L452.319 37.644L454.047 36.831L522.009 39.441L565.001 17.301L565.394 17.58L565.482 17.126L639.266 0L640.522 0.361L640.664 0.165L669.479 14.58L753.626 39.546ZM668.123 18.511L667.785 18.377L650.164 9.562L679.907 39.462H738.735L668.123 18.511ZM388.484 154.247L368.392 107.118L419.556 82.703L388.484 154.247ZM407.216 161.767L423.005 165.47L451.59 115.514L443.011 99.738L424.394 81.993L391.363 158.048L407.216 161.767ZM555.153 82.441L495.347 79.046L523.824 43.179L563.349 22.825L556.982 69.137L555.153 82.441ZM518.299 43.457L454.962 41.023L426.456 78.22L445.166 96.054L470.815 86.376L489.958 79.153L511.064 52.57L518.299 43.457ZM366.277 112.749L386.556 160.315L387.992 161.522L420.953 169.253L401.006 207.267L400.16 208.879L353.509 167.289L366.277 112.749ZM397.48 212.057L351.392 170.969L310.228 218.374L332.454 260.563L397.48 212.057ZM308.564 224.128L329.911 264.648L331.749 265.757H380.263L347.671 298.804L293.144 296.475L308.564 224.128ZM392.931 340.961L370.478 300.788L370.335 299.075L380.097 271.842L349.981 302.378L348.413 302.995L294.765 300.704L314.265 327.993H352.518L353.158 328.094L392.931 340.961ZM452.082 173.546L395.873 228.45L395.369 229.236L383.768 261.603H338.007L402.004 213.865L402.602 213.166L425.581 169.375L456.985 152.526L452.082 173.546ZM461.166 134.608L462.204 133.25L549.489 86.282L491.551 82.993L447.643 99.561L455.792 114.548L455.77 116.572L429.438 162.591L458.243 147.137L461.166 134.608ZM559.565 80.858L565.767 35.746L567.547 22.798L601.526 46.545L611.01 53.174L559.565 80.858ZM602.012 41.817L615.444 51.204L674.795 40.215L639.079 4.309L570.964 20.118L602.012 41.817Z" fill="url(#paint47_linear_0_18)"/>
<path opacity="0.4" fill-rule="evenodd" clip-rule="evenodd" d="M907.705 211.199L927.324 262.221L927.388 263.521L914.221 310.956L913.305 312.172L872.714 337.05L836.032 377.67L835.073 378.272L781.047 394.07L780.088 393.726L779.841 394.058L733.735 379.574L732.288 377.421L736.079 331.854L696.67 324.464L635.488 371.335L635.173 371.473L635.191 371.526L557.461 412.371L556.174 412.585L471.854 399.405L471.851 399.03L471.195 399.184L394.78 358.339L393.695 356.276L394.95 345.087L370.242 300.877L370.1 299.164L395.135 229.327L395.695 229.285L395.638 228.541L451.847 173.637L460.931 134.697L462.079 133.717L461.969 133.339L613.746 51.664L613.945 51.884L614.906 51.425L692.122 57.994L766.845 46.634L768.074 46.825L836.721 80.609L836.614 81.511L836.641 81.533L837.508 81.284L907.332 181.418L907.082 182.148L907.705 182.606V211.199ZM902.302 181.468L837.577 88.646L832.901 182.869L831.88 203.454L845.105 199.325L902.302 181.468ZM833.594 85.098L831.349 130.35L827.687 204.143L774.367 201.43L692.32 116.844L772.214 98.891L833.594 85.098ZM601.856 285.476L662.934 197.523L586.19 220.818L546.883 232.749L601.856 285.476ZM541.925 233.75L591.517 281.316L494.783 235.523L468.02 222.854L480.831 224.743L541.925 233.75ZM500.185 301.31L514.299 311.418L544.274 302.919L596.287 288.17L456.669 222.076L457.553 270.777L500.185 301.31ZM605.427 287.616L667.785 197.82L706.098 272.122L694.665 319.518L605.427 287.616ZM689.335 119.73L670.258 193.552L693.272 238.184L709.174 269.024L822.144 208.02L773.341 205.536L771.956 204.907L689.335 119.73ZM610.441 83.908L592.903 89.486L615.767 55.667L681.619 61.269L610.441 83.908ZM589.148 95.04L570.39 122.785L568.607 125.423L686.302 113.735L689.907 62.992L589.148 95.04ZM566.13 129.843L685.494 117.99L666.328 192.151L545.627 228.788L562.485 147.433L566.13 129.843ZM400.312 229.781L453.343 267.762L451.742 179.546L400.312 229.781ZM403.148 236.921L454.286 273.546L511.592 314.589L505.441 343.9L504.901 346.474L451.245 326.51L403.148 236.921ZM711.077 272.718L739.83 328.587L790.76 352.986L826.711 325.396L826.986 287.768L827.556 209.819L711.077 272.718ZM829.604 81.737L690.519 112.99L694.149 61.888L766.824 50.84L829.604 81.737ZM563.252 125.927L566.559 121.036L608.282 59.322L472.466 132.408L507.896 129.879L563.252 125.927ZM464.626 137.131L512.837 133.69L561.815 130.194L545.472 209.063L541.247 229.45L456.574 216.967L455.81 174.92L464.626 137.131ZM374.328 299.676L398.901 343.643L399.152 344.887L397.979 355.339L471.542 394.66L503.173 350.264L449.061 330.13L447.955 329.166L397.467 235.125L374.328 299.676ZM556.136 408.375L485.044 397.262L597.314 378.096L621.671 373.938L556.136 408.375ZM616.621 370.586L633.368 367.727L691.849 322.924L602.1 290.838L515.676 315.345L513.425 326.072L508.469 349.688L508.128 350.467L476.785 394.457L616.621 370.586ZM709.007 277.774L719.779 298.704L734.513 327.335L698.673 320.614L709.007 277.774ZM739.886 336.174L736.564 376.11L775.381 388.304L739.886 336.174ZM833.341 374.451L781.329 389.66L744.359 335.363L790.116 357.284L792.277 357.06L829.286 328.658L867.414 336.721L833.341 374.451ZM870.995 333.231L910.436 309.057L923.202 263.07L903.69 212.328L903.551 211.583V185.429L831.725 207.853L831.265 270.689L830.87 324.745L870.995 333.231Z" fill="url(#paint48_linear_0_18)"/>
<path opacity="0.5" d="M615.965 823.414C700.515 823.414 769.056 788.291 769.056 744.964C769.056 701.637 700.515 666.514 615.965 666.514C531.415 666.514 462.874 701.637 462.874 744.964C462.874 788.291 531.415 823.414 615.965 823.414Z" fill="url(#paint49_linear_0_18)"/>
<path d="M481.665 632.901C487.186 627.945 493.665 623.249 501.158 618.923C558.074 586.063 651.209 586.063 708.125 618.923C715.618 623.249 722.097 627.945 727.618 632.901H750.812V703.172C750.811 724.83 736.582 746.489 708.125 762.919C651.209 795.782 558.074 795.782 501.158 762.919C472.701 746.488 458.472 724.83 458.471 703.172V632.901H481.665Z" fill="url(#paint50_linear_0_18)"/>
<path d="M708.124 692.649C765.04 659.786 765.04 606.012 708.124 573.152C651.208 540.292 558.073 540.292 501.157 573.152C444.241 606.012 444.241 659.786 501.157 692.649C558.073 725.512 651.209 725.512 708.124 692.649Z" fill="url(#paint51_linear_0_18)"/>
<path d="M490.083 607.657C495.226 603.04 501.261 598.666 508.241 594.636C561.261 564.025 648.02 564.025 701.04 594.636C708.02 598.666 714.055 603.041 719.198 607.657H740.804V627.472C740.803 647.647 727.548 667.823 701.039 683.129C648.019 713.742 561.26 713.742 508.24 683.129C481.731 667.823 468.476 647.647 468.475 627.472V607.657H490.083Z" fill="url(#paint52_linear_0_18)"/>
<path d="M701.039 663.315C754.059 632.702 754.059 582.609 701.039 551.998C648.019 521.387 561.26 521.387 508.24 551.998C455.22 582.609 455.22 632.702 508.24 663.315C561.26 693.928 648.02 693.928 701.039 663.315Z" fill="url(#paint53_linear_0_18)"/>
<path d="M481.665 584.043C487.186 579.087 493.665 574.391 501.158 570.065C558.074 537.205 651.209 537.205 708.125 570.065C715.618 574.391 722.097 579.087 727.618 584.043H750.812V605.315C750.811 626.973 736.582 648.632 708.125 665.062C651.209 697.925 558.074 697.925 501.158 665.062C472.701 648.631 458.472 626.973 458.471 605.315V584.043H481.665Z" fill="url(#paint54_linear_0_18)"/>
<path d="M708.124 643.791C765.04 610.928 765.04 557.154 708.124 524.294C651.208 491.434 558.073 491.434 501.157 524.294C444.241 557.154 444.241 610.928 501.157 643.791C558.073 676.654 651.209 676.654 708.124 643.791Z" fill="url(#paint55_linear_0_18)"/>
<path d="M492.465 584.041C492.465 580.938 492.819 577.861 493.513 574.84C496.834 560.276 508.05 546.951 525.935 536.634C569.34 511.576 639.954 511.576 683.346 536.634C701.23 546.951 712.46 560.277 715.767 574.854C716.461 577.876 716.815 580.938 716.815 584.041C716.815 592.521 714.215 600.728 709.22 608.337C709.737 605.928 710.01 603.491 710.01 601.028C710.01 598.156 709.643 595.325 708.935 592.535C705.791 580.149 695.759 568.648 679.944 559.515C676.391 557.46 672.635 555.582 668.728 553.88C628.426 542.61 580.855 542.596 540.553 553.88C536.646 555.581 532.89 557.46 529.338 559.515C513.522 568.648 503.49 580.15 500.346 592.535C499.638 595.325 499.271 598.157 499.271 601.028C499.271 603.492 499.543 605.928 500.061 608.337C495.065 600.728 492.465 592.521 492.465 584.041Z" fill="url(#paint56_linear_0_18)"/>
<path d="M499.276 601.028C499.276 603.492 499.548 605.928 500.066 608.337L500.08 608.351C505.742 616.967 514.467 624.82 525.941 631.449C547.637 643.971 576.138 650.232 604.653 650.232C633.154 650.232 661.656 643.971 683.352 631.449C694.826 624.82 703.551 616.967 709.213 608.351L709.226 608.337C709.743 605.928 710.016 603.491 710.016 601.028C710.016 598.156 709.648 595.325 708.941 592.535C705.797 580.149 695.765 568.648 679.95 559.515C638.422 535.546 570.871 535.546 529.344 559.515C513.528 568.648 503.496 580.15 500.352 592.535C499.644 595.325 499.276 598.156 499.276 601.028Z" fill="url(#paint57_linear_0_18)"/>
<path d="M511.764 666.424L499.276 659.215L502.334 657.438L511.764 662.882V666.424Z" fill="url(#paint58_linear_0_18)"/>
<path d="M499.276 650.121V659.215L502.334 657.438V651.992L499.276 650.121Z" fill="url(#paint59_linear_0_18)"/>
<path d="M511.764 662.882V657.438L502.334 651.992V657.438L511.764 662.882Z" fill="url(#paint60_linear_0_18)"/>
<path d="M702.243 750.733L714.731 743.524L711.674 741.747L702.243 747.191V750.733Z" fill="url(#paint61_linear_0_18)"/>
<path d="M714.731 734.43V743.524L711.674 741.747V736.301L714.731 734.43Z" fill="url(#paint62_linear_0_18)"/>
<path d="M702.243 747.191V741.747L711.674 736.301V741.747L702.243 747.191Z" fill="url(#paint63_linear_0_18)"/>
<path d="M683.126 761.218L695.614 754.009L692.556 752.232L683.126 757.677V761.218Z" fill="url(#paint64_linear_0_18)"/>
<path d="M695.614 744.916V754.009L692.556 752.232V746.787L695.614 744.916Z" fill="url(#paint65_linear_0_18)"/>
<path d="M683.126 757.677V752.232L692.556 746.787V752.232L683.126 757.677Z" fill="url(#paint66_linear_0_18)"/>
<path opacity="0.7" d="M291.267 37.603L492.71 584.263C492.71 602.366 504.592 619.202 526.18 631.67C547.876 644.192 576.377 650.453 604.893 650.453C633.394 650.453 661.896 644.192 683.592 631.67C705.179 619.202 717.061 602.365 717.061 584.263L930.754 37.603L291.267 37.603Z" fill="url(#paint67_linear_0_18)"/>
<path opacity="0.5" d="M126.708 656.57C154.544 656.57 177.109 650.586 177.109 643.205C177.109 635.824 154.544 629.84 126.708 629.84C98.8723 629.84 76.307 635.824 76.307 643.205C76.307 650.586 98.8723 656.57 126.708 656.57Z" fill="url(#paint68_linear_0_18)"/>
<path d="M136.375 643.205L121.064 633.702L122.687 616.562L134.817 488.871L121.289 484.18L120.909 497.235L117.442 617.638L116.964 634.103L116.827 638.816L136.375 643.205Z" fill="url(#paint69_linear_0_18)"/>
<path d="M117.442 617.637L122.688 616.561L126.726 615.739L137.156 484.257L120.909 497.234L117.442 617.637Z" fill="#1D1D1B"/>
<path d="M116.964 634.103L116.827 638.816L136.375 643.205L121.064 633.702L116.964 634.103Z" fill="#1D1D1B"/>
<path d="M116.046 646.833L100.735 637.33L102.358 620.19L114.487 492.499L100.96 487.808L100.58 500.863L97.112 621.266L96.635 637.731L96.498 642.444L116.046 646.833Z" fill="url(#paint70_linear_0_18)"/>
<path d="M97.113 621.265L102.359 620.189L106.396 619.367L116.827 487.885L100.58 500.862L97.113 621.265Z" fill="#1D1D1B"/>
<path d="M96.635 637.731L96.498 642.444L116.046 646.833L100.735 637.33L96.635 637.731Z" fill="#1D1D1B"/>
<path d="M142.669 413.143L163.031 434.541L187.349 400.343L197.382 398.655L204.289 403.66L192.451 407.854C192.451 407.854 176.078 498.319 132.221 430.793L142.669 413.143Z" fill="url(#paint71_linear_0_18)"/>
<path d="M153.255 424.268L145.667 447.631L126.863 435.838L142.669 413.143L153.255 424.268Z" fill="url(#paint72_linear_0_18)"/>
<path d="M127.911 407.428L116.044 409.565C106.129 411.35 98.9 419.955 98.85 430.029L94.954 507.225C107.995 513.671 123.715 510.866 133.721 500.307L145.487 487.892L145.773 423.416C146.441 413.544 137.65 405.675 127.911 407.428Z" fill="url(#paint73_linear_0_18)"/>
<path d="M130.019 437.817L117.769 478.894L145.488 487.892L158.958 448.239L130.019 437.817Z" fill="url(#paint74_linear_0_18)"/>
<path d="M120.445 402.226C120.445 402.226 120.896 409.923 122.049 410.738C123.202 411.553 129.184 417.943 126.124 405.207C123.064 392.471 120.445 402.226 120.445 402.226Z" fill="url(#paint75_linear_0_18)"/>
<path d="M127.039 407.532C131.173 407.532 134.524 404.181 134.524 400.047C134.524 395.913 131.173 392.562 127.039 392.562C122.905 392.562 119.554 395.913 119.554 400.047C119.554 404.181 122.905 407.532 127.039 407.532Z" fill="url(#paint76_linear_0_18)"/>
<path d="M127.009 471.945L128.742 476.363L134.499 463.545L103.281 463.024L110.213 441.544L103.507 416.986C96.828 424.543 91.728 433.275 89.588 439.9C71.442 496.069 105.767 477.427 119.503 469.348C122.272 467.719 125.836 468.955 127.009 471.945Z" fill="url(#paint77_linear_0_18)"/>
<path d="M88.916 437.584L107.116 450.708L112.49 434.806C112.777 433.554 113.179 432.334 113.543 431.102C115.19 425.524 109.536 415.849 103.508 416.985C96.829 424.542 92.089 431.387 88.916 437.584Z" fill="url(#paint78_linear_0_18)"/>
<path d="M141.537 385.419C141.537 391.622 138.855 397.481 134.44 401.176C134.512 400.489 134.524 400.085 134.494 399.417L129.116 399.529C129.116 399.529 128.201 401.58 127.044 401.459C125.873 401.339 125.677 403.487 125.677 403.487C125.677 403.487 123.917 398.34 123.184 402.12C122.804 404.084 124.114 405.245 124.114 405.245C124.114 405.245 123.214 406.495 121.397 406.495C110.268 406.495 101.256 396.532 101.256 385.418C101.256 374.289 110.267 365.277 121.396 365.277C132.511 365.278 141.537 374.29 141.537 385.419Z" fill="#1D1D1B"/>
<path opacity="0.4" d="M166.86 484.003L272.615 422.942L272.613 331.357L166.86 392.413V484.003Z" fill="url(#paint79_linear_0_18)"/>
<g opacity="0.4">
<path d="M261.548 364.321V422.075L247.165 430.381L247.163 372.247L261.548 364.321Z" fill="url(#paint80_linear_0_18)"/>
<path d="M239.971 398.098V434.986L225.587 442.838V406.404L239.971 398.098Z" fill="url(#paint81_linear_0_18)"/>
<path d="M218.739 396.788V447.07L204.355 454.923V405.094L218.739 396.788Z" fill="url(#paint82_linear_0_18)"/>
<path d="M196.725 392.999V459.354L182.434 467.753L182.34 401.305L196.725 392.999Z" fill="url(#paint83_linear_0_18)"/>
</g>
<path opacity="0.4" d="M272.615 316.091L272.613 331.357L166.86 392.413V377.149L272.615 316.091Z" fill="url(#paint84_linear_0_18)"/>
<path d="M838.332 585.358L840.884 588.716L843.793 589.479L846.71 590.242L844.649 583.967L841.282 582.084C841.282 582.084 844.487 576.292 846.888 568.939C847.982 565.598 848.906 561.934 849.28 558.347C849.407 557.177 849.475 556.015 849.467 554.87C849.459 552.682 849.179 550.562 848.551 548.637C848.551 548.637 847.813 549.095 846.804 550.095C845.871 551.028 844.693 552.436 843.658 554.395C843.183 555.286 842.742 556.295 842.369 557.423C841.555 559.806 841.046 562.732 841.156 566.26C841.555 579.032 839.697 577.412 839.697 577.412L838.332 585.358Z" fill="url(#paint85_linear_0_18)"/>
<path opacity="0.5" d="M877.106 761.771C904.15 761.771 926.074 755.957 926.074 748.786C926.074 741.615 904.15 735.801 877.106 735.801C850.062 735.801 828.138 741.615 828.138 748.786C828.138 755.957 850.062 761.771 877.106 761.771Z" fill="url(#paint86_linear_0_18)"/>
<path d="M855.879 749.878L870.754 740.645L869.177 723.993L857.392 599.934L870.536 595.376L870.905 608.059L874.273 725.038L874.738 741.035L874.87 745.614L855.879 749.878Z" fill="url(#paint87_linear_0_18)"/>
<path d="M874.273 725.037L869.177 723.992L865.253 723.193L855.119 595.45L870.905 608.058L874.273 725.037Z" fill="#1D1D1B"/>
<path d="M874.738 741.035L874.87 745.614L855.879 749.878L870.754 740.645L874.738 741.035Z" fill="#1D1D1B"/>
<path d="M875.63 753.403L890.505 744.17L888.928 727.518L877.144 603.458L890.287 598.9L890.656 611.584L894.025 728.563L894.489 744.56L894.622 749.139L875.63 753.403Z" fill="url(#paint88_linear_0_18)"/>
<path d="M894.024 728.562L888.928 727.517L885.004 726.718L874.87 598.975L890.656 611.583L894.024 728.562Z" fill="#1D1D1B"/>
<path d="M894.489 744.56L894.622 749.139L875.63 753.403L890.505 744.17L894.489 744.56Z" fill="#1D1D1B"/>
<path d="M841.974 551.517L846.851 559.866L865.12 548.409L849.764 526.359L841.974 551.517Z" fill="url(#paint89_linear_0_18)"/>
<path d="M864.101 520.807L875.63 522.883C885.263 524.617 892.287 532.977 892.335 542.765L896.12 617.766V617.766C883.45 624.028 868.177 621.303 858.455 611.045L847.024 598.983L846.746 536.341C846.099 526.748 854.64 519.104 864.101 520.807Z" fill="url(#paint90_linear_0_18)"/>
<path d="M833.939 560.459L839.697 577.411L841.283 582.084L844.65 583.967L846.71 590.242L843.793 589.479L847.024 598.986L855.191 596.331L855.929 596.094L873.958 590.242L871.032 580.447L869.447 575.13L862.051 550.333L849.467 554.87L846.829 555.812L844.895 556.516L842.368 557.423L833.939 560.459Z" fill="url(#paint91_linear_0_18)"/>
<path d="M871.355 515.753C871.355 515.753 870.916 523.231 869.797 524.023C868.678 524.815 862.865 531.024 865.838 518.649C868.811 506.274 871.355 515.753 871.355 515.753Z" fill="url(#paint92_linear_0_18)"/>
<path d="M864.949 520.908C868.966 520.908 872.222 517.652 872.222 513.635C872.222 509.618 868.966 506.362 864.949 506.362C860.932 506.362 857.676 509.618 857.676 513.635C857.676 517.652 860.932 520.908 864.949 520.908Z" fill="url(#paint93_linear_0_18)"/>
<path d="M858.275 510.745C858.275 510.745 847.387 509.787 852 498C856.613 486.213 873.955 511.569 873.955 511.569L871.239 517.284C871.239 517.284 871.621 512.509 869.649 513.612C867.677 514.715 868.17 518.401 868.17 518.401L866.865 513.626L858.275 510.745Z" fill="#1D1D1B"/>
<path d="M864.978 583.489L863.294 587.781L857.701 575.328L888.031 574.822L881.296 553.953L887.811 530.093C894.3 537.435 899.255 545.919 901.335 552.355C918.965 606.926 885.616 588.815 872.271 580.966C869.58 579.383 866.118 580.584 864.978 583.489Z" fill="url(#paint94_linear_0_18)"/>
<path d="M901.988 550.105L884.305 562.856L879.084 547.406C878.805 546.19 878.414 545.004 878.061 543.808C876.461 538.389 881.954 528.989 887.811 530.092V530.092C894.3 537.434 898.905 544.085 901.988 550.105Z" fill="url(#paint95_linear_0_18)"/>
<path opacity="0.5" d="M906.363 833.685C934.201 833.685 956.769 827.701 956.769 820.319C956.769 812.937 934.201 806.953 906.363 806.953C878.525 806.953 855.957 812.937 855.957 820.319C855.957 827.701 878.525 833.685 906.363 833.685Z" fill="url(#paint96_linear_0_18)"/>
<path d="M894.763 704.083L896.062 820.319H884.611L899.398 826.062L904.279 687.233L894.763 704.083Z" fill="url(#paint97_linear_0_18)"/>
<path d="M905.224 700.804L905.981 754.541L923.688 812.9L916.02 825.456L927.651 816.228L912.487 752.428L917.095 707.855L905.224 700.804Z" fill="url(#paint98_linear_0_18)"/>
<path d="M876.761 700.804L874.261 710.841C873.578 713.582 874.186 716.484 875.911 718.72L879.288 717.606L880.694 712.083L876.761 700.804Z" fill="url(#paint99_linear_0_18)"/>
<path d="M897.442 595.003L891.51 611.228C892.597 617.057 892.876 652.738 891.347 658.467L885.052 682.049C885.052 682.049 887.794 722.921 892.626 722.977C892.747 722.978 892.867 722.98 892.987 722.98C918.91 723.173 937.087 696.943 927.681 672.786C925.572 667.368 923.163 662.643 920.437 659.295C911.867 648.771 916.708 634.717 921.429 625.8C927.244 614.818 921.835 600.892 909.848 597.614C909.372 597.484 908.889 597.368 908.401 597.267L897.442 595.003Z" fill="url(#paint100_linear_0_18)"/>
<path d="M883.414 616.349L888.528 653.668L874.378 710.475L894.542 657.711L894.608 613.253L891.509 611.228C887.732 608.758 882.802 611.878 883.414 616.349Z" fill="url(#paint101_linear_0_18)"/>
<path d="M883.875 619.71L894.583 630.75L894.609 613.252L897.442 595.003L888.759 600.521C884.548 603.197 882.282 608.082 882.96 613.026L883.875 619.71Z" fill="url(#paint102_linear_0_18)"/>
<path d="M899.116 591.19C903.118 591.19 906.362 587.946 906.362 583.944C906.362 579.942 903.118 576.698 899.116 576.698C895.114 576.698 891.87 579.942 891.87 583.944C891.87 587.946 895.114 591.19 899.116 591.19Z" fill="url(#paint103_linear_0_18)"/>
<path d="M892.798 579.002C895.9 582.033 897.855 586.134 897.331 590.439C897.071 592.574 896.372 594.796 894.901 596.774C890.054 603.292 887.125 614.461 894.394 616.332C901.663 618.203 905.703 611.54 909.948 616.543C914.194 621.545 925.095 614.193 918.204 602.008C911.314 589.823 910.368 570.979 897.944 573.89C891.112 575.491 891.271 577.509 892.798 579.002Z" fill="#1D1D1B"/>
<path d="M884.611 820.319H896.062L899.517 822.678L899.398 826.062L884.611 820.319Z" fill="#1D1D1B"/>
<path d="M926.925 813.173L923.688 812.9L916.02 825.456L927.651 816.228L926.925 813.173Z" fill="#1D1D1B"/>
<path opacity="0.5" d="M196.279 984.862C225.447 984.862 249.092 978.592 249.092 970.857C249.092 963.122 225.447 956.852 196.279 956.852C167.111 956.852 143.466 963.122 143.466 970.857C143.466 978.592 167.111 984.862 196.279 984.862Z" fill="url(#paint104_linear_0_18)"/>
<path d="M246.549 754.145L223.24 749.843L215.684 784.927L238.147 791.25L246.549 754.145Z" fill="url(#paint105_linear_0_18)"/>
<path d="M173.253 754.624L171.811 783.934L181.093 818.622L184.304 822.102L176.438 785.643L179.676 753.631L173.253 754.624Z" fill="url(#paint106_linear_0_18)"/>
<path d="M177.122 822.665L181.273 893.708L177.122 972.398L190.12 969.221L180.47 966.06L189.211 892.038L191.652 822.665H177.122Z" fill="url(#paint107_linear_0_18)"/>
<path d="M177.339 968.293L180.47 966.06L190.12 969.221L177.122 972.398L177.339 968.293Z" fill="#1D1D1B"/>
<path d="M186.496 829.747L195.803 900.79L191.652 979.48L204.65 976.304L195 973.142L203.741 899.12L200.579 829.747H186.496Z" fill="url(#paint108_linear_0_18)"/>
<path d="M191.869 975.375L195 973.142L204.65 976.304L191.652 979.48L191.869 975.375Z" fill="#1D1D1B"/>
<path d="M168.216 831.43C169.932 839.8 173.273 838.997 172.658 847.519L172.6 855.753V855.775L178.449 858.505C181.196 859.787 184.393 859.659 187.029 858.162L190.869 855.939C202.033 849.476 209.992 859.469 209.107 846.6L204.184 773.774C208.169 769.648 211.154 762.463 207.352 758.153L198.852 746.846C195.23 742.027 189.144 739.743 183.246 740.987L178.528 741.982C178.528 741.982 171.166 745.475 173.668 761.966C175.665 775.126 185.092 779.4 178.41 793.307C172.136 806.368 166.66 823.836 168.216 831.43Z" fill="url(#paint109_linear_0_18)"/>
<path d="M188.686 736.739C192.879 736.739 196.279 733.339 196.279 729.146C196.279 724.952 192.879 721.553 188.686 721.553C184.492 721.553 181.093 724.952 181.093 729.146C181.093 733.339 184.492 736.739 188.686 736.739Z" fill="url(#paint110_linear_0_18)"/>
<path d="M193.768 718.293C195.935 718.964 196.919 721.479 195.837 723.473C194.031 726.799 190.581 733.651 190.514 737.574C190.467 740.316 190.559 743.216 191.021 744.972C191.333 746.156 190.797 747.392 189.679 747.891C183.898 750.47 170.967 755.37 170.963 747.595C170.961 743.69 174.402 733.719 175.159 729.146C176.544 720.775 180.761 718.533 188.803 717.872C190.783 717.709 192.461 717.888 193.768 718.293Z" fill="#1D1D1B"/>
<path d="M189.394 763.213L201.053 793.307L241.843 781.017L246.549 776.192L242.82 770.76L241.21 776.258L236.503 775.314L240.007 779.219L203.995 786.964L196.694 756.943L189.394 763.213Z" fill="url(#paint111_linear_0_18)"/>
<path d="M195.865 749.44C197.748 751.183 199.638 754.285 199.627 759.719L188.26 766.084C188.26 766.084 178.99 754.997 188.832 748.898C191.044 747.527 193.955 747.674 195.865 749.44Z" fill="url(#paint112_linear_0_18)"/>
<path opacity="0.4" d="M400.794 873.707L204.42 760.326L204.424 590.263L400.794 703.637V873.707Z" fill="url(#paint113_linear_0_18)"/>
<path opacity="0.4" d="M204.42 561.917L204.424 590.263L400.794 703.637V675.293L204.42 561.917Z" fill="url(#paint114_linear_0_18)"/>
<g opacity="0.4">
<path d="M380.187 816.541C380.02 816.541 379.851 816.498 379.697 816.409L355.953 802.702C355.483 802.431 355.322 801.83 355.593 801.36C355.864 800.89 356.465 800.729 356.935 801L380.679 814.707C381.149 814.979 381.31 815.58 381.039 816.049C380.857 816.365 380.527 816.541 380.187 816.541Z" fill="url(#paint115_linear_0_18)"/>
</g>
<g opacity="0.4">
<path d="M380.187 822.437C380.02 822.437 379.851 822.394 379.697 822.305L355.953 808.598C355.483 808.327 355.322 807.726 355.593 807.256C355.864 806.786 356.465 806.625 356.935 806.896L380.679 820.603C381.149 820.875 381.31 821.476 381.039 821.946C380.857 822.261 380.527 822.437 380.187 822.437Z" fill="url(#paint116_linear_0_18)"/>
</g>
<g opacity="0.4">
<path d="M380.187 828.333C380.02 828.333 379.851 828.29 379.697 828.201L355.953 814.494C355.483 814.223 355.322 813.622 355.593 813.152C355.864 812.682 356.465 812.521 356.935 812.792L380.679 826.499C381.149 826.771 381.31 827.372 381.039 827.842C380.857 828.157 380.527 828.333 380.187 828.333Z" fill="url(#paint117_linear_0_18)"/>
</g>
<g opacity="0.4">
<path d="M380.187 834.229C380.02 834.229 379.851 834.186 379.697 834.097L355.953 820.39C355.483 820.119 355.322 819.518 355.593 819.048C355.864 818.578 356.465 818.417 356.935 818.688L380.679 832.395C381.149 832.667 381.31 833.268 381.039 833.738C380.857 834.053 380.527 834.229 380.187 834.229Z" fill="url(#paint118_linear_0_18)"/>
</g>
<g opacity="0.4">
<path d="M371.667 835.146C371.5 835.146 371.331 835.103 371.177 835.014L355.953 826.286C355.483 826.015 355.322 825.414 355.593 824.944C355.864 824.474 356.465 824.313 356.935 824.584L372.159 833.312C372.629 833.584 372.79 834.185 372.519 834.654C372.337 834.97 372.007 835.146 371.667 835.146Z" fill="url(#paint119_linear_0_18)"/>
</g>
<path opacity="0.4" d="M355.461 786.522C355.461 785.404 356.253 784.947 357.221 785.506L373.343 794.814C374.311 795.373 375.103 796.744 375.103 797.862V805.137C375.103 806.255 374.311 806.712 373.343 806.153L357.222 796.846C356.254 796.287 355.462 794.916 355.462 793.798V786.522H355.461Z" fill="url(#paint120_linear_0_18)"/>
<g opacity="0.7">
<path d="M287.721 772.18C285.374 772.18 282.8 771.673 279.956 770.509C265.626 764.646 261.537 743.032 257.582 722.129C254.387 705.243 251.083 687.783 242.496 684.305C240.152 683.355 238.169 683.494 236.252 684.739C225.421 691.773 221.828 729.07 221.358 742.847C221.313 744.176 220.202 745.218 218.868 745.172C217.538 745.127 216.497 744.012 216.543 742.682C216.725 737.356 218.749 690.361 233.628 680.698C236.844 678.609 240.536 678.312 244.305 679.838C255.33 684.303 258.724 702.241 262.317 721.232C266.033 740.87 269.875 761.176 281.782 766.048C292.359 770.377 297.572 763.156 303.607 754.797C309.655 746.419 317.183 735.993 331.258 744.391C334.475 746.312 337.28 746.904 339.833 746.205C345.581 744.632 349.953 736.6 354.181 728.832C358.806 720.336 363.174 712.311 370.05 710.526C373.342 709.672 376.846 710.4 380.465 712.692C381.589 713.403 381.924 714.892 381.212 716.016C380.5 717.141 379.012 717.475 377.888 716.763C375.405 715.192 373.237 714.674 371.26 715.19C366.405 716.45 362.341 723.915 358.412 731.135C353.702 739.788 348.831 748.737 341.104 750.852C337.273 751.9 333.13 751.119 328.788 748.528C318.982 742.677 314.533 747.893 307.512 757.617C302.723 764.252 296.999 772.18 287.721 772.18Z" fill="#E57FC8"/>
</g>
<path opacity="0.4" d="M222.465 671.185C222.465 658.602 231.381 653.452 242.279 659.742C253.177 666.032 262.093 681.474 262.093 694.059C262.093 706.643 253.177 711.793 242.279 705.502C231.381 699.21 222.465 683.768 222.465 671.185Z" fill="#E57FC8"/>
<path opacity="0.6" d="M231.192 676.222C231.192 669.181 236.181 666.3 242.278 669.819C248.376 673.338 253.364 681.979 253.364 689.02C253.364 696.061 248.375 698.943 242.278 695.423C236.181 691.903 231.192 683.263 231.192 676.222Z" fill="#E57FC8"/>
<path d="M236.865 679.496C236.865 676.058 239.301 674.651 242.279 676.369C245.257 678.088 247.693 682.307 247.693 685.746C247.693 689.185 245.257 690.592 242.279 688.873C239.301 687.154 236.865 682.935 236.865 679.496Z" fill="url(#paint121_linear_0_18)"/>
<path opacity="0.5" d="M1189.03 719.038C1189.03 719.038 1176.71 791.38 1128.25 785.524L974.307 695.231C955.573 685.045 958.38 666.943 976.516 655.727L995.439 644.024L1189.03 719.038Z" fill="url(#paint122_linear_0_18)"/>
<path d="M1031.94 583.914L1031.94 564.95L982.665 593.398L999.227 602.96L1031.94 583.914Z" fill="url(#paint123_linear_0_18)"/>
<path d="M982.665 628.905V593.398L1146.91 688.225V745.118L1001.19 660.988C989.727 654.371 982.665 642.141 982.665 628.905Z" fill="url(#paint124_linear_0_18)"/>
<path d="M1178.24 727.03L1146.91 745.119V688.226L1196.18 659.777V695.957C1196.18 708.775 1189.34 720.62 1178.24 727.03Z" fill="url(#paint125_linear_0_18)"/>
<path d="M1196.18 659.776L1031.94 564.95L1031.94 583.914L1179.76 669.258L1196.18 659.776Z" fill="url(#paint126_linear_0_18)"/>
<path d="M999.227 602.96L1031.94 583.914L1179.76 669.258L1146.91 688.225L999.227 602.96Z" fill="url(#paint127_linear_0_18)"/>
<path d="M1031.94 610.955C1031.94 610.955 1045.16 573.92 1072.78 585.408C1100.39 596.896 1065.57 625.383 1103.19 606.088C1140.81 586.793 1131.97 667.833 1131.97 667.833L1031.94 610.955Z" fill="url(#paint128_linear_0_18)"/>
<path d="M1019.81 604.06C1019.81 604.06 1021.25 555.361 1043.47 557.819C1065.7 560.276 1035.22 636.126 1066.25 603.723C1097.27 571.32 1088.52 640.788 1119.51 632.27C1150.5 623.752 1170.85 574.947 1172.77 627.562C1174.7 680.177 1147.08 676.422 1147.08 676.422L1019.81 604.06Z" fill="url(#paint129_linear_0_18)"/>
<path opacity="0.5" d="M52.505 823.554C68.8896 823.554 82.172 816.109 82.172 806.926C82.172 797.743 68.8896 790.298 52.505 790.298C36.1204 790.298 22.838 797.743 22.838 806.926C22.838 816.109 36.1204 823.554 52.505 823.554Z" fill="url(#paint130_linear_0_18)"/>
<path d="M13.596 716.649L14.72 718.631C21.723 730.976 24.096 745.412 21.413 759.349L16.363 785.586C14.611 794.686 18.834 803.894 26.873 808.505L26.952 808.55C33.656 812.395 41.899 812.383 48.591 808.519C56.597 803.897 60.794 794.709 59.047 785.631L54.025 759.54C51.32 745.487 53.756 730.931 60.889 718.524L61.967 716.649H13.596V716.649Z" fill="url(#paint131_linear_0_18)"/>
<path d="M61.969 716.652C61.969 718.932 58.258 720.955 52.499 722.246C48.422 723.16 43.32 723.702 37.782 723.702C32.244 723.702 27.137 723.16 23.06 722.246C17.306 720.956 13.595 718.932 13.595 716.652C13.595 712.756 24.42 709.597 37.782 709.597C51.139 709.597 61.969 712.755 61.969 716.652Z" fill="url(#paint132_linear_0_18)"/>
<path d="M52.505 722.18C52.505 722.2 52.505 722.225 52.5 722.245C48.423 723.159 43.321 723.701 37.783 723.701C32.245 723.701 27.138 723.159 23.061 722.245C23.056 722.225 23.056 722.2 23.056 722.18C23.056 719.805 29.649 717.887 37.783 717.887C45.912 717.887 52.505 719.805 52.505 722.18Z" fill="url(#paint133_linear_0_18)"/>
<path d="M43.208 721.481C43.208 721.481 56.697 545.677 32.962 541.929C9.227 538.181 35.827 721.39 35.827 721.39L43.208 721.481Z" fill="url(#paint134_linear_0_18)"/>
<path d="M28.973 721.481C28.973 721.481 -16.297 589.23 6.338 582.656C28.973 576.083 39.092 721.481 39.092 721.481H28.973Z" fill="url(#paint135_linear_0_18)"/>
<path d="M43.208 721.481C43.208 721.481 72.523 635.842 57.865 631.585C43.208 627.328 36.655 721.481 36.655 721.481H43.208Z" fill="url(#paint136_linear_0_18)"/>
<defs>
<linearGradient id="paint0_linear_0_18" x1="1233.2" y1="251.609" x2="956.837" y2="251.609" gradientUnits="userSpaceOnUse">
<stop stop-color="#F6F6F6"/>
<stop offset="1" stop-color="#C9D6FF"/>
</linearGradient>
<linearGradient id="paint1_linear_0_18" x1="1140.66" y1="349.592" x2="1146.46" y2="277.876" gradientUnits="userSpaceOnUse">
<stop stop-color="#3494E6"/>
<stop offset="1" stop-color="#DB61A4"/>
</linearGradient>
<linearGradient id="paint2_linear_0_18" x1="1109.81" y1="446.385" x2="1075.75" y2="251.761" gradientUnits="userSpaceOnUse">
<stop stop-color="#3494E6"/>
<stop offset="1" stop-color="#DB61A4"/>
</linearGradient>
<linearGradient id="paint3_linear_0_18" x1="1076.33" y1="450.546" x2="1044.82" y2="255.314" gradientUnits="userSpaceOnUse">
<stop stop-color="#3494E6"/>
<stop offset="1" stop-color="#DB61A4"/>
</linearGradient>
<linearGradient id="paint4_linear_0_18" x1="1147.29" y1="424.288" x2="1217.66" y2="390.814" gradientUnits="userSpaceOnUse">
<stop stop-color="#3494E6"/>
<stop offset="1" stop-color="#DB61A4"/>
</linearGradient>
<linearGradient id="paint5_linear_0_18" x1="1182.78" y1="415.974" x2="1264.95" y2="330.779" gradientUnits="userSpaceOnUse">
<stop stop-color="#3494E6"/>
<stop offset="1" stop-color="#DB61A4"/>
</linearGradient>
<linearGradient id="paint6_linear_0_18" x1="1202.49" y1="425.455" x2="1280.25" y2="377.701" gradientUnits="userSpaceOnUse">
<stop stop-color="#3494E6"/>
<stop offset="1" stop-color="#DB61A4"/>
</linearGradient>
<linearGradient id="paint7_linear_0_18" x1="1221.21" y1="444.106" x2="1271.86" y2="430.889" gradientUnits="userSpaceOnUse">
<stop stop-color="#3494E6"/>
<stop offset="1" stop-color="#DB61A4"/>
</linearGradient>
<linearGradient id="paint8_linear_0_18" x1="1121.94" y1="370.498" x2="1170.72" y2="362.431" gradientUnits="userSpaceOnUse">
<stop stop-color="#3494E6"/>
<stop offset="1" stop-color="#DB61A4"/>
</linearGradient>
<linearGradient id="paint9_linear_0_18" x1="348.419" y1="331.923" x2="363.779" y2="314.484" gradientUnits="userSpaceOnUse">
<stop stop-color="#F6F6F6"/>
<stop offset="1" stop-color="#C9D6FF"/>
</linearGradient>
<linearGradient id="paint10_linear_0_18" x1="260.305" y1="215.172" x2="219.354" y2="370.722" gradientUnits="userSpaceOnUse">
<stop stop-color="#F6F6F6"/>
<stop offset="1" stop-color="#C9D6FF"/>
</linearGradient>
<linearGradient id="paint11_linear_0_18" x1="443.393" y1="228.961" x2="432.58" y2="220.236" gradientUnits="userSpaceOnUse">
<stop stop-color="#F6F6F6"/>
<stop offset="1" stop-color="#C9D6FF"/>
</linearGradient>
<linearGradient id="paint12_linear_0_18" x1="261.825" y1="214.741" x2="344.049" y2="289.576" gradientUnits="userSpaceOnUse">
<stop stop-color="#F6F6F6"/>
<stop offset="1" stop-color="#C9D6FF"/>
</linearGradient>
<linearGradient id="paint13_linear_0_18" x1="361.445" y1="170.931" x2="401.424" y2="213.567" gradientUnits="userSpaceOnUse">
<stop stop-color="#F6F6F6"/>
<stop offset="1" stop-color="#C9D6FF"/>
</linearGradient>
<linearGradient id="paint14_linear_0_18" x1="415.749" y1="119.892" x2="455.905" y2="168.608" gradientUnits="userSpaceOnUse">
<stop stop-color="#F6F6F6"/>
<stop offset="1" stop-color="#C9D6FF"/>
</linearGradient>
<linearGradient id="paint15_linear_0_18" x1="411.576" y1="109.758" x2="385.357" y2="146.418" gradientUnits="userSpaceOnUse">
<stop stop-color="#F6F6F6"/>
<stop offset="1" stop-color="#C9D6FF"/>
</linearGradient>
<linearGradient id="paint16_linear_0_18" x1="427.543" y1="56.8786" x2="431.079" y2="110.857" gradientUnits="userSpaceOnUse">
<stop stop-color="#F6F6F6"/>
<stop offset="1" stop-color="#C9D6FF"/>
</linearGradient>
<linearGradient id="paint17_linear_0_18" x1="498.155" y1="57.427" x2="534.505" y2="82.0091" gradientUnits="userSpaceOnUse">
<stop stop-color="#F6F6F6"/>
<stop offset="1" stop-color="#C9D6FF"/>
</linearGradient>
<linearGradient id="paint18_linear_0_18" x1="540.711" y1="67.5843" x2="580.93" y2="83.9802" gradientUnits="userSpaceOnUse">
<stop stop-color="#F6F6F6"/>
<stop offset="1" stop-color="#C9D6FF"/>
</linearGradient>
<linearGradient id="paint19_linear_0_18" x1="530.472" y1="15.2712" x2="553.218" y2="72.486" gradientUnits="userSpaceOnUse">
<stop stop-color="#F6F6F6"/>
<stop offset="1" stop-color="#C9D6FF"/>
</linearGradient>
<linearGradient id="paint20_linear_0_18" x1="578.066" y1="13.392" x2="591.042" y2="68.7826" gradientUnits="userSpaceOnUse">
<stop stop-color="#F6F6F6"/>
<stop offset="1" stop-color="#C9D6FF"/>
</linearGradient>
<linearGradient id="paint21_linear_0_18" x1="389.474" y1="50.7646" x2="345.888" y2="92.7222" gradientUnits="userSpaceOnUse">
<stop stop-color="#F6F6F6"/>
<stop offset="1" stop-color="#C9D6FF"/>
</linearGradient>
<linearGradient id="paint22_linear_0_18" x1="455.107" y1="364.691" x2="456.521" y2="409.497" gradientUnits="userSpaceOnUse">
<stop stop-color="#F6F6F6"/>
<stop offset="1" stop-color="#C9D6FF"/>
</linearGradient>
<linearGradient id="paint23_linear_0_18" x1="292.624" y1="137.724" x2="370.433" y2="504.212" gradientUnits="userSpaceOnUse">
<stop stop-color="#F6F6F6"/>
<stop offset="1" stop-color="#C9D6FF"/>
</linearGradient>
<linearGradient id="paint24_linear_0_18" x1="560.596" y1="174.909" x2="327.232" y2="166.405" gradientUnits="userSpaceOnUse">
<stop stop-color="#F6F6F6"/>
<stop offset="1" stop-color="#C9D6FF"/>
</linearGradient>
<linearGradient id="paint25_linear_0_18" x1="79.0581" y1="204.717" x2="137.712" y2="588.656" gradientUnits="userSpaceOnUse">
<stop stop-color="#F6F6F6"/>
<stop offset="1" stop-color="#C9D6FF"/>
</linearGradient>
<linearGradient id="paint26_linear_0_18" x1="359.115" y1="249.892" x2="430.515" y2="387.922" gradientUnits="userSpaceOnUse">
<stop stop-color="#F6F6F6"/>
<stop offset="1" stop-color="#C9D6FF"/>
</linearGradient>
<linearGradient id="paint27_linear_0_18" x1="300.055" y1="367.166" x2="628.991" y2="550.425" gradientUnits="userSpaceOnUse">
<stop stop-color="#F6F6F6"/>
<stop offset="1" stop-color="#C9D6FF"/>
</linearGradient>
<linearGradient id="paint28_linear_0_18" x1="721.618" y1="336.939" x2="663.8" y2="171.218" gradientUnits="userSpaceOnUse">
<stop stop-color="#F6F6F6"/>
<stop offset="1" stop-color="#C9D6FF"/>
</linearGradient>
<linearGradient id="paint29_linear_0_18" x1="672.601" y1="298.792" x2="715.744" y2="344.234" gradientUnits="userSpaceOnUse">
<stop stop-color="#F6F6F6"/>
<stop offset="1" stop-color="#C9D6FF"/>
</linearGradient>
<linearGradient id="paint30_linear_0_18" x1="707.129" y1="355.102" x2="754.845" y2="408.391" gradientUnits="userSpaceOnUse">
<stop stop-color="#F6F6F6"/>
<stop offset="1" stop-color="#C9D6FF"/>
</linearGradient>
<linearGradient id="paint31_linear_0_18" x1="622.815" y1="127.415" x2="588.107" y2="406.175" gradientUnits="userSpaceOnUse">
<stop stop-color="#F6F6F6"/>
<stop offset="1" stop-color="#C9D6FF"/>
</linearGradient>
<linearGradient id="paint32_linear_0_18" x1="426.827" y1="149.25" x2="475.683" y2="260.979" gradientUnits="userSpaceOnUse">
<stop stop-color="#F6F6F6"/>
<stop offset="1" stop-color="#C9D6FF"/>
</linearGradient>
<linearGradient id="paint33_linear_0_18" x1="390.833" y1="-65.3213" x2="366.897" y2="155.543" gradientUnits="userSpaceOnUse">
<stop stop-color="#F6F6F6"/>
<stop offset="1" stop-color="#C9D6FF"/>
</linearGradient>
<linearGradient id="paint34_linear_0_18" x1="578.396" y1="51.0111" x2="581.083" y2="88.2543" gradientUnits="userSpaceOnUse">
<stop stop-color="#F6F6F6"/>
<stop offset="1" stop-color="#C9D6FF"/>
</linearGradient>
<linearGradient id="paint35_linear_0_18" x1="600.96" y1="348.824" x2="790.003" y2="129.655" gradientUnits="userSpaceOnUse">
<stop stop-color="#F6F6F6"/>
<stop offset="1" stop-color="#C9D6FF"/>
</linearGradient>
<linearGradient id="paint36_linear_0_18" x1="510.281" y1="3.68473" x2="427.48" y2="285.487" gradientUnits="userSpaceOnUse">
<stop stop-color="#F6F6F6"/>
<stop offset="1" stop-color="#C9D6FF"/>
</linearGradient>
<linearGradient id="paint37_linear_0_18" x1="576.165" y1="249.909" x2="650.135" y2="351.602" gradientUnits="userSpaceOnUse">
<stop stop-color="#F6F6F6"/>
<stop offset="1" stop-color="#C9D6FF"/>
</linearGradient>
<linearGradient id="paint38_linear_0_18" x1="634.306" y1="139.764" x2="696.93" y2="274.738" gradientUnits="userSpaceOnUse">
<stop stop-color="#F6F6F6"/>
<stop offset="1" stop-color="#C9D6FF"/>
</linearGradient>
<linearGradient id="paint39_linear_0_18" x1="565.474" y1="84.52" x2="573.976" y2="145.283" gradientUnits="userSpaceOnUse">
<stop stop-color="#F6F6F6"/>
<stop offset="1" stop-color="#C9D6FF"/>
</linearGradient>
<linearGradient id="paint40_linear_0_18" x1="649.883" y1="48.0235" x2="657.87" y2="126.181" gradientUnits="userSpaceOnUse">
<stop stop-color="#F6F6F6"/>
<stop offset="1" stop-color="#C9D6FF"/>
</linearGradient>
<linearGradient id="paint41_linear_0_18" x1="733.883" y1="6.90544" x2="685.572" y2="153.657" gradientUnits="userSpaceOnUse">
<stop stop-color="#F6F6F6"/>
<stop offset="1" stop-color="#C9D6FF"/>
</linearGradient>
<linearGradient id="paint42_linear_0_18" x1="741.799" y1="55.6784" x2="562.229" y2="288.279" gradientUnits="userSpaceOnUse">
<stop stop-color="#F6F6F6"/>
<stop offset="1" stop-color="#C9D6FF"/>
</linearGradient>
<linearGradient id="paint43_linear_0_18" x1="581.669" y1="171.458" x2="909.392" y2="373.338" gradientUnits="userSpaceOnUse">
<stop stop-color="#F6F6F6"/>
<stop offset="1" stop-color="#C9D6FF"/>
</linearGradient>
<linearGradient id="paint44_linear_0_18" x1="783.596" y1="135.284" x2="869.757" y2="200.583" gradientUnits="userSpaceOnUse">
<stop stop-color="#F6F6F6"/>
<stop offset="1" stop-color="#C9D6FF"/>
</linearGradient>
<linearGradient id="paint45_linear_0_18" x1="378.524" y1="209.356" x2="391.847" y2="329.098" gradientUnits="userSpaceOnUse">
<stop stop-color="#F6F6F6"/>
<stop offset="1" stop-color="#C9D6FF"/>
</linearGradient>
<linearGradient id="paint46_linear_0_18" x1="441.155" y1="22.954" x2="442.497" y2="70.482" gradientUnits="userSpaceOnUse">
<stop stop-color="#F6F6F6"/>
<stop offset="1" stop-color="#C9D6FF"/>
</linearGradient>
<linearGradient id="paint47_linear_0_18" x1="394.615" y1="46.111" x2="419.448" y2="132.76" gradientUnits="userSpaceOnUse">
<stop stop-color="#3494E6"/>
<stop offset="1" stop-color="#DB61A4"/>
</linearGradient>
<linearGradient id="paint48_linear_0_18" x1="129.238" y1="80.4611" x2="239.797" y2="626.511" gradientUnits="userSpaceOnUse">
<stop stop-color="#3494E6"/>
<stop offset="1" stop-color="#DB61A4"/>
</linearGradient>
<linearGradient id="paint49_linear_0_18" x1="284.281" y1="239.926" x2="284.281" y2="579.862" gradientUnits="userSpaceOnUse">
<stop stop-color="#F6F6F6"/>
<stop offset="1" stop-color="#C9D6FF"/>
</linearGradient>
<linearGradient id="paint50_linear_0_18" x1="750.811" y1="594.279" x2="458.471" y2="594.279" gradientUnits="userSpaceOnUse">
<stop stop-color="#F6F6F6"/>
<stop offset="1" stop-color="#C9D6FF"/>
</linearGradient>
<linearGradient id="paint51_linear_0_18" x1="437.86" y1="594.689" x2="476.758" y2="742.081" gradientUnits="userSpaceOnUse">
<stop stop-color="#F6F6F6"/>
<stop offset="1" stop-color="#C9D6FF"/>
</linearGradient>
<linearGradient id="paint52_linear_0_18" x1="740.804" y1="571.679" x2="468.476" y2="571.679" gradientUnits="userSpaceOnUse">
<stop stop-color="#3494E6"/>
<stop offset="1" stop-color="#DB61A4"/>
</linearGradient>
<linearGradient id="paint53_linear_0_18" x1="449.276" y1="572.06" x2="485.511" y2="709.363" gradientUnits="userSpaceOnUse">
<stop stop-color="#3494E6"/>
<stop offset="1" stop-color="#DB61A4"/>
</linearGradient>
<linearGradient id="paint54_linear_0_18" x1="750.811" y1="545.42" x2="458.471" y2="545.42" gradientUnits="userSpaceOnUse">
<stop stop-color="#F6F6F6"/>
<stop offset="1" stop-color="#C9D6FF"/>
</linearGradient>
<linearGradient id="paint55_linear_0_18" x1="437.86" y1="545.831" x2="476.758" y2="693.223" gradientUnits="userSpaceOnUse">
<stop stop-color="#F6F6F6"/>
<stop offset="1" stop-color="#C9D6FF"/>
</linearGradient>
<linearGradient id="paint56_linear_0_18" x1="617.822" y1="518.354" x2="595.405" y2="592.491" gradientUnits="userSpaceOnUse">
<stop stop-color="#F6F6F6"/>
<stop offset="1" stop-color="#C9D6FF"/>
</linearGradient>
<linearGradient id="paint57_linear_0_18" x1="410.451" y1="493.04" x2="413" y2="687.848" gradientUnits="userSpaceOnUse">
<stop stop-color="#3494E6"/>
<stop offset="1" stop-color="#DB61A4"/>
</linearGradient>
<linearGradient id="paint58_linear_0_18" x1="494.938" y1="654.276" x2="496.006" y2="667.952" gradientUnits="userSpaceOnUse">
<stop stop-color="#3494E6"/>
<stop offset="1" stop-color="#DB61A4"/>
</linearGradient>
<linearGradient id="paint59_linear_0_18" x1="503.613" y1="649.654" x2="497.452" y2="648.815" gradientUnits="userSpaceOnUse">
<stop stop-color="#3494E6"/>
<stop offset="1" stop-color="#DB61A4"/>
</linearGradient>
<linearGradient id="paint60_linear_0_18" x1="503.622" y1="634.095" x2="503.622" y2="642.01" gradientUnits="userSpaceOnUse">
<stop stop-color="#3494E6"/>
<stop offset="1" stop-color="#DB61A4"/>
</linearGradient>
<linearGradient id="paint61_linear_0_18" x1="700.17" y1="737.109" x2="699.102" y2="750.785" gradientUnits="userSpaceOnUse">
<stop stop-color="#3494E6"/>
<stop offset="1" stop-color="#DB61A4"/>
</linearGradient>
<linearGradient id="paint62_linear_0_18" x1="712.577" y1="749.999" x2="718.738" y2="749.16" gradientUnits="userSpaceOnUse">
<stop stop-color="#3494E6"/>
<stop offset="1" stop-color="#DB61A4"/>
</linearGradient>
<linearGradient id="paint63_linear_0_18" x1="703.531" y1="728.89" x2="703.531" y2="736.805" gradientUnits="userSpaceOnUse">
<stop stop-color="#3494E6"/>
<stop offset="1" stop-color="#DB61A4"/>
</linearGradient>
<linearGradient id="paint64_linear_0_18" x1="681.053" y1="747.595" x2="679.985" y2="761.271" gradientUnits="userSpaceOnUse">
<stop stop-color="#3494E6"/>
<stop offset="1" stop-color="#DB61A4"/>
</linearGradient>
<linearGradient id="paint65_linear_0_18" x1="693.46" y1="760.48" x2="699.622" y2="759.641" gradientUnits="userSpaceOnUse">
<stop stop-color="#3494E6"/>
<stop offset="1" stop-color="#DB61A4"/>
</linearGradient>
<linearGradient id="paint66_linear_0_18" x1="684.414" y1="728.89" x2="684.414" y2="736.805" gradientUnits="userSpaceOnUse">
<stop stop-color="#3494E6"/>
<stop offset="1" stop-color="#DB61A4"/>
</linearGradient>
<linearGradient id="paint67_linear_0_18" x1="925.895" y1="900.737" x2="925.895" y2="297.2" gradientUnits="userSpaceOnUse">
<stop stop-color="#DB61A4"/>
<stop offset="1" stop-color="#DB61A4" stop-opacity="0.01"/>
</linearGradient>
<linearGradient id="paint68_linear_0_18" x1="17.509" y1="557.164" x2="17.509" y2="615.078" gradientUnits="userSpaceOnUse">
<stop stop-color="#F6F6F6"/>
<stop offset="1" stop-color="#C9D6FF"/>
</linearGradient>
<linearGradient id="paint69_linear_0_18" x1="131.619" y1="627.734" x2="106.07" y2="614.682" gradientUnits="userSpaceOnUse">
<stop stop-color="#FAD6C7"/>
<stop offset="1" stop-color="#E4857F"/>
</linearGradient>
<linearGradient id="paint70_linear_0_18" x1="111.29" y1="631.363" x2="85.7393" y2="618.309" gradientUnits="userSpaceOnUse">
<stop stop-color="#FAD6C7"/>
<stop offset="1" stop-color="#E4857F"/>
</linearGradient>
<linearGradient id="paint71_linear_0_18" x1="44.3292" y1="405.432" x2="46.831" y2="601.691" gradientUnits="userSpaceOnUse">
<stop stop-color="#FAD6C7"/>
<stop offset="1" stop-color="#E4857F"/>
</linearGradient>
<linearGradient id="paint72_linear_0_18" x1="93.8589" y1="417.6" x2="98.0101" y2="537.62" gradientUnits="userSpaceOnUse">
<stop stop-color="#3494E6"/>
<stop offset="1" stop-color="#DB61A4"/>
</linearGradient>
<linearGradient id="paint73_linear_0_18" x1="143.512" y1="494.604" x2="134.782" y2="404.285" gradientUnits="userSpaceOnUse">
<stop stop-color="#F6F6F6"/>
<stop offset="1" stop-color="#C9D6FF"/>
</linearGradient>
<linearGradient id="paint74_linear_0_18" x1="130.546" y1="405.253" x2="96.7512" y2="460.244" gradientUnits="userSpaceOnUse">
<stop stop-color="#3494E6"/>
<stop offset="1" stop-color="#DB61A4"/>
</linearGradient>
<linearGradient id="paint75_linear_0_18" x1="125.093" y1="411.85" x2="125.237" y2="405.798" gradientUnits="userSpaceOnUse">
<stop stop-color="#FAD6C7"/>
<stop offset="1" stop-color="#E4857F"/>
</linearGradient>
<linearGradient id="paint76_linear_0_18" x1="131.798" y1="402.73" x2="131.027" y2="393.738" gradientUnits="userSpaceOnUse">
<stop stop-color="#FAD6C7"/>
<stop offset="1" stop-color="#E4857F"/>
</linearGradient>
<linearGradient id="paint77_linear_0_18" x1="21.8204" y1="424.607" x2="28.4581" y2="639.11" gradientUnits="userSpaceOnUse">
<stop stop-color="#FAD6C7"/>
<stop offset="1" stop-color="#E4857F"/>
</linearGradient>
<linearGradient id="paint78_linear_0_18" x1="57.7599" y1="421.333" x2="62.1486" y2="538.975" gradientUnits="userSpaceOnUse">
<stop stop-color="#3494E6"/>
<stop offset="1" stop-color="#DB61A4"/>
</linearGradient>
<linearGradient id="paint79_linear_0_18" x1="160.008" y1="469.796" x2="275.418" y2="492.397" gradientUnits="userSpaceOnUse">
<stop stop-color="#3494E6"/>
<stop offset="1" stop-color="#DB61A4"/>
</linearGradient>
<linearGradient id="paint80_linear_0_18" x1="289.727" y1="395.352" x2="301.526" y2="394.895" gradientUnits="userSpaceOnUse">
<stop stop-color="#3494E6"/>
<stop offset="1" stop-color="#DB61A4"/>
</linearGradient>
<linearGradient id="paint81_linear_0_18" x1="293.095" y1="390.39" x2="305.254" y2="389.362" gradientUnits="userSpaceOnUse">
<stop stop-color="#3494E6"/>
<stop offset="1" stop-color="#DB61A4"/>
</linearGradient>
<linearGradient id="paint82_linear_0_18" x1="286.875" y1="388.544" x2="298.767" y2="387.948" gradientUnits="userSpaceOnUse">
<stop stop-color="#3494E6"/>
<stop offset="1" stop-color="#DB61A4"/>
</linearGradient>
<linearGradient id="paint83_linear_0_18" x1="279.871" y1="386.913" x2="291.597" y2="386.558" gradientUnits="userSpaceOnUse">
<stop stop-color="#3494E6"/>
<stop offset="1" stop-color="#DB61A4"/>
</linearGradient>
<linearGradient id="paint84_linear_0_18" x1="204.574" y1="309.341" x2="205.389" y2="324.478" gradientUnits="userSpaceOnUse">
<stop stop-color="#3494E6"/>
<stop offset="1" stop-color="#DB61A4"/>
</linearGradient>
<linearGradient id="paint85_linear_0_18" x1="847.373" y1="572.118" x2="849.267" y2="546.226" gradientUnits="userSpaceOnUse">
<stop stop-color="#FAD6C7"/>
<stop offset="1" stop-color="#E4857F"/>
</linearGradient>
<linearGradient id="paint86_linear_0_18" x1="771.012" y1="665.193" x2="771.012" y2="721.459" gradientUnits="userSpaceOnUse">
<stop stop-color="#F6F6F6"/>
<stop offset="1" stop-color="#C9D6FF"/>
</linearGradient>
<linearGradient id="paint87_linear_0_18" x1="867.6" y1="748.764" x2="892.421" y2="736.085" gradientUnits="userSpaceOnUse">
<stop stop-color="#FAD6C7"/>
<stop offset="1" stop-color="#E4857F"/>
</linearGradient>
<linearGradient id="paint88_linear_0_18" x1="887.351" y1="752.289" x2="912.174" y2="739.608" gradientUnits="userSpaceOnUse">
<stop stop-color="#FAD6C7"/>
<stop offset="1" stop-color="#E4857F"/>
</linearGradient>
<linearGradient id="paint89_linear_0_18" x1="813.626" y1="527.444" x2="808.678" y2="643.998" gradientUnits="userSpaceOnUse">
<stop stop-color="#3494E6"/>
<stop offset="1" stop-color="#DB61A4"/>
</linearGradient>
<linearGradient id="paint90_linear_0_18" x1="892.357" y1="609.682" x2="900.838" y2="521.931" gradientUnits="userSpaceOnUse">
<stop stop-color="#F6F6F6"/>
<stop offset="1" stop-color="#C9D6FF"/>
</linearGradient>
<linearGradient id="paint91_linear_0_18" x1="813.318" y1="548.331" x2="846.153" y2="601.759" gradientUnits="userSpaceOnUse">
<stop stop-color="#3494E6"/>
<stop offset="1" stop-color="#DB61A4"/>
</linearGradient>
<linearGradient id="paint92_linear_0_18" x1="869.492" y1="525.02" x2="869.352" y2="519.14" gradientUnits="userSpaceOnUse">
<stop stop-color="#FAD6C7"/>
<stop offset="1" stop-color="#E4857F"/>
</linearGradient>
<linearGradient id="paint93_linear_0_18" x1="869.062" y1="516.991" x2="869.81" y2="508.255" gradientUnits="userSpaceOnUse">
<stop stop-color="#FAD6C7"/>
<stop offset="1" stop-color="#E4857F"/>
</linearGradient>
<linearGradient id="paint94_linear_0_18" x1="798.493" y1="532.259" x2="792.044" y2="740.661" gradientUnits="userSpaceOnUse">
<stop stop-color="#FAD6C7"/>
<stop offset="1" stop-color="#E4857F"/>
</linearGradient>
<linearGradient id="paint95_linear_0_18" x1="847.966" y1="531.153" x2="843.702" y2="645.45" gradientUnits="userSpaceOnUse">
<stop stop-color="#3494E6"/>
<stop offset="1" stop-color="#DB61A4"/>
</linearGradient>
<linearGradient id="paint96_linear_0_18" x1="797.151" y1="734.27" x2="797.151" y2="792.189" gradientUnits="userSpaceOnUse">
<stop stop-color="#F6F6F6"/>
<stop offset="1" stop-color="#C9D6FF"/>
</linearGradient>
<linearGradient id="paint97_linear_0_18" x1="901.648" y1="771.481" x2="946.896" y2="747.263" gradientUnits="userSpaceOnUse">
<stop stop-color="#FAD6C7"/>
<stop offset="1" stop-color="#E4857F"/>
</linearGradient>
<linearGradient id="paint98_linear_0_18" x1="926.091" y1="766.932" x2="980.906" y2="719.616" gradientUnits="userSpaceOnUse">
<stop stop-color="#FAD6C7"/>
<stop offset="1" stop-color="#E4857F"/>
</linearGradient>
<linearGradient id="paint99_linear_0_18" x1="883.217" y1="707.476" x2="867.478" y2="699.797" gradientUnits="userSpaceOnUse">
<stop stop-color="#FAD6C7"/>
<stop offset="1" stop-color="#E4857F"/>
</linearGradient>
<linearGradient id="paint100_linear_0_18" x1="924.586" y1="712.196" x2="948.754" y2="617.168" gradientUnits="userSpaceOnUse">
<stop stop-color="#F6F6F6"/>
<stop offset="1" stop-color="#C9D6FF"/>
</linearGradient>
<linearGradient id="paint101_linear_0_18" x1="890.817" y1="689.562" x2="914.328" y2="686.542" gradientUnits="userSpaceOnUse">
<stop stop-color="#FAD6C7"/>
<stop offset="1" stop-color="#E4857F"/>
</linearGradient>
<linearGradient id="paint102_linear_0_18" x1="907.347" y1="710.948" x2="925.834" y2="613.486" gradientUnits="userSpaceOnUse">
<stop stop-color="#F6F6F6"/>
<stop offset="1" stop-color="#C9D6FF"/>
</linearGradient>
<linearGradient id="paint103_linear_0_18" x1="916.823" y1="597.183" x2="922.479" y2="558.736" gradientUnits="userSpaceOnUse">
<stop stop-color="#FAD6C7"/>
<stop offset="1" stop-color="#E4857F"/>
</linearGradient>
<linearGradient id="paint104_linear_0_18" x1="81.858" y1="880.699" x2="81.858" y2="941.384" gradientUnits="userSpaceOnUse">
<stop stop-color="#F6F6F6"/>
<stop offset="1" stop-color="#C9D6FF"/>
</linearGradient>
<linearGradient id="paint105_linear_0_18" x1="227.414" y1="711.99" x2="192.961" y2="759.284" gradientUnits="userSpaceOnUse">
<stop stop-color="#3494E6"/>
<stop offset="1" stop-color="#DB61A4"/>
</linearGradient>
<linearGradient id="paint106_linear_0_18" x1="182.903" y1="794.036" x2="208.325" y2="771.227" gradientUnits="userSpaceOnUse">
<stop stop-color="#FAD6C7"/>
<stop offset="1" stop-color="#E4857F"/>
</linearGradient>
<linearGradient id="paint107_linear_0_18" x1="187.269" y1="947.615" x2="210.831" y2="943.103" gradientUnits="userSpaceOnUse">
<stop stop-color="#FAD6C7"/>
<stop offset="1" stop-color="#E4857F"/>
</linearGradient>
<linearGradient id="paint108_linear_0_18" x1="200.694" y1="887.257" x2="240.327" y2="852.889" gradientUnits="userSpaceOnUse">
<stop stop-color="#FAD6C7"/>
<stop offset="1" stop-color="#E4857F"/>
</linearGradient>
<linearGradient id="paint109_linear_0_18" x1="209.723" y1="864.033" x2="224.721" y2="741.798" gradientUnits="userSpaceOnUse">
<stop stop-color="#F6F6F6"/>
<stop offset="1" stop-color="#C9D6FF"/>
</linearGradient>
<linearGradient id="paint110_linear_0_18" x1="210.451" y1="737.245" x2="204.525" y2="696.962" gradientUnits="userSpaceOnUse">
<stop stop-color="#FAD6C7"/>
<stop offset="1" stop-color="#E4857F"/>
</linearGradient>
<linearGradient id="paint111_linear_0_18" x1="245.437" y1="780.766" x2="241.999" y2="750.26" gradientUnits="userSpaceOnUse">
<stop stop-color="#FAD6C7"/>
<stop offset="1" stop-color="#E4857F"/>
</linearGradient>
<linearGradient id="paint112_linear_0_18" x1="198.46" y1="764.386" x2="198.839" y2="748.785" gradientUnits="userSpaceOnUse">
<stop stop-color="#F6F6F6"/>
<stop offset="1" stop-color="#C9D6FF"/>
</linearGradient>
<linearGradient id="paint113_linear_0_18" x1="355.272" y1="549.907" x2="140.971" y2="591.875" gradientUnits="userSpaceOnUse">
<stop stop-color="#3494E6"/>
<stop offset="1" stop-color="#DB61A4"/>
</linearGradient>
<linearGradient id="paint114_linear_0_18" x1="291.92" y1="547.29" x2="290.406" y2="575.398" gradientUnits="userSpaceOnUse">
<stop stop-color="#3494E6"/>
<stop offset="1" stop-color="#DB61A4"/>
</linearGradient>
<linearGradient id="paint115_linear_0_18" x1="361.37" y1="803.111" x2="360.531" y2="813.056" gradientUnits="userSpaceOnUse">
<stop stop-color="#3494E6"/>
<stop offset="1" stop-color="#DB61A4"/>
</linearGradient>
<linearGradient id="paint116_linear_0_18" x1="361.37" y1="809.007" x2="360.531" y2="818.952" gradientUnits="userSpaceOnUse">
<stop stop-color="#3494E6"/>
<stop offset="1" stop-color="#DB61A4"/>
</linearGradient>
<linearGradient id="paint117_linear_0_18" x1="361.37" y1="814.903" x2="360.531" y2="824.848" gradientUnits="userSpaceOnUse">
<stop stop-color="#3494E6"/>
<stop offset="1" stop-color="#DB61A4"/>
</linearGradient>
<linearGradient id="paint118_linear_0_18" x1="361.37" y1="820.799" x2="360.531" y2="830.744" gradientUnits="userSpaceOnUse">
<stop stop-color="#3494E6"/>
<stop offset="1" stop-color="#DB61A4"/>
</linearGradient>
<linearGradient id="paint119_linear_0_18" x1="359.271" y1="825.844" x2="358.655" y2="832.86" gradientUnits="userSpaceOnUse">
<stop stop-color="#3494E6"/>
<stop offset="1" stop-color="#DB61A4"/>
</linearGradient>
<linearGradient id="paint120_linear_0_18" x1="335.606" y1="762.419" x2="304.492" y2="838.873" gradientUnits="userSpaceOnUse">
<stop stop-color="#3494E6"/>
<stop offset="1" stop-color="#DB61A4"/>
</linearGradient>
<linearGradient id="paint121_linear_0_18" x1="237.788" y1="671.295" x2="231.085" y2="687.401" gradientUnits="userSpaceOnUse">
<stop stop-color="#F6F6F6"/>
<stop offset="1" stop-color="#C9D6FF"/>
</linearGradient>
<linearGradient id="paint122_linear_0_18" x1="1089.52" y1="809.476" x2="1090.5" y2="779.82" gradientUnits="userSpaceOnUse">
<stop stop-color="#F6F6F6"/>
<stop offset="1" stop-color="#C9D6FF"/>
</linearGradient>
<linearGradient id="paint123_linear_0_18" x1="977.676" y1="560.002" x2="977.676" y2="605.709" gradientUnits="userSpaceOnUse">
<stop stop-color="#F6F6F6"/>
<stop offset="1" stop-color="#C9D6FF"/>
</linearGradient>
<linearGradient id="paint124_linear_0_18" x1="1052.71" y1="613.776" x2="1029.38" y2="673.744" gradientUnits="userSpaceOnUse">
<stop stop-color="#F6F6F6"/>
<stop offset="1" stop-color="#C9D6FF"/>
</linearGradient>
<linearGradient id="paint125_linear_0_18" x1="1156.65" y1="690.762" x2="1159.23" y2="741.556" gradientUnits="userSpaceOnUse">
<stop stop-color="#F6F6F6"/>
<stop offset="1" stop-color="#C9D6FF"/>
</linearGradient>
<linearGradient id="paint126_linear_0_18" x1="1065.01" y1="652.188" x2="1113.68" y2="740.37" gradientUnits="userSpaceOnUse">
<stop stop-color="#F6F6F6"/>
<stop offset="1" stop-color="#C9D6FF"/>
</linearGradient>
<linearGradient id="paint127_linear_0_18" x1="906.084" y1="545.686" x2="876.113" y2="792.062" gradientUnits="userSpaceOnUse">
<stop stop-color="#3494E6"/>
<stop offset="1" stop-color="#EC6EAD"/>
</linearGradient>
<linearGradient id="paint128_linear_0_18" x1="1141.38" y1="551.739" x2="1130.28" y2="569.779" gradientUnits="userSpaceOnUse">
<stop stop-color="#3494E6"/>
<stop offset="1" stop-color="#EC6EAD"/>
</linearGradient>
<linearGradient id="paint129_linear_0_18" x1="1047.1" y1="469.541" x2="961.698" y2="671.163" gradientUnits="userSpaceOnUse">
<stop stop-color="#3494E6"/>
<stop offset="1" stop-color="#EC6EAD"/>
</linearGradient>
<linearGradient id="paint130_linear_0_18" x1="61.3908" y1="830.755" x2="61.1844" y2="823.089" gradientUnits="userSpaceOnUse">
<stop stop-color="#F6F6F6"/>
<stop offset="1" stop-color="#C9D6FF"/>
</linearGradient>
<linearGradient id="paint131_linear_0_18" x1="17.2974" y1="694.007" x2="-60.3485" y2="747.098" gradientUnits="userSpaceOnUse">
<stop stop-color="#F6F6F6"/>
<stop offset="1" stop-color="#C9D6FF"/>
</linearGradient>
<linearGradient id="paint132_linear_0_18" x1="13.5962" y1="723.701" x2="61.9694" y2="723.701" gradientUnits="userSpaceOnUse">
<stop stop-color="#F6F6F6"/>
<stop offset="1" stop-color="#C9D6FF"/>
</linearGradient>
<linearGradient id="paint133_linear_0_18" x1="-18.0939" y1="708.319" x2="-18.1433" y2="730.691" gradientUnits="userSpaceOnUse">
<stop stop-color="#3494E6"/>
<stop offset="1" stop-color="#EC6EAD"/>
</linearGradient>
<linearGradient id="paint134_linear_0_18" x1="34.9288" y1="492.162" x2="-0.381573" y2="498.073" gradientUnits="userSpaceOnUse">
<stop stop-color="#3494E6"/>
<stop offset="1" stop-color="#EC6EAD"/>
</linearGradient>
<linearGradient id="paint135_linear_0_18" x1="1.39148" y1="617.899" x2="47.9844" y2="711.817" gradientUnits="userSpaceOnUse">
<stop stop-color="#3494E6"/>
<stop offset="1" stop-color="#EC6EAD"/>
</linearGradient>
<linearGradient id="paint136_linear_0_18" x1="32.492" y1="701.296" x2="71.0094" y2="710.503" gradientUnits="userSpaceOnUse">
<stop stop-color="#3494E6"/>
<stop offset="1" stop-color="#EC6EAD"/>
</linearGradient>
</defs>
</svg>
