<svg width="420" height="280" viewBox="0 0 420 280" fill="none" xmlns="http://www.w3.org/2000/svg">
<g clip-path="url(#clip0_2578_35383)">
<path d="M0 -4.7782H420V275.222H0V-4.7782Z" fill="#F0ECFF"/>
<path d="M61.7358 273.324H358.175C379.835 254.796 401.024 210.045 384.708 166.469C373.505 136.537 335.288 104.618 286.831 115.462C247.146 124.342 253.705 65.6187 225.865 46.6407C184.081 18.1462 134.983 33.7325 110.903 62.2161C85.494 92.2692 119.411 122.729 70.324 148.567C22.819 173.582 13.9556 240.208 61.7358 273.324Z" fill="#E6DEFF"/>
<path d="M365.169 274.75C365.169 273.96 364.504 273.324 363.679 273.324H55.4064C54.5808 273.324 53.9158 273.96 53.9158 274.75C53.9158 275.541 54.5808 276.177 55.4064 276.177H363.679C364.504 276.177 365.169 275.541 365.169 274.75Z" fill="#5566B0"/>
<path d="M66.4539 241.184V273.919L159.357 274.261V239.18L66.4539 241.184Z" fill="#C8D9F4"/>
<path fill-rule="evenodd" clip-rule="evenodd" d="M152.313 274.261C152.313 274.261 152.956 257.939 146.138 256.549C134.358 254.146 91.8095 256.174 79.4827 259.511C73.6524 261.094 74.878 273.919 74.878 273.919H66.4539V241.184L159.357 239.18V274.261H152.313ZM120.532 273.919H116.582L118.748 267.131L120.532 273.919Z" fill="#A5BFEC"/>
<path d="M120.794 273.862L119.093 264.204C119.069 264.01 118.879 263.885 118.688 263.919C118.486 263.953 118.355 264.124 118.391 264.317L120.092 273.976C120.128 274.158 120.307 274.295 120.497 274.261C120.699 274.227 120.83 274.056 120.794 273.862Z" fill="#546ABB"/>
<path d="M98.0678 125.576L96.7947 156.841H125.756L124.673 137.478C112.322 139.722 105.373 134.984 100.114 125.576H98.0678Z" fill="#FABA97"/>
<path d="M97.7466 133.435C102.09 138.822 111.311 147.513 125.184 146.704L124.673 137.478C112.322 139.722 105.373 134.984 100.114 125.576H98.0678L97.7466 133.435Z" fill="#E98A7B"/>
<path d="M97.3542 145.064C97.3542 145.064 111.228 155.042 117.617 154.62C125.137 154.142 125.101 146.431 125.101 146.431C125.101 146.431 148.184 151.921 153.658 155.805C159.143 159.7 164.462 179.952 164.462 179.952L162.796 241.184C162.796 251.595 72.8314 253.417 64.3716 246.412C56.6138 239.977 64.3716 199.827 64.3716 199.827C64.3716 199.827 51.8425 180.555 57.0541 164.928C61.9443 150.258 97.3542 145.076 97.3542 145.076V145.064Z" fill="url(#paint0_linear_2578_35383)"/>
<path fill-rule="evenodd" clip-rule="evenodd" d="M97.3897 145.098C97.4849 145.167 97.7348 145.338 98.1037 145.6V148.96H103.315C103.688 149.187 104.069 149.415 104.457 149.643H98.1037V165.065H114.214V154.153C114.46 154.222 114.698 154.283 114.928 154.336V165.065H131.039V149.643H124.471C124.558 149.408 124.633 149.18 124.697 148.96H131.039V147.935C131.277 147.995 131.515 148.056 131.753 148.117V148.96H134.846C135.631 149.176 136.441 149.404 137.262 149.643H131.753V165.065H147.863V153.06C148.109 153.151 148.347 153.242 148.577 153.333V165.065H159.44C159.535 165.293 159.631 165.521 159.726 165.748H148.577V181.171H164.426L164.414 181.854H148.577V197.276H163.986L163.974 197.959H148.577V213.381H163.557L163.533 214.065H148.577V229.487H163.117L163.105 230.17H148.577V245.592H156.359C155.589 245.828 154.76 246.055 153.872 246.276H148.577V247.381C148.339 247.426 148.101 247.468 147.863 247.506V246.276H131.753V249.442C131.523 249.465 131.285 249.484 131.039 249.499V246.276H114.928V250.388C114.69 250.395 114.452 250.403 114.214 250.41V246.276H98.1037V250.57H97.9014C97.8141 250.57 97.7269 250.566 97.6396 250.558H97.3897V246.276H81.2792V249.864C81.0412 249.848 80.8033 249.829 80.5653 249.807V246.276H64.4548V246.481C64.431 246.458 64.4032 246.435 64.3715 246.412C64.0938 246.177 63.836 245.904 63.5981 245.592H63.7409V230.17H60.9328C60.9328 229.942 60.9368 229.715 60.9447 229.487H63.7409V214.065H62.1703C62.202 213.837 62.2297 213.609 62.2535 213.381H63.7409V203.335C64.1216 201.149 64.3715 199.839 64.3715 199.839C64.3715 199.839 64.1335 199.474 63.7409 198.814V197.959H63.253C63.134 197.747 63.0071 197.519 62.8723 197.276H63.7409V181.854H56.8397C56.7842 181.626 56.7327 181.398 56.6851 181.171H63.7409V165.748H56.804C56.8675 165.521 56.9389 165.293 57.0182 165.065H63.7409V156.773C63.9788 156.606 64.2168 156.439 64.4548 156.272V165.065H80.5653V149.643H78.6139C79.5103 149.339 80.3987 149.055 81.2792 148.789V148.96H97.3897V145.098ZM131.753 230.17V245.592H147.863V230.17H131.753ZM114.928 230.17V245.592H131.039V230.17H114.928ZM98.1037 230.17V245.592H114.214V230.17H98.1037ZM81.2792 230.17V245.592H97.3897V230.17H81.2792ZM64.4548 230.17V245.592H80.5653V230.17H64.4548ZM98.1037 214.065V229.487H114.214V214.065H98.1037ZM64.4548 214.065V229.487H80.5653V214.065H64.4548ZM81.2792 214.065V229.487H97.3897V214.065H81.2792ZM114.928 214.065V229.487H131.039V214.065H114.928ZM131.753 214.065V229.487H147.863V214.065H131.753ZM114.928 197.959V213.381H131.039V197.959H114.928ZM98.1037 197.959V213.381H114.214V197.959H98.1037ZM81.2792 197.959V213.381H97.3897V197.959H81.2792ZM64.4548 197.959V213.381H80.5653V197.959H64.4548ZM131.753 197.959V213.381H147.863V197.959H131.753ZM64.4548 181.854V197.276H80.5653V181.854H64.4548ZM81.2792 181.854V197.276H97.3897V181.854H81.2792ZM98.1037 181.854V197.276H114.214V181.854H98.1037ZM114.928 181.854V197.276H131.039V181.854H114.928ZM131.753 181.854V197.276H147.863V181.854H131.753ZM114.928 165.748V181.171H131.039V165.748H114.928ZM64.4548 165.748V181.171H80.5653V165.748H64.4548ZM81.2792 165.748V181.171H97.3897V165.748H81.2792ZM98.1037 165.748V181.171H114.214V165.748H98.1037ZM131.753 165.748V181.171H147.863V165.748H131.753ZM81.2792 149.643V165.065H97.3897V149.643H81.2792Z" fill="url(#paint1_linear_2578_35383)"/>
<path d="M124.542 149.438C125.102 147.809 125.102 146.431 125.102 146.431C125.102 146.431 148.185 151.921 153.658 155.805C157.584 158.595 161.44 169.803 163.296 175.92C160.238 169.53 154.848 159.769 149.398 157.092C143.711 154.313 125.435 149.016 125.435 149.016C125.133 149.168 124.836 149.309 124.542 149.438ZM56.6021 166.455C56.7369 165.938 56.8876 165.429 57.0542 164.928C61.9445 150.258 97.3543 145.076 97.3543 145.076C97.3543 145.076 99.4842 146.602 102.459 148.436C101.638 148.276 100.793 148.128 99.9244 148.014C99.9244 148.014 74.5212 149.028 59.184 162.992L56.6021 166.455Z" fill="#F7A4A4"/>
<path d="M64.3715 199.839C64.3715 199.839 83.0997 166.751 83.9564 167.582C94.082 177.355 105.588 191.467 105.588 191.467L138.785 178.391L140.415 180.225C141.831 179.576 142.711 179.177 142.711 179.177C142.711 179.177 145.591 171.523 148.803 171.033C152.016 170.532 151.92 179.177 151.92 179.177C151.92 179.177 157.941 176.911 159.44 178.448C163.224 182.321 162.819 246.412 162.819 246.412L151.54 246.811C151.54 246.811 151.409 213.541 149.993 214.463C138.368 222.049 109.895 239.294 94.32 237.209C86.8001 236.207 79.1375 232.015 69.6663 223.826C68.9167 223.165 66.4299 230.808 66.8226 239.225C66.9654 242.209 67.7388 245.239 68.4646 248.075C66.5251 247.586 65.1211 247.039 64.3715 246.412C56.6137 239.977 64.3715 199.839 64.3715 199.839Z" fill="url(#paint2_linear_2578_35383)"/>
<path fill-rule="evenodd" clip-rule="evenodd" d="M148.577 181.17H160.428C160.476 181.383 160.519 181.611 160.559 181.854H148.577V197.276H161.975C161.983 197.496 161.995 197.724 162.01 197.959H148.577V213.381H162.534L162.546 213.882L162.558 214.065H148.577V215.375C148.347 215.526 148.109 215.682 147.863 215.842V214.065H131.753V225.341C131.515 225.47 131.277 225.599 131.039 225.728V214.065H114.928V229.487H123.602C123.118 229.715 122.63 229.942 122.139 230.17H114.928V233.234C114.69 233.325 114.452 233.416 114.214 233.507V230.17H98.1037V237.357C97.8657 237.372 97.6278 237.38 97.3898 237.38V230.17H81.2793V232.391C81.0492 232.255 80.8113 232.114 80.5653 231.97V230.17H77.793C77.4678 229.942 77.1426 229.715 76.8173 229.487H80.5653V214.065H64.4548V229.487H67.5246C67.485 229.707 67.4453 229.935 67.4056 230.17H64.4548V245.592H67.834C67.8895 245.82 67.945 246.048 68.0006 246.276H64.4548V246.481V246.469C64.4548 246.469 63.6338 245.649 63.5981 245.592H63.7409V230.17H60.9329V229.999V229.988C60.9329 229.821 60.9368 229.654 60.9448 229.487H63.7409V214.065H62.1703L62.2179 213.734V213.689L62.2536 213.381H63.7409V203.335L64.4548 199.668V213.381H80.5653V197.959H65.4305L65.5971 197.663L65.8231 197.276H80.5653V181.854H74.747L74.9612 181.489L75.1515 181.17H80.5653V172.206C80.8192 171.812 81.0572 171.44 81.2793 171.09V181.17H96.7949C97.247 181.679 97.6833 182.177 98.1037 182.662V197.276H114.214V188.073L114.928 187.788V197.276H131.039V181.854H130.015L131.753 181.159V181.17H147.863V171.364C148.101 171.235 148.339 171.14 148.577 171.079V181.17ZM151.54 245.592H156.359C155.589 245.828 154.76 246.055 153.872 246.276H151.54V245.979V245.592ZM151.278 229.487H162.784L162.796 230.102V230.17H151.302C151.294 229.95 151.286 229.722 151.278 229.487ZM81.2912 214.076V229.487H97.4017V214.076H81.2912ZM98.1156 214.076V229.487H114.226V214.076H98.1156ZM114.94 197.971V213.393H131.039V197.971H114.94ZM98.1275 197.971V213.393H114.226V197.971H98.1275ZM81.315 197.971V213.393H97.4136V197.971H81.315ZM131.788 197.971V213.393H147.899V197.971H131.788ZM81.315 181.865V197.287H97.4255V181.865H81.315ZM131.788 181.865V197.287H147.899V181.865H131.788Z" fill="url(#paint3_linear_2578_35383)"/>
<path d="M95.4979 146.249C95.4979 146.249 99.6861 150.474 105.385 153.732C109.336 155.987 114.012 157.741 118.557 157.491C129.004 156.933 128.528 146.522 128.528 146.522C128.48 145.588 127.636 144.859 126.66 144.905C125.672 144.95 124.911 145.748 124.958 146.693C124.958 146.693 125.351 153.709 118.355 154.085C114.5 154.29 110.561 152.707 107.218 150.793C101.947 147.798 98.0917 143.891 98.0917 143.891C97.4135 143.208 96.2832 143.185 95.5693 143.834C94.8553 144.483 94.8197 145.565 95.4979 146.249Z" fill="#A11218"/>
<path d="M142.664 101.11C142.664 101.11 144.532 117.079 138.535 121.612L136.619 104.083L142.664 101.11Z" fill="#72341D"/>
<path d="M101.292 120.496C99.9359 118.628 95.4621 112.489 91.2619 117.364C86.5025 122.865 94.3317 129.175 99.2696 126.51C99.2696 126.51 101.661 134.916 109.36 138.549C119.973 143.538 133.168 139.779 136.619 133.97C142.318 124.346 139.629 107.204 137.261 104.949L101.292 106.088V120.496Z" fill="#FABA97"/>
<path d="M112.858 139.859C110.109 136.852 105.766 131.362 107.42 128.309C109.728 124.061 109.36 113.013 108.551 111.179C108.551 111.179 114.678 112.261 117.415 110.609C121.817 107.944 127.517 110.541 131.11 110.518C134.001 110.496 136.893 109.801 138.975 109.152C138.475 107.044 137.856 105.518 137.262 104.949L101.292 106.088V120.496C99.936 118.628 95.4622 112.489 91.2621 117.364C86.5027 122.865 94.3319 129.175 99.2578 126.51C99.2578 126.51 101.661 134.916 109.36 138.549C110.502 139.084 111.668 139.517 112.858 139.859Z" fill="#E98A7B"/>
<path d="M98.1632 123.082C98.2465 122.375 97.8182 121.544 97.1162 120.952C96.0691 120.063 94.4628 119.687 93.273 120.883C93.154 120.997 93.1659 121.179 93.2849 121.293C93.4038 121.396 93.5823 121.396 93.7013 121.282C94.6413 120.337 95.9025 120.678 96.7235 121.373C97.2708 121.84 97.6397 122.466 97.5802 123.013C97.5564 123.173 97.6754 123.309 97.842 123.332C97.9967 123.344 98.1513 123.241 98.1632 123.082Z" fill="#FABA97"/>
<path d="M117.177 118.651C117.831 118.651 118.367 119.551 118.367 120.667C118.367 121.783 117.831 122.683 117.177 122.683C116.522 122.683 115.987 121.783 115.987 120.667C115.987 119.551 116.522 118.651 117.177 118.651Z" fill="#642910"/>
<path d="M131.277 118.651C131.931 118.651 132.466 119.551 132.466 120.667C132.466 121.783 131.931 122.683 131.277 122.683C130.622 122.683 130.087 121.783 130.087 120.667C130.087 119.551 130.622 118.651 131.277 118.651Z" fill="#642910"/>
<path d="M113.131 116.76C113.131 116.76 113.869 116.168 115.071 115.735C115.476 115.575 115.94 115.461 116.451 115.37C116.677 115.336 116.903 115.291 117.153 115.268C117.486 115.222 117.843 115.2 118.224 115.211C118.807 115.222 119.414 115.279 120.092 115.473C120.354 115.587 120.651 115.473 120.77 115.222C120.877 114.972 120.77 114.687 120.509 114.573C119.616 114.072 118.771 113.799 117.974 113.673C117.582 113.605 117.213 113.594 116.856 113.605C116.594 113.62 116.344 113.654 116.106 113.707C115.44 113.844 114.857 114.083 114.369 114.357C113.013 115.131 112.346 116.122 112.346 116.122C112.168 116.327 112.192 116.635 112.406 116.817C112.62 116.988 112.941 116.965 113.131 116.76Z" fill="#A25216"/>
<path d="M136.108 116.122C136.108 116.122 135.441 115.131 134.085 114.357C133.597 114.083 133.014 113.844 132.36 113.708C132.114 113.654 131.864 113.624 131.61 113.616C131.241 113.594 130.872 113.605 130.48 113.673C129.682 113.799 128.838 114.072 127.945 114.573C127.695 114.687 127.576 114.972 127.683 115.222C127.802 115.473 128.1 115.587 128.362 115.473C129.04 115.279 129.659 115.222 130.23 115.211C130.61 115.2 130.967 115.222 131.312 115.268C131.55 115.291 131.777 115.336 132.003 115.37C132.514 115.462 132.978 115.575 133.383 115.735C134.585 116.168 135.334 116.76 135.334 116.76C135.513 116.965 135.834 116.988 136.048 116.817C136.262 116.635 136.286 116.327 136.108 116.122Z" fill="#A25216"/>
<path d="M124.518 122.546C124.518 122.546 125.732 127 126.755 129.198C126.482 129.448 126.006 129.562 125.113 129.517C124.792 129.494 124.506 129.745 124.495 130.052C124.483 130.371 124.733 130.633 125.054 130.656C126.886 130.736 127.588 130.189 127.969 129.54C128.064 129.38 128.064 129.175 127.981 129.016C126.969 127.022 125.661 122.261 125.661 122.261C125.577 121.954 125.256 121.772 124.935 121.851C124.614 121.931 124.435 122.239 124.518 122.546Z" fill="#E98A7B"/>
<path d="M117.962 134.825C117.962 134.825 118.593 135.838 120.021 136.248C120.925 136.51 122.162 136.544 123.781 135.861C124.019 135.77 124.126 135.497 124.019 135.269C123.923 135.041 123.638 134.927 123.4 135.03C122.067 135.588 121.044 135.599 120.294 135.383C119.247 135.075 118.771 134.358 118.771 134.358C118.64 134.141 118.343 134.073 118.117 134.198C117.903 134.335 117.831 134.608 117.962 134.825Z" fill="#DF3C4F"/>
<path d="M101.09 120.348C101.09 120.348 101.959 126.544 104.077 125.143C106.207 123.731 106.254 108.958 106.254 108.958C106.254 108.958 112.893 110.826 115.82 108.958C118.759 107.079 124.054 107.865 127.588 108.958C131.122 110.051 137.94 108.423 140.01 106.805C142.069 105.199 145.817 102.682 145.15 99.117C144.484 95.5291 141.378 94.4015 140.891 91.7249C140.236 88.2168 142.675 83.6152 136.333 81.0638C131.146 78.9909 124.59 84.0594 117.332 85.0276C111.18 85.8363 99.4006 80.0843 93.0825 91.7249C87.2046 93.8548 83.7898 102.83 90.2269 119.084C91.8807 115.052 96.4379 113.434 101.09 120.348Z" fill="#9F5631"/>
<path d="M145.138 99.0144C145.146 99.0524 145.15 99.0865 145.15 99.1169C145.816 102.682 142.068 105.199 140.01 106.805C137.94 108.423 131.122 110.051 127.588 108.958C124.054 107.864 118.759 107.079 115.82 108.958C112.893 110.826 106.254 108.958 106.254 108.958C106.254 108.958 106.206 123.731 104.076 125.143C101.959 126.544 101.09 120.348 101.09 120.348C96.4377 113.434 91.8806 115.052 90.2267 119.084C89.1677 116.396 88.3705 113.913 87.8113 111.612C91.0953 110.974 96.2116 110.678 100.566 113.582C100.566 113.582 103.624 110.12 102.934 104.447C102.934 104.447 111.216 108.274 114.559 105.074C116.951 102.784 125.744 104.117 128.302 105.074C133.371 106.976 141.319 103.821 145.138 99.0144Z" fill="#8A4023"/>
<path d="M326.304 73.7857C326.304 72.0658 324.841 70.6648 323.044 70.6648H220.705C218.897 70.6648 217.433 72.0658 217.433 73.7857V223.564C217.433 225.284 218.897 226.685 220.705 226.685H323.044C324.841 226.685 326.304 225.284 326.304 223.564V73.7857Z" fill="url(#paint4_linear_2578_35383)"/>
<path d="M314.775 205.659H228.975V211.024H314.775V205.659ZM314.775 192.401H228.975V197.754H314.775V192.401ZM314.775 179.143H228.975V184.496H314.775V179.143ZM314.775 165.885H228.975V171.238H314.775V165.885ZM314.775 152.627H228.975V157.98H314.775V152.627ZM314.775 139.369H228.975V144.723H314.775V139.369ZM314.775 126.111H228.975V131.465H314.775V126.111ZM314.775 112.853H228.975V118.207H314.775V112.853ZM314.775 99.5954H228.975V104.949H314.775V99.5954ZM314.775 86.3374H228.975V91.6907H314.775V86.3374Z" fill="url(#paint5_linear_2578_35383)"/>
<path d="M326.304 129.597H267.657C264.528 129.597 261.993 131.966 261.993 134.87V226.685H323.044C324.841 226.685 326.304 225.284 326.304 223.564V129.597Z" fill="#327EEE"/>
<path d="M368.116 161.66L338.667 133.458H273.047C270.084 133.458 267.681 135.759 267.681 138.595C267.681 160.612 267.681 246.971 267.681 268.987C267.681 271.824 270.084 274.124 273.047 274.124C290.466 274.124 345.342 274.124 362.761 274.124C365.724 274.124 368.116 271.824 368.116 268.987C368.116 251.834 368.116 196.069 368.116 161.66Z" fill="url(#paint6_linear_2578_35383)"/>
<path d="M338.667 133.458L368.116 161.66L368.152 163.698H336.133V133.458H338.667Z" fill="#E3A222"/>
<path d="M267.681 167.594C291.442 163.949 319.189 163.972 342.189 173.767C348.602 176.489 351.993 183.665 352.077 188.221C352.85 227.004 335.454 252.187 300.901 272.04C299.771 272.701 297.879 273.452 295.713 274.124H280.805C275.593 270.366 272.143 264.295 267.681 260.604V167.594Z" fill="url(#paint7_linear_2578_35383)"/>
<path d="M353.397 255.752H282.411V260.377H353.397V255.752ZM353.397 244.294H282.411V248.918H353.397V244.294ZM353.397 232.836H282.411V237.46H353.397V232.836ZM353.397 221.377H282.411V226.002H353.397V221.377ZM353.397 209.919H282.411V214.543H353.397V209.919ZM353.397 198.449H282.411V203.085H353.397V198.449ZM353.397 186.979H282.411V191.615H353.397V186.979ZM353.397 175.51H282.411V180.146H353.397V175.51ZM353.397 164.04H282.411V168.676H353.397V164.04ZM353.397 152.57H282.411V157.206H353.397V152.57Z" fill="#C6880C"/>
<path d="M323.889 255.752C322.136 257.324 320.296 258.866 318.368 260.377H282.411V255.752H323.889ZM334.741 244.283C333.495 245.862 332.182 247.407 330.802 248.918H282.411V244.283H334.741ZM342.308 232.824C341.459 234.396 340.555 235.937 339.595 237.449H282.411V232.824H342.308ZM347.341 221.354C346.794 222.926 346.207 224.472 345.58 225.99H282.411V221.354H347.341ZM350.375 209.896C350.074 211.46 349.737 213.002 349.364 214.52H282.411V209.896H350.375ZM351.839 198.426C351.736 199.998 351.597 201.543 351.422 203.062H282.411V198.426H351.839ZM351.982 186.968C352.037 187.401 352.069 187.819 352.077 188.221C352.101 189.36 352.108 190.484 352.101 191.592H282.411V186.968H351.982ZM345.187 175.498C346.901 176.785 348.305 178.414 349.4 180.134H282.411V175.498H345.187ZM282.411 165.885C296.915 164.769 312.169 165.304 326.471 168.664H282.411V165.885Z" fill="#C6790C"/>
<path d="M336.133 152.57H353.397V157.206H336.133V152.57Z" fill="#AA6C0D"/>
<path d="M338.667 133.458L368.116 161.66H338.667V133.458Z" fill="#FFE8B9"/>
<path d="M278.984 186.74V113.742C278.984 83.3305 253.236 58.6711 221.455 58.6711C189.686 58.6711 163.926 83.3305 163.926 113.742V186.74H181.774V113.742C181.774 92.7614 199.538 75.7561 221.455 75.7561C243.372 75.7561 261.137 92.7614 261.137 113.742V186.74H278.984Z" fill="#839BD8"/>
<path d="M221.455 75.7562H221.586C243.444 75.8245 261.137 92.807 261.137 113.742V186.74H267.026C267.026 186.74 267.026 147.308 267.026 113.742C267.026 95.552 248.846 71.7583 221.455 71.7583C201.466 71.7583 176.384 85.0504 176.384 113.742C176.384 147.308 176.384 186.74 176.384 186.74H181.774V113.742C181.774 92.7615 199.538 75.7562 221.455 75.7562Z" fill="#677BC6"/>
<path d="M167.745 186.74C167.745 186.74 167.745 186.74 167.745 113.742C167.745 87.8409 187.937 61.5414 222.11 61.5414C252.129 61.5414 274.249 85.0845 276.474 113.742V186.74H278.984V113.742C278.984 83.3305 253.236 58.6711 221.455 58.6711C189.686 58.6711 163.926 83.3305 163.926 113.742V186.74H167.745Z" fill="#ADC4E9"/>
<path d="M289.503 180.35C289.503 177.047 286.707 174.371 283.256 174.371H159.667C156.216 174.371 153.408 177.047 153.408 180.35V268.145C153.408 271.448 156.216 274.124 159.667 274.124H283.256C286.707 274.124 289.503 271.448 289.503 268.145V180.35Z" fill="url(#paint8_linear_2578_35383)"/>
<path d="M169.102 174.371H159.667C156.216 174.371 153.408 177.047 153.408 180.35V268.145C153.408 271.448 156.216 274.124 159.667 274.124H169.102C169.661 274.124 170.113 273.691 170.113 273.168V175.327C170.113 174.804 169.661 174.371 169.102 174.371Z" fill="url(#paint9_linear_2578_35383)"/>
<path d="M283.256 174.371H233.294C233.294 174.371 227.69 177.583 226.893 181.205C220.479 210.101 245.276 264.192 273.249 274.124H283.256C286.706 274.124 289.502 271.448 289.502 268.145V180.35C289.502 177.047 286.706 174.371 283.256 174.371Z" fill="url(#paint10_linear_2578_35383)"/>
<path d="M214.78 219.931C212.52 218.097 211.08 215.352 211.08 212.288C211.08 206.752 215.768 202.265 221.55 202.265C227.333 202.265 232.021 206.752 232.021 212.288C232.021 215.42 230.522 218.222 228.166 220.056L232.021 234.817H210.889L214.78 219.931Z" fill="#AEC4FE"/>
<path d="M234.198 187.731C233.961 182.902 237.09 178.505 241.873 176.933C274.237 166.295 306.613 166.318 338.976 177.116C343.486 178.619 346.532 182.651 346.615 187.207C347.389 225.99 330.552 252.221 296.011 272.074C292.382 274.158 287.849 274.147 284.243 272.04C250.202 252.233 235.912 225.432 234.198 187.731Z" fill="url(#paint11_linear_2578_35383)"/>
<path d="M245.93 192.446C245.752 188.574 248.227 185.043 252.011 183.79C277.616 175.259 303.222 175.282 328.839 183.938C332.397 185.134 334.812 188.369 334.872 192.025C335.49 223.12 322.176 244.146 294.833 260.069C291.966 261.732 288.384 261.72 285.529 260.035C258.602 244.157 247.299 222.664 245.93 192.446Z" fill="url(#paint12_linear_2578_35383)"/>
<path fill-rule="evenodd" clip-rule="evenodd" d="M245.93 192.446C245.752 188.574 248.227 185.043 252.011 183.79C277.616 175.259 303.222 175.282 328.839 183.938C332.397 185.134 334.812 188.369 334.872 192.025C335.49 223.12 322.176 244.146 294.833 260.069C291.966 261.732 288.384 261.72 285.529 260.035C258.602 244.157 247.299 222.664 245.93 192.446ZM331.826 191.558C330.719 179.12 257.508 175.715 250.523 189.667C243.027 204.645 270.227 260.297 290.407 256.606C314.632 252.187 333.741 212.971 331.826 191.558Z" fill="#007977"/>
<path d="M286.338 221.343L306.934 201.627L315.227 209.577L286.493 237.095L286.338 236.947L286.183 237.095L265.587 217.391L273.892 209.44L286.338 221.343Z" fill="#DEFCF4"/>
<path d="M135.418 183.266C136.191 182.959 142.89 179.883 142.89 179.883C142.89 179.883 145.448 172.264 148.661 171.774C151.861 171.284 150.778 179.883 150.778 179.883C150.778 179.883 157.941 176.569 159.441 178.107C163.224 181.979 162.629 194.212 161.559 196.49C160.238 199.292 145.448 201.65 145.448 201.65C145.448 201.65 134.644 183.574 135.418 183.266Z" fill="#FABA97"/>
<path d="M162.249 192.697C162.233 192.902 162.217 193.103 162.201 193.301L152.611 195.829C152.456 195.875 152.289 195.784 152.242 195.636C152.206 195.476 152.289 195.328 152.456 195.283L162.249 192.697ZM162.296 187.389C162.304 187.579 162.312 187.773 162.32 187.97L151.611 190.784C151.457 190.829 151.29 190.738 151.242 190.59C151.207 190.442 151.29 190.283 151.457 190.237L162.296 187.389ZM161.523 182.321C161.57 182.503 161.618 182.689 161.665 182.879L150.743 185.761C150.588 185.795 150.421 185.704 150.374 185.556C150.326 185.408 150.421 185.248 150.588 185.203L161.523 182.321Z" fill="#E98A7B"/>
<path d="M141.45 180.544C143.151 183.426 149.969 195.032 153.051 200.112C149.172 201.057 145.448 201.65 145.448 201.65C145.448 201.65 137.048 187.583 135.596 184.064L135.548 183.221C136.381 182.868 139.558 181.41 141.45 180.544Z" fill="#E98A7B"/>
<path d="M76.5555 161.329C88.1328 168.14 104.124 194.895 104.124 194.895L138.332 178.984L152.194 207.983C152.194 207.983 114.643 233.041 94.7364 230.364C79.9823 228.393 60.2308 200.761 54.3173 187.629C46.0835 169.325 61.2779 152.331 76.5555 161.329Z" fill="url(#paint13_linear_2578_35383)"/>
<path fill-rule="evenodd" clip-rule="evenodd" d="M64.4548 159.29V164.723H80.5653V164.279C80.9857 164.644 81.4022 165.019 81.8147 165.407H81.2792V180.829H94.7959C94.9625 181.057 95.1291 181.284 95.2956 181.512H81.2792V196.934H97.3898V184.519C97.6357 184.868 97.8737 185.214 98.1037 185.556V196.934H114.214V190.203L114.928 189.872V196.934H131.039V182.378L131.753 182.036V196.934H146.911L147.232 197.618H131.753V213.04H144.032C143.651 213.26 143.258 213.488 142.854 213.723H131.753V219.76L131.491 219.896C131.396 219.942 131.3 219.988 131.205 220.033L131.039 220.113V213.723H114.928V227.061C114.69 227.144 114.452 227.228 114.214 227.311V213.723H98.1037V229.145H108.051C107.004 229.403 105.973 229.631 104.957 229.829H98.1037V230.569C97.8657 230.569 97.6278 230.565 97.3898 230.557V229.829H92.2972C91.6706 229.639 91.04 229.411 90.4054 229.145H97.3898V213.723H81.2792V223.313C81.0413 223.116 80.8033 222.915 80.5653 222.71V213.723H71.6772C71.4789 213.495 71.2806 213.267 71.0822 213.04H80.5653V197.618H64.4548V204.554C64.2168 204.22 63.9789 203.886 63.7409 203.552V197.618H59.8025C59.6597 197.39 59.5169 197.162 59.3741 196.934H63.7409V181.512H52.3897C52.3501 181.284 52.3104 181.057 52.2708 180.829H63.7409V165.407H55.6975C55.8641 165.171 56.0386 164.944 56.221 164.723H63.7409V159.484C63.9789 159.416 64.2168 159.351 64.4548 159.29ZM81.2792 197.618V213.04H97.3898V197.618H81.2792ZM98.1037 197.618V213.04H114.214V197.618H98.1037ZM114.928 197.618V213.04H131.039V197.618H114.928ZM147.863 198.939L148.577 200.431V210.283L148.303 210.454C148.2 210.515 148.101 210.576 148.006 210.636L147.863 210.728V198.939ZM64.4548 181.512V196.934H80.5653V181.512H64.4548ZM139.534 181.512H132.895L134.37 180.829H139.213L139.534 181.512ZM64.4548 165.407V180.829H80.5653V165.407H64.4548Z" fill="url(#paint14_linear_2578_35383)"/>
<path d="M131.062 182.366L138.332 178.984L152.194 207.983C152.194 207.983 149.565 209.737 145.341 212.254L131.062 182.366Z" fill="#FFF6F9"/>
<path d="M103.958 194.588L95.5576 198.654C95.3791 198.734 95.3077 198.939 95.4029 199.11C95.4862 199.281 95.7004 199.349 95.8788 199.258L104.279 195.203C104.458 195.112 104.529 194.907 104.446 194.747C104.351 194.577 104.136 194.508 103.958 194.588Z" fill="#910A0F"/>
<path d="M63.4078 203.973C63.4078 203.973 69.6069 213.347 77.7811 221.035C83.2782 226.195 89.6796 230.569 95.7002 230.911C104.517 231.4 115.368 227.983 125.208 223.689C139.927 217.277 152.396 208.928 152.396 208.928C152.551 208.825 152.599 208.609 152.48 208.461C152.373 208.301 152.147 208.267 151.98 208.37C151.98 208.37 139.57 216.685 124.911 223.063C115.178 227.311 104.458 230.706 95.7359 230.227C89.87 229.897 83.6471 225.58 78.2809 220.546C70.1661 212.914 64.0027 203.609 64.0027 203.609C63.9075 203.449 63.6814 203.404 63.5148 203.506C63.3483 203.609 63.3007 203.814 63.4078 203.973Z" fill="#910A0F"/>
</g>
<defs>
<linearGradient id="paint0_linear_2578_35383" x1="55.7902" y1="155.81" x2="55.7902" y2="246.477" gradientUnits="userSpaceOnUse">
<stop stop-color="#F86D73"/>
<stop offset="1" stop-color="#EA6680"/>
</linearGradient>
<linearGradient id="paint1_linear_2578_35383" x1="67.6533" y1="145.1" x2="160.226" y2="145.1" gradientUnits="userSpaceOnUse">
<stop stop-color="#F9878C"/>
<stop offset="1" stop-color="#F08EA2"/>
</linearGradient>
<linearGradient id="paint2_linear_2578_35383" x1="60.9209" y1="175.774" x2="60.9209" y2="244.935" gradientUnits="userSpaceOnUse">
<stop stop-color="#E5565C"/>
<stop offset="1" stop-color="#D12F60"/>
</linearGradient>
<linearGradient id="paint3_linear_2578_35383" x1="71.2987" y1="171.074" x2="158.82" y2="171.074" gradientUnits="userSpaceOnUse">
<stop stop-color="#E97378"/>
<stop offset="1" stop-color="#E45B84"/>
</linearGradient>
<linearGradient id="paint4_linear_2578_35383" x1="217.439" y1="58.3836" x2="217.439" y2="163.901" gradientUnits="userSpaceOnUse">
<stop stop-color="#88D6FA"/>
<stop offset="1" stop-color="#3673EC"/>
</linearGradient>
<linearGradient id="paint5_linear_2578_35383" x1="222.217" y1="86.3298" x2="280.247" y2="86.3298" gradientUnits="userSpaceOnUse">
<stop stop-color="#5F83E3"/>
<stop offset="1" stop-color="#2D53B4"/>
</linearGradient>
<linearGradient id="paint6_linear_2578_35383" x1="267.685" y1="161.657" x2="267.685" y2="256.78" gradientUnits="userSpaceOnUse">
<stop stop-color="#FAD351"/>
<stop offset="1" stop-color="#F5BA43"/>
</linearGradient>
<linearGradient id="paint7_linear_2578_35383" x1="267.685" y1="177.676" x2="267.685" y2="260.378" gradientUnits="userSpaceOnUse">
<stop stop-color="#F2B406"/>
<stop offset="1" stop-color="#E1930C"/>
</linearGradient>
<linearGradient id="paint8_linear_2578_35383" x1="153.409" y1="174.37" x2="153.409" y2="261.573" gradientUnits="userSpaceOnUse">
<stop stop-color="#1E2D92"/>
<stop offset="1" stop-color="#151B6D"/>
</linearGradient>
<linearGradient id="paint9_linear_2578_35383" x1="153.41" y1="174.371" x2="153.41" y2="261.574" gradientUnits="userSpaceOnUse">
<stop stop-color="#2F4FB7"/>
<stop offset="1" stop-color="#1B2D93"/>
</linearGradient>
<linearGradient id="paint10_linear_2578_35383" x1="225.872" y1="174.371" x2="225.872" y2="261.574" gradientUnits="userSpaceOnUse">
<stop stop-color="#1A2E7F"/>
<stop offset="1" stop-color="#111557"/>
</linearGradient>
<linearGradient id="paint11_linear_2578_35383" x1="234.182" y1="175.075" x2="234.182" y2="261.31" gradientUnits="userSpaceOnUse">
<stop stop-color="#55EFC4"/>
<stop offset="1" stop-color="#51F3A2"/>
</linearGradient>
<linearGradient id="paint12_linear_2578_35383" x1="245.924" y1="192.441" x2="245.924" y2="251.933" gradientUnits="userSpaceOnUse">
<stop stop-color="#00918C"/>
<stop offset="1" stop-color="#007274"/>
</linearGradient>
<linearGradient id="paint13_linear_2578_35383" x1="52.0061" y1="166.148" x2="52.0061" y2="227.769" gradientUnits="userSpaceOnUse">
<stop stop-color="#F86D73"/>
<stop offset="1" stop-color="#F25E7B"/>
</linearGradient>
<linearGradient id="paint14_linear_2578_35383" x1="47.1481" y1="159.286" x2="169.587" y2="159.286" gradientUnits="userSpaceOnUse">
<stop stop-color="#F9878C"/>
<stop offset="1" stop-color="#F08EA2"/>
</linearGradient>
<clipPath id="clip0_2578_35383">
<rect width="420" height="280" fill="white"/>
</clipPath>
</defs>
</svg>
