<svg width="1440" height="774" viewBox="0 0 1440 774" fill="none"
  xmlns="http://www.w3.org/2000/svg">
  <mask id="mask0_1_207" style="mask-type:alpha" maskUnits="userSpaceOnUse" x="0" y="0" width="1440" height="774">
    <path d="M0 0H1440V773.965C1440 773.965 1003.75 774.043 720.5 773.965C438.023 773.888 0 773.965 0 773.965V0Z" fill="#F4F1FF"/>
  </mask>
  <g mask="url(#mask0_1_207)">
    <path d="M357.238 -518.528C369.86 -543.089 400.002 -552.768 424.563 -540.147L1616.4 72.3261C1640.96 84.9477 1650.64 115.09 1638.02 139.651L1429.64 545.139C1417.02 569.698 1387.09 579.483 1362.53 566.865C1253.67 510.936 967.201 363.754 766.847 260.744C566.946 157.968 279.416 10.2383 170.286 -45.8285C145.721 -58.4487 136.245 -88.4883 148.868 -113.051L357.238 -518.528Z" fill="#E6DEFF"/>
    <path d="M1019.31 218.472C1031.94 193.911 1062.08 184.232 1086.64 196.853L1693.83 508.88C1718.39 521.502 1728.07 551.644 1715.44 576.205L1481.81 1030.85C1469.19 1055.4 1439.08 1065.1 1414.52 1052.48C1345.22 1016.89 1209.19 947.005 1111.14 896.565C1013.29 846.232 876.784 776.106 807.295 740.412C782.727 727.793 773.066 697.657 785.69 673.091L1019.31 218.472Z" fill="#F0ECFF"/>
    <path d="M-411.504 366.472C-398.882 341.911 -368.74 332.232 -344.179 344.853L263.008 656.88C287.569 669.502 297.248 699.644 284.626 724.205L50.9903 1178.85C38.371 1203.4 8.26421 1213.1 -16.2946 1200.48C-85.5962 1164.89 -221.624 1095 -319.681 1044.57C-417.53 994.232 -554.034 924.106 -623.523 888.412C-648.09 875.793 -657.752 845.657 -645.128 821.091L-411.504 366.472Z" fill="#F0ECFF"/>
  </g>
</svg>
