<svg width="404" height="281" viewBox="0 0 404 281" fill="currentColor"
  xmlns="http://www.w3.org/2000/svg">
  <path fill-rule="evenodd" clip-rule="evenodd" d="M134.75 11.75L85 12.019V105.998V199.977L46.25 200.238L7.5 200.5L12.5 202.866C15.25 204.168 19.3 205.829 21.5 206.557C23.7 207.286 29.1 209.29 33.5 211.011C37.9 212.732 43.525 214.847 46 215.712C48.475 216.576 50.95 217.611 51.5 218.011C52.05 218.412 54.3 219.301 56.5 219.988C58.7 220.674 61.85 221.827 63.5 222.548C65.15 223.27 69.425 224.98 73 226.348C76.575 227.717 82.425 229.968 86 231.35C89.575 232.732 96.775 235.494 102 237.488C107.225 239.482 112.918 241.763 114.651 242.557C116.384 243.351 118.095 244 118.452 244C119.415 244 135.104 249.994 138 251.469C139.375 252.169 142.3 253.289 144.5 253.958C146.7 254.627 150.363 256.014 152.64 257.041C154.916 258.067 158.066 259.22 159.64 259.602C161.213 259.985 163.388 260.906 164.473 261.649C165.557 262.392 167.009 263 167.697 263C168.386 263 171.897 264.35 175.5 266L182.05 269L255.275 268.994C298.28 268.991 330.968 268.584 334.479 268.009C339.964 267.111 352.818 262.445 354 260.923C354.275 260.569 355.85 259.585 357.5 258.738C360.816 257.034 374 243.794 374 242.169C374 241.604 374.568 240.548 375.263 239.821C378.007 236.951 382.155 225.108 383.194 217.182C385.581 198.968 380.224 182.241 367.56 168.366L361.13 161.32L366.315 156.402C385.414 138.286 389.368 107.996 375.754 84.094C374.06 81.121 369.698 75.705 366.06 72.06C358.927 64.913 351.415 60.759 322.5 47.974C318.049 46.006 310.361 42.545 301.5 38.519C299.85 37.769 295.125 35.597 291 33.692C273.922 25.806 272.081 25 271.145 25C270.607 25 270.017 24.644 269.833 24.21C269.36 23.086 259.19 19.309 247.5 15.913C235.093 12.31 221.221 10.931 200.5 11.241C191.7 11.373 162.113 11.602 134.75 11.75ZM334.409 81.096C349.582 85.309 360.475 102.369 358.538 118.883C358.176 121.972 356.725 126.829 355.314 129.676C352.985 134.374 351.263 136.434 344.235 142.935C342.989 144.087 338.544 146.148 334.357 147.515L326.745 150H257.807C212.198 150 188.214 149.65 186.934 148.965C185.08 147.973 185 146.521 185 113.965V80L257.75 80.006C306.975 80.009 331.764 80.362 334.409 81.096ZM335.091 176.341C342.299 178.534 351.985 186.227 353.484 190.949C353.842 192.077 354.496 193 354.937 193C357.887 193 359.471 212.496 357.172 220.5C355.641 225.834 349.613 233.574 343.672 237.836C335.162 243.941 334.793 243.967 257.832 243.984C219.514 243.993 187.452 243.727 186.582 243.393C185.182 242.856 185 238.877 185 208.893V175H257.841C315.899 175 331.577 175.272 335.091 176.341Z" fill="#DFDFDF"/>
  <path fill-rule="evenodd" clip-rule="evenodd" d="M135.5 12.02C108 12.34 85.388 12.691 85.25 12.801C85.112 12.91 85 55.3 85 107V201L47.25 201.07C9.563 201.14 9.508 201.143 14.5 202.957C19.259 204.686 21.835 205.681 40.5 213C44.9 214.726 49.733 216.524 51.24 216.996C53.982 217.855 57.806 219.333 78.65 227.585C84.783 230.013 90.115 232 90.499 232C90.883 232 92.616 232.649 94.349 233.443C96.082 234.237 101.775 236.518 107 238.512C112.225 240.506 119.425 243.268 123 244.65C130.776 247.656 139.586 251.041 148.756 254.545C156.737 257.595 170.381 263.268 177.78 266.613L183.059 269L254.78 268.98C322.338 268.962 337.283 268.463 341.759 266.078C342.717 265.568 345.525 264.401 348 263.484C354.139 261.21 363.569 254.283 369 248.056C373.7 242.667 379.946 231.719 379.98 228.809C379.991 227.879 380.403 226.869 380.896 226.564C381.389 226.26 382.324 222.263 382.974 217.683C384.876 204.282 382.211 191.042 375.204 179.086C372.394 174.291 371.375 173.037 364.816 166.302L360.727 162.105L366.827 155.447C373.758 147.883 377.683 141.387 380.992 132C384.25 122.758 384.264 106.315 381.021 97C377.618 87.226 373.493 80.598 366.139 73.092C360.45 67.285 350.742 60 348.692 60C348.344 60 345.683 58.932 342.78 57.627C339.876 56.322 333.675 53.557 329 51.484C324.325 49.41 316.225 45.713 311 43.267C305.775 40.822 299.475 37.922 297 36.823C292.417 34.788 288.698 33.071 274.5 26.434C261.94 20.563 255.265 18.115 244.5 15.433C231.143 12.104 219.634 10.994 201 11.236C192.475 11.347 163 11.7 135.5 12.02ZM337 81.484C340.991 82.921 344.199 85.164 348.696 89.659C354.285 95.249 355.141 96.673 357.446 104.229C360.545 114.389 360.564 115.321 357.851 123.791C354.195 135.207 348.316 141.943 337.5 147.111L332.5 149.5L261 149.786C221.675 149.943 188.488 149.821 187.25 149.516L185 148.962V114.541V80.121L188.75 79.712C190.813 79.488 223.775 79.349 262 79.404C328.615 79.499 331.728 79.586 337 81.484ZM336.461 176.25C344.216 179.139 353.924 188.359 356.203 195C360.774 208.322 360.796 208.612 357.948 218.174C354.124 231.016 346.772 238.722 334.708 242.533L326.897 245H257.148C204.233 245 187.11 244.71 186.2 243.8C185.313 242.913 185 233.644 185 208.3V174H257.711H330.421L336.461 176.25Z" fill="#B2B2B2"/>
  <path fill-rule="evenodd" clip-rule="evenodd" d="M103 12.964L85.5 13.5L85.245 119.23L84.991 224.96L87.495 225.588C88.873 225.934 90 226.545 90 226.946C90 227.347 92.475 228.516 95.5 229.545C98.525 230.573 101 231.681 101 232.006C101 232.332 102.688 233.192 104.75 233.918C106.813 234.645 112.699 237.21 117.831 239.619C122.963 242.029 127.379 244 127.644 244C127.909 244 131.135 245.412 134.813 247.137C138.491 248.863 143.975 251.388 147 252.748C150.025 254.109 153.85 255.84 155.5 256.595C157.15 257.35 163.675 260.256 170 263.054L181.5 268.141L257.852 268.022L334.204 267.903L341.852 265.485C366.535 257.681 383.022 235.1 382.987 209.145C382.966 193.138 377.429 179.567 366.264 168.159L360.028 161.787L366.403 155.412C384.599 137.216 388.262 109.559 375.663 85.5C369.491 73.715 358.441 64.779 340 56.658C333.436 53.768 325.703 50.226 313.435 44.49C308.45 42.159 303.275 39.915 301.935 39.504C300.596 39.092 299.05 38.408 298.5 37.985C296.97 36.806 264.357 22.146 257 19.33C253.425 17.962 245.1 15.763 238.5 14.445C226.656 12.078 225.812 12.049 173.5 12.238C144.35 12.342 112.625 12.669 103 12.964ZM336.056 81.157C341.377 82.938 343.633 84.464 349 89.911C354.542 95.537 355.831 97.55 357.75 103.575C360.531 112.309 360.58 117.002 357.968 124.592C354.185 135.588 349.808 140.727 339.5 146.272L333.5 149.5L260.731 149.775C210.861 149.964 187.339 149.717 185.981 148.99C184.066 147.965 184 146.8 184 114.131C184 95.543 184.3 80.033 184.667 79.667C185.033 79.3 217.796 79 257.472 79C328.704 79 329.693 79.027 336.056 81.157ZM337.649 176.526C348.331 181.412 354.326 188.047 357.904 198.944C360.507 206.875 360.517 211.807 357.945 219.496C354.036 231.184 346.881 238.471 335.301 242.558L328.5 244.958L257.821 244.979C194.883 244.998 186.971 244.828 185.571 243.429C184.206 242.063 184 237.5 184 208.595C184 190.301 184.3 175.033 184.667 174.667C185.033 174.3 218.362 174 258.731 174H332.128L337.649 176.526Z" fill="#999999"/>
  <path fill-rule="evenodd" clip-rule="evenodd" d="M104 12.966L85.5 13.5V118.958V224.416L98 230.125C104.875 233.265 111.625 236.354 113 236.989C115.771 238.268 162.748 259.359 167.5 261.456C169.15 262.185 173.018 263.955 176.096 265.39L181.693 268H257.033C330.666 268 332.543 267.952 339.9 265.888C350.317 262.965 357.29 258.806 365.611 250.553C388.528 227.822 388.805 191.184 366.235 168.128L359.97 161.728L365.235 156.446C371.726 149.935 371.858 149.763 375.626 143C391.029 115.353 381.216 79.53 353.847 63.49C350.572 61.57 347.686 60 347.433 60C346.863 60 321.612 48.692 309.731 43.115C304.908 40.852 300.787 39 300.573 39C300.36 39 294.044 36.075 286.538 32.5C279.032 28.925 272.643 26 272.34 26C272.038 26 269.696 24.948 267.137 23.663C260.027 20.092 247.66 16.308 235.699 14.044C225.594 12.132 221.602 12.014 173.699 12.216C145.54 12.334 114.175 12.672 104 12.966ZM114.99 49.921C115.27 50.34 117.75 51.507 120.5 52.514C123.25 53.521 125.95 54.666 126.5 55.059C127.05 55.453 130.65 57.016 134.5 58.534C140.433 60.873 161.193 69.807 171.5 74.456C182.419 79.382 177.26 79.104 256.406 79.025L330.33 78.951L336.915 81.48C346.783 85.27 354.021 92.8 357.874 103.288C360.607 110.728 360.59 118.238 357.824 125.661C354.032 135.837 349.105 141.322 339 146.618L333.5 149.5L260.19 149.775C188.724 150.043 186.817 150.001 184.393 148.094C183.025 147.018 180.577 145.846 178.953 145.49C177.329 145.133 176 144.457 176 143.988C176 143.519 174.988 142.824 173.75 142.445C172.512 142.065 166.441 139.335 160.257 136.377C154.074 133.42 148.819 131 148.579 131C148.339 131 141.249 127.695 132.822 123.655C124.395 119.615 115.599 115.453 113.276 114.405L109.052 112.5L109.026 80.142L109 47.783L111.74 48.471C113.247 48.849 114.709 49.502 114.99 49.921ZM123 147.031C127.157 149.029 132.305 151.394 142.5 155.993C144.7 156.985 148.975 158.926 152 160.306C155.025 161.686 159.75 163.799 162.5 165.003C165.25 166.206 170.727 168.722 174.672 170.595L181.844 174L257.172 174.001L332.5 174.002L338.87 177.015C351.023 182.764 358.759 194.12 359.766 207.685C360.747 220.909 351.615 235.673 338.791 241.595L332.5 244.5L259.607 244.775C198.038 245.008 186.464 244.832 185.107 243.641C184.223 242.866 178.55 239.883 172.5 237.011C153.251 227.876 142.628 222.873 138 220.765C135.525 219.637 128.46 216.304 122.301 213.357C116.141 210.411 110.629 208 110.051 208C109.337 208 109 197.278 109 174.596V141.192L113.75 143.03C116.362 144.041 120.525 145.841 123 147.031Z" fill="#7F7F7F"/>
  <path fill-rule="evenodd" clip-rule="evenodd" d="M120.832 12.962C102.314 13.258 86.911 13.753 86.602 14.063C86.294 14.372 85.92 61.613 85.771 119.043L85.5 223.461L89.5 225.66C91.7 226.869 112.625 236.453 136 246.957C159.375 257.462 179.281 266.494 180.236 267.028C181.317 267.633 210.047 268 256.326 268C326.619 268 331.094 267.894 338.259 266.062C359.986 260.505 375.549 244.948 380.992 223.345C384.471 209.54 382.926 195.787 376.461 183C373.286 176.721 366.28 167.667 361.77 164.015L359.585 162.246L366.154 155.151C388.971 130.506 388.539 96.325 365.114 72.879C357.534 65.293 353.394 62.811 335 54.829C329.195 52.309 326.742 51.184 313.717 45.066C307.786 42.279 302.733 40 302.489 40C302.244 40 298.546 38.362 294.272 36.361C259.113 19.897 251.202 16.989 233.5 14.022C220.583 11.857 201.343 11.676 120.832 12.962ZM118.414 50.846C119.011 51.296 121.075 52.254 123 52.975C126.448 54.265 128.942 55.347 140.188 60.429C143.317 61.843 146.197 63 146.588 63C146.98 63 149.595 64.083 152.4 65.406C155.205 66.73 160.875 69.256 165 71.02C169.125 72.784 174.422 75.121 176.771 76.213C180.902 78.134 183.491 78.203 256.271 78.349L331.5 78.5L337.345 80.925C350.343 86.318 360 100.63 360 114.5C360 127.476 351.886 140.524 340 146.66L334.5 149.5L260.625 149.775C189.445 150.04 186.632 149.98 183.514 148.141C181.734 147.09 176.277 144.425 171.389 142.217C166.5 140.01 157.55 135.857 151.5 132.988C145.45 130.12 136.9 126.081 132.5 124.014C128.1 121.947 121.013 118.617 116.75 116.614L109 112.973V80.031V47.089L113.164 48.558C115.454 49.366 117.816 50.395 118.414 50.846ZM128.5 149.008C151.48 159.542 163.893 165 164.868 165C165.49 165 166 165.36 166 165.799C166 166.239 167.688 167.194 169.75 167.922C171.813 168.65 174.175 169.802 175 170.481C179.077 173.839 182.889 174 258.399 174.001L333.5 174.002L339.5 176.865C351.281 182.486 359.002 194.071 359.796 207.316C360.208 214.19 359.928 215.969 357.471 222.072C354.272 230.019 347.328 237.61 339.354 241.879L334.5 244.477L261.222 244.764L187.944 245.05L177.722 240.148C172.1 237.453 164.125 233.664 160 231.729C155.875 229.795 147.55 225.862 141.5 222.989C135.45 220.116 127.125 216.216 123 214.323C118.875 212.429 114.037 210.129 112.25 209.212L109 207.545V173.825V140.105L115.75 143.181C119.463 144.873 125.2 147.495 128.5 149.008Z" fill="#484848"/>
  <path fill-rule="evenodd" clip-rule="evenodd" d="M104.25 13.749L86 14.045V118.912V223.78L90.75 226.034C93.362 227.274 97.975 229.378 101 230.71C104.025 232.041 108.525 234.06 111 235.195C123.296 240.836 136.092 246.635 142 249.245C143.925 250.096 148.65 252.227 152.5 253.98C156.35 255.734 161.3 257.985 163.5 258.983C165.7 259.981 170.512 262.204 174.193 263.923L180.887 267.048L256.693 267.003C339.618 266.954 339.283 266.976 350.76 261.06C366.122 253.143 378.088 237.794 380.944 222.345C382.32 214.904 382.291 202.456 380.884 195.893C378.713 185.772 373.249 176.148 364.865 167.678L359.102 161.857L364.365 156.678C376.802 144.443 382 132.01 382 114.5C382 97.515 376.816 84.598 365.545 73.5C357.728 65.803 353.937 63.556 334 54.801C331.525 53.714 327.25 51.774 324.5 50.49C291.184 34.935 257.719 20.232 250.5 17.979C236.038 13.465 228.888 13.022 174 13.244C145.675 13.358 114.287 13.585 104.25 13.749ZM120.249 51.075C125.337 53.316 130.85 55.777 132.5 56.543C134.15 57.31 138.875 59.342 143 61.059C147.125 62.775 152.3 64.972 154.5 65.941C156.7 66.91 161.875 69.145 166 70.907C170.125 72.669 175.3 75.007 177.5 76.103C181.377 78.034 183.821 78.101 257 78.298L332.5 78.5L339 81.595C346.92 85.365 353.015 91.296 356.718 98.835C359.234 103.959 359.497 105.503 359.467 115C359.437 124.406 359.156 126.021 356.778 130.5C352.598 138.372 342.732 146.87 335.416 148.902C332.762 149.638 308.133 149.991 259.014 149.994L186.529 150L181.514 147.585C178.756 146.257 173.35 143.727 169.5 141.964C165.65 140.201 158.9 137.048 154.5 134.959C150.1 132.869 141.1 128.633 134.5 125.545C127.9 122.457 119.463 118.483 115.75 116.715L109 113.5V80.25C109 58.78 109.354 47 109.999 47C110.548 47 115.16 48.834 120.249 51.075ZM116.638 143.129C120.412 144.849 125.975 147.353 129 148.693C132.025 150.033 135.85 151.757 137.5 152.525C158.05 162.082 162.268 164 162.739 164C163.042 164 167.387 166.066 172.394 168.591L181.498 173.182L257.499 173.341L333.5 173.5L339.252 176.415C346.412 180.043 353.325 186.759 356.75 193.414C358.856 197.507 359.451 200.296 359.8 207.701C360.21 216.379 360.056 217.284 357.092 223.616C353.624 231.028 348.124 236.96 340.5 241.514L335.5 244.5L261.179 244.775L186.857 245.05L176.679 240.158C159.272 231.792 134.679 220.211 123 214.879C118.325 212.745 113.375 210.419 112 209.711L109.5 208.424L109.237 174.212C109.092 155.395 109.154 140 109.375 140C109.595 140 112.863 141.408 116.638 143.129Z" fill="#202020"/>
  <path fill-rule="evenodd" clip-rule="evenodd" d="M120.342 13.749L87.185 14.027L86.842 65.263C86.654 93.444 86.655 140.668 86.844 170.206L87.188 223.913L91.844 226.019C94.405 227.178 98.3 228.973 100.5 230.009C102.7 231.045 107.088 233.042 110.25 234.447C113.412 235.851 118.362 238.082 121.25 239.405C132.051 244.353 137.565 246.745 139.75 247.43C140.988 247.817 142 248.554 142 249.067C142 249.58 142.694 250 143.542 250C144.39 250 148.102 251.388 151.792 253.084C155.481 254.781 160.3 256.988 162.5 257.99C164.7 258.991 169.922 261.428 174.105 263.405L181.71 267H255.671C331.201 267 337.444 266.727 345.5 263.075C347.7 262.077 350.512 260.947 351.75 260.563C352.988 260.179 354 259.476 354 259C354 258.524 355.011 257.814 356.248 257.421C359.092 256.519 371.542 244.018 372.452 241.151C372.828 239.968 373.524 239 374 239C374.476 239 375.179 237.988 375.563 236.75C375.947 235.512 377.077 232.7 378.075 230.5C380.334 225.517 382 216.392 382 209C382 202.972 380.291 192.147 379.08 190.5C378.675 189.95 377.517 187.263 376.505 184.529C375.493 181.794 373.841 178.672 372.833 177.59C371.825 176.508 371 175.291 371 174.886C371 173.958 361.648 164.462 359.611 163.322C358.399 162.644 359.319 161.219 364.236 156.163C370.181 150.05 376.994 140.645 377.006 138.534C377.01 137.965 377.664 136.251 378.46 134.724C383.027 125.97 383.027 103.03 378.46 94.276C377.664 92.749 377.01 90.983 377.006 90.35C377.003 89.718 375.425 86.861 373.5 84C371.575 81.139 370 78.618 370 78.398C370 78.177 368.088 76.162 365.75 73.921C359.911 68.322 351.741 62.932 344 59.57C340.425 58.017 335.25 55.74 332.5 54.511C329.75 53.281 326.488 51.958 325.25 51.57C324.012 51.183 323 50.446 323 49.933C323 49.42 322.292 49 321.426 49C320.56 49 314.684 46.525 308.368 43.5C302.051 40.475 296.696 38 296.467 38C296.238 38 293.103 36.65 289.5 35C285.897 33.35 282.511 32 281.975 32C281.439 32 281 31.55 281 31C281 30.45 280.522 30 279.938 30C279.354 30 276.542 28.907 273.688 27.572C256.492 19.525 247.534 16.673 232.5 14.458C223.525 13.137 206.491 13.029 120.342 13.749ZM112.559 47.468C113.626 48.276 115.09 48.951 115.812 48.968C116.533 48.986 119.458 50.082 122.312 51.404C125.165 52.726 130.875 55.253 135 57.019C139.125 58.786 144.876 61.304 147.78 62.616C150.683 63.927 153.299 65 153.592 65C153.884 65 156.683 66.149 159.812 67.553C162.94 68.957 166.85 70.707 168.5 71.442C170.15 72.177 173.997 73.942 177.049 75.364L182.599 77.951L258.049 78.225L333.5 78.5L340.076 81.78C352.494 87.973 359.238 98.035 359.853 111.289C360.271 120.28 359.405 127.426 357.679 129.238C357.018 129.932 355.895 131.812 355.185 133.415C352.437 139.613 343.65 146.499 335 149.232C329.994 150.815 323.139 150.972 258.643 150.985L187.786 151L181.643 148.108C178.264 146.517 172.8 143.983 169.5 142.477C166.2 140.971 159 137.608 153.5 135.005C148 132.401 138.778 128.073 133.008 125.386C127.237 122.698 119.362 118.925 115.508 117L108.5 113.5L108.237 79.75C107.957 43.888 107.945 43.978 112.559 47.468ZM116.812 142.599C119.94 144.028 124.975 146.324 128 147.701C131.025 149.078 135.75 151.244 138.5 152.515C141.25 153.785 145.525 155.726 148 156.828C159.861 162.108 167.179 165.487 174.694 169.156L182.888 173.155L258.694 173.328L334.5 173.5L340.155 176.366C347.311 179.991 353.096 185.866 356.969 193.439C359.677 198.734 360 200.321 360 208.317C360 217.102 358.505 225 356.842 225C356.379 225 356 225.708 356 226.574C356 229.067 345.541 239.37 340.282 242.057L335.5 244.5L260.536 244.775L185.571 245.05L176.536 240.68C171.566 238.276 165.025 235.159 162 233.753C158.975 232.346 151.775 228.955 146 226.217C140.225 223.479 130.1 218.699 123.5 215.595C116.9 212.49 110.825 209.575 110 209.116C108.72 208.405 108.461 203.265 108.237 174.141C107.938 135.374 107.171 138.194 116.812 142.599Z" fill="black"/>
</svg>
